<svg width="20" height="21" viewBox="0 0 20 21" fill="none" xmlns="http://www.w3.org/2000/svg">
<path d="M8.51428 2.21607L8.50517 2.21668L8.44205 2.20302L8.42542 2.20383L8.41511 2.20981L8.36571 2.25187C8.35791 2.25665 8.35125 2.25693 8.34571 2.25269L8.34058 2.24553L8.2432 1.90825L8.24324 1.89133L8.24861 1.87898L8.31651 1.79929L8.32761 1.79311L8.3379 1.79389L8.43482 1.832L8.44746 1.84234L8.45397 1.85507L8.52422 2.19835C8.5242 2.20737 8.52088 2.21328 8.51428 2.21607ZM8.74641 2.25304L8.73572 2.25405L8.57089 2.21701L8.56101 2.21105L8.55648 2.20289L8.48643 1.85702L8.48804 1.84647L8.49301 1.8393L8.63404 1.72509C8.64342 1.7199 8.6516 1.72009 8.65858 1.72566L8.6645 1.736L8.75794 2.23153C8.75766 2.24175 8.75381 2.24892 8.74641 2.25304ZM8.17947 2.3944C8.17651 2.3974 8.1725 2.39914 8.1683 2.39926C8.16409 2.39938 8.16001 2.39786 8.1569 2.39502L8.1494 2.38507L8.00208 1.90314C8.00025 1.89346 8.00317 1.88596 8.01084 1.88064L8.02312 1.87923L8.20062 1.91307L8.21011 1.91744L8.21544 1.9254L8.31322 2.26427L8.31319 2.27442L8.30723 2.28438L8.17947 2.3944Z" fill="#A5BCF3"/>
<path d="M18.4662 16.416C18.6165 16.417 18.7642 16.3764 18.8932 16.2985C19.0223 16.2207 19.1276 16.1087 19.1976 15.9748C19.2676 15.8409 19.2996 15.6903 19.2901 15.5395C19.2805 15.3888 19.2298 15.2438 19.1436 15.1204L11.3441 3.97249C11.2669 3.86206 11.1637 3.77259 11.0437 3.71202C10.9237 3.65145 10.7906 3.62166 10.6562 3.62528C10.5218 3.62889 10.3902 3.66582 10.2731 3.73277C10.1561 3.79972 10.0572 3.89462 9.98519 4.00907L7.93807 7.26312L6.74822 6.54624C6.11908 6.16682 5.3446 6.74306 5.5212 7.46007L6.16639 10.0796L3.0242 15.0739C2.94625 15.1978 2.90258 15.3404 2.89773 15.4867C2.89287 15.6331 2.927 15.7779 2.99659 15.9063C3.06617 16.0347 3.16868 16.1419 3.2935 16.2168C3.41833 16.2918 3.56092 16.3318 3.70653 16.3326L18.4662 16.416ZM15.9451 13.4093L8.3062 9.74607L10.7091 5.92581L15.9451 13.4093ZM14.9469 14.7528L5.19086 14.6989L7.42593 11.1478L14.9472 14.7544L14.9469 14.7528Z" fill="#A5BCF3"/>
</svg>
