<svg width="17" height="17" viewBox="0 0 17 17" fill="none" xmlns="http://www.w3.org/2000/svg">
<path d="M16.2419 8.72712L16.2435 8.71813L16.2722 8.66023L16.2754 8.6439L16.2721 8.63245L16.2433 8.57431C16.2406 8.56558 16.242 8.55905 16.2474 8.55471L16.2556 8.55148L16.6064 8.53906L16.6228 8.54322L16.6335 8.55144L16.6943 8.63668L16.6976 8.64895L16.6943 8.65874L16.6338 8.74348L16.6207 8.75323L16.6068 8.75644L16.2567 8.74107C16.2479 8.73885 16.243 8.7342 16.2419 8.72712ZM16.1496 8.94328L16.1512 8.93267L16.2272 8.78181L16.2354 8.77367L16.2444 8.77126L16.597 8.78745L16.6068 8.79158L16.6125 8.79814L16.689 8.96272C16.6918 8.97308 16.6896 8.98097 16.6825 8.98639L16.671 8.98961L16.1677 8.95971C16.1578 8.95694 16.1518 8.95147 16.1496 8.94328ZM16.1504 8.35899C16.1482 8.35538 16.1475 8.35107 16.1484 8.34697C16.1493 8.34286 16.1518 8.33927 16.1553 8.33695L16.1668 8.33209L16.6701 8.30643C16.6799 8.30702 16.6865 8.31167 16.6897 8.32041L16.6881 8.33266L16.6121 8.49659L16.6056 8.50474L16.5966 8.50797L16.2441 8.52037L16.2342 8.51788L16.226 8.50967L16.1504 8.35899Z" fill="#A5BCF3"/>
<path d="M0.0478789 14.9258C0.0103109 15.0712 0.0137711 15.2244 0.0578792 15.3685C0.101987 15.5126 0.185035 15.642 0.297889 15.7425C0.410744 15.843 0.549035 15.9106 0.697554 15.9381C0.846073 15.9655 0.999068 15.9516 1.13972 15.8979L13.8501 11.0446C13.976 10.9966 14.0879 10.9183 14.1758 10.8166C14.2638 10.715 14.325 10.5931 14.3542 10.4619C14.3834 10.3306 14.3796 10.194 14.3432 10.0642C14.3067 9.93436 14.2387 9.81534 14.1452 9.71768L11.4869 6.94044L12.4717 5.96074C12.9928 5.44279 12.6222 4.5514 11.8838 4.54827L9.18604 4.53685L5.10614 0.274099C5.00488 0.168333 4.87726 0.0913072 4.73649 0.050995C4.59571 0.0106828 4.4469 0.00854974 4.30546 0.0448167C4.16401 0.0810837 4.03508 0.154432 3.93201 0.257269C3.82894 0.360106 3.75547 0.488692 3.71922 0.629716L0.0478789 14.9258ZM3.57756 13.2118L8.98899 6.6935L12.1099 9.95359L3.57756 13.2118ZM2.51725 11.9167L4.94278 2.46689L7.84349 5.49868L2.51561 11.9167L2.51725 11.9167Z" fill="#A5BCF3"/>
</svg>
