<svg width="41" height="42" viewBox="0 0 41 42" fill="none" xmlns="http://www.w3.org/2000/svg">
<path d="M23.4027 36.3747L23.4209 36.3732L23.5477 36.3983L23.5809 36.396L23.6014 36.3837L23.6987 36.2977C23.7142 36.2879 23.7275 36.2871 23.7387 36.2954L23.7492 36.3095L23.9563 36.9811L23.9568 37.0149L23.9465 37.0398L23.8135 37.2018L23.7915 37.2146L23.7709 37.2134L23.5755 37.1406L23.5498 37.1204L23.5364 37.0951L23.3834 36.4106C23.3831 36.3925 23.3895 36.3805 23.4027 36.3747ZM22.9367 36.3091L22.9581 36.3067L23.2893 36.3749L23.3093 36.3865L23.3187 36.4026L23.4713 37.0924L23.4685 37.1135L23.4588 37.1281L23.1806 37.3617C23.162 37.3725 23.1456 37.3724 23.1315 37.3615L23.1193 37.341L22.9144 36.3526C22.9146 36.3321 22.922 36.3176 22.9367 36.3091ZM24.0663 36.0058C24.0722 35.9996 24.0801 35.996 24.0885 35.9956C24.0969 35.9952 24.1052 35.9981 24.1115 36.0037L24.1269 36.0233L24.4391 36.9826C24.4431 37.0019 24.4375 37.0171 24.4224 37.028L24.3978 37.0312L24.0413 36.9699L24.0222 36.9615L24.0112 36.9458L23.8033 36.271L23.803 36.2507L23.8146 36.2306L24.0663 36.0058Z" fill="#A5BCF3"/>
<path d="M2.98787 8.33154C2.68736 8.33484 2.39331 8.4214 2.13804 8.58172C1.88277 8.74203 1.67616 8.96989 1.54095 9.24024C1.40575 9.51058 1.34716 9.81294 1.37165 10.1141C1.39614 10.4152 1.50275 10.7034 1.67975 10.947L17.6803 32.9632C17.8386 33.1813 18.0482 33.3565 18.2904 33.4733C18.5325 33.5901 18.7999 33.645 19.0686 33.6329C19.3373 33.6208 19.5991 33.5422 19.8308 33.4041C20.0625 33.266 20.2569 33.0726 20.3968 32.8411L24.3741 26.2592L26.7797 27.6502C28.0517 28.3864 29.58 27.2061 29.2009 25.7783L27.8163 20.5623L33.9213 10.4603C34.0727 10.2096 34.1549 9.923 34.1594 9.63011C34.1638 9.33722 34.0904 9.04871 33.9466 8.79447C33.8028 8.54022 33.5939 8.32947 33.3415 8.18404C33.0892 8.0386 32.8025 7.96377 32.5113 7.96729L2.98787 8.33154ZM8.1385 14.2545L23.5485 21.3063L18.8799 29.0336L8.1385 14.2545ZM10.0867 11.5315L29.6013 11.2882L25.2587 18.4711L10.0858 11.5283L10.0867 11.5315Z" fill="#A5BCF3"/>
</svg>
