<svg width="33" height="27" viewBox="0 0 33 27" fill="none" xmlns="http://www.w3.org/2000/svg">
<path d="M31.3593 0.713376C31.6598 0.716671 31.9539 0.803236 32.2091 0.963553C32.4644 1.12387 32.671 1.35173 32.8062 1.62207C32.9414 1.89242 33 2.19478 32.9755 2.4959C32.951 2.79702 32.8444 3.08525 32.6674 3.32888L16.6669 25.345C16.5085 25.5631 16.299 25.7383 16.0568 25.8552C15.8146 25.972 15.5473 26.0268 15.2786 26.0147C15.0099 26.0026 14.748 25.9241 14.5164 25.7859C14.2847 25.6478 14.0903 25.4545 13.9504 25.223L9.97304 18.641L7.56748 20.032C6.2955 20.7682 4.76721 19.5879 5.14622 18.1602L6.53087 12.9442L0.425904 2.84216C0.274444 2.59147 0.192235 2.30484 0.187788 2.01195C0.183341 1.71905 0.256818 1.43055 0.400611 1.1763C0.544404 0.922054 0.753288 0.711304 1.00563 0.565871C1.25798 0.420439 1.54462 0.345609 1.83587 0.349129L31.3593 0.713376ZM26.2087 6.63629L10.7986 13.6882L15.4673 21.4154L26.2087 6.63629ZM24.2605 3.91329L4.74588 3.67007L9.08845 10.8529L24.2613 3.91011L24.2605 3.91329Z" fill="#A5BCF3"/>
</svg>
