<svg width="81" height="81" viewBox="0 0 81 81" fill="none" xmlns="http://www.w3.org/2000/svg">
<path d="M49.7372 4.32878C49.4413 4.15432 49.0254 4.17301 48.569 4.44249L7.611 28.1038C6.70442 28.6272 5.98009 29.8905 5.98009 30.9326L6.06732 60.9447L4.17317 59.8418L4.08594 29.8313C4.08594 28.7877 4.81182 27.5259 5.7184 27.001L46.6748 3.33965C47.1312 3.07795 47.5471 3.05147 47.8431 3.22593L49.7372 4.32878Z" fill="#C4C6C6"/>
<path d="M48.5703 4.4395C49.4738 3.91767 50.2106 4.33669 50.2137 5.37723L50.2994 35.3862L6.06401 60.9432L5.98146 30.9327C5.97834 29.8922 6.7089 28.6273 7.61392 28.104L48.5703 4.4395Z" fill="#3D566E"/>
<path d="M48.2821 34.2255L8.06561 57.4585L7.99707 30.9232C7.99707 30.6023 8.33353 30.012 8.61703 29.8515L48.198 6.97681L48.2821 34.2255Z" fill="white"/>
<path d="M6.06714 60.9432L6.0796 63.9231L32.0089 77.4906C32.9077 78.0155 34.3657 78.0155 35.2723 77.4906L76.2287 53.8292C76.6851 53.5691 76.9141 53.2186 76.9141 52.8759L76.9001 51.4148C76.9001 51.7575 76.6727 52.1002 76.2147 52.3619L6.06714 60.9432Z" fill="#C4C6C6"/>
<path d="M76.2148 52.3603L35.2661 76.02C34.3596 76.5465 32.8953 76.5465 31.9965 76.02L6.07031 60.9369L50.3072 35.3845L76.2319 50.4692C77.1291 50.9864 77.1291 51.8369 76.2163 52.3618L76.2148 52.3603Z" fill="#ECF0F1"/>
<path d="M52.1375 37.595V37.9314L64.7781 45.2713L65.0679 45.1046L52.1375 37.595Z" fill="#D4D6D6"/>
<path d="M9.83691 62.071L10.1266 62.2408L52.1376 37.9314V37.595L9.83691 62.071Z" fill="#E0E2E2"/>
<path d="M64.7781 45.2712L52.1374 37.9314L10.1265 62.2407L22.7173 69.5619L64.7781 45.2712Z" fill="#C4C6C6"/>
<path d="M52.8339 63.6894L42.9021 69.4684C42.3615 69.7799 41.6964 69.7799 41.1777 69.4684L34.8394 65.8094C34.7069 65.7345 34.5967 65.6257 34.52 65.4942C34.4433 65.3627 34.4028 65.2132 34.4028 65.0609C34.4028 64.9087 34.4433 64.7592 34.52 64.6277C34.5967 64.4962 34.7069 64.3874 34.8394 64.3124L44.751 58.5521C45.0145 58.3959 45.3144 58.3118 45.6206 58.3082C45.9269 58.3047 46.2287 58.3818 46.4957 58.5318L52.8137 62.1924C52.9449 62.2673 53.0543 62.3751 53.1311 62.5052C53.2078 62.6354 53.2493 62.7833 53.2513 62.9343C53.2534 63.0854 53.2159 63.2344 53.1427 63.3665C53.0695 63.4987 52.9631 63.611 52.8339 63.6894Z" fill="#E0E2E2"/>
<path d="M42.0311 69.8267C41.7118 69.8267 41.3925 69.7426 41.1121 69.5744L34.7785 65.9154C34.6269 65.8304 34.5007 65.7065 34.4131 65.5564C34.3254 65.4063 34.2795 65.2356 34.28 65.0618C34.28 64.7035 34.467 64.3842 34.7785 64.205L44.6885 58.4462C44.9711 58.2797 45.2925 58.1902 45.6204 58.1866C45.9484 58.1831 46.2716 58.2656 46.5578 58.426L52.8742 62.085C53.1857 62.2626 53.3727 62.5835 53.3742 62.9402C53.3772 63.1123 53.3345 63.2821 53.2505 63.4323C53.1665 63.5825 53.0442 63.7078 52.896 63.7954L42.9642 69.5744C42.6807 69.7389 42.3589 69.8259 42.0311 69.8267ZM45.6527 58.4322C45.3573 58.4328 45.0671 58.5113 44.8116 58.6597L34.9016 64.4184C34.7874 64.4825 34.6926 64.5759 34.6268 64.6891C34.5611 64.8022 34.5268 64.9309 34.5277 65.0618C34.5277 65.3281 34.6663 65.568 34.9016 65.702L41.2382 69.3626C41.7227 69.6538 42.3364 69.6523 42.8396 69.3626L52.7714 63.5835C52.8826 63.5179 52.9744 63.4238 53.0373 63.3111C53.1003 63.1983 53.1322 63.0709 53.1297 62.9417C53.1291 62.8106 53.0938 62.682 53.0273 62.569C52.9608 62.456 52.8655 62.3626 52.7512 62.2984L46.4347 58.6378C46.1966 58.5018 45.9269 58.4309 45.6527 58.4322Z" fill="#C4C6C6"/>
<path d="M40.7617 45.022L40.7633 45.2385L42.4347 46.2105V45.994L40.7617 45.022Z" fill="#525566"/>
<path d="M42.4346 45.9941V46.2106L44.1231 45.237L44.1216 45.0205L42.4346 45.9941Z" fill="#474B59"/>
<path d="M40.7617 45.0219L42.4347 45.9939L44.1217 45.0203L42.4487 44.0483L40.7617 45.0219Z" fill="#5B5E71"/>
<path d="M38.1323 46.5408L38.1339 46.7573L39.8068 47.7293L39.8053 47.5128L38.1323 46.5408Z" fill="#525566"/>
<path d="M39.8052 47.5126L39.8067 47.7291L41.4937 46.754L41.4922 46.5391L39.8052 47.5126Z" fill="#474B59"/>
<path d="M38.1323 46.5408L39.8053 47.5128L41.4923 46.5392L39.8193 45.5657L38.1323 46.5408Z" fill="#5B5E71"/>
<path d="M35.4998 48.061L35.5013 48.276L37.1743 49.2496L37.1727 49.033L35.4998 48.061Z" fill="#525566"/>
<path d="M37.1729 49.033L37.1744 49.2495L38.8614 48.2744L38.8598 48.0579L37.1729 49.033Z" fill="#474B59"/>
<path d="M35.4998 48.0611L37.1727 49.0331L38.8597 48.0579L37.1867 47.0859L35.4998 48.0611Z" fill="#5B5E71"/>
<path d="M32.8674 49.5798L32.869 49.7964L34.5419 50.7684L34.5404 50.5518L32.8674 49.5798Z" fill="#525566"/>
<path d="M34.5403 50.5517L34.5418 50.7682L36.2288 49.7946L36.2273 49.5781L34.5403 50.5517Z" fill="#474B59"/>
<path d="M32.8674 49.5798L34.5404 50.5518L36.2274 49.5782L34.5544 48.6062L32.8674 49.5798Z" fill="#5B5E71"/>
<path d="M30.238 51.0986L30.2396 51.3152L31.9126 52.2872L31.911 52.0706L30.238 51.0986Z" fill="#525566"/>
<path d="M31.9109 52.0706L31.9124 52.2872L33.5963 51.3152L33.5948 51.0986L31.9109 52.0706Z" fill="#474B59"/>
<path d="M30.238 51.0985L31.911 52.0705L33.5949 51.0985L31.9219 50.1265L30.238 51.0985Z" fill="#5B5E71"/>
<path d="M27.6055 52.6172L27.607 52.8337L29.28 53.8057L29.2784 53.5907L27.6055 52.6172Z" fill="#525566"/>
<path d="M29.2783 53.5908L29.2799 53.8058L30.9669 52.8322V52.6157L29.2783 53.5908Z" fill="#474B59"/>
<path d="M27.6055 52.6174L29.2784 53.5909L30.967 52.6158L29.294 51.6438L27.6055 52.6174Z" fill="#5B5E71"/>
<path d="M24.9729 54.1377L24.9745 54.3542L26.6474 55.3262L26.6459 55.1097L24.9729 54.1377Z" fill="#525566"/>
<path d="M26.646 55.1095L26.6476 55.3261L28.3345 54.3525V54.136L26.646 55.1095Z" fill="#474B59"/>
<path d="M24.9729 54.1376L26.6459 55.1096L28.3344 54.1361L26.6614 53.1641L24.9729 54.1376Z" fill="#5B5E71"/>
<path d="M22.3403 55.658L22.3419 55.8745L24.0149 56.8465L24.0133 56.63L22.3403 55.658Z" fill="#525566"/>
<path d="M24.0134 56.6298L24.015 56.8463L25.702 55.8728V55.6562L24.0134 56.6298Z" fill="#474B59"/>
<path d="M22.3403 55.6579L24.0133 56.6299L25.7018 55.6563L24.0289 54.6843L22.3403 55.6579Z" fill="#5B5E71"/>
<path d="M19.7126 57.175V57.3916L21.3856 58.3636L21.3841 58.1486L19.7126 57.175Z" fill="#525566"/>
<path d="M21.384 58.1487L21.3856 58.3637L23.0726 57.3901V57.1736L21.384 58.1487Z" fill="#474B59"/>
<path d="M19.7126 57.175L21.3841 58.1485L23.0726 57.1734L21.3996 56.2014L19.7126 57.175Z" fill="#5B5E71"/>
<path d="M17.0786 58.6953L17.0802 58.9118L18.7531 59.8838L18.7516 59.6673L17.0786 58.6953Z" fill="#525566"/>
<path d="M18.7515 59.6674L18.753 59.8839L20.44 58.9104V58.6938L18.7515 59.6674Z" fill="#474B59"/>
<path d="M17.0786 58.6955L18.7516 59.6675L20.4401 58.6939L18.7672 57.7219L17.0786 58.6955Z" fill="#5B5E71"/>
<path d="M14.446 60.2158L14.4476 60.4323L16.1206 61.4043L16.119 61.1878L14.446 60.2158Z" fill="#525566"/>
<path d="M16.1189 61.1877L16.1205 61.4042L17.8074 60.4306V60.2141L16.1189 61.1877Z" fill="#474B59"/>
<path d="M14.446 60.2157L16.119 61.1877L17.8075 60.2142L16.1346 59.2422L14.446 60.2157Z" fill="#5B5E71"/>
<path d="M11.8181 61.7329V61.9494L13.4911 62.9214V62.7065L11.8181 61.7329Z" fill="#525566"/>
<path d="M13.4912 62.7065V62.9214L15.1751 61.9494V61.7329L13.4912 62.7065Z" fill="#474B59"/>
<path d="M11.8181 61.733L13.4911 62.7065L15.1749 61.733L13.502 60.761L11.8181 61.733Z" fill="#5B5E71"/>
<path d="M49.9849 39.6978V39.9143L51.6578 40.8863V40.6698L49.9849 39.6978Z" fill="#525566"/>
<path d="M51.6577 40.6698V40.8864L53.3447 39.9128V39.6963L51.6577 40.6698Z" fill="#474B59"/>
<path d="M49.9849 39.6977L51.6578 40.6697L53.3448 39.6961L51.6718 38.7241L49.9849 39.6977Z" fill="#5B5E71"/>
<path d="M47.3523 41.218V41.4345L49.0253 42.4065V42.19L47.3523 41.218Z" fill="#525566"/>
<path d="M49.0251 42.1901V42.4066L50.7121 41.4331V41.2166L49.0251 42.1901Z" fill="#474B59"/>
<path d="M47.3523 41.2182L49.0253 42.1902L50.7122 41.2166L49.0393 40.2446L47.3523 41.2182Z" fill="#5B5E71"/>
<path d="M44.7197 42.7385V42.9535L46.3927 43.927V43.7105L44.7197 42.7385Z" fill="#525566"/>
<path d="M46.3928 43.7105V43.927L48.0798 42.9519V42.7354L46.3928 43.7105Z" fill="#474B59"/>
<path d="M44.7197 42.7383L46.3927 43.7103L48.0797 42.7352L46.4067 41.7632L44.7197 42.7383Z" fill="#5B5E71"/>
<path d="M47.3601 48.8525V49.069L49.0471 48.0954V47.8789L47.3601 48.8525Z" fill="#474B59"/>
<path d="M44.8989 47.4224V47.6389L47.3601 49.0688V48.8523L44.8989 47.4224Z" fill="#525566"/>
<path d="M40.5903 47.9722L42.2633 48.9442L44.8989 47.4224L47.3601 48.8523L49.047 47.8788L44.9129 45.4768L40.5903 47.9722Z" fill="#5B5E71"/>
<path d="M40.5903 47.9722V48.1887L42.2633 49.1607V48.9442L40.5903 47.9722Z" fill="#525566"/>
<path d="M42.2632 48.9442V49.1607L44.8988 47.6389V47.4224L42.2632 48.9442Z" fill="#474B59"/>
<path d="M37.9609 49.491L39.6339 50.463L41.3209 49.4879L39.6479 48.5159L37.9609 49.491Z" fill="#5B5E71"/>
<path d="M39.634 50.4629V50.6794L41.321 49.7043V49.4878L39.634 50.4629Z" fill="#474B59"/>
<path d="M37.9609 49.491V49.7059L39.6339 50.6795V50.463L37.9609 49.491ZM40.4221 50.9209V51.1359L42.0951 52.1094L42.0935 51.8929L40.4221 50.9209Z" fill="#525566"/>
<path d="M42.0935 51.893L42.0951 52.1096L46.4145 49.6141V49.3992L42.0935 51.893Z" fill="#474B59"/>
<path d="M40.4221 50.921L42.0935 51.893L46.4146 49.3991L44.7416 48.4255L40.4221 50.921Z" fill="#5B5E71"/>
<path d="M35.3284 51.0098V51.2263L37.0013 52.1983V51.9818L35.3284 51.0098Z" fill="#525566"/>
<path d="M37.0015 51.9819V52.1984L38.6884 51.2248V51.0083L37.0015 51.9819Z" fill="#474B59"/>
<path d="M35.3284 51.0097L37.0013 51.9817L38.6883 51.0081L37.0154 50.0361L35.3284 51.0097Z" fill="#5B5E71"/>
<path d="M32.699 52.5286V52.7451L34.3719 53.7171V53.5006L32.699 52.5286Z" fill="#525566"/>
<path d="M34.3721 53.5006V53.7171L36.0559 52.7451V52.5286L34.3721 53.5006Z" fill="#474B59"/>
<path d="M32.699 52.5284L34.3719 53.5004L36.0558 52.5284L34.3828 51.5564L32.699 52.5284Z" fill="#5B5E71"/>
<path d="M30.0667 54.0474V54.2639L31.7396 55.2359V55.0209L30.0667 54.0474Z" fill="#525566"/>
<path d="M31.7395 55.0208V55.2357L33.428 54.2622L33.4265 54.0457L31.7395 55.0208Z" fill="#474B59"/>
<path d="M30.0667 54.0473L31.7396 55.0208L33.4266 54.0457L31.7536 53.0737L30.0667 54.0473Z" fill="#5B5E71"/>
<path d="M27.4341 55.5676V55.7841L29.107 56.7561V56.5396L27.4341 55.5676Z" fill="#525566"/>
<path d="M29.1069 56.5395V56.756L30.7955 55.7824L30.7939 55.5659L29.1069 56.5395Z" fill="#474B59"/>
<path d="M27.4341 55.5676L29.107 56.5396L30.794 55.566L29.1211 54.594L27.4341 55.5676Z" fill="#5B5E71"/>
<path d="M24.8015 57.0879V57.3044L26.4745 58.2764V58.0599L24.8015 57.0879Z" fill="#525566"/>
<path d="M26.4746 58.06V58.2765L28.1631 57.3029L28.1616 57.0864L26.4746 58.06Z" fill="#474B59"/>
<path d="M24.8015 57.0878L26.4745 58.0598L28.1615 57.0863L26.4885 56.1143L24.8015 57.0878Z" fill="#5B5E71"/>
<path d="M22.1721 58.605L22.1737 58.8215L23.8466 59.7935L23.8451 59.5785L22.1721 58.605Z" fill="#525566"/>
<path d="M23.8452 59.5786L23.8468 59.7936L25.5338 58.82L25.5322 58.6035L23.8452 59.5786Z" fill="#474B59"/>
<path d="M22.1721 58.6051L23.8451 59.5787L25.5321 58.6036L23.8591 57.6316L22.1721 58.6051Z" fill="#5B5E71"/>
<path d="M19.5398 60.1252L19.5414 60.3418L21.2128 61.3138V61.0972L19.5398 60.1252Z" fill="#525566"/>
<path d="M21.2126 61.0973V61.3139L22.9012 60.3403L22.8996 60.1238L21.2126 61.0973Z" fill="#474B59"/>
<path d="M19.5398 60.1254L21.2128 61.0974L22.8997 60.1239L21.2268 59.1519L19.5398 60.1254Z" fill="#5B5E71"/>
<path d="M52.4443 41.1277L52.4459 41.3442L54.1189 42.3162L54.1173 42.0997L52.4443 41.1277Z" fill="#525566"/>
<path d="M54.1174 42.0998L54.119 42.3163L55.806 41.3427L55.8044 41.1262L54.1174 42.0998Z" fill="#474B59"/>
<path d="M52.4443 41.1279L54.1173 42.0999L55.8043 41.1263L54.1313 40.1543L52.4443 41.1279Z" fill="#5B5E71"/>
<path d="M49.8118 42.6479L49.8133 42.8645L51.4863 43.8365L51.4847 43.62L49.8118 42.6479Z" fill="#525566"/>
<path d="M51.4849 43.62L51.4864 43.8366L53.1734 42.8614L53.1718 42.6465L51.4849 43.62Z" fill="#474B59"/>
<path d="M49.8118 42.648L51.4847 43.62L53.1717 42.6464L51.4987 41.6729L49.8118 42.648Z" fill="#5B5E71"/>
<path d="M47.1794 44.1685L47.181 44.3834L48.854 45.357L48.8524 45.1405L47.1794 44.1685Z" fill="#525566"/>
<path d="M48.8523 45.1404L48.8539 45.3569L50.5408 44.3818L50.5393 44.1653L48.8523 45.1404Z" fill="#474B59"/>
<path d="M47.1794 44.1685L48.8524 45.1405L50.5394 44.1654L48.8664 43.1934L47.1794 44.1685Z" fill="#5B5E71"/>
<path d="M37.7881 52.4397L37.7896 52.6562L39.4626 53.6282L39.461 53.4117L37.7881 52.4397Z" fill="#525566"/>
<path d="M39.4609 53.4118L39.4625 53.6283L41.1495 52.6548V52.4382L39.4609 53.4118Z" fill="#474B59"/>
<path d="M37.7881 52.4396L39.461 53.4116L41.1496 52.4381L39.4766 51.4661L37.7881 52.4396Z" fill="#5B5E71"/>
<path d="M35.1602 53.9585V54.175L36.8331 55.147V54.9305L35.1602 53.9585Z" fill="#525566"/>
<path d="M36.8333 54.9305V55.147L38.5171 54.175V53.9585L36.8333 54.9305Z" fill="#474B59"/>
<path d="M35.1602 53.9586L36.8331 54.9306L38.517 53.9586L36.844 52.9866L35.1602 53.9586Z" fill="#5B5E71"/>
<path d="M32.5278 55.4773V55.6938L34.2008 56.6658V56.4509L32.5278 55.4773Z" fill="#525566"/>
<path d="M34.2007 56.4507V56.6657L35.8877 55.6921V55.4756L34.2007 56.4507Z" fill="#474B59"/>
<path d="M32.5278 55.4772L34.2008 56.4508L35.8878 55.4757L34.2148 54.5037L32.5278 55.4772Z" fill="#5B5E71"/>
<path d="M29.8953 56.9976V57.2141L31.5682 58.1861V57.9696L29.8953 56.9976Z" fill="#525566"/>
<path d="M31.5681 57.9697V58.1862L33.2551 57.2126V56.9961L31.5681 57.9697Z" fill="#474B59"/>
<path d="M29.8953 56.9975L31.5682 57.9695L33.2552 56.9959L31.5822 56.0239L29.8953 56.9975Z" fill="#5B5E71"/>
<path d="M27.2627 58.5178V58.7343L28.9357 59.7063V59.4898L27.2627 58.5178Z" fill="#525566"/>
<path d="M28.9358 59.4899V59.7064L30.6228 58.7329V58.5164L28.9358 59.4899Z" fill="#474B59"/>
<path d="M27.2627 58.5177L28.9357 59.4897L30.6226 58.5162L28.9497 57.5442L27.2627 58.5177Z" fill="#5B5E71"/>
<path d="M24.6333 60.0349V60.2514L26.3063 61.2234V61.0085L24.6333 60.0349Z" fill="#525566"/>
<path d="M26.3064 61.0086V61.2235L27.9934 60.25V60.0334L26.3064 61.0086Z" fill="#474B59"/>
<path d="M24.6333 60.0351L26.3063 61.0086L27.9932 60.0335L26.3203 59.0615L24.6333 60.0351Z" fill="#5B5E71"/>
<path d="M22.0007 61.5554V61.7719L23.6737 62.7439V62.5274L22.0007 61.5554Z" fill="#525566"/>
<path d="M23.6738 62.5273V62.7438L25.3608 61.7702V61.5537L23.6738 62.5273Z" fill="#474B59"/>
<path d="M22.0007 61.5553L23.6737 62.5273L25.3607 61.5538L23.6877 60.5818L22.0007 61.5553Z" fill="#5B5E71"/>
<path d="M14.2778 63.1628L14.2794 63.3794L15.9524 64.3514L15.9508 64.1348L14.2778 63.1628Z" fill="#525566"/>
<path d="M15.9507 64.1348L15.9522 64.3513L20.2686 61.859L20.267 61.644L15.9507 64.1348Z" fill="#474B59"/>
<path d="M14.2778 63.1629L15.9508 64.1349L20.2672 61.6441L18.5942 60.6721L14.2778 63.1629Z" fill="#5B5E71"/>
<path d="M19.3684 63.0757V63.2922L21.0414 64.2642V64.0477L19.3684 63.0757Z" fill="#525566"/>
<path d="M21.0413 64.0475V64.2641L22.7282 63.2889V63.074L21.0413 64.0475Z" fill="#474B59"/>
<path d="M19.3684 63.0757L21.0414 64.0477L22.7284 63.0741L21.0554 62.1006L19.3684 63.0757Z" fill="#5B5E71"/>
<path d="M16.739 64.5928V64.8093L18.412 65.7813V65.5648L16.739 64.5928Z" fill="#525566"/>
<path d="M18.4119 65.5648V65.7813L20.0957 64.8093V64.5928L18.4119 65.5648Z" fill="#474B59"/>
<path d="M16.739 64.5929L18.412 65.5649L20.0958 64.5929L18.4229 63.6208L16.739 64.5929Z" fill="#5B5E71"/>
<path d="M48.1436 49.3118V49.5283L49.8165 50.5003V50.2838L48.1436 49.3118Z" fill="#525566"/>
<path d="M49.8167 50.2839V50.5004L51.5052 49.5268L51.5036 49.3103L49.8167 50.2839Z" fill="#474B59"/>
<path d="M48.1436 49.3119L49.8165 50.2839L51.5035 49.3104L49.8305 48.3384L48.1436 49.3119Z" fill="#5B5E71"/>
<path d="M45.5142 50.8306L45.5157 51.0471L47.1887 52.0191L47.1871 51.8026L45.5142 50.8306Z" fill="#525566"/>
<path d="M47.1873 51.8027L47.1888 52.0192L48.8758 51.0441L48.8742 50.8291L47.1873 51.8027Z" fill="#474B59"/>
<path d="M45.5142 50.8306L47.1871 51.8026L48.8741 50.829L47.2011 49.8555L45.5142 50.8306Z" fill="#5B5E71"/>
<path d="M42.8816 52.3508L42.8832 52.5658L44.5561 53.5378L44.5546 53.3228L42.8816 52.3508Z" fill="#525566"/>
<path d="M44.5547 53.323L44.5562 53.538L46.2432 52.5644L46.2417 52.3479L44.5547 53.323Z" fill="#474B59"/>
<path d="M42.8816 52.3509L44.5546 53.3228L46.2415 52.3477L44.5686 51.3757L42.8816 52.3509Z" fill="#5B5E71"/>
<path d="M40.2493 53.8696L40.2508 54.0861L41.9222 55.0581V54.8416L40.2493 53.8696Z" fill="#525566"/>
<path d="M41.9221 54.8417V55.0582L43.6107 54.0847L43.6091 53.8682L41.9221 54.8417Z" fill="#474B59"/>
<path d="M40.2493 53.8696L41.9222 54.8416L43.6092 53.868L41.9362 52.896L40.2493 53.8696Z" fill="#5B5E71"/>
<path d="M37.6199 55.3884L37.6214 55.6049L39.2944 56.5769L39.2928 56.3604L37.6199 55.3884Z" fill="#525566"/>
<path d="M39.2927 56.3604L39.2943 56.5769L40.9781 55.6049L40.9766 55.3884L39.2927 56.3604Z" fill="#474B59"/>
<path d="M37.6199 55.3885L39.2928 56.3605L40.9767 55.3885L39.3037 54.4165L37.6199 55.3885Z" fill="#5B5E71"/>
<path d="M34.9873 56.9072L34.9889 57.1237L36.6618 58.0957L36.6603 57.8808L34.9873 56.9072Z" fill="#525566"/>
<path d="M36.6604 57.8806L36.662 58.0956L38.3489 57.122L38.3474 56.9055L36.6604 57.8806Z" fill="#474B59"/>
<path d="M34.9873 56.9072L36.6603 57.8807L38.3472 56.9056L36.6743 55.9336L34.9873 56.9072Z" fill="#5B5E71"/>
<path d="M32.3547 58.4275L32.3563 58.644L34.0293 59.616L34.0277 59.3995L32.3547 58.4275Z" fill="#525566"/>
<path d="M34.0278 59.3996L34.0294 59.6161L35.7164 58.6425L35.7148 58.426L34.0278 59.3996Z" fill="#474B59"/>
<path d="M32.3547 58.4274L34.0277 59.3994L35.7147 58.4259L34.0417 57.4539L32.3547 58.4274Z" fill="#5B5E71"/>
<path d="M29.7224 59.9478L29.724 60.1643L31.3969 61.1363L31.3954 60.9198L29.7224 59.9478Z" fill="#525566"/>
<path d="M31.3953 60.9198L31.3968 61.1364L33.0838 60.1628L33.0822 59.9463L31.3953 60.9198Z" fill="#474B59"/>
<path d="M29.7224 59.9477L31.3954 60.9197L33.0824 59.9461L31.4094 58.9741L29.7224 59.9477Z" fill="#5B5E71"/>
<path d="M27.093 61.4651L27.0946 61.6816L28.7675 62.6536L28.766 62.4386L27.093 61.4651Z" fill="#525566"/>
<path d="M28.7659 62.4385L28.7674 62.6535L30.4544 61.6799V61.4634L28.7659 62.4385Z" fill="#474B59"/>
<path d="M27.093 61.465L28.766 62.4386L30.4545 61.4635L28.7816 60.4915L27.093 61.465Z" fill="#5B5E71"/>
<path d="M19.2002 66.0227V66.2392L20.8732 67.2112L20.8716 66.9947L19.2002 66.0227Z" fill="#525566"/>
<path d="M20.8716 66.9947L20.8731 67.2112L27.822 63.2002V62.9836L20.8716 66.9947Z" fill="#474B59"/>
<path d="M19.2002 66.0228L20.8716 66.9948L27.822 62.9837L26.1491 62.0117L19.2002 66.0228Z" fill="#5B5E71"/>
<path d="M54.7327 45.5081L54.7342 45.7246L56.4072 46.6966L56.4056 46.4801L54.7327 45.5081Z" fill="#525566"/>
<path d="M56.4055 46.4799L56.4071 46.6964L58.0941 45.7213V45.5063L56.4055 46.4799Z" fill="#474B59"/>
<path d="M54.7327 45.5081L56.4056 46.4801L58.0942 45.5065L56.4212 44.533L54.7327 45.5081Z" fill="#5B5E71"/>
<path d="M50.6047 50.7417V50.9582L52.2777 51.9302V51.7137L50.6047 50.7417Z" fill="#525566"/>
<path d="M52.2778 51.7138V51.9303L53.9648 50.9568V50.7402L52.2778 51.7138Z" fill="#474B59"/>
<path d="M50.6047 50.7419L52.2777 51.7139L53.9647 50.7403L52.2917 49.7683L50.6047 50.7419Z" fill="#5B5E71"/>
<path d="M47.9753 52.2605V52.477L49.6483 53.449V53.2325L47.9753 52.2605Z" fill="#525566"/>
<path d="M49.6484 53.2326V53.4491L51.3354 52.474V52.259L49.6484 53.2326Z" fill="#474B59"/>
<path d="M47.9753 52.2605L49.6483 53.2325L51.3353 52.259L49.6623 51.2854L47.9753 52.2605Z" fill="#5B5E71"/>
<path d="M26.9185 64.4136V64.6301L28.5945 65.6037V65.3871L26.9185 64.4136Z" fill="#525566"/>
<path d="M28.5945 65.3873V65.6038L48.7027 53.9944V53.7778L28.5945 65.3873Z" fill="#474B59"/>
<path d="M26.9185 64.4137L28.5945 65.3872L48.7028 53.7778L47.0267 52.8042L26.9185 64.4137Z" fill="#5B5E71"/>
<path d="M24.2891 65.9355V66.1521L25.962 67.1241V66.9075L24.2891 65.9355Z" fill="#525566"/>
<path d="M25.9622 66.9076V67.1242L27.6507 66.149L27.6491 65.9341L25.9622 66.9076Z" fill="#474B59"/>
<path d="M24.2891 65.9356L25.962 66.9076L27.649 65.934L25.976 64.9604L24.2891 65.9356Z" fill="#5B5E71"/>
<path d="M21.6597 67.4526L21.6612 67.6692L23.3342 68.6412L23.3326 68.4246L21.6597 67.4526Z" fill="#525566"/>
<path d="M23.3328 68.4246L23.3343 68.6412L25.0182 67.6692L25.0166 67.4526L23.3328 68.4246Z" fill="#474B59"/>
<path d="M21.6597 67.4527L23.3326 68.4247L25.0165 67.4527L23.3435 66.4807L21.6597 67.4527Z" fill="#5B5E71"/>
<path d="M59.8262 45.4177L59.8277 45.6342L61.4991 46.6062V46.3897L59.8262 45.4177Z" fill="#525566"/>
<path d="M61.4993 46.3896V46.6061L63.1878 45.6325L63.1862 45.416L61.4993 46.3896Z" fill="#474B59"/>
<path d="M59.8262 45.4176L61.4991 46.3897L63.1861 45.4161L61.5132 44.4441L59.8262 45.4176Z" fill="#5B5E71"/>
<path d="M57.1938 46.938V47.1545L58.8668 48.1265V47.91L57.1938 46.938Z" fill="#525566"/>
<path d="M58.8667 47.9098V48.1264L60.5552 47.1512L60.5537 46.9363L58.8667 47.9098Z" fill="#474B59"/>
<path d="M57.1938 46.938L58.8668 47.91L60.5538 46.9364L58.8808 45.9629L57.1938 46.938Z" fill="#5B5E71"/>
<path d="M54.5613 48.4583V48.6732L56.2342 49.6468V49.4303L54.5613 48.4583Z" fill="#525566"/>
<path d="M56.2341 49.4302V49.6467L57.9227 48.6716L57.9211 48.4551L56.2341 49.4302Z" fill="#474B59"/>
<path d="M54.5613 48.4583L56.2342 49.4303L57.9212 48.4552L56.2483 47.4832L54.5613 48.4583Z" fill="#5B5E71"/>
<path d="M30.9016 19.5646L9.76685 31.7645L9.80423 44.9254L30.939 32.7225L30.9016 19.5615V19.5646ZM20.3685 36.5996C18.2687 37.8099 16.5677 36.8379 16.5615 34.4313C16.5537 32.0262 18.2469 29.093 20.3373 27.8889C22.4293 26.6802 24.1303 27.6522 24.1381 30.0573C24.1443 32.4639 22.4527 35.3892 20.3685 36.5996Z" fill="#E74C3C"/>
<path d="M46.5143 32.6709L33.5854 40.1416L33.5652 33.9171L46.4956 26.4526L46.5143 32.6709Z" fill="#3498DB"/>
<path d="M46.4893 23.7486L33.5558 31.2131L33.5215 18.0475L46.4503 10.583L46.4893 23.7486Z" fill="#2ECC71"/>
<path d="M30.9467 35.436L9.81348 47.6312L9.82905 53.8511L30.9638 41.6543L30.9467 35.436ZM29.3236 37.5342V38.2087L11.3899 48.5658L11.3821 47.8913L29.3236 37.5342ZM20.1238 46.7418L11.3976 51.7825V51.1002L20.1238 46.0611V46.7418Z" fill="#F1C40F"/>
<path d="M18.8279 30.8704L22.4526 31.0308L18.8419 35.3627L18.8279 30.8704Z" fill="#E74C3C"/>
<path d="M29.3251 37.531L29.3267 38.2102L11.3883 48.5673L11.3867 47.8881L29.3251 37.531ZM29.3298 39.1401L29.3313 39.8193L11.3929 50.1764L11.3914 49.4956L29.3298 39.1401ZM20.1207 46.0609L20.1223 46.7416L11.3976 51.7792L11.3961 51.0985L20.1207 46.0609Z" fill="white"/>
<path d="M35.394 22.9852L35.4064 30.1569L34.5762 30.6351L34.5637 23.465L35.394 22.9852ZM37.0716 23.4401L37.081 29.1895L36.2491 29.6693L36.2414 23.9199L37.0716 23.4401ZM38.743 21.6425L38.7539 28.2238L37.9237 28.7035L37.9128 22.1223L38.743 21.6425ZM40.4206 22.3357L40.4269 27.258L39.5966 27.7378L39.5904 22.8155L40.4206 22.3357ZM42.0874 18.8246L42.1014 26.2907L41.2711 26.7704L41.2571 19.3044L42.0874 18.8246ZM43.7666 19.5723L43.7744 25.3249L42.9441 25.8047L42.9348 20.0505L43.7666 19.5723ZM45.4349 17.1844L45.4489 24.3591L44.6171 24.8389L44.6046 17.6642L45.4349 17.1844ZM45.4349 16.7015L45.4333 16.0909L44.603 16.5707L44.6046 17.1813L45.4349 16.7015ZM45.4349 15.6968L45.4333 15.0862L44.603 15.5644L44.6046 16.1766L45.4349 15.6968ZM43.7712 19.1627L43.7697 18.552L42.9394 19.0318L42.941 19.6424L43.7712 19.1627ZM43.7712 18.1579L43.7697 17.5473L42.9394 18.0255L42.941 18.6377L43.7712 18.1579ZM42.0952 18.3449L42.0936 17.7343L41.2634 18.2125L41.2649 18.8246L42.0952 18.3449ZM42.0952 17.3402L42.0936 16.728L41.2634 17.2078L41.2649 17.8199L42.0952 17.3402ZM40.4253 22.0101L40.4238 21.3995L39.5935 21.8793L39.5951 22.4899L40.4253 22.0101ZM40.4253 21.0054L40.4238 20.3948L39.5935 20.873L39.5951 21.4852L40.4253 21.0054ZM38.7492 21.2593L38.7477 20.6471L37.9174 21.1269L37.919 21.7391L38.7492 21.2593ZM38.7492 20.2546L38.7477 19.6424L37.9174 20.1222L37.919 20.7344L38.7492 20.2546ZM37.0763 22.9603L37.0747 22.3497L36.2445 22.8295L36.246 23.4401L37.0763 22.9603ZM37.0763 21.9556L37.0747 21.345L36.2445 21.8232L36.246 22.4354L37.0763 21.9556ZM35.4018 22.3871L35.4002 21.7749L34.5684 22.2547L34.57 22.8653L35.4018 22.3871ZM35.4018 21.3808L35.4002 20.7702L34.5684 21.25L34.57 21.8606L35.4018 21.3808Z" fill="white"/>
<path d="M45.2681 28.8796L45.2821 33.4094L44.4487 33.8907L44.4347 29.361L45.2681 28.8796ZM43.5998 31.2676L43.6076 34.3752L42.7742 34.8565L42.7648 31.7489L43.5998 31.2676ZM41.9237 31.4015L41.9346 35.3425L41.1012 35.8238L41.0903 31.8829L41.9237 31.4015ZM40.2538 34.0278L40.2601 36.3083L39.4267 36.7896L39.4205 34.5091L40.2538 34.0278ZM38.5731 32.4483L38.5871 37.274L37.7537 37.7554L37.7397 32.9296L38.5731 32.4483ZM36.9048 35.1291L36.9141 38.2414L36.0808 38.7227L36.0714 35.6104L36.9048 35.1291ZM35.2272 34.6743L35.2396 39.2071L34.4063 39.6885L34.3938 35.1556L35.2272 34.6743Z" fill="white"/>
<path d="M46.2136 39.2725L12.9834 58.3854C12.9055 58.0255 12.6578 57.6501 12.3572 57.4772C12.1749 57.3682 12.0129 57.3651 11.8945 57.4336L45.1295 38.3207C45.2478 38.2522 45.4098 38.2569 45.5936 38.3659C45.9113 38.575 46.134 38.9006 46.2136 39.2725Z" fill="#474B59"/>
<path d="M12.3571 57.4757C12.6562 57.6486 12.9038 58.024 12.9817 58.3838L11.7278 57.6595C11.8103 57.3916 12.0596 57.3043 12.3571 57.4757Z" fill="#3F434F"/>
</svg>
