<svg width="78" height="88" viewBox="0 0 78 88" fill="none" xmlns="http://www.w3.org/2000/svg">
<g filter="url(#filter0_d_2225_7946)">
<g clip-path="url(#clip0_2225_7946)">
<path d="M56.1735 7.99731H55.3755V8.92885H56.1735V7.99731Z" fill="#F37867"/>
<path d="M65.5959 25.063H64.6644V23.5353H65.5959V25.063ZM65.5959 22.0091H64.6644V20.4814H65.5959V22.0091ZM65.5959 18.9537H64.6644V17.426H65.5959V18.9537ZM65.5959 15.8983H64.6644V14.3705H65.5959V15.8983ZM65.5959 12.8428H64.6644V11.3167H65.5959V12.8428ZM64.4129 10.0591C64.2141 9.68751 63.91 9.38289 63.5388 9.18347L63.9812 8.36372C64.5142 8.65167 64.9502 9.09083 65.2342 9.62594L64.4129 10.0591ZM62.2843 8.92885H60.7566V7.99731H62.2843V8.92885ZM59.2289 8.92885H57.7012V7.99731H59.2289V8.92885Z" fill="#F37867"/>
<path d="M65.5958 26.5938H64.6643V27.3918H65.5958V26.5938Z" fill="#F37867"/>
<path d="M21.4599 18.9163H20.6619V19.8478H21.4599V18.9163Z" fill="#F37867"/>
<path d="M11.3575 34.8238L11.3436 33.1611L12.2751 33.1533L12.2906 34.8161L11.3575 34.8238ZM11.328 31.4983L11.3125 29.8355H12.244L12.2596 31.4983H11.328ZM11.297 28.1743L11.2815 26.5115L12.213 26.5022L12.2285 28.1649L11.297 28.1743ZM11.2659 24.8487L11.252 23.1859L12.1835 23.1766L12.1975 24.8409L11.2659 24.8487ZM12.2052 21.6038L11.297 21.4393C11.413 20.7902 11.7366 20.1963 12.2192 19.747L12.8557 20.427C12.5169 20.7383 12.2886 21.1514 12.2052 21.6038ZM14.0683 19.8619L13.9627 18.9303C14.0792 18.9166 14.1963 18.9099 14.3136 18.9102H15.6767V19.8417H14.3105C14.2284 19.8437 14.1465 19.8505 14.0652 19.8619H14.0683ZM19.0023 19.8479H17.3364V18.9164H18.9992L19.0023 19.8479Z" fill="#F37867"/>
<path d="M12.308 36.4797L11.3765 36.4883L11.3838 37.2863L12.3153 37.2776L12.308 36.4797Z" fill="#F37867"/>
<path d="M57.2526 6.55026V13.4327C57.2526 14.2151 56.9418 14.9654 56.3886 15.5186C55.8354 16.0718 55.0851 16.3826 54.3027 16.3826H39.7367C39.4766 16.3828 39.219 16.3317 38.9787 16.2323C38.7383 16.133 38.5199 15.9872 38.3359 15.8033C38.152 15.6195 38.006 15.4012 37.9064 15.161C37.8069 14.9207 37.7556 14.6632 37.7556 14.4031V6.55181C37.7556 6.29173 37.8069 6.03419 37.9064 5.79393C38.006 5.55366 38.152 5.33537 38.3359 5.15154C38.5199 4.9677 38.7383 4.82193 38.9787 4.72254C39.219 4.62315 39.4766 4.5721 39.7367 4.5723H55.2622C55.523 4.57067 55.7815 4.62062 56.023 4.71929C56.2644 4.81796 56.4839 4.96339 56.6689 5.14722C56.8539 5.33106 57.0007 5.54966 57.1008 5.79045C57.201 6.03124 57.2526 6.28946 57.2526 6.55026Z" fill="#ECB55D"/>
<path d="M20.842 11.0867H28.6855C29.2102 11.0867 29.7135 11.295 30.0847 11.6659C30.4559 12.0368 30.6646 12.5399 30.665 13.0646V27.6353C30.665 28.4177 30.3542 29.168 29.801 29.7212C29.2478 30.2744 28.4975 30.5852 27.7152 30.5852H20.8436C20.5835 30.5852 20.326 30.5339 20.0857 30.4344C19.8454 30.3348 19.6271 30.1888 19.4433 30.0049C19.2595 29.8209 19.1137 29.6025 19.0143 29.3621C18.9149 29.1218 18.8639 28.8642 18.8641 28.6041V13.0786C18.8622 12.8177 18.912 12.559 19.0106 12.3174C19.1092 12.0758 19.2546 11.8561 19.4384 11.6709C19.6223 11.4858 19.841 11.3388 20.0818 11.2386C20.3227 11.1383 20.5811 11.0867 20.842 11.0867Z" fill="#F37867"/>
<path d="M36.3381 36.645L31.165 44.1237L35.0185 47.4834L38.0553 41.0217L36.3381 36.645Z" fill="#FCD6CE"/>
<path d="M34.9098 63.3334L31.7178 76.9804H29.2197L32.5406 62.7807C33.4691 62.4826 34.2748 62.5929 34.9098 63.3334Z" fill="#E39454"/>
<path d="M50.041 76.9803H47.5445L43.5979 60.1041L45.964 59.5498L50.041 76.9803Z" fill="#E39454"/>
<path d="M29.6915 60.8958C31.0541 62.438 32.7624 63.6359 34.6766 64.3914C36.5908 65.147 38.6567 65.4388 40.7053 65.243C44.7839 64.8145 48.4169 62.1953 50.578 58.7098C52.233 56.0379 56.7013 47.2023 55.8676 40.2034C55.5865 37.842 54.0759 35.7227 51.7812 35.0706C49.2972 34.3658 46.5414 34.9961 44.3973 36.367C41.8589 37.9926 40.0501 40.5496 38.6839 43.2355C36.6407 47.2551 35.4655 51.6504 34.3041 56.0084C34.0992 56.7738 33.0621 57.2939 32.3557 57.6494C31.6493 58.005 30.8699 58.2394 30.2333 58.7114C29.5968 59.1834 29.1714 60.2981 29.6915 60.8958Z" fill="#FFE9BC"/>
<path d="M49.9665 48.9908L50.6077 46.9368C50.8468 46.1698 51.03 45.4277 51.3188 44.6794C51.6824 43.8069 51.9187 42.8866 52.0205 41.9469C52.1292 40.6241 51.7612 39.1911 50.7552 38.3248C49.7491 37.4584 48.4124 37.3342 47.1688 37.5811C46.1581 37.7814 45.2359 38.3123 44.4363 38.9613C41.9522 40.9796 40.4819 44.4046 40.6139 47.5935C40.6931 49.4566 41.3126 51.2669 42.0795 52.9731C42.6276 54.1888 43.3573 55.1653 44.5636 55.791C45.1489 56.1015 45.8367 56.2568 46.4732 56.0829C47.1098 55.909 47.6392 55.4355 48.0258 54.8952C48.9449 53.6128 49.0505 51.9205 49.51 50.444L49.9665 48.9908Z" fill="#EBC992"/>
<path d="M45.9794 26.3935C46.4368 26.6652 46.782 27.0913 46.9528 27.5952C47.1764 28.3047 46.9948 29.098 47.2354 29.8013C47.4574 30.4487 48.0117 30.9316 48.5892 31.2887C49.1668 31.6458 49.8111 31.9097 50.37 32.3009C51.2412 32.9131 51.8802 33.8016 52.1834 34.8223C52.5009 35.8519 52.4395 36.9612 52.0104 37.9495C51.5813 38.9379 50.8127 39.7401 49.8437 40.2112C48.7833 40.7437 47.594 40.958 46.4172 41.1163C45.4329 41.2468 44.4284 41.343 43.4518 41.1629C42.4753 40.9828 41.5173 40.4969 40.9677 39.6725C40.3778 38.7953 40.3172 37.6759 40.2784 36.6186L40.0409 30.3571C40.0036 29.3852 39.9788 28.5453 40.6308 27.7504C41.0462 27.2725 41.553 26.8824 42.1213 26.6031C42.9535 26.1652 43.8959 25.8656 44.8289 25.982C45.2379 26.0335 45.6306 26.1739 45.9794 26.3935Z" fill="#505050"/>
<path d="M41.6058 55.1158L40.6619 56.9913L40.0191 58.2628L39.0224 60.2392L30.3933 59.7144H30.342L27.5257 72.9702L23.8726 72.2948L25.5804 61.489L26.2728 57.1077L26.3039 56.9167L26.324 56.7817C26.4003 56.3016 26.6456 55.8646 27.0157 55.5495C27.3858 55.2343 27.8563 55.0618 28.3424 55.063H28.611H30.4663L40.9243 55.1065L41.6058 55.1158Z" fill="#FCD6CE"/>
<path d="M27.9311 73.2603C27.8281 73.5343 27.6926 73.7949 27.5274 74.0365C27.4281 74.2089 26.8381 73.7384 26.7263 73.889C26.5307 74.1514 26.3335 74.406 26.1426 74.6436C25.9035 74.9401 25.6768 75.2118 25.4625 75.454C24.8415 76.1573 24.3975 76.6029 24.3975 76.6029L20.3997 76.0347C20.6729 74.108 22.2053 73.8005 22.2053 73.8005C22.4045 73.7626 22.594 73.685 22.7626 73.5723C23.6041 72.9203 24.0187 71.332 24.1413 70.7498C24.1739 70.5945 24.2966 69.9859 24.2966 69.9735C24.2966 69.9611 24.4922 70.9392 24.4922 70.9392L25.9966 70.1039L27.0524 70.6799L27.8876 71.1333L27.914 71.1488C28.2944 71.9126 28.1438 72.6998 27.9311 73.2603Z" fill="#FCD6CE"/>
<path d="M27.9278 73.2619L27.0444 76.9802L25.9763 76.825L26.1408 74.8951C25.639 75.5406 25.0519 76.1151 24.3958 76.603L20.3979 76.0363C20.6712 74.1111 22.2036 73.8022 22.2036 73.8022C22.3989 73.7505 22.5868 73.6738 22.7625 73.5739C22.8851 74.167 23.753 74.2633 24.2498 74.2043C24.7338 74.1335 25.1941 73.9488 25.5928 73.6655C25.998 73.3938 27.4791 72.4235 27.9216 71.1504C28.2927 71.9127 28.1436 72.6998 27.9278 73.2619Z" fill="#CD5657"/>
<path d="M39.3625 50.9627C39.5177 51.5837 39.673 52.2436 39.8158 52.804C40.0037 53.5617 40.1418 54.1268 40.1418 54.1268L39.6932 54.2231L30.4943 56.1777H30.4741L28.3005 56.6435L26.512 58.2659L18.2586 65.698L17.1299 66.7149L16.2946 65.8284L14.5713 64.0135C14.6023 63.9809 14.6349 63.9498 14.666 63.9188L16.6067 61.9765L20.9011 57.6821L24.7281 53.8536L24.8834 53.6983L25.2622 53.3195C26.4437 52.1721 28.2213 51.9144 29.7475 51.4859C31.6634 50.9472 38.0273 50.7096 39.1451 50.3991C39.1405 50.4084 39.0954 49.8775 39.3625 50.9627Z" fill="#FCD6CE"/>
<path d="M18.2648 65.7086C18.1747 66.5532 17.6282 67.1385 17.1485 67.4972C16.9153 67.6739 16.6614 67.8215 16.3924 67.9365C16.2169 68.0297 15.9716 67.3155 15.7946 67.3838C15.4841 67.5034 15.1876 67.612 14.8988 67.7114C14.61 67.8108 14.3042 67.907 14.0372 67.9878L13.8912 68.0328C12.9938 68.2983 12.3759 68.4333 12.3759 68.4333L9.29565 65.8282C10.5563 64.3455 12.0173 64.8966 12.0173 64.8966C12.2057 64.9718 12.4075 65.0077 12.6104 65.0022C13.3276 64.9339 14.1086 64.3983 14.6659 63.9263C14.8828 63.7457 15.0901 63.554 15.287 63.3518C15.4018 63.2354 15.8304 62.7914 15.8397 62.7821C15.849 62.7727 15.4888 63.7027 15.4888 63.7027L17.1966 63.8005L17.7571 64.805L17.7819 64.8516L18.2477 65.6807L18.257 65.6977L18.2648 65.7086Z" fill="#FCD6CE"/>
<path d="M35.6177 48.6306C35.5665 48.6306 35.346 52.4934 35.3305 52.7216C35.2342 54.0739 35.1364 55.4246 35.0448 56.7769C34.9749 57.8047 34.9827 59.0048 35.9313 59.6258C36.4747 59.9813 37.1361 60.0714 37.7742 60.1381C39.7211 60.34 41.7456 60.399 43.5652 59.6491C45.6534 58.7874 46.911 56.884 47.2277 54.6048C47.3577 53.4678 47.2314 52.3161 46.8582 51.2342C46.7215 50.8306 46.0307 49.3432 45.3739 48.7036C45.3662 48.6958 35.6192 48.6306 35.6177 48.6306Z" fill="#505050"/>
<path d="M47.6562 36.8994C47.6202 38.139 47.4378 39.3699 47.1128 40.5666C47.0833 40.6753 47.0538 40.7839 47.0227 40.8942C46.3567 43.178 45.2389 46.0999 45.3739 48.7004C45.1954 48.7377 45.0153 48.7718 44.8367 48.8044C41.7888 49.3595 38.6656 49.3595 35.6177 48.8044C35.5815 47.8449 35.4171 46.8946 35.1286 45.9788C34.7793 44.8842 34.2219 43.2711 34.1396 42.2076C33.9999 40.4144 34.9656 38.2331 36.3381 36.6386L37.3659 36.4973L38.3595 36.3607L40.8902 36.0129L43.219 36.3235H43.2562L47.6562 36.8994Z" fill="#53B699"/>
<path d="M47.0228 40.8942C46.3567 43.178 45.2389 46.0999 45.3739 48.7004C45.1954 48.7377 45.0153 48.7719 44.8368 48.8045C44.409 46.0696 44.1317 43.3133 44.0061 40.548L44.961 39.4426L47.1128 40.5666C47.0833 40.6768 47.0538 40.784 47.0228 40.8942ZM43.2268 36.3297C42.7082 37.9956 41.5857 39.4814 40.1667 40.2747C39.6745 40.5495 39.0799 40.7483 38.5846 40.4983C38.2244 40.3198 37.9791 39.9409 37.8084 39.5512C37.3739 38.6004 37.223 37.5443 37.3736 36.5098L38.3673 36.3732L40.8979 36.0254L43.2268 36.3297Z" fill="#3F997D"/>
<path d="M43.2267 36.3297C43.0714 36.5611 42.9069 36.7877 42.733 37.0035C42.0949 37.2597 40.9786 37.5826 39.7831 37.3513C39.3026 37.259 38.8432 37.079 38.4278 36.8203C38.3998 36.6744 38.3796 36.5253 38.3625 36.3732L38.9215 31.8444L39.0177 31.0681H42.5296L43.2267 36.3297Z" fill="#FCD6CE"/>
<path d="M43.2267 36.3299C43.0715 36.5612 42.9069 36.7956 42.733 37.0145C42.5333 37.2727 42.3046 37.5072 42.0514 37.7132C41.576 38.1152 40.9836 38.3531 40.3623 38.3917C40.0808 38.4009 39.8005 38.3512 39.5394 38.2457C39.2227 38.1227 38.9487 37.9102 38.7507 37.634C38.5935 37.3905 38.4878 37.1173 38.4402 36.8313C38.4123 36.6854 38.3921 36.5364 38.375 36.3842L40.4508 35.3704L40.9088 35.1453L43.2267 36.3299Z" fill="#FCD6CE"/>
<path d="M41.9164 31.8491C41.3664 32.995 40.8751 34.1682 40.4446 35.3641C40.207 36.0208 39.9881 36.6868 39.7894 37.356C39.7009 37.651 39.617 37.9444 39.5394 38.2394C39.2227 38.1164 38.9487 37.9038 38.7507 37.6277C38.5935 37.3841 38.4878 37.111 38.4402 36.825C38.4123 36.6791 38.3921 36.53 38.375 36.3779L38.9339 31.8491C39.1191 31.7936 39.3087 31.7541 39.5006 31.7311C40.3073 31.6521 41.1212 31.6919 41.9164 31.8491Z" fill="#F9B3A7"/>
<path d="M36.335 30.3043C36.2418 30.3866 35.2172 29.1927 35.9469 27.3452C36.2046 26.7091 36.6429 26.1624 37.2075 25.7724C38.3023 25.0124 39.6356 24.6754 40.9601 24.8238C42.449 24.9961 43.9099 25.7647 44.475 27.2272C44.6723 27.7523 44.7609 28.3121 44.7355 28.8725C44.7102 29.4329 44.5714 29.9823 44.3275 30.4875C44.2848 30.6074 44.1982 30.7067 44.0853 30.7654C43.8043 30.8726 43.2594 29.8339 43.084 29.6367C42.7073 29.1859 42.2588 28.8003 41.7565 28.4956C40.1947 27.5641 37.7075 29.112 36.335 30.3043Z" fill="#505050"/>
<path d="M40.8495 35.1293C43.0665 34.8058 44.5742 32.5586 44.217 30.1099C43.8598 27.6612 41.7729 25.9384 39.5558 26.2618C37.3388 26.5852 35.8311 28.8325 36.1883 31.2812C36.5455 33.7298 38.6324 35.4527 40.8495 35.1293Z" fill="#FCD6CE"/>
<path d="M43.8245 30.5107C43.8718 30.5111 43.9186 30.501 43.9616 30.4811C44.0045 30.4613 44.0425 30.4321 44.0729 30.3958C44.1909 30.2545 44.2079 29.8322 44.2281 29.6506C44.2679 29.4124 44.2721 29.1696 44.2405 28.9302C44.1451 28.2215 43.7906 27.5732 43.2453 27.1106C42.8308 26.783 42.2471 26.4259 41.7332 26.3079C40.6914 26.0704 39.6046 25.9291 38.5473 26.1371C37.5661 26.3312 36.6113 27.0578 36.0089 27.831C35.8692 28.0111 35.745 28.2766 35.8956 28.452C36.0213 28.5917 36.0136 28.7796 36.1983 28.7516C37.8875 28.5079 40.1014 27.7797 41.7083 27.0889C41.907 28.3775 42.6166 29.6055 43.4053 30.4936C43.5574 30.6535 43.5139 30.5231 43.8245 30.5107Z" fill="#505050"/>
<path d="M43.6242 29.7796C43.8571 29.4939 44.3353 29.4924 44.6178 29.7284C44.7534 29.8546 44.854 30.0137 44.91 30.1902C44.9661 30.3667 44.9756 30.5547 44.9377 30.736C44.9058 30.9209 44.8373 31.0976 44.7362 31.2557C44.6352 31.4137 44.5036 31.5501 44.3491 31.6566C44.1947 31.7632 44.0205 31.8379 43.8369 31.8763C43.6532 31.9147 43.4637 31.916 43.2795 31.8802C43.3944 31.2374 43.2112 30.2857 43.6242 29.7796Z" fill="#FCD6CE"/>
<path d="M44.0371 31.2746H44.0232C43.9963 31.2769 43.9693 31.2739 43.9436 31.2657C43.9179 31.2574 43.8941 31.2442 43.8736 31.2267C43.8531 31.2093 43.8363 31.1879 43.8241 31.1638C43.8119 31.1398 43.8046 31.1136 43.8027 31.0867C43.7764 30.7312 43.8294 30.3743 43.9579 30.0418C43.9681 30.0166 43.9832 29.9937 44.0022 29.9744C44.0213 29.955 44.044 29.9396 44.069 29.929C44.094 29.9184 44.1209 29.9128 44.148 29.9126C44.1752 29.9124 44.2021 29.9175 44.2273 29.9277C44.2525 29.9379 44.2754 29.953 44.2948 29.972C44.3141 29.9911 44.3296 30.0138 44.3402 30.0388C44.3508 30.0638 44.3563 30.0906 44.3565 30.1178C44.3568 30.145 44.3516 30.1719 44.3414 30.1971C44.2366 30.4689 44.1921 30.7603 44.211 31.051C44.2168 31.1035 44.2018 31.1563 44.1694 31.198C44.1369 31.2397 44.0895 31.2672 44.0371 31.2746Z" fill="#F9B3A7"/>
<path d="M41.8821 31.9997C41.8243 32.2168 41.7387 32.4255 41.6275 32.6207C41.5507 32.7542 41.4613 32.88 41.3605 32.9964C41.1938 33.1994 40.9847 33.3635 40.7479 33.4772C40.5111 33.5909 40.2523 33.6515 39.9896 33.6547C39.7157 33.6529 39.4451 33.5947 39.1947 33.4839C38.8927 33.3543 38.624 33.1578 38.4088 32.9093C38.1937 32.6609 38.0377 32.3668 37.9526 32.0494C38.1301 31.9192 38.3251 31.8147 38.5317 31.7389C39.5875 31.3476 40.9863 31.5727 41.8821 31.9997Z" fill="#505050"/>
<path d="M41.3621 33.0041C41.1954 33.2071 40.9863 33.3712 40.7495 33.4849C40.5127 33.5986 40.2539 33.6592 39.9912 33.6624C39.7173 33.6606 39.4468 33.6024 39.1963 33.4916C39.505 33.2642 39.8577 33.1034 40.2318 33.0195C40.606 32.9355 40.9936 32.9303 41.3699 33.0041H41.3621Z" fill="#F58E81"/>
<path d="M38.0492 29.807C38.1009 29.3909 37.9164 29.0255 37.6373 28.9909C37.3582 28.9563 37.0901 29.2655 37.0385 29.6816C36.9869 30.0977 37.1713 30.4631 37.4504 30.4977C37.7295 30.5324 37.9976 30.2231 38.0492 29.807Z" fill="#505050"/>
<path d="M40.8356 29.5829C40.8872 29.1668 40.7028 28.8014 40.4237 28.7668C40.1446 28.7321 39.8765 29.0414 39.8249 29.4575C39.7733 29.8736 39.9577 30.239 40.2368 30.2736C40.5159 30.3082 40.784 29.999 40.8356 29.5829Z" fill="#505050"/>
<path d="M38.1778 31.312C38.1527 31.3174 38.1268 31.3174 38.1017 31.312C37.9853 31.2863 37.878 31.2294 37.7915 31.1474C37.7049 31.0654 37.6423 30.9613 37.6104 30.8464C37.5785 30.7315 37.5784 30.6101 37.6103 30.4952C37.6422 30.3803 37.7047 30.2762 37.7912 30.1941C37.9152 30.081 38.0717 30.0099 38.2384 29.9908C38.3249 29.9802 38.4122 29.9776 38.4992 29.983C38.5116 29.9395 38.5225 29.9038 38.5318 29.8697C38.552 29.7982 38.5722 29.7284 38.6048 29.5933C38.6108 29.5668 38.622 29.5417 38.6378 29.5195C38.6536 29.4973 38.6736 29.4784 38.6967 29.464C38.7198 29.4496 38.7455 29.4399 38.7723 29.4354C38.7992 29.4309 38.8267 29.4318 38.8532 29.4381C38.9067 29.451 38.953 29.4844 38.982 29.5312C39.0111 29.578 39.0206 29.6343 39.0084 29.688C38.9727 29.8308 38.951 29.9054 38.9308 29.9783C38.9106 30.0513 38.8904 30.1196 38.8578 30.2547L38.8097 30.4503L38.6141 30.4068C38.5116 30.3888 38.4071 30.3851 38.3036 30.396C38.2215 30.4042 38.1436 30.4366 38.08 30.4891C38.0484 30.5203 38.0254 30.5592 38.0134 30.6019C38.0014 30.6447 38.0008 30.6898 38.0117 30.7329C38.0244 30.7753 38.0478 30.8136 38.0796 30.8444C38.1114 30.8751 38.1506 30.8971 38.1933 30.9083C38.2406 30.9183 38.2829 30.9447 38.3126 30.9829C38.3423 31.021 38.3576 31.0684 38.3557 31.1167C38.3539 31.165 38.335 31.2111 38.3024 31.2468C38.2699 31.2826 38.2257 31.3056 38.1778 31.312Z" fill="#F9B3A7"/>
<path d="M41.6058 55.1158L40.6618 56.9913L40.4724 58.3404L40.0206 58.2628L39.0223 60.2392L30.3932 59.7144C30.6075 58.7068 30.7767 57.6775 30.7333 56.6512C30.7333 56.5224 30.7193 56.3951 30.7069 56.2678C30.669 55.8615 30.5889 55.4603 30.4678 55.0707C30.2493 54.3188 29.8358 53.638 29.2692 53.0975C28.5224 52.4112 27.4356 52.0588 26.4575 52.2715C26.6221 52.2001 26.7851 52.1287 26.9512 52.0603C27.5474 51.815 28.1933 51.7343 28.8252 51.6256C29.8964 51.4393 36.6097 50.2904 37.7648 50.4146C37.7787 50.7003 41.081 54.0041 40.9258 55.1111L41.6058 55.1158Z" fill="#505050"/>
<path d="M43.4535 76.9802H40.9508L37.6641 62.8908C38.2851 62.1502 39.1017 62.04 40.0302 62.3365L43.4535 76.9802Z" fill="#E39454"/>
<path d="M17.1438 67.4989L14.4098 70.1755L13.5885 69.4753L14.7591 67.9321C13.9897 68.2085 13.1865 68.3798 12.3713 68.4413L9.29565 65.8191C10.5563 64.3379 12.0157 64.8969 12.0157 64.8969C12.2087 64.9566 12.4085 64.9916 12.6104 65.0009C12.3992 65.5691 13.0761 66.1141 13.531 66.3299C13.9785 66.5277 14.4661 66.6175 14.9547 66.5922C15.4422 66.5783 17.2137 66.5472 18.2632 65.7073C18.1732 66.5534 17.6267 67.1387 17.1438 67.4989Z" fill="#CD5657"/>
<path d="M16.3428 62.2481C16.3428 62.2481 18.0273 57.2535 26.4577 52.2745L27.1765 51.9795L30.7831 52.1456L31.3544 55.9944L28.3036 56.6418C28.3036 56.6418 25.686 61.2995 19.1964 64.8533C19.1964 64.8533 17.2603 64.9185 16.3428 62.2481Z" fill="#505050"/>
<path d="M24.3383 69.3572C24.3383 69.3572 22.9224 64.1639 26.5616 55.0737L32.306 55.6715L30.7022 59.7329C30.7022 59.7329 31.1292 63.0011 28.156 69.7764C28.1483 69.7764 26.3954 70.3214 24.3383 69.3572Z" fill="#505050"/>
<path d="M50.0036 52.72L44.2592 53.0879C43.0171 53.1671 41.7006 53.2742 40.7147 54.0288C39.7288 54.7833 39.3174 55.9772 38.9914 57.1152C38.6214 58.4537 38.3234 59.811 38.0986 61.1814C39.8763 61.1177 41.7037 61.1643 43.4192 60.6923C45.1348 60.2204 46.7867 59.4037 48.0381 58.1384C49.2894 56.8731 50.0642 54.4945 50.0036 52.72Z" fill="#FFE9BC"/>
<path d="M38.996 57.1152C38.996 57.1152 38.5163 60.0651 34.4641 59.9626V62.6268L40.7954 61.4639L42.0235 57.3512L38.996 57.1152Z" fill="#FFE9BC"/>
<path d="M50.3841 46.3858C50.453 46.6246 50.4708 46.8753 50.4363 47.1215C50.4019 47.3677 50.3159 47.6039 50.1841 47.8147C50.0523 48.0255 49.8775 48.2061 49.6712 48.3448C49.4649 48.4836 49.2317 48.5773 48.9868 48.6199L40.4571 50.1181L39.8252 47.4896L45.9562 45.6017L44.2888 41.8213C44.0088 41.1866 43.9332 40.4806 44.0723 39.8011C44.2113 39.1215 44.5583 38.502 45.0651 38.0284C45.4509 37.6636 45.919 37.3973 46.4298 37.2521L47.6485 36.8997L50.2785 46.0147L50.3841 46.3858Z" fill="#FCD6CE"/>
<path d="M47.1128 45.2461L45.9577 45.6017L44.2903 41.8212C44.0104 41.1866 43.9347 40.4806 44.0738 39.801C44.2129 39.1214 44.5598 38.502 45.0666 38.0283L47.1128 45.2461Z" fill="#F9B3A7"/>
<path d="M41.2612 49.0608C41.1059 49.4907 40.8645 49.8843 40.5516 50.2175C40.3805 50.4074 40.1935 50.5824 39.9927 50.7407C38.968 51.5511 37.7834 51.8119 37.1562 51.4098C37.07 51.3562 36.9938 51.2879 36.9311 51.208C36.4063 50.5451 36.9311 49.258 38.0908 48.3373C38.8951 47.7008 39.7987 47.4058 40.4538 47.5005C40.7264 47.5279 40.9776 47.6604 41.154 47.87C41.3962 48.1712 41.4164 48.5951 41.2612 49.0608Z" fill="#FCD6CE"/>
<path d="M43.1133 51.2498H34.2405V52.3226H43.1133V51.2498Z" fill="#B5B6B6"/>
<path d="M37.7353 52.3212H24.2561C24.0405 52.3212 23.8323 52.2422 23.6709 52.0992C23.5096 51.9562 23.4063 51.759 23.3804 51.5449L22.3666 43.3163C22.3565 43.2331 22.3642 43.1486 22.3891 43.0685C22.4141 42.9884 22.4558 42.9146 22.5114 42.8518C22.567 42.789 22.6353 42.7387 22.7118 42.7042C22.7882 42.6697 22.8712 42.6519 22.955 42.6519H36.0213C36.1634 42.6524 36.3006 42.7042 36.4075 42.7977C36.5145 42.8913 36.5841 43.0203 36.6035 43.1611L37.7353 52.3212Z" fill="#E5E5E5"/>
<path d="M30.7492 48.2831C31.2736 47.7346 31.2125 46.825 30.6126 46.2514C30.0127 45.6777 29.1013 45.6573 28.5768 46.2057C28.0524 46.7541 28.1135 47.6638 28.7134 48.2374C29.3132 48.8111 30.2247 48.8315 30.7492 48.2831Z" fill="#8C8C8C"/>
<path d="M58.3115 51.61C58.2959 55.2756 57.6392 58.907 56.231 62.2326C54.6387 57.0702 54.1225 51.636 54.7142 46.2662C54.9638 43.9713 55.4179 41.7033 56.0711 39.4893C57.5535 43.3583 58.3129 47.4667 58.3115 51.61Z" fill="#49B749"/>
<path d="M61.4057 54.6655C60.5375 57.8165 59.1085 60.7853 57.1874 63.4296C56.6972 55.6976 58.4896 47.992 62.3419 41.27C62.9338 45.7527 62.6154 50.3087 61.4057 54.6655Z" fill="#49B749"/>
<path d="M58.3115 51.61C58.2959 55.2756 57.6392 58.907 56.231 62.2326C54.6387 57.0702 54.1225 51.636 54.7142 46.2661C55.3639 48.3613 56.6148 50.2195 58.3115 51.61Z" fill="#3EA047"/>
<path d="M56.4903 64.3208C52.4591 57.7046 50.4614 50.0495 50.7459 42.3071C53.2936 45.9144 55.1072 49.9874 56.0836 54.2944C56.8133 57.6075 56.9965 61.0154 56.4903 64.3208Z" fill="#49B749"/>
<path d="M56.4902 64.3208C54.1977 60.5645 52.5504 56.4508 51.6167 52.1503C52.9341 53.1742 54.4548 53.9052 56.0772 54.2944C56.8131 57.6076 56.9963 61.0154 56.4902 64.3208ZM61.4055 54.6655C60.5373 57.8165 59.1084 60.7854 57.1873 63.4296C56.8778 58.5843 57.4657 53.7236 58.9215 49.0918C58.9035 50.1459 59.1165 51.1911 59.5457 52.154C59.9748 53.1169 60.6097 53.9741 61.4055 54.6655Z" fill="#3EA047"/>
<path d="M56.6284 57.9895C60.1962 57.9895 63.0886 57.6781 63.0886 57.2939C63.0886 56.9098 60.1962 56.5984 56.6284 56.5984C53.0605 56.5984 50.1682 56.9098 50.1682 57.2939C50.1682 57.6781 53.0605 57.9895 56.6284 57.9895Z" fill="#E5E5E5"/>
<path d="M63.4627 68.6447C63.1378 71.4907 62.4404 74.2818 61.3885 76.9462L51.8822 76.9803C50.9686 74.6787 50.3222 72.2798 49.9555 69.8308C48.9029 62.8785 50.1682 57.2893 50.1682 57.2893L63.0948 57.2551C63.0948 57.2551 64.2219 62.2342 63.4627 68.6447Z" fill="#E5E5E5"/>
<path d="M63.4628 68.6445C63.1379 71.4906 62.4405 74.2816 61.3886 76.946L51.8823 76.9802C50.9687 74.6786 50.3222 72.2797 49.9556 69.8307C50.9958 71.2125 52.6943 72.0508 54.4192 72.3551C57.9295 72.9699 62.5514 71.9763 63.4628 68.6445Z" fill="#B5B6B6"/>
<path d="M14.6272 34.6018H9.06751C7.76075 34.6018 6.70142 35.6611 6.70142 36.9679V42.5276C6.70142 43.8344 7.76075 44.8937 9.06751 44.8937H14.6272C15.934 44.8937 16.9933 43.8344 16.9933 42.5276V36.9679C16.9933 35.6611 15.934 34.6018 14.6272 34.6018Z" fill="#FFD789"/>
<path d="M55.3754 4.68093V12.5275C55.3756 12.7874 55.3246 13.0448 55.2253 13.2849C55.126 13.5251 54.9803 13.7433 54.7966 13.9272C54.6129 14.111 54.3948 14.2568 54.1548 14.3563C53.9147 14.4558 53.6573 14.507 53.3975 14.507H37.8719C37.6118 14.5072 37.3543 14.4562 37.1139 14.3568C36.8736 14.2574 36.6552 14.1116 36.4712 13.9278C36.2872 13.744 36.1413 13.5257 36.0417 13.2854C35.9421 13.0452 35.8909 12.7876 35.8909 12.5275V4.68093C35.8909 4.15674 36.0988 3.65395 36.469 3.28285C36.8392 2.91176 37.3415 2.70266 37.8657 2.70143H53.3913C53.6517 2.70061 53.9097 2.75122 54.1504 2.85035C54.3912 2.94948 54.6101 3.09519 54.7944 3.2791C54.9788 3.46302 55.125 3.68153 55.2247 3.92209C55.3244 4.16265 55.3756 4.42053 55.3754 4.68093Z" fill="#FFD789"/>
<path d="M45.2061 4.67944H42.1259C41.9955 4.67944 41.8899 4.7851 41.8899 4.91543V5.46659C41.8899 5.59692 41.9955 5.70258 42.1259 5.70258H45.2061C45.3365 5.70258 45.4421 5.59692 45.4421 5.46659V4.91543C45.4421 4.7851 45.3365 4.67944 45.2061 4.67944Z" fill="#ECB55D"/>
<path d="M47.7865 6.54102H42.1259C41.9955 6.54102 41.8899 6.64667 41.8899 6.777V7.32816C41.8899 7.45849 41.9955 7.56415 42.1259 7.56415H47.7865C47.9168 7.56415 48.0225 7.45849 48.0225 7.32816V6.777C48.0225 6.64667 47.9168 6.54102 47.7865 6.54102Z" fill="#ECB55D"/>
<path d="M18.9727 9.21607H26.8224C27.0824 9.21586 27.3399 9.26692 27.5802 9.36633C27.8204 9.46574 28.0387 9.61154 28.2226 9.79539C28.4064 9.97925 28.5522 10.1975 28.6516 10.4378C28.751 10.6781 28.8021 10.9356 28.8019 11.1956V26.7211C28.8027 26.9816 28.7521 27.2397 28.653 27.4805C28.5539 27.7214 28.4082 27.9404 28.2243 28.1248C28.0404 28.3093 27.8219 28.4557 27.5814 28.5556C27.3408 28.6554 27.0829 28.7068 26.8224 28.7068H18.9727C18.7126 28.7068 18.4551 28.6556 18.2148 28.556C17.9745 28.4564 17.7562 28.3105 17.5724 28.1265C17.3886 27.9425 17.2428 27.7241 17.1434 27.4838C17.044 27.2434 16.993 26.9859 16.9932 26.7258V11.2002C16.9924 10.9398 17.043 10.6818 17.1421 10.441C17.2412 10.2002 17.3869 9.98139 17.5709 9.79704C17.7548 9.61269 17.9733 9.46647 18.2138 9.36677C18.4544 9.26708 18.7123 9.21586 18.9727 9.21607Z" fill="#F58D7D"/>
<path d="M53.441 8.70361H38.153C38.0226 8.70361 37.917 8.80927 37.917 8.9396V9.49076C37.917 9.62109 38.0226 9.72675 38.153 9.72675H53.441C53.5713 9.72675 53.677 9.62109 53.677 9.49076V8.9396C53.677 8.80927 53.5713 8.70361 53.441 8.70361Z" fill="#ECB55D"/>
<path d="M53.441 10.8679H38.153C38.0226 10.8679 37.917 10.9736 37.917 11.1039V11.6551C37.917 11.7854 38.0226 11.8911 38.153 11.8911H53.441C53.5713 11.8911 53.677 11.7854 53.677 11.6551V11.1039C53.677 10.9736 53.5713 10.8679 53.441 10.8679Z" fill="#ECB55D"/>
<path d="M23.3649 14.3689H18.9013C18.7709 14.3689 18.6653 14.4746 18.6653 14.6049V15.1623C18.6653 15.2926 18.7709 15.3982 18.9013 15.3982H23.3649C23.4952 15.3982 23.6009 15.2926 23.6009 15.1623V14.6049C23.6009 14.4746 23.4952 14.3689 23.3649 14.3689Z" fill="#F37867"/>
<path d="M24.7468 11.3818H22.3078C22.1774 11.3818 22.0718 11.4875 22.0718 11.6178V12.1752C22.0718 12.3055 22.1774 12.4112 22.3078 12.4112H24.7468C24.8772 12.4112 24.9828 12.3055 24.9828 12.1752V11.6178C24.9828 11.4875 24.8772 11.3818 24.7468 11.3818Z" fill="#F37867"/>
<path d="M26.7714 19.3821H22.3078C22.1774 19.3821 22.0718 19.4877 22.0718 19.6181V20.1754C22.0718 20.3058 22.1774 20.4114 22.3078 20.4114H26.7714C26.9017 20.4114 27.0073 20.3058 27.0073 20.1754V19.6181C27.0073 19.4877 26.9017 19.3821 26.7714 19.3821Z" fill="#F37867"/>
<path d="M26.6702 24.5227H19.0037C18.8168 24.5227 18.6653 24.6742 18.6653 24.8612V25.653C18.6653 25.8399 18.8168 25.9914 19.0037 25.9914H26.6702C26.8572 25.9914 27.0087 25.8399 27.0087 25.653V24.8612C27.0087 24.6742 26.8572 24.5227 26.6702 24.5227Z" fill="#F37867"/>
<path d="M26.5804 16.4617H22.4987C22.2629 16.4617 22.0718 16.6528 22.0718 16.8886V17.89C22.0718 18.1258 22.2629 18.317 22.4987 18.317H26.5804C26.8162 18.317 27.0073 18.1258 27.0073 17.89V16.8886C27.0073 16.6528 26.8162 16.4617 26.5804 16.4617Z" fill="#F37867"/>
<path d="M67.7618 20.416H61.4367C59.9747 20.416 58.7896 21.6012 58.7896 23.0631V29.3882C58.7896 30.8502 59.9747 32.0353 61.4367 32.0353H67.7618C69.2237 32.0353 70.4089 30.8502 70.4089 29.3882V23.0631C70.4089 21.6012 69.2237 20.416 67.7618 20.416Z" fill="#F58D7D"/>
<path d="M64.4223 25.6171L62.0732 23.7323C62.1017 23.7299 62.1302 23.7299 62.1586 23.7323H67.0337C67.0732 23.7327 67.1127 23.7364 67.1516 23.7432L64.8042 25.6171C64.7496 25.6596 64.6824 25.6827 64.6132 25.6827C64.544 25.6827 64.4768 25.6596 64.4223 25.6171Z" fill="#F37867"/>
<path d="M68.1205 24.4108V27.8543C68.1201 28.0671 68.0354 28.271 67.8849 28.4215C67.7345 28.5719 67.5306 28.6566 67.3178 28.657H61.8684C61.6556 28.6566 61.4517 28.5719 61.3012 28.4215C61.1508 28.271 61.0661 28.0671 61.0657 27.8543V24.4108C61.0651 24.3383 61.0751 24.2662 61.0952 24.1965L63.851 26.4058C64.0665 26.5815 64.336 26.6774 64.6141 26.6774C64.8921 26.6774 65.1616 26.5815 65.3771 26.4058L68.0957 24.2322C68.1106 24.2906 68.1189 24.3505 68.1205 24.4108Z" fill="#F37867"/>
<path d="M19.9431 13.1751C20.6497 13.1751 21.2224 12.6023 21.2224 11.8958C21.2224 11.1892 20.6497 10.6165 19.9431 10.6165C19.2366 10.6165 18.6638 11.1892 18.6638 11.8958C18.6638 12.6023 19.2366 13.1751 19.9431 13.1751Z" fill="#F37867"/>
<path d="M20.6806 17.9288C20.9781 17.9288 21.2193 17.6876 21.2193 17.3901C21.2193 17.0925 20.9781 16.8513 20.6806 16.8513C20.383 16.8513 20.1418 17.0925 20.1418 17.3901C20.1418 17.6876 20.383 17.9288 20.6806 17.9288Z" fill="#F37867"/>
<path d="M20.6806 20.4346C20.9781 20.4346 21.2193 20.1934 21.2193 19.8959C21.2193 19.5984 20.9781 19.3572 20.6806 19.3572C20.383 19.3572 20.1418 19.5984 20.1418 19.8959C20.1418 20.1934 20.383 20.4346 20.6806 20.4346Z" fill="#F37867"/>
<path d="M39.3592 7.56245C40.1549 7.56245 40.8 6.91739 40.8 6.12168C40.8 5.32596 40.1549 4.68091 39.3592 4.68091C38.5635 4.68091 37.9185 5.32596 37.9185 6.12168C37.9185 6.91739 38.5635 7.56245 39.3592 7.56245Z" fill="#ECB55D"/>
<path d="M14.2157 42.6953H9.47729C9.47729 41.1862 10.5392 39.9644 11.8465 39.9644C13.1537 39.9644 14.2157 41.1924 14.2157 42.6953Z" fill="#ECB55D"/>
<path d="M11.8465 39.2564C12.613 39.2564 13.2345 38.635 13.2345 37.8685C13.2345 37.1019 12.613 36.4805 11.8465 36.4805C11.0799 36.4805 10.4585 37.1019 10.4585 37.8685C10.4585 38.635 11.0799 39.2564 11.8465 39.2564Z" fill="#ECB55D"/>
</g>
</g>
<defs>
<filter id="filter0_d_2225_7946" x="0" y="0" width="77.1104" height="88" filterUnits="userSpaceOnUse" color-interpolation-filters="sRGB">
<feFlood flood-opacity="0" result="BackgroundImageFix"/>
<feColorMatrix in="SourceAlpha" type="matrix" values="0 0 0 0 0 0 0 0 0 0 0 0 0 0 0 0 0 0 127 0" result="hardAlpha"/>
<feOffset dy="4"/>
<feGaussianBlur stdDeviation="2"/>
<feComposite in2="hardAlpha" operator="out"/>
<feColorMatrix type="matrix" values="0 0 0 0 0 0 0 0 0 0 0 0 0 0 0 0 0 0 0.25 0"/>
<feBlend mode="normal" in2="BackgroundImageFix" result="effect1_dropShadow_2225_7946"/>
<feBlend mode="normal" in="SourceGraphic" in2="effect1_dropShadow_2225_7946" result="shape"/>
</filter>
<clipPath id="clip0_2225_7946">
<rect width="69.1104" height="80" fill="white" transform="translate(4)"/>
</clipPath>
</defs>
</svg>
