<svg width="12" height="14" viewBox="0 0 12 14" fill="none" xmlns="http://www.w3.org/2000/svg">
<path d="M9.41518 7.41816C9.39851 5.7295 10.7925 4.9195 10.8545 4.8795C10.0712 3.73283 8.85118 3.57616 8.41651 3.55816C7.37851 3.45283 6.39051 4.1695 5.86318 4.1695C5.33785 4.1695 4.52451 3.5735 3.66318 3.5895C2.53251 3.60616 1.48918 4.24683 0.906513 5.26016C-0.269488 7.30016 0.605179 10.3235 1.75118 11.9782C2.31118 12.7882 2.97918 13.6982 3.85585 13.6648C4.69985 13.6315 5.01918 13.1188 6.03985 13.1188C7.06051 13.1188 7.34785 13.6655 8.24118 13.6488C9.14985 13.6315 9.72518 12.8228 10.2812 12.0108C10.9245 11.0708 11.1892 10.1608 11.2052 10.1142C11.1852 10.1055 9.43318 9.43416 9.41585 7.4175L9.41518 7.41816ZM7.73651 2.46283C8.20185 1.89816 8.51585 1.11483 8.42985 0.333496C7.75985 0.360163 6.94718 0.780163 6.46651 1.3435C6.03518 1.8435 5.65718 2.64016 5.75851 3.40616C6.50651 3.46483 7.27051 3.02616 7.73651 2.46283Z" fill="black"/>
</svg>
