<svg width="26" height="26" viewBox="0 0 26 26" fill="none" xmlns="http://www.w3.org/2000/svg">
<path d="M6.55416 6.32304C6.896 5.97936 7.35821 5.78487 7.84109 5.78152L16.9133 5.78865C17.1452 5.78798 17.3702 5.86858 17.5497 6.01666L24.7834 12.0517C24.8965 12.1465 24.9874 12.2652 25.0498 12.3995C25.1121 12.5337 25.1443 12.6802 25.144 12.8284C25.1443 12.9766 25.1121 13.123 25.0498 13.2573C24.9874 13.3915 24.8965 13.5103 24.7834 13.605L17.5497 19.6401C17.3702 19.7882 17.1452 19.8688 16.9133 19.8681L7.84109 19.8752C7.35934 19.8745 6.89753 19.6813 6.55689 19.3381C6.21624 18.9948 6.02455 18.5295 6.02383 18.044V7.61271C6.02497 7.12918 6.21557 6.66567 6.55416 6.32304ZM16.5314 7.82646L8.04615 7.82646L8.04615 17.873L16.5314 17.873L22.5701 12.8284L16.5314 7.82646Z" fill="#A2B4E8"/>
<path d="M15.3009 11.7597C14.7151 12.35 14.7151 13.307 15.3009 13.8973C15.8867 14.4875 16.8365 14.4875 17.4222 13.8973C18.008 13.307 18.008 12.35 17.4222 11.7597C16.8365 11.1694 15.8867 11.1694 15.3009 11.7597Z" fill="#A2B4E8"/>
</svg>
