<svg width="200" height="200" viewBox="0 0 200 200" fill="none" xmlns="http://www.w3.org/2000/svg">
<g clip-path="url(#clip0_3212_12686)">
<path d="M61.7187 156.138L56.1383 161.719C55.3943 162.463 54.5386 162.835 53.5714 162.835C52.6041 162.835 51.7484 162.463 51.0044 161.719L-1.00453 109.71C-1.74858 108.966 -2.12061 108.11 -2.12061 107.143C-2.12061 106.176 -1.74858 105.32 -1.00453 104.576L51.0044 52.567C51.7484 51.823 52.6041 51.451 53.5714 51.451C54.5386 51.451 55.3943 51.823 56.1383 52.567L61.7187 58.1474C62.4627 58.8914 62.8347 59.7471 62.8347 60.7144C62.8347 61.6816 62.4627 62.5373 61.7187 63.2813L17.8571 107.143L61.7187 151.005C62.4627 151.749 62.8347 152.604 62.8347 153.571C62.8347 154.539 62.4627 155.394 61.7187 156.138ZM127.678 37.0536L86.049 181.138C85.7514 182.106 85.1748 182.831 84.3191 183.315C83.4635 183.798 82.5892 183.891 81.6964 183.594L74.7767 181.696C73.8095 181.399 73.084 180.822 72.6004 179.967C72.1167 179.111 72.0237 178.199 72.3214 177.232L113.951 33.1474C114.248 32.1801 114.825 31.4547 115.681 30.9711C116.536 30.4874 117.411 30.3944 118.303 30.692L125.223 32.5894C126.19 32.887 126.916 33.4636 127.399 34.3193C127.883 35.1749 127.976 36.0864 127.678 37.0536ZM201.004 109.71L148.995 161.719C148.251 162.463 147.396 162.835 146.428 162.835C145.461 162.835 144.606 162.463 143.862 161.719L138.281 156.138C137.537 155.394 137.165 154.539 137.165 153.571C137.165 152.604 137.537 151.749 138.281 151.005L182.143 107.143L138.281 63.2813C137.537 62.5373 137.165 61.6816 137.165 60.7144C137.165 59.7471 137.537 58.8914 138.281 58.1474L143.862 52.567C144.606 51.823 145.461 51.451 146.428 51.451C147.396 51.451 148.251 51.823 148.995 52.567L201.004 104.576C201.748 105.32 202.12 106.176 202.12 107.143C202.12 108.11 201.748 108.966 201.004 109.71Z" fill="#00A1FF" fill-opacity="0.04"/>
</g>
<defs>
<clipPath id="clip0_3212_12686">
<rect width="200" height="200" fill="white"/>
</clipPath>
</defs>
</svg>
