<svg width="200" height="200" viewBox="0 0 200 200" fill="none" xmlns="http://www.w3.org/2000/svg">
<path fill-rule="evenodd" clip-rule="evenodd" d="M89.3313 29.0375C88.3794 27.0421 88.1633 24.7745 88.7212 22.6353C89.279 20.4961 90.575 18.6228 92.38 17.3464C94.1851 16.07 96.3832 15.4725 98.586 15.6596C100.789 15.8467 102.855 16.8062 104.419 18.3687L117.85 31.8062L118.037 31.6187C119.751 29.9037 121.934 28.7357 124.312 28.2629C126.689 27.7901 129.154 28.0336 131.393 28.9626C133.632 29.8917 135.544 31.4645 136.889 33.4816C138.233 35.4988 138.948 37.8696 138.944 40.2937C138.944 43.5437 137.656 46.6562 135.356 48.9562L135.181 49.1312L139.175 53.125H175C177.485 53.1299 179.867 54.1192 181.624 55.8763C183.381 57.6334 184.37 60.0151 184.375 62.5V143.75C184.37 146.235 183.381 148.617 181.624 150.374C179.867 152.131 177.485 153.12 175 153.125H118.256L119.319 159.469C123.361 159.616 127.189 161.325 129.997 164.237C132.805 167.149 134.374 171.036 134.375 175.081V181.331C134.375 182.16 134.046 182.955 133.46 183.541C132.874 184.127 132.079 184.456 131.25 184.456H68.75C67.9212 184.456 67.1263 184.127 66.5403 183.541C65.9542 182.955 65.625 182.16 65.625 181.331V175.081C65.6256 171.036 67.1949 167.149 70.0029 164.237C72.8109 161.325 76.6388 159.616 80.6813 159.469L81.7438 153.125H25C22.5151 153.12 20.1334 152.131 18.3763 150.374C16.6193 148.617 15.63 146.235 15.625 143.75V62.5C15.63 60.0151 16.6193 57.6334 18.3763 55.8763C20.1334 54.1192 22.5151 53.1299 25 53.125H73.3375L75.2812 47.2875C76.6618 43.1452 78.9878 39.3813 82.075 36.2937L89.3313 29.0375ZM118.75 165.706H81.25C78.7636 165.706 76.379 166.694 74.6209 168.452C72.8627 170.21 71.875 172.595 71.875 175.081V178.206H128.125V175.081C128.126 173.85 127.884 172.63 127.413 171.493C126.942 170.355 126.252 169.321 125.381 168.45C124.51 167.58 123.476 166.889 122.339 166.418C121.201 165.947 119.981 165.705 118.75 165.706ZM87.025 159.456H112.975L111.925 153.125H88.075L87.025 159.456ZM178.125 140.706H21.875V143.75C21.875 144.581 22.2062 145.375 22.7875 145.962C23.3762 146.546 24.1712 146.874 25 146.875H175C175.831 146.875 176.625 146.544 177.212 145.962C177.796 145.374 178.124 144.579 178.125 143.75V140.706ZM145.425 59.375L148.613 62.5625C150.369 64.325 151.363 66.7062 151.363 69.1937C151.363 70.7781 150.962 72.3368 150.198 73.7243C149.433 75.1118 148.329 76.2828 146.988 77.1279C145.648 77.9731 144.116 78.4648 142.534 78.5572C140.952 78.6496 139.373 78.3396 137.944 77.6562L130.688 84.9062C127.602 87.9956 123.837 90.3219 119.694 91.7L99.4812 98.4437L97.7875 100.131L113.256 115.6C113.635 115.976 113.911 116.442 114.058 116.955C114.204 117.468 114.217 118.009 114.095 118.528C113.973 119.048 113.719 119.527 113.359 119.92C112.999 120.313 112.544 120.608 112.038 120.775L98.7812 125.194C98.2303 125.377 97.639 125.404 97.0737 125.27C96.5085 125.137 95.9917 124.848 95.5813 124.437L84.5312 113.387L82.325 115.6C80.5642 117.355 78.1797 118.34 75.6937 118.34C73.2078 118.34 70.8233 117.355 69.0625 115.6L51.3875 97.9187C49.6315 96.1598 48.6452 93.776 48.6452 91.2906C48.6452 88.8052 49.6315 86.4213 51.3875 84.6624L68.5438 67.5062L71.25 59.375H25C24.1712 59.3762 23.3762 59.7041 22.7875 60.2875C22.2041 60.8762 21.8762 61.6711 21.875 62.5V134.456H178.125V62.5C178.124 61.6711 177.796 60.8762 177.212 60.2875C176.624 59.7041 175.829 59.3762 175 59.375H145.425ZM88.95 108.969L98.6312 118.65L105.262 116.444L93.3688 104.55L88.95 108.969ZM71.275 73.6124L55.8062 89.0812C55.2204 89.6672 54.8913 90.4619 54.8913 91.2906C54.8913 92.1192 55.2204 92.9139 55.8062 93.5L73.4813 111.181C74.0705 111.761 74.864 112.086 75.6906 112.086C76.5173 112.086 77.3108 111.761 77.9 111.181L93.3688 95.7125L71.275 73.6124ZM93.3688 33.8375L86.4938 40.7125C84.0946 43.1147 82.2866 46.0417 81.2125 49.2625L74.85 68.3499L98.6312 92.1375L117.719 85.7749C120.941 84.7001 123.868 82.8898 126.269 80.4874L133.144 73.6124L93.3688 33.8375ZM144.194 71.4062C144.78 70.8202 145.109 70.0255 145.109 69.1968C145.109 68.3682 144.78 67.5735 144.194 66.9875L100 22.7875C99.4108 22.2077 98.6173 21.8827 97.7906 21.8827C96.964 21.8827 96.1705 22.2077 95.5813 22.7875C95.2902 23.0777 95.0593 23.4226 94.9018 23.8022C94.7443 24.1819 94.6632 24.5889 94.6632 25C94.6632 25.411 94.7443 25.818 94.9018 26.1977C95.0593 26.5773 95.2902 26.9222 95.5813 27.2125L139.775 71.4062C140.364 71.986 141.158 72.3109 141.984 72.3109C142.811 72.3109 143.605 71.986 144.194 71.4062ZM130.763 44.7125L130.938 44.5375C131.495 43.9803 131.937 43.3187 132.239 42.5905C132.541 41.8624 132.696 41.0819 132.696 40.2937C132.696 39.5055 132.541 38.725 132.239 37.9969C131.937 37.2687 131.495 36.6071 130.938 36.05L130.925 36.0375C130.369 35.4805 129.709 35.0387 128.983 34.7372C128.256 34.4358 127.477 34.2806 126.691 34.2806C125.904 34.2806 125.125 34.4358 124.398 34.7372C123.672 35.0387 123.012 35.4805 122.456 36.0375L122.269 36.225L130.763 44.7125Z" fill="#00A1FF" fill-opacity="0.04"/>
</svg>
