<svg width="47" height="47" viewBox="0 0 47 47" fill="none" xmlns="http://www.w3.org/2000/svg">
<path fill-rule="evenodd" clip-rule="evenodd" d="M20.5661 3.98552C20.3043 3.43679 20.2449 2.81322 20.3983 2.22493C20.5517 1.63664 20.9081 1.12149 21.4045 0.77048C21.9009 0.419467 22.5054 0.255171 23.1112 0.306613C23.7169 0.358054 24.2851 0.621923 24.7152 1.05161L28.4088 4.74693L28.4603 4.69536C28.9314 4.22373 29.5319 3.90255 30.1857 3.77252C30.8395 3.64248 31.5172 3.70946 32.133 3.96495C32.7487 4.22044 33.2747 4.65294 33.6444 5.20767C34.014 5.76239 34.2107 6.41437 34.2095 7.08099C34.2095 7.97474 33.8555 8.83068 33.223 9.46318L33.1748 9.5113L34.2731 10.6096H44.125C44.8083 10.6109 45.4633 10.883 45.9465 11.3662C46.4297 11.8494 46.7018 12.5044 46.7031 13.1877V35.5315C46.7018 36.2148 46.4297 36.8698 45.9465 37.353C45.4633 37.8362 44.8083 38.1082 44.125 38.1096H28.5205L28.8127 39.8541C29.9243 39.8946 30.977 40.3647 31.7492 41.1654C32.5214 41.9661 32.953 43.0351 32.9531 44.1475V45.8663C32.9531 46.0942 32.8626 46.3128 32.7014 46.474C32.5403 46.6351 32.3217 46.7257 32.0938 46.7257H14.9062C14.6783 46.7257 14.4597 46.6351 14.2986 46.474C14.1374 46.3128 14.0469 46.0942 14.0469 45.8663V44.1475C14.047 43.0351 14.4786 41.9661 15.2508 41.1654C16.023 40.3647 17.0757 39.8946 18.1873 39.8541L18.4795 38.1096H2.875C2.19166 38.1082 1.53669 37.8362 1.0535 37.353C0.570298 36.8698 0.298238 36.2148 0.296875 35.5315V13.1877C0.298238 12.5044 0.570298 11.8494 1.0535 11.3662C1.53669 10.883 2.19166 10.6109 2.875 10.6096H16.1678L16.7023 9.00427C17.082 7.86515 17.7216 6.83007 18.5706 5.98099L20.5661 3.98552ZM28.6562 41.5694H18.3438C17.66 41.5694 17.0042 41.841 16.5207 42.3245C16.0372 42.808 15.7656 43.4638 15.7656 44.1475V45.0069H31.2344V44.1475C31.2346 43.8089 31.1681 43.4736 31.0386 43.1607C30.9091 42.8478 30.7192 42.5635 30.4798 42.324C30.2403 42.0846 29.956 41.8947 29.6431 41.7652C29.3302 41.6357 28.9949 41.5692 28.6562 41.5694ZM19.9319 39.8507H27.0681L26.7794 38.1096H20.2206L19.9319 39.8507ZM44.9844 34.6944H2.01562V35.5315C2.01562 35.76 2.10672 35.9783 2.26656 36.1399C2.42846 36.3003 2.64707 36.3905 2.875 36.3908H44.125C44.3536 36.3908 44.5719 36.2997 44.7334 36.1399C44.8939 35.978 44.984 35.7594 44.9844 35.5315V34.6944ZM35.9919 12.3283L36.8684 13.2049C37.3514 13.6896 37.6247 14.3444 37.6247 15.0285C37.6249 15.4642 37.5147 15.8928 37.3043 16.2744C37.094 16.656 36.7903 16.978 36.4218 17.2104C36.0533 17.4428 35.6318 17.578 35.1969 17.6034C34.7619 17.6289 34.3276 17.5436 33.9345 17.3557L31.9391 19.3494C31.0905 20.199 30.0552 20.8388 28.9158 21.2177L23.3573 23.0722L22.8916 23.5363L27.1455 27.7902C27.2496 27.8935 27.3254 28.0218 27.3658 28.1628C27.4062 28.3038 27.4098 28.4528 27.3761 28.5956C27.3425 28.7383 27.2728 28.8701 27.1738 28.9782C27.0747 29.0864 26.9496 29.1673 26.8103 29.2133L23.1648 30.4285C23.0133 30.479 22.8507 30.4863 22.6953 30.4496C22.5398 30.4129 22.3977 30.3335 22.2848 30.2205L19.2461 27.1818L18.6394 27.7902C18.1552 28.2728 17.4994 28.5438 16.8158 28.5438C16.1322 28.5438 15.4764 28.2728 14.9922 27.7902L10.1316 22.9279C9.64866 22.4442 9.37743 21.7886 9.37743 21.1051C9.37743 20.4216 9.64866 19.7661 10.1316 19.2824L14.8495 14.5644L15.5937 12.3283H2.875C2.64707 12.3287 2.42846 12.4188 2.26656 12.5793C2.10613 12.7412 2.01597 12.9598 2.01562 13.1877V32.9757H44.9844V13.1877C44.984 12.9598 44.8939 12.7412 44.7334 12.5793C44.5715 12.4188 44.3529 12.3287 44.125 12.3283H35.9919ZM20.4613 25.9666L23.1236 28.629L24.9472 28.0222L21.6764 24.7515L20.4613 25.9666ZM15.6006 16.2436L11.3467 20.4975C11.1856 20.6587 11.0951 20.8773 11.0951 21.1051C11.0951 21.333 11.1856 21.5515 11.3467 21.7127L16.2073 26.575C16.3694 26.7345 16.5876 26.8239 16.8149 26.8239C17.0422 26.8239 17.2605 26.7345 17.4225 26.575L21.6764 22.3211L15.6006 16.2436ZM21.6764 5.30552L19.7858 7.19614C19.126 7.85676 18.6288 8.66169 18.3334 9.54739L16.5837 14.7965L23.1236 21.338L28.3727 19.5883C29.2587 19.2927 30.0637 18.7949 30.7239 18.1343L32.6145 16.2436L21.6764 5.30552ZM35.6533 15.6369C35.8144 15.4758 35.9049 15.2572 35.9049 15.0293C35.9049 14.8015 35.8144 14.5829 35.6533 14.4218L23.5 2.26677C23.338 2.10732 23.1197 2.01796 22.8924 2.01796C22.6651 2.01796 22.4469 2.10732 22.2848 2.26677C22.2048 2.3466 22.1413 2.44143 22.098 2.54584C22.0547 2.65024 22.0324 2.76217 22.0324 2.87521C22.0324 2.98824 22.0547 3.10017 22.098 3.20458C22.1413 3.30898 22.2048 3.40382 22.2848 3.48364L34.4381 15.6369C34.6002 15.7964 34.8184 15.8857 35.0457 15.8857C35.273 15.8857 35.4912 15.7964 35.6533 15.6369ZM31.9597 8.29614L32.0078 8.24802C32.1611 8.09479 32.2827 7.91286 32.3657 7.71262C32.4487 7.51237 32.4914 7.29774 32.4914 7.08099C32.4914 6.86423 32.4487 6.6496 32.3657 6.44936C32.2827 6.24912 32.1611 6.06718 32.0078 5.91396L32.0044 5.91052C31.8516 5.75737 31.6701 5.63586 31.4703 5.55296C31.2705 5.47006 31.0563 5.42738 30.8399 5.42738C30.6236 5.42738 30.4094 5.47006 30.2096 5.55296C30.0098 5.63586 29.8283 5.75737 29.6755 5.91052L29.6239 5.96208L31.9597 8.29614Z" fill="white"/>
</svg>
