<svg width="55" height="43" viewBox="0 0 55 43" fill="none" xmlns="http://www.w3.org/2000/svg">
<path d="M16.9728 34.9381L15.4382 36.4727C15.2336 36.6773 14.9983 36.7796 14.7323 36.7796C14.4663 36.7796 14.231 36.6773 14.0264 36.4727L-0.276088 22.1702C-0.480701 21.9656 -0.583008 21.7303 -0.583008 21.4643C-0.583008 21.1983 -0.480701 20.963 -0.276088 20.7584L14.0264 6.45595C14.231 6.25133 14.4663 6.14903 14.7323 6.14903C14.9983 6.14903 15.2336 6.25133 15.4382 6.45595L16.9728 7.99055C17.1774 8.19516 17.2797 8.43046 17.2797 8.69646C17.2797 8.96246 17.1774 9.19776 16.9728 9.40238L4.91085 21.4643L16.9728 33.5263C17.1774 33.7309 17.2797 33.9662 17.2797 34.2322C17.2797 34.4982 17.1774 34.7335 16.9728 34.9381ZM35.1117 2.18977L23.6636 41.8131C23.5818 42.0791 23.4232 42.2786 23.1879 42.4116C22.9526 42.5446 22.7122 42.5702 22.4667 42.4883L20.5638 41.9665C20.2978 41.8847 20.0983 41.7261 19.9653 41.4908C19.8323 41.2555 19.8067 41.0049 19.8885 40.7389L31.3366 1.11555C31.4185 0.84955 31.5771 0.650052 31.8124 0.517053C32.0477 0.384055 32.2881 0.358478 32.5336 0.440323L34.4365 0.962087C34.7025 1.04393 34.902 1.20251 35.035 1.43781C35.168 1.67312 35.1936 1.92377 35.1117 2.18977ZM55.2764 22.1702L40.9739 36.4727C40.7693 36.6773 40.534 36.7796 40.268 36.7796C40.002 36.7796 39.7667 36.6773 39.5621 36.4727L38.0275 34.9381C37.8229 34.7335 37.7206 34.4982 37.7206 34.2322C37.7206 33.9662 37.8229 33.7309 38.0275 33.5263L50.0894 21.4643L38.0275 9.40238C37.8229 9.19776 37.7206 8.96246 37.7206 8.69646C37.7206 8.43046 37.8229 8.19516 38.0275 7.99055L39.5621 6.45595C39.7667 6.25133 40.002 6.14903 40.268 6.14903C40.534 6.14903 40.7693 6.25133 40.9739 6.45595L55.2764 20.7584C55.481 20.963 55.5833 21.1983 55.5833 21.4643C55.5833 21.7303 55.481 21.9656 55.2764 22.1702Z" fill="white"/>
</svg>
