<svg width="123" height="112" viewBox="0 0 123 112" fill="none" xmlns="http://www.w3.org/2000/svg">
<g clip-path="url(#clip0_2225_8727)">
<path d="M77.2125 105C123.712 68.9998 68.7125 1.99971 19.2124 27.4999" stroke="#CBD5E1" stroke-width="0.931839"/>
<path d="M64.4607 25.7557C64.4276 20.8245 60.4032 16.8537 55.472 16.8868C50.5408 16.9199 46.57 20.9443 46.6031 25.8755C46.6362 30.8068 50.6606 34.7775 55.5918 34.7444C60.5231 34.7113 64.4938 30.6869 64.4607 25.7557Z" fill="#C0E9D4"/>
<mask id="mask0_2225_8727" style="mask-type:luminance" maskUnits="userSpaceOnUse" x="50" y="20" width="12" height="12">
<path d="M52.5359 20.0002L62 22.5361L59.4641 32.0002L50 29.4643L52.5359 20.0002Z" fill="white"/>
</mask>
<g mask="url(#mask0_2225_8727)">
<path d="M57.3233 29.7355L57.915 29.8939C58.3506 30.0107 58.7984 29.7522 58.9152 29.3166L60.3942 23.7959C60.511 23.3603 60.2525 22.9126 59.8169 22.7959L54.2961 21.3166C53.8605 21.1999 53.4132 21.4584 53.2964 21.8939L51.8169 27.4147C51.7001 27.8502 51.9586 28.298 52.3942 28.4147L52.9859 28.5732M55.2603 28.76C54.6072 28.5849 54.2192 27.9133 54.3941 27.26C54.5695 26.6066 55.2409 26.2189 55.8941 26.3939C56.5478 26.569 56.9353 27.2406 56.7604 27.894C56.5854 28.5473 55.9135 28.935 55.2603 28.76ZM55.2603 28.76L55.252 28.7576L56.1736 30.354L57.5879 29.5375L56.7161 28.0278M55.2603 28.76L53.664 29.6816L52.8475 28.2674L54.357 27.3957M57.817 23.9506L55.4507 23.3166M58.236 25.5421L54.2922 24.4855" stroke="#18A558" stroke-linecap="round" stroke-linejoin="round"/>
</g>
<path d="M98.8874 52.5091C98.8543 47.5779 94.8299 43.6072 89.8987 43.6403C84.9675 43.6734 80.9968 47.6977 81.0299 52.629C81.063 57.5602 85.0874 61.5309 90.0186 61.4978C94.9498 61.4647 98.9205 57.4403 98.8874 52.5091Z" fill="#C6D7FF"/>
<mask id="mask1_2225_8727" style="mask-type:luminance" maskUnits="userSpaceOnUse" x="84" y="46" width="13" height="13">
<path d="M86.645 46.1877L96.1091 48.7236L93.5732 58.1877L84.1091 55.6518L86.645 46.1877Z" fill="white"/>
</mask>
<g mask="url(#mask1_2225_8727)">
<path d="M86.1658 51.1331L86.9545 51.344M86.5737 54.2306L87.2811 53.8226M93.2641 53.035L94.0529 53.2459M92.9381 50.5563L93.6449 50.1484M90.9548 49.0347L91.1657 48.2461M88.4762 49.3613L88.0682 48.654M89.0529 56.133L89.2638 55.3443M92.1504 55.7251L91.7425 55.0177M90.6377 50.2176L89.6978 51.2886L88.2819 51.1231L89.0103 52.3475L88.4142 53.6416L89.8046 53.3272L90.8513 54.2942L90.982 52.8756L92.2252 52.1798L90.9161 51.6152L90.6377 50.2176Z" stroke="#00A1FF" stroke-width="1.09495" stroke-linecap="round" stroke-linejoin="round"/>
</g>
<path d="M95.3449 99.1168C97.7819 94.8296 96.282 89.3787 91.9949 86.9418C87.7078 84.5048 82.2569 86.0047 79.8199 90.2918C77.383 94.5789 78.8829 100.03 83.17 102.467C87.4571 104.904 92.908 103.404 95.3449 99.1168Z" fill="#FFE2BB"/>
<mask id="mask2_2225_8727" style="mask-type:luminance" maskUnits="userSpaceOnUse" x="81" y="88" width="13" height="13">
<path d="M93.7283 91.3294L84.2642 88.7935L81.7283 98.2576L91.1924 100.793L93.7283 91.3294Z" fill="white"/>
</mask>
<g mask="url(#mask2_2225_8727)">
<path d="M85.8953 93.9617L85.1143 90.8747C85.0246 90.5199 84.9798 90.3428 85.028 90.2199C85.0706 90.1131 85.1558 90.029 85.2632 89.9886C85.3861 89.9415 85.5632 89.9891 85.9169 90.0838L86.7981 90.3201C86.9293 90.355 86.9952 90.3727 87.0489 90.4076C87.097 90.4386 87.1374 90.479 87.1684 90.526C87.2038 90.5797 87.2221 90.645 87.2586 90.7762L88.0452 93.6125L90.1447 91.5495C90.2416 91.4543 90.2903 91.4067 90.3478 91.3779C90.3982 91.3524 90.4536 91.338 90.5106 91.3353C90.5742 91.332 90.6401 91.3497 90.7718 91.3845L91.653 91.6209C92.0067 91.7155 92.1833 91.7631 92.2669 91.865C92.3394 91.9541 92.3709 92.0692 92.3543 92.1833C92.335 92.3133 92.2071 92.4445 91.9519 92.7069L89.7323 94.9902M86.9254 95.4258L87.6223 95.19L87.0942 97.1616M86.6011 97.0299L87.5869 97.2939M89.6565 94.849C90.3893 96.1182 89.9543 97.7412 88.6851 98.474C87.4158 99.2069 85.7929 98.7718 85.0601 97.5026C84.3278 96.2334 84.7623 94.6105 86.0315 93.8776C87.3007 93.1453 88.9236 93.5798 89.6565 94.849Z" stroke="#FF9E0F" stroke-linecap="round" stroke-linejoin="round"/>
</g>
</g>
<defs>
<clipPath id="clip0_2225_8727">
<rect width="100" height="71" fill="white" transform="translate(35.9426 0.650391) rotate(29.6154)"/>
</clipPath>
</defs>
</svg>
