<svg width="123" height="112" viewBox="0 0 123 112" fill="none" xmlns="http://www.w3.org/2000/svg">
<path d="M76.3563 105C122.856 68.9998 67.8563 1.99971 18.3562 27.4999" stroke="#CBD5E1" stroke-width="0.931839"/>
<path d="M63.6045 25.7557C63.5714 20.8245 59.547 16.8537 54.6158 16.8868C49.6846 16.9199 45.7138 20.9443 45.7469 25.8755C45.78 30.8068 49.8044 34.7775 54.7356 34.7444C59.6668 34.7113 63.6376 30.6869 63.6045 25.7557Z" fill="#C0E9D4"/>
<mask id="mask0_2225_8445" style="mask-type:luminance" maskUnits="userSpaceOnUse" x="50" y="21" width="10" height="10">
<path d="M59.1111 21.32L50.1824 21.3799L50.2423 30.3086L59.1711 30.2487L59.1111 21.32Z" fill="white"/>
</mask>
<g mask="url(#mask0_2225_8445)">
<path d="M51.9103 29.5549L51.8978 27.6948M51.8728 23.9745L51.8603 22.1143M50.9365 23.0506L52.7967 23.0382M50.974 28.6311L52.8341 28.6186M55.0251 22.4651L54.3912 24.1469C54.2881 24.4204 54.2366 24.5571 54.1558 24.6724C54.0842 24.7745 53.9959 24.864 53.8947 24.937C53.7805 25.0194 53.6445 25.0727 53.3724 25.1794L51.6993 25.8359L53.3811 26.4698C53.6546 26.5728 53.7913 26.6244 53.9066 26.7052C54.0087 26.7768 54.0982 26.8651 54.1712 26.9663C54.2535 27.0805 54.3069 27.2165 54.4136 27.4886L55.0701 29.1617L55.7039 27.4799C55.807 27.2064 55.8586 27.0697 55.9394 26.9544C56.011 26.8523 56.0993 26.7628 56.2004 26.6898C56.3146 26.6075 56.4507 26.5541 56.7227 26.4474L58.3959 25.7909L56.7141 25.157C56.4406 25.054 56.3039 25.0024 56.1886 24.9216C56.0864 24.85 55.997 24.7617 55.924 24.6605C55.8416 24.5463 55.7883 24.4103 55.6815 24.1383L55.0251 22.4651Z" stroke="#18A558" stroke-width="1.39776" stroke-linecap="round" stroke-linejoin="round"/>
</g>
<path d="M98.0312 52.5091C97.9981 47.5779 93.9737 43.6072 89.0425 43.6403C84.1113 43.6734 80.1406 47.6977 80.1737 52.629C80.2068 57.5602 84.2312 61.5309 89.1624 61.4978C94.0936 61.4647 98.0643 57.4403 98.0312 52.5091Z" fill="#C6D7FF"/>
<mask id="mask1_2225_8445" style="mask-type:luminance" maskUnits="userSpaceOnUse" x="84" y="48" width="10" height="10">
<path d="M93.5379 48.0729L84.6091 48.1328L84.6691 57.0616L93.5978 57.0016L93.5379 48.0729Z" fill="white"/>
</mask>
<g mask="url(#mask1_2225_8445)">
<path d="M90.5804 51.0711L90.5732 49.9551L91.6817 48.8314L92.0585 49.573L92.8051 49.94L91.6966 51.0636L90.5804 51.0711ZM90.5804 51.0711L89.1023 52.5692M92.8228 52.5444C92.8367 54.599 91.1823 56.276 89.1273 56.2895C87.0728 56.3034 85.396 54.6489 85.3821 52.5943C85.3683 50.5396 87.0229 48.8628 89.0775 48.849M90.9628 52.5569C90.9698 53.5843 90.1421 54.4224 89.1151 54.4295C88.0876 54.4363 87.2492 53.6091 87.2423 52.5818C87.2354 51.5544 88.0627 50.716 89.09 50.7092" stroke="#00A1FF" stroke-width="1.39776" stroke-linecap="round" stroke-linejoin="round"/>
</g>
<path d="M94.4887 99.1168C96.9257 94.8296 95.4258 89.3787 91.1387 86.9418C86.8516 84.5048 81.4007 86.0047 78.9637 90.2918C76.5268 94.5789 78.0267 100.03 82.3138 102.467C86.6009 104.904 92.0518 103.404 94.4887 99.1168Z" fill="#FFE2BB"/>
<path d="M84.5286 96.6097L84.476 97.142C84.4603 97.3008 84.4907 97.4605 84.5642 97.6023C84.6375 97.7432 84.7501 97.8606 84.8883 97.9392C85.027 98.018 85.1855 98.0547 85.3441 98.0456C85.503 98.0359 85.6563 97.9806 85.7842 97.8856L86.2146 97.5681C86.3683 97.4556 86.5526 97.3939 86.7422 97.3928C86.9334 97.3913 87.1201 97.4508 87.2754 97.5617L87.7098 97.8744C87.8393 97.9671 87.9932 98.0204 88.1519 98.0278C88.311 98.0347 88.4688 97.9956 88.6064 97.915C88.7437 97.8349 88.855 97.716 88.9263 97.5737C88.9976 97.4314 89.0256 97.2714 89.0079 97.1134L88.948 96.5816C88.927 96.3909 88.9676 96.199 89.0628 96.0327C89.1573 95.8666 89.3021 95.7346 89.4756 95.6558L89.9637 95.4355C90.1085 95.3699 90.2315 95.2632 90.3173 95.1291C90.4031 94.9951 90.4484 94.8394 90.4473 94.6799C90.4462 94.5205 90.3991 94.3649 90.3115 94.2323C90.2237 94.0989 90.0994 93.9947 89.9535 93.9309L89.4629 93.7171C89.2879 93.6408 89.1415 93.5104 89.0447 93.3458C88.9487 93.181 88.9077 92.9906 88.9266 92.8008L88.9777 92.2676C88.9939 92.1091 88.9629 91.9491 88.89 91.8076C88.8167 91.6667 88.7041 91.5493 88.5654 91.4704C88.4272 91.3919 88.2687 91.3552 88.1101 91.3643C87.9507 91.3737 87.7979 91.4293 87.6694 91.524L87.239 91.8415C87.0861 91.9552 86.901 92.017 86.7103 92.0189C86.5193 92.0199 86.3329 91.9612 86.1773 91.8494L85.7416 91.5367C85.6122 91.444 85.4586 91.3902 85.2995 91.3833C85.1407 91.3759 84.983 91.415 84.8454 91.4956C84.7078 91.5762 84.5967 91.6946 84.5254 91.8368C84.4541 91.9791 84.4258 92.1397 84.4436 92.2977L84.5035 92.8295C84.5251 93.0191 84.4853 93.2108 84.3908 93.3769C84.2964 93.5431 84.1521 93.6753 83.9781 93.7538L83.4905 93.9744C83.3457 94.04 83.2222 94.1464 83.1364 94.2805C83.0506 94.4145 83.0058 94.5705 83.0069 94.73C83.008 94.8895 83.0554 95.0445 83.1427 95.1776C83.2303 95.3102 83.3548 95.4153 83.5006 95.479L83.9912 95.6928C84.1663 95.7691 84.3121 95.8992 84.4089 96.0638C84.5057 96.2284 84.5475 96.4199 84.5286 96.6097Z" stroke="#FF9E0F" stroke-width="1.39776" stroke-linecap="round" stroke-linejoin="round"/>
</svg>
