<svg width="137" height="101" viewBox="0 0 137 101" fill="none" xmlns="http://www.w3.org/2000/svg">
<path d="M90.5887 93.9346H88.2354V94.0026H90.5887V93.9346Z" fill="#EBEBEB"/>
<path d="M26.8075 91.1328H15.1128V91.2008H26.8075V91.1328Z" fill="#EBEBEB"/>
<path d="M30.933 91.1328H29.219V91.2008H30.933V91.1328Z" fill="#EBEBEB"/>
<path d="M61.8694 92.2739H36.5054V92.3419H61.8694V92.2739Z" fill="#EBEBEB"/>
<path d="M65.4572 76.7308H13.174C12.7644 76.7308 12.3714 76.5682 12.0814 76.2775C11.7914 75.9869 11.6282 75.5931 11.6282 75.1828V1.56588C11.6318 1.15749 11.7964 0.767068 12.0857 0.479533C12.3757 0.19207 12.7666 0.0307617 13.174 0.0307617H65.4572C65.6598 0.0307617 65.861 0.0708559 66.0486 0.148682C66.2362 0.226508 66.4066 0.340564 66.5498 0.484403C66.6937 0.62817 66.8075 0.798929 66.8856 0.986801C66.9629 1.17467 67.003 1.37608 67.003 1.57941V75.1828C67.003 75.3862 66.9629 75.5874 66.8856 75.7749C66.8075 75.9632 66.6937 76.1336 66.5498 76.2775C66.4066 76.4215 66.2362 76.5353 66.0486 76.6133C65.861 76.6914 65.6598 76.7308 65.4572 76.7308ZM13.174 0.0850325C12.7823 0.0857484 12.4072 0.241974 12.1301 0.519557C11.853 0.797068 11.6969 1.17331 11.6962 1.56588V75.1828C11.6969 75.5752 11.853 75.9511 12.1301 76.2289C12.4072 76.5067 12.7823 76.6627 13.174 76.6635H65.4572C65.8488 76.6627 66.224 76.5067 66.5011 76.2289C66.7782 75.9511 66.9343 75.5752 66.935 75.1828V1.56588C66.9343 1.17331 66.7782 0.797068 66.5011 0.519557C66.224 0.241974 65.8488 0.0857484 65.4572 0.0850325H13.174Z" fill="#EBEBEB"/>
<path d="M124.021 76.7308H71.7384C71.3282 76.7308 70.9351 76.5682 70.6451 76.2775C70.3551 75.9869 70.1926 75.5931 70.1926 75.1828V1.56588C70.1962 1.15749 70.3602 0.767068 70.6501 0.479533C70.9394 0.19207 71.3303 0.0307617 71.7384 0.0307617H124.021C124.431 0.0307617 124.824 0.193932 125.114 0.484403C125.404 0.774801 125.567 1.16873 125.567 1.57941V75.1828C125.567 75.5931 125.404 75.9869 125.114 76.2775C124.824 76.5682 124.431 76.7308 124.021 76.7308ZM71.7384 0.0850325C71.3468 0.0857484 70.9709 0.241974 70.6938 0.519557C70.4167 0.797068 70.2606 1.17331 70.2599 1.56588V75.1828C70.2606 75.5752 70.4167 75.9511 70.6938 76.2289C70.9709 76.5067 71.3468 76.6627 71.7384 76.6635H124.021C124.413 76.6627 124.788 76.5067 125.066 76.2289C125.343 75.9511 125.499 75.5752 125.499 75.1828V1.56588C125.499 1.17331 125.343 0.797068 125.066 0.519557C124.788 0.241974 124.413 0.0857484 124.021 0.0850325H71.7384Z" fill="#EBEBEB"/>
<path d="M136.286 88.8281H0.908691V88.8954H136.286V88.8281Z" fill="#EBEBEB"/>
<path d="M28.2175 84.1075C27.9483 83.867 27.7292 83.5756 27.5738 83.2498C27.4184 82.9233 27.3297 82.5696 27.3132 82.2088C27.2982 81.9775 27.3333 81.7448 27.4149 81.5279C27.4972 81.3109 27.6246 81.114 27.7893 80.9501C27.9533 80.7868 28.1509 80.6601 28.3678 80.5792C28.5855 80.4983 28.8175 80.4647 29.0487 80.4811C30.0232 80.4811 30.3561 80.9343 30.9274 81.5902C31.4988 80.9343 31.8324 80.4811 32.8069 80.4811C33.0381 80.4647 33.2701 80.4983 33.487 80.5792C33.7047 80.6601 33.9023 80.7868 34.0663 80.9501C34.2309 81.114 34.3584 81.3109 34.4407 81.5279C34.5223 81.7448 34.5574 81.9775 34.5424 82.2088C34.5252 82.5696 34.4371 82.9233 34.2818 83.2498C34.1264 83.5756 33.9073 83.867 33.6381 84.1075L30.9303 86.8196L28.2175 84.1075Z" fill="#E0E0E0"/>
<path d="M34.339 87.164C34.1765 87.0158 34.044 86.8361 33.9516 86.6356C33.8586 86.4359 33.8063 86.2189 33.7977 85.9984C33.7891 85.8567 33.8113 85.7149 33.8614 85.5824C33.9123 85.4507 33.9903 85.3304 34.0905 85.2302C34.1908 85.1307 34.3111 85.0533 34.4442 85.0039C34.5767 84.9545 34.7177 84.9338 34.8595 84.9431C35.4552 84.9431 35.6714 85.2144 36.0072 85.6182C36.3566 85.2194 36.5485 84.9431 37.1549 84.9431C37.2967 84.9338 37.4377 84.9545 37.5702 85.0039C37.7026 85.0533 37.8236 85.1307 37.9239 85.2302C38.0241 85.3304 38.1021 85.4507 38.153 85.5824C38.2031 85.7149 38.2253 85.8567 38.2167 85.9984C38.2081 86.2189 38.1558 86.4359 38.0628 86.6356C37.9704 86.8361 37.838 87.0158 37.6754 87.164L36.0179 88.8158L34.339 87.164Z" fill="#EBEBEB"/>
<path d="M103.855 10.1382H91.5737C91.0124 10.1382 90.4747 10.3614 90.0781 10.7586C89.6814 11.1559 89.4587 11.6946 89.4587 12.2564V20.1786C89.4587 20.7407 89.6814 21.2797 90.0781 21.6775C90.4747 22.0751 91.0124 22.2988 91.5737 22.2996H95.1071L96.6829 24.3636C96.8039 24.5227 96.96 24.6516 97.1383 24.7404C97.3173 24.8292 97.5142 24.8754 97.7139 24.8754C97.9137 24.8754 98.1106 24.8292 98.2896 24.7404C98.4686 24.6516 98.6246 24.5227 98.7456 24.3636L100.324 22.2996H103.844C104.405 22.2996 104.944 22.0761 105.341 21.6784C105.739 21.2807 105.961 20.7412 105.961 20.1786V12.2564C105.961 11.696 105.74 11.1584 105.345 10.7614C104.95 10.3644 104.414 10.1403 103.855 10.1382Z" fill="#F5F5F5"/>
<path d="M72.7953 17.0273C72.7323 16.2509 72.38 15.5267 71.8087 14.9985C71.2373 14.4704 70.4884 14.177 69.7109 14.1768H67.4849C66.7074 14.177 65.9585 14.4704 65.3871 14.9985C64.8158 15.5267 64.4635 16.2509 64.4012 17.0273L64.2144 18.9258H72.9814L72.7953 17.0273Z" fill="#EBEBEB"/>
<path d="M68.5975 14.1807C69.751 14.1807 70.6853 13.2445 70.6853 12.0896C70.6853 10.9347 69.751 9.99854 68.5975 9.99854C67.4448 9.99854 66.5098 10.9347 66.5098 12.0896C66.5098 13.2445 67.4448 14.1807 68.5975 14.1807Z" fill="#EBEBEB"/>
<path d="M27.1728 46.1739C26.8513 46.1731 26.5399 46.2832 26.29 46.4858L24.6139 45.1297C24.7141 44.9353 24.7664 44.7194 24.7657 44.5004C24.7657 44.1828 24.6576 43.8745 24.4592 43.6265C24.2616 43.3784 23.9853 43.2052 23.6752 43.1353C23.3659 43.0655 23.0423 43.1031 22.7574 43.2421C22.4717 43.3811 22.2426 43.6131 22.1066 43.9001C21.9705 44.1871 21.9354 44.5118 22.0085 44.8211C22.0808 45.1303 22.2562 45.4056 22.5061 45.6017C22.7552 45.7977 23.0645 45.9029 23.3817 45.9C23.6989 45.897 24.0053 45.786 24.2509 45.5854L25.927 46.9414C25.8275 47.1367 25.7759 47.3527 25.7759 47.572C25.7759 47.7913 25.8275 48.0074 25.927 48.2026L24.2509 49.5587C24.0053 49.358 23.6989 49.2471 23.3817 49.2441C23.0645 49.2411 22.7552 49.3463 22.5061 49.5424C22.2562 49.7384 22.0808 50.0137 22.0085 50.3229C21.9354 50.6322 21.9705 50.957 22.1066 51.2439C22.2426 51.5309 22.4717 51.7629 22.7574 51.9019C23.0423 52.0409 23.3659 52.0786 23.6752 52.0087C23.9853 51.9388 24.2616 51.7656 24.4592 51.5176C24.6576 51.2695 24.7657 50.9612 24.7657 50.6436C24.7657 50.4247 24.7141 50.209 24.6139 50.0143L26.29 48.6582C26.4633 48.7998 26.668 48.8976 26.8871 48.9433C27.1062 48.9892 27.3332 48.9815 27.5487 48.9212C27.7642 48.8609 27.9618 48.7495 28.1257 48.5967C28.289 48.4438 28.4136 48.2538 28.4888 48.0426C28.5639 47.8314 28.5868 47.6053 28.5568 47.3833C28.5267 47.1612 28.4429 46.9497 28.314 46.7666C28.1852 46.5834 28.0141 46.434 27.8157 46.3309C27.6167 46.2277 27.3962 46.1739 27.1728 46.1739Z" fill="#E0E0E0"/>
<path d="M68.5974 100.031C97.5908 100.031 121.094 98.6562 121.094 96.9607C121.094 95.2653 97.5908 93.8906 68.5974 93.8906C39.6048 93.8906 16.1008 95.2653 16.1008 96.9607C16.1008 98.6562 39.6048 100.031 68.5974 100.031Z" fill="#F5F5F5"/>
<path d="M94.8228 58.9141H115.316C116.071 58.9141 116.796 59.2147 117.33 59.7498C117.864 60.2849 118.165 61.0106 118.165 61.767V77.3702C118.165 78.127 117.864 78.853 117.33 79.3878C116.796 79.9234 116.071 80.2234 115.316 80.2234H99.8425C99.6936 81.4434 99.1051 82.5667 98.1879 83.383C97.2707 84.1984 96.0879 84.6509 94.8608 84.6552C94.7469 84.6552 94.6359 84.6552 94.5228 84.6388C95.3347 83.5813 95.9763 82.052 96.4044 80.2262H94.8364C94.0811 80.2262 93.3565 79.9255 92.8224 79.3907C92.2883 78.8559 91.9883 78.1299 91.9883 77.3731V61.767C91.9883 61.0129 92.2861 60.2892 92.8174 59.7545C93.3486 59.2199 94.0696 58.9176 94.8228 58.9141Z" fill="#00A1FF"/>
<path opacity="0.4" d="M94.8228 58.9141H115.316C116.071 58.9141 116.796 59.2147 117.33 59.7498C117.864 60.2849 118.165 61.0106 118.165 61.767V77.3702C118.165 78.127 117.864 78.853 117.33 79.3878C116.796 79.9234 116.071 80.2234 115.316 80.2234H99.8425C99.6936 81.4434 99.1051 82.5667 98.1879 83.383C97.2707 84.1984 96.0879 84.6509 94.8608 84.6552C94.7469 84.6552 94.6359 84.6552 94.5228 84.6388C95.3347 83.5813 95.9763 82.052 96.4044 80.2262H94.8364C94.0811 80.2262 93.3565 79.9255 92.8224 79.3907C92.2883 78.8559 91.9883 78.1299 91.9883 77.3731V61.767C91.9883 61.0129 92.2861 60.2892 92.8174 59.7545C93.3486 59.2199 94.0696 58.9176 94.8228 58.9141Z" fill="white"/>
<path d="M93.8535 64.9859L92.8411 63.269L93.4748 62.1843C93.5156 62.1141 93.5406 62.0354 93.5471 61.9537C93.5535 61.8728 93.5421 61.7912 93.5127 61.7153L93.464 61.5929C93.4261 61.4912 93.358 61.4032 93.27 61.3404C93.1819 61.2776 93.0767 61.2427 92.9686 61.2404L91.9748 61.2132C91.8738 61.2097 91.7736 61.2346 91.6862 61.2848C91.5989 61.3351 91.5266 61.4089 91.4793 61.4977L91.2788 61.8671C91.2302 61.9559 91.203 62.0547 91.2001 62.1564C91.1965 62.2573 91.2173 62.3583 91.2595 62.4499L91.6877 63.375L92.481 65.5014L93.8535 64.9859Z" fill="#7F3E3B"/>
<path d="M101.92 64.6845L96.1331 68.9015L93.426 63.8081L91.8823 64.4783C91.8823 64.4783 94.2622 72.1972 95.6462 71.885C97.0294 71.5736 100.934 69.6397 102.204 68.313C102.846 67.6436 103.333 66.415 102.699 64.8957C102.671 64.8234 102.625 64.7582 102.566 64.7059C102.507 64.6537 102.438 64.6164 102.362 64.5957C102.287 64.5749 102.207 64.5728 102.131 64.5878C102.053 64.6036 101.982 64.6365 101.92 64.6845Z" fill="#00A1FF"/>
<path d="M104.08 54.6348C104.08 54.6348 102.039 55.1772 102.984 57.6425C102.984 57.6425 104.001 57.3713 104.166 56.715C104.332 56.0586 104.489 55.1311 104.489 55.1311L104.08 54.6348Z" fill="#263238"/>
<path opacity="0.3" d="M104.08 54.6348C104.08 54.6348 102.039 55.1772 102.984 57.6425C102.984 57.6425 104.001 57.3713 104.166 56.715C104.332 56.0586 104.489 55.1311 104.489 55.1311L104.08 54.6348Z" fill="black"/>
<path d="M108.908 64.434L105.176 64.3115L103.634 64.5342L103.422 67.3523L106.43 68.3532L109.639 67.7131L109.807 64.9981L109.577 64.4554L108.908 64.434Z" fill="#7F3E3B"/>
<path d="M103.828 80.2246H109.108C109.16 78.3609 109.436 68.6867 109.379 68.7468C109.322 68.8062 109.937 66.6855 109.937 66.6855V65.8256L109.379 64.9035C109.379 64.9035 108.182 66.7313 106.211 66.6418C104.343 66.5552 104.02 64.6865 104.02 64.6865L103.796 67.5425L103.56 74.4581L103.861 77.3872L103.828 80.2246Z" fill="#00A1FF"/>
<path opacity="0.6" d="M103.828 80.2246H109.108C109.16 78.3609 109.436 68.6867 109.379 68.7468C109.322 68.8062 109.937 66.6855 109.937 66.6855V65.8256L109.379 64.9035C109.379 64.9035 108.182 66.7313 106.211 66.6418C104.343 66.5552 104.02 64.6865 104.02 64.6865L103.796 67.5425L103.56 74.4581L103.861 77.3872L103.828 80.2246Z" fill="white"/>
<path d="M101.727 80.2273H104.586C105.15 76.4956 105.225 69.6717 105.225 69.6717C104.884 68.3658 104.617 67.0405 104.426 65.7038C104.253 64.1386 106.484 64.3477 108.434 64.6055C110.383 64.8632 106.917 69.802 106.917 69.802C106.917 69.802 106.671 76.4763 107.242 80.2273H114.282C113.93 79.2321 112.891 76.1756 112.658 74.0083C112.357 71.3886 114.158 67.5667 113.901 65.7038C113.643 63.8408 107.473 64.2203 107.473 64.2203C107.473 64.2203 103.522 64.1931 102.642 64.2339C101.613 64.2797 101.202 66.9947 100.714 69.1404C100.226 71.2855 101.123 73.4091 101.613 76.1076C101.856 77.4679 101.895 78.8562 101.727 80.2273Z" fill="#263238"/>
<path d="M104.879 64.2107C106.163 64.2107 107.486 64.2107 107.486 64.2107C107.486 64.2107 108.274 64.1613 109.298 64.1835C109.707 64.4541 110.246 65.1107 109.818 66.4832L108.924 66.8276L109.087 67.7089C109.087 67.7089 108.058 69.3363 106.921 69.9599C106.921 69.8518 106.921 69.7917 106.921 69.7917C106.921 69.7917 110.389 64.8529 108.436 64.5952C106.485 64.3381 104.256 64.1291 104.429 65.6942C104.62 67.0309 104.887 68.3554 105.228 69.6621C105.228 69.6621 105.228 69.6886 105.228 69.7351C104.687 69.244 104.213 68.3791 103.874 67.3431L104.24 66.3285L103.427 65.8839C103.497 65.5001 103.668 65.1422 103.924 64.8472C104.179 64.5529 104.509 64.3331 104.879 64.2107Z" fill="#00A1FF"/>
<path d="M104.824 65.6875C104.762 65.5429 104.736 65.3853 104.751 65.2293C104.765 65.0732 104.818 64.9228 104.905 64.7918C106.373 64.2956 106.238 63.1916 105.899 62.1692L108.263 59.7529C108.125 61.0385 108.074 63.9978 108.913 65.0281V65.2643C108.548 65.734 108.059 66.0927 107.502 66.3004C106.945 66.5073 106.342 66.5552 105.759 66.4385C105.552 66.4035 105.358 66.3161 105.194 66.1844C105.031 66.0533 104.903 65.8815 104.824 65.6875Z" fill="#7F3E3B"/>
<path opacity="0.1" d="M105.9 62.1709L107.778 60.251L108.212 60.4083C108.198 60.6388 108.19 60.8911 108.187 61.1568C107.949 61.6453 107.375 62.3312 106.043 62.6756C106.004 62.5052 105.956 62.337 105.9 62.1709Z" fill="black"/>
<path d="M109.482 57.6231C108.91 59.8117 108.716 60.7501 107.375 61.6667C105.361 63.0471 102.802 61.8679 102.707 59.5514C102.623 57.4657 103.569 54.2382 105.908 53.7826C106.422 53.6798 106.955 53.7107 107.455 53.8721C107.955 54.0336 108.405 54.3203 108.763 54.705C109.122 55.0898 109.375 55.5598 109.501 56.0705C109.627 56.5812 109.62 57.1157 109.482 57.6231Z" fill="#7F3E3B"/>
<path d="M104.275 58.1812C104.034 58.5613 103.743 58.9071 103.409 59.2091C103.487 59.2926 103.582 59.3579 103.689 59.4005C103.795 59.4431 103.909 59.462 104.023 59.4559L104.275 58.1812Z" fill="#630F0F"/>
<path d="M106.606 57.3803C106.621 57.3796 106.636 57.3749 106.649 57.3667C106.659 57.3609 106.669 57.353 106.675 57.3436C106.682 57.3342 106.687 57.3235 106.69 57.3121C106.693 57.3007 106.694 57.2888 106.692 57.2772C106.689 57.2657 106.685 57.2546 106.679 57.2447C106.596 57.0981 106.479 56.9739 106.337 56.8827C106.196 56.7915 106.034 56.7361 105.867 56.7212C105.855 56.7209 105.843 56.7228 105.832 56.727C105.822 56.7311 105.812 56.7374 105.803 56.7455C105.794 56.7535 105.787 56.7633 105.782 56.7739C105.778 56.7847 105.775 56.7963 105.775 56.808C105.774 56.8196 105.776 56.8313 105.779 56.8422C105.784 56.8533 105.789 56.8634 105.797 56.8719C105.805 56.8805 105.814 56.8875 105.825 56.8924C105.836 56.8972 105.847 56.8999 105.859 56.9002C105.996 56.9155 106.129 56.9633 106.245 57.0397C106.36 57.1161 106.456 57.2188 106.525 57.3396C106.533 57.3528 106.545 57.3635 106.56 57.3707C106.574 57.3778 106.59 57.3811 106.606 57.3803Z" fill="#263238"/>
<path d="M102.984 56.7165C102.998 56.7205 103.013 56.7205 103.027 56.7165C103.145 56.6456 103.279 56.6041 103.417 56.5952C103.555 56.5862 103.693 56.6101 103.82 56.6649C103.841 56.6756 103.866 56.6776 103.889 56.6705C103.911 56.6634 103.931 56.6478 103.942 56.627C103.947 56.6163 103.951 56.6046 103.952 56.5927C103.953 56.5807 103.952 56.5687 103.947 56.5573C103.944 56.5459 103.938 56.5354 103.93 56.5264C103.921 56.5174 103.912 56.5101 103.901 56.5049C103.748 56.4365 103.581 56.4058 103.413 56.4152C103.245 56.4246 103.082 56.474 102.938 56.5592C102.916 56.5706 102.901 56.5897 102.894 56.6125C102.887 56.6353 102.889 56.6599 102.9 56.6812C102.908 56.696 102.92 56.7083 102.935 56.7165C102.95 56.7246 102.966 56.7283 102.984 56.7273V56.7165Z" fill="#263238"/>
<path d="M104.938 60.0582C104.834 60.0587 104.73 60.0496 104.627 60.0311C104.62 60.0301 104.613 60.0277 104.607 60.024C104.6 60.0204 104.595 60.0154 104.591 60.0096C104.587 60.0038 104.583 59.9972 104.582 59.9902C104.58 59.9831 104.579 59.9758 104.581 59.9687C104.583 59.9546 104.592 59.942 104.603 59.9335C104.615 59.9249 104.629 59.921 104.643 59.9226C104.872 59.9676 105.107 59.9584 105.331 59.8958C105.556 59.8331 105.762 59.7188 105.935 59.5619C105.945 59.5545 105.958 59.551 105.971 59.5519C105.984 59.5529 105.996 59.5583 106.006 59.5671C106.015 59.576 106.021 59.5878 106.024 59.6007C106.025 59.6135 106.022 59.6267 106.016 59.6378C105.724 59.9114 105.338 60.0619 104.938 60.0582Z" fill="#263238"/>
<path d="M108.731 59.3333C108.467 59.0325 108.271 58.678 108.156 58.2941C108.042 57.9102 108.012 57.506 108.068 57.1092C108.068 57.1092 107.188 56.2061 107.231 55.2406C107.231 55.2406 106.961 56.0109 107.231 56.5587C107.231 56.5587 104.949 56.3933 105.003 55.2406C105.003 55.2406 104.852 55.821 105.195 56.1221C105.195 56.1221 103.168 56.2061 103.443 55.1538C103.72 54.1014 105.306 53.5889 105.306 53.5889C105.306 53.5889 106.82 52.3006 108.913 54.5761C108.913 54.5761 111.377 56.1166 109.631 58.6877L108.731 59.3333Z" fill="#263238"/>
<path d="M109.646 59.472C109.548 59.6656 109.411 59.8374 109.244 59.9772C109.077 60.1169 108.885 60.2218 108.677 60.2856C108.136 60.4538 107.835 59.9601 107.978 59.4313C108.108 58.9539 108.552 58.2922 109.116 58.3464C109.311 58.3752 109.487 58.4806 109.605 58.6392C109.722 58.7979 109.772 58.9969 109.744 59.1926C109.731 59.2915 109.698 59.3866 109.646 59.472Z" fill="#7F3E3B"/>
<path d="M105.919 57.8711C105.898 58.0583 105.781 58.2021 105.648 58.1885C105.515 58.1749 105.441 58.0149 105.464 57.8223C105.485 57.6298 105.599 57.4942 105.721 57.505C105.843 57.5159 105.938 57.6813 105.919 57.8711Z" fill="#2E353A"/>
<path d="M103.796 57.6478C103.778 57.835 103.661 57.976 103.538 57.9651C103.417 57.9543 103.33 57.7889 103.349 57.599C103.368 57.4092 103.485 57.2681 103.62 57.2817C103.756 57.2953 103.796 57.4553 103.796 57.6478Z" fill="#2E353A"/>
<path d="M103.647 57.303L103.208 57.124C103.208 57.124 103.403 57.5011 103.647 57.303Z" fill="#2E353A"/>
<path d="M105.784 57.5352L105.341 57.3589C105.341 57.3589 105.54 57.725 105.784 57.5352Z" fill="#2E353A"/>
<path d="M108.542 61.3074C108.683 61.3077 108.822 61.2666 108.942 61.1892C109.061 61.1118 109.154 61.0014 109.212 60.8713C109.269 60.7414 109.288 60.5976 109.265 60.4572C109.242 60.317 109.179 60.1864 109.084 60.0815L108.988 60.1683C109.091 60.2789 109.147 60.4244 109.146 60.5751C109.146 60.6949 109.111 60.8122 109.045 60.9121C108.979 61.012 108.885 61.0899 108.774 61.136C108.663 61.1821 108.542 61.1943 108.425 61.1711C108.308 61.1479 108.199 61.0901 108.115 61.0054C108.03 60.9207 107.972 60.8127 107.95 60.6951C107.927 60.5775 107.939 60.4557 107.985 60.345C108.03 60.2344 108.108 60.14 108.208 60.0737C108.307 60.0075 108.425 59.9724 108.544 59.9729C108.63 59.9722 108.713 59.9898 108.791 60.0245L108.842 59.9079C108.749 59.8645 108.648 59.8423 108.544 59.8428C108.449 59.8428 108.353 59.8617 108.265 59.8985C108.176 59.9353 108.096 59.9893 108.028 60.0573C107.96 60.1252 107.906 60.206 107.869 60.2948C107.832 60.3837 107.813 60.4789 107.813 60.5751C107.813 60.6712 107.832 60.7665 107.869 60.8553C107.906 60.9442 107.96 61.0248 108.028 61.0929C108.096 61.1609 108.176 61.2148 108.265 61.2516C108.353 61.2884 108.449 61.3074 108.544 61.3074H108.542Z" fill="#00A1FF"/>
<g opacity="0.6">
<path d="M108.542 61.3074C108.683 61.3077 108.822 61.2666 108.942 61.1892C109.061 61.1118 109.154 61.0014 109.212 60.8713C109.269 60.7414 109.288 60.5976 109.265 60.4572C109.242 60.317 109.179 60.1864 109.084 60.0815L108.988 60.1683C109.091 60.2789 109.147 60.4244 109.146 60.5751C109.146 60.6949 109.111 60.8122 109.045 60.9121C108.979 61.012 108.885 61.0899 108.774 61.136C108.663 61.1821 108.542 61.1943 108.425 61.1711C108.308 61.1479 108.199 61.0901 108.115 61.0054C108.03 60.9207 107.972 60.8127 107.95 60.6951C107.927 60.5775 107.939 60.4557 107.985 60.345C108.03 60.2344 108.108 60.14 108.208 60.0737C108.307 60.0075 108.425 59.9724 108.544 59.9729C108.63 59.9722 108.713 59.9898 108.791 60.0245L108.842 59.9079C108.749 59.8645 108.648 59.8423 108.544 59.8428C108.449 59.8428 108.353 59.8617 108.265 59.8985C108.176 59.9353 108.096 59.9893 108.028 60.0573C107.96 60.1252 107.906 60.206 107.869 60.2948C107.832 60.3837 107.813 60.4789 107.813 60.5751C107.813 60.6712 107.832 60.7665 107.869 60.8553C107.906 60.9442 107.96 61.0248 108.028 61.0929C108.096 61.1609 108.176 61.2148 108.265 61.2516C108.353 61.2884 108.449 61.3074 108.544 61.3074H108.542Z" fill="white"/>
</g>
<path d="M108.038 72.382L106.051 72.4687L105.385 71.384C105.342 71.3138 105.284 71.2544 105.215 71.2107C105.146 71.1663 105.068 71.1384 104.987 71.1291L104.857 71.1126C104.75 71.0983 104.641 71.1169 104.544 71.1656C104.448 71.2136 104.368 71.2895 104.315 71.384L103.823 72.2489C103.772 72.3369 103.747 72.4364 103.75 72.5381C103.754 72.6391 103.785 72.7372 103.841 72.8209L104.072 73.171C104.127 73.2562 104.201 73.3271 104.289 73.378C104.376 73.4288 104.474 73.4581 104.575 73.4639L105.59 73.5211L107.838 73.8247L108.038 72.382Z" fill="#7F3E3B"/>
<path d="M111.572 65.1289L112.56 72.2263H106.796L106.658 73.9053C106.658 73.9053 114.578 75.4432 114.954 74.0735C115.331 72.7039 115.469 68.3457 114.9 66.5959C114.61 65.7145 113.76 64.6978 112.124 64.5482C112.048 64.5418 111.97 64.5525 111.899 64.579C111.827 64.6062 111.762 64.6499 111.708 64.705C111.655 64.7608 111.616 64.8282 111.592 64.9012C111.569 64.9749 111.562 65.0523 111.572 65.1289Z" fill="#00A1FF"/>
<path d="M86.3831 24.1732H80.0561L73.6768 97.239H80.0045C81.4501 97.2132 82.8362 96.6569 83.9001 95.6767C84.9641 94.6959 85.6328 93.3591 85.7796 91.9179L91.2296 29.4972C91.3054 28.8195 91.2353 28.1335 91.0248 27.485C90.8143 26.8365 90.4678 26.2404 90.0096 25.7366C89.5506 25.2327 88.99 24.8326 88.365 24.563C87.7392 24.2935 87.064 24.1605 86.3831 24.1732Z" fill="#263238"/>
<path d="M90.3037 31.4953C90.3173 31.3592 90.3803 31.2326 90.4798 31.1389C90.5793 31.0451 90.7089 30.9906 90.8457 30.9854C90.9108 30.9843 90.9753 30.997 91.0354 31.0229C91.0955 31.0487 91.1492 31.0869 91.1929 31.1352C91.2373 31.1834 91.2703 31.2405 91.291 31.3025C91.3111 31.3646 91.3182 31.4303 91.3111 31.4953L90.8836 36.3772C90.8765 36.5194 90.817 36.6539 90.7168 36.7544C90.6159 36.8548 90.4812 36.9138 90.3395 36.9197C90.2743 36.9204 90.2099 36.9074 90.1505 36.8814C90.0903 36.8554 90.0373 36.817 89.9937 36.7688C89.95 36.7207 89.9163 36.6638 89.8963 36.6019C89.8762 36.54 89.8691 36.4745 89.8762 36.4098L90.3037 31.4953Z" fill="#00A1FF"/>
<path opacity="0.3" d="M90.3037 31.4953C90.3173 31.3592 90.3803 31.2326 90.4798 31.1389C90.5793 31.0451 90.7089 30.9906 90.8457 30.9854C90.9108 30.9843 90.9753 30.997 91.0354 31.0229C91.0955 31.0487 91.1492 31.0869 91.1929 31.1352C91.2373 31.1834 91.2703 31.2405 91.291 31.3025C91.3111 31.3646 91.3182 31.4303 91.3111 31.4953L90.8836 36.3772C90.8765 36.5194 90.817 36.6539 90.7168 36.7544C90.6159 36.8548 90.4812 36.9138 90.3395 36.9197C90.2743 36.9204 90.2099 36.9074 90.1505 36.8814C90.0903 36.8554 90.0373 36.817 89.9937 36.7688C89.95 36.7207 89.9163 36.6638 89.8963 36.6019C89.8762 36.54 89.8691 36.4745 89.8762 36.4098L90.3037 31.4953Z" fill="white"/>
<path d="M78.7078 97.239H52.637C51.9568 97.2512 51.2817 97.118 50.6566 96.8488C50.0316 96.5789 49.4717 96.1794 49.0128 95.676C48.5545 95.172 48.208 94.577 47.9975 93.929C47.7863 93.2811 47.7161 92.5952 47.7899 91.9179L53.2434 29.4972C53.3881 28.0553 54.0561 26.717 55.1207 25.7357C56.1854 24.7543 57.5722 24.1984 59.0185 24.1731H85.0892C85.7694 24.161 86.4439 24.2941 87.0689 24.5635C87.6932 24.8329 88.2538 25.2325 88.712 25.7357C89.1703 26.2388 89.5168 26.834 89.728 27.4816C89.9385 28.1293 90.0094 28.8145 89.9357 29.4917L84.4828 91.9179C84.336 93.3584 83.6673 94.6959 82.6034 95.676C81.5394 96.6569 80.1533 97.2125 78.7078 97.239Z" fill="#00A1FF"/>
<path d="M84.9839 25.398H78.2151C77.9946 25.4023 77.7819 25.4806 77.6108 25.6202C77.4404 25.7599 77.3209 25.9528 77.2729 26.1683L77.2264 26.3826C77.1089 26.9092 76.8182 27.3811 76.4008 27.7224C75.9834 28.0637 75.4636 28.2548 74.9252 28.2648H68.4757C67.9659 28.2757 67.4719 28.0839 67.1025 27.7312C66.733 27.3784 66.5183 26.8936 66.5046 26.3826V26.1683C66.5018 26.0643 66.4789 25.9619 66.4366 25.8669C66.3944 25.7718 66.3335 25.6861 66.2576 25.6145C66.1825 25.543 66.0937 25.4871 65.997 25.4499C65.8997 25.4128 65.7965 25.3952 65.6927 25.398H58.9239C57.8106 25.4187 56.7431 25.847 55.9233 26.6021C55.1042 27.3571 54.5887 28.3866 54.4749 29.4961L49.0084 91.9165C48.9511 92.4392 49.0056 92.9669 49.1681 93.4666C49.3306 93.9657 49.5969 94.4246 49.9499 94.8127C50.3036 95.2007 50.7353 95.5086 51.2165 95.7169C51.6983 95.9246 52.2181 96.027 52.7422 96.0176H78.8158C79.9299 95.9969 80.9974 95.568 81.8172 94.8127C82.6362 94.0573 83.1517 93.027 83.2641 91.9165L88.7177 29.4961C88.7743 28.9744 88.7199 28.4464 88.5573 27.9475C88.3948 27.4485 88.1278 26.9899 87.7748 26.6022C87.4218 26.2145 86.9901 25.9066 86.5089 25.699C86.0278 25.4913 85.5073 25.3888 84.9839 25.398Z" fill="#00A1FF"/>
<path opacity="0.7" d="M84.9839 25.398H78.2151C77.9946 25.4023 77.7819 25.4806 77.6108 25.6202C77.4404 25.7599 77.3209 25.9528 77.2729 26.1683L77.2264 26.3826C77.1089 26.9092 76.8182 27.3811 76.4008 27.7224C75.9834 28.0637 75.4636 28.2548 74.9252 28.2648H68.4757C67.9659 28.2757 67.4719 28.0839 67.1025 27.7312C66.733 27.3784 66.5183 26.8936 66.5046 26.3826V26.1683C66.5018 26.0643 66.4789 25.9619 66.4366 25.8669C66.3944 25.7718 66.3335 25.6861 66.2576 25.6145C66.1825 25.543 66.0937 25.4871 65.997 25.4499C65.8997 25.4128 65.7965 25.3952 65.6927 25.398H58.9239C57.8106 25.4187 56.7431 25.847 55.9233 26.6021C55.1042 27.3571 54.5887 28.3866 54.4749 29.4961L49.0084 91.9165C48.9511 92.4392 49.0056 92.9669 49.1681 93.4666C49.3306 93.9657 49.5969 94.4246 49.9499 94.8127C50.3036 95.2007 50.7353 95.5086 51.2165 95.7169C51.6983 95.9246 52.2181 96.027 52.7422 96.0176H78.8158C79.9299 95.9969 80.9974 95.568 81.8172 94.8127C82.6362 94.0573 83.1517 93.027 83.2641 91.9165L88.7177 29.4961C88.7743 28.9744 88.7199 28.4464 88.5573 27.9475C88.3948 27.4485 88.1278 26.9899 87.7748 26.6022C87.4218 26.2145 86.9901 25.9066 86.5089 25.699C86.0278 25.4913 85.5073 25.3888 84.9839 25.398Z" fill="white"/>
<g opacity="0.2">
<path d="M70.1327 26.4497C70.3489 26.2425 70.3704 25.914 70.1813 25.7161C69.9923 25.518 69.6637 25.5255 69.4475 25.7326C69.2313 25.9397 69.2098 26.2682 69.3988 26.4663C69.5885 26.6642 69.9164 26.6569 70.1327 26.4497Z" fill="black"/>
<path d="M74.0268 25.5709H72.2505C72.1094 25.5735 71.9748 25.6276 71.871 25.723C71.7672 25.8184 71.7021 25.9486 71.6878 26.0889C71.6806 26.155 71.6877 26.2218 71.7085 26.2848C71.7293 26.3479 71.7629 26.4058 71.808 26.4548C71.8524 26.5038 71.9076 26.5427 71.9684 26.5689C72.0293 26.5951 72.0951 26.6081 72.161 26.6069H73.9373C74.0784 26.6038 74.213 26.5495 74.3168 26.4542C74.4199 26.3589 74.4858 26.2291 74.5008 26.0889C74.508 26.0228 74.5015 25.9558 74.4808 25.8926C74.46 25.8293 74.4263 25.7712 74.3812 25.7221C74.3361 25.6731 74.2817 25.6342 74.2201 25.6081C74.1593 25.582 74.0934 25.5694 74.0268 25.5709Z" fill="black"/>
</g>
<path d="M57.4075 28.2581H57.9545L58.0032 27.7075H57.4533L57.4075 28.2581Z" fill="#00A1FF"/>
<path d="M58.5523 27.7075L58.5037 28.258H59.0506L59.0994 27.7075L59.148 27.1597H58.5989L58.5523 27.7075Z" fill="#00A1FF"/>
<path d="M59.7438 26.6055L59.6951 27.1561L59.6464 27.7039L59.6006 28.2545H60.1476L60.1963 27.7039L60.245 27.1561L60.2908 26.6055H59.7438Z" fill="#00A1FF"/>
<path d="M83.3187 26.6504L83.2837 27.0518H83.0123L82.9421 27.8655H83.2128L83.1777 28.2696H85.5905L85.7308 26.6586L83.3187 26.6504ZM84.2853 27.8573H83.4727L83.5436 27.0437H84.3555L84.2853 27.8573Z" fill="#00A1FF"/>
<g opacity="0.4">
<path d="M68.4952 28.2612L50.4978 95.298C51.1515 95.7698 51.9376 96.0204 52.7424 96.0139H54.1507L72.34 28.2612H68.4952Z" fill="white"/>
<path d="M84.9833 25.3982H78.2145C77.994 25.4025 77.7814 25.4807 77.611 25.6203C77.4398 25.76 77.321 25.953 77.2723 26.1684L77.2265 26.3827C77.1119 26.8953 76.8334 27.3565 76.4332 27.6958C76.033 28.0352 75.5325 28.2341 75.0091 28.2622L56.8091 96.0176H70.6846L88.7172 28.8481C88.6592 27.9016 88.2389 27.0141 87.543 26.3712C86.847 25.7282 85.9299 25.3796 84.9833 25.3982Z" fill="white"/>
</g>
<path d="M57.7427 43.5918L56.9308 43.4155C56.8786 43.4052 56.8292 43.3836 56.7855 43.3521C56.7426 43.3206 56.7067 43.2801 56.681 43.2332C56.6552 43.1865 56.6402 43.1346 56.6366 43.0813C56.633 43.028 56.6409 42.9745 56.6602 42.9246L57.7943 39.9575L59.0916 40.2287L58.1681 43.3287C58.1437 43.4185 58.0864 43.4955 58.0077 43.5444C57.9282 43.5932 57.8337 43.6102 57.7427 43.5918Z" fill="#00A1FF"/>
<path d="M60.8894 39.798C60.8357 39.7865 60.7848 39.7644 60.7404 39.7332C60.6953 39.7019 60.6574 39.6621 60.6273 39.6159C60.598 39.5698 60.5779 39.5183 60.5686 39.4643C60.5593 39.4104 60.5607 39.3552 60.5722 39.3017L60.681 38.7918C60.6925 38.738 60.7147 38.687 60.7454 38.6418C60.777 38.5967 60.8171 38.5582 60.8636 38.5286C60.9101 38.4991 60.9617 38.4791 61.0161 38.4698C61.0698 38.4605 61.1256 38.4621 61.1786 38.4745C61.2867 38.4979 61.3812 38.5633 61.4414 38.6564C61.5015 38.7494 61.5216 38.8626 61.4987 38.9708L61.3877 39.478C61.3633 39.5864 61.2975 39.681 61.2044 39.7409C61.1106 39.8009 60.9975 39.8214 60.8894 39.798Z" fill="#00A1FF"/>
<path d="M60.0888 37.2687C60.0888 37.2687 57.0016 36.9161 55.9212 36.3628C53.3816 35.0555 50.953 31.9365 50.4382 31.8253C49.5991 31.6409 48.4564 33.6317 47.8822 36.2706C47.308 38.9095 47.5249 41.1932 48.364 41.3749C48.8817 41.4888 52.3799 39.6608 55.2338 39.5279C56.4467 39.4736 59.3929 40.4474 59.3929 40.4474L60.0888 37.2687Z" fill="#00A1FF"/>
<path opacity="0.3" d="M60.0888 37.2687C60.0888 37.2687 57.0016 36.9161 55.9212 36.3628C53.3816 35.0555 50.953 31.9365 50.4382 31.8253C49.5991 31.6409 48.4564 33.6317 47.8822 36.2706C47.308 38.9095 47.5249 41.1932 48.364 41.3749C48.8817 41.4888 52.3799 39.6608 55.2338 39.5279C56.4467 39.4736 59.3929 40.4474 59.3929 40.4474L60.0888 37.2687Z" fill="white"/>
<path d="M50.92 36.921C50.3487 39.5573 49.2031 41.548 48.364 41.3636C47.5249 41.1792 47.3108 38.8956 47.8822 36.2593C48.4535 33.6231 49.5991 31.6296 50.4382 31.8141C51.2773 31.9984 51.4942 34.293 50.92 36.921Z" fill="#00A1FF"/>
<path opacity="0.4" d="M50.92 36.921C50.3487 39.5573 49.2031 41.548 48.364 41.3636C47.5249 41.1792 47.3108 38.8956 47.8822 36.2593C48.4535 33.6231 49.5991 31.6296 50.4382 31.8141C51.2773 31.9984 51.4942 34.293 50.92 36.921Z" fill="black"/>
<path d="M59.5871 36.9238L58.1544 36.6118C58.0628 36.5915 57.9668 36.5904 57.8745 36.6085C57.7814 36.6267 57.694 36.6638 57.616 36.7174C57.5387 36.7711 57.4728 36.8402 57.4227 36.9206C57.3726 37.0008 57.3396 37.0905 57.326 37.1841C57.2745 37.5448 57.2093 37.9164 57.1284 38.2961C57.0475 38.6759 56.9494 39.042 56.8578 39.381C56.8313 39.472 56.8241 39.5675 56.8363 39.6615C56.8485 39.7555 56.8793 39.846 56.928 39.9274C56.9766 40.0088 57.0411 40.0794 57.1184 40.1346C57.195 40.1899 57.2824 40.2288 57.3747 40.2489L59.0723 40.6177C60.0904 40.8402 60.8243 40.1214 61.0305 39.0962C61.1221 38.6169 61.0226 38.1205 60.7527 37.7141C60.4828 37.3077 60.0639 37.0238 59.5871 36.9238Z" fill="#263238"/>
<path d="M49.4475 36.3906L49.358 36.8056C49.3322 36.9216 49.348 37.043 49.4031 37.1484C49.4583 37.2537 49.5485 37.3359 49.6587 37.3806L50.6983 37.8146C50.7792 37.5298 50.8551 37.2341 50.9203 36.9304C50.9854 36.6266 51.042 36.3228 51.0878 36.0299L49.9587 35.992C49.8406 35.988 49.7246 36.0257 49.6308 36.0985C49.5377 36.1713 49.4726 36.2747 49.4475 36.3906Z" fill="#263238"/>
<path opacity="0.8" d="M49.4475 36.3906L49.358 36.8056C49.3322 36.9216 49.348 37.043 49.4031 37.1484C49.4583 37.2537 49.5485 37.3359 49.6587 37.3806L50.6983 37.8146C50.7792 37.5298 50.8551 37.2341 50.9203 36.9304C50.9854 36.6266 51.042 36.3228 51.0878 36.0299L49.9587 35.992C49.8406 35.988 49.7246 36.0257 49.6308 36.0985C49.5377 36.1713 49.4726 36.2747 49.4475 36.3906Z" fill="white"/>
<path opacity="0.2" d="M50.2328 36.7754C50.1755 37.0466 50.1132 37.2908 50.0459 37.5403L50.6982 37.8115C50.7798 37.5267 50.8557 37.2311 50.9201 36.9273C50.9853 36.6235 51.0426 36.3198 51.0884 36.0269L50.3788 36.0024C50.3394 36.2502 50.2901 36.5079 50.2328 36.7754Z" fill="black"/>
<path d="M75.2475 36.9434C75.506 37.0425 75.7845 37.0788 76.0602 37.049C76.3358 37.0193 76.6 36.9245 76.8313 36.7725C77.6625 36.23 79.2226 36.9135 78.7515 39.1348C77.9389 42.9535 76.2442 45.6956 77.3432 46.8509C77.3432 46.8509 73.6824 47.0191 74.2244 43.7808C74.6304 41.3398 77.384 38.595 76.7203 38.0472C76.4984 37.8627 76.179 37.9577 75.1366 37.9577L75.2475 36.9434Z" fill="#263238"/>
<path d="M75.1365 37.9545C75.6384 37.9379 76.1396 37.9982 76.6228 38.1335C76.7933 37.6418 76.8598 37.1199 76.8176 36.6011C76.2842 36.6624 75.7587 36.776 75.2474 36.9402L75.1365 37.9545Z" fill="#00A1FF"/>
<path d="M71.6898 34.1567C71.6898 34.1567 70.1683 33.7228 71.1729 32.7383C72.4831 31.4554 74.3461 33.8584 74.3461 33.8584C74.3461 33.8584 78.7135 35.7705 75.11 40.2049C75.11 40.2049 73.8069 42.5374 73.5363 41.6287C73.2657 40.7202 75.0742 38.1463 75.0742 38.1463L74.9661 35.841L74.4649 34.9433L72.8919 34.0428L71.6898 34.1567Z" fill="#263238"/>
<path d="M65.6548 47.1495C65.5517 46.9804 65.4164 46.8333 65.2568 46.7167C65.0964 46.6001 64.9152 46.5162 64.7226 46.4698C64.53 46.4235 64.331 46.4156 64.1355 46.4466C63.9401 46.4776 63.7525 46.5469 63.5835 46.6505H63.562C63.0881 46.9407 62.5847 47.2634 62.0864 47.5618L60.5836 48.4649C59.8798 48.879 59.1717 49.2813 58.4607 49.6718C58.4199 49.1304 58.4113 48.5871 58.4335 48.0445C58.4528 47.4098 58.4987 46.7617 58.5474 46.1134C58.5961 45.4653 58.6612 44.8008 58.7156 44.158V44.1417C58.7292 43.961 58.6769 43.7814 58.5695 43.6358C58.4621 43.4902 58.3054 43.3882 58.1292 43.3487C57.9524 43.3092 57.7677 43.3347 57.608 43.4206C57.4491 43.5064 57.3259 43.6469 57.2615 43.8162C57.0202 44.4698 56.8304 45.1154 56.6414 45.7771C56.4517 46.4389 56.3085 47.1061 56.1811 47.795C56.0422 48.5102 55.9656 49.2362 55.9534 49.9647C55.9426 50.4231 56.0021 50.8805 56.1295 51.3209C56.2455 51.7146 56.471 52.0673 56.7796 52.3379C57.013 52.5358 57.2922 52.6728 57.5915 52.7366C57.8529 52.7873 58.1213 52.7873 58.382 52.7366C58.445 52.7226 58.5065 52.7035 58.5667 52.6796L58.6555 52.6444C59.2326 52.4057 59.8068 52.1671 60.3645 51.8958C60.9222 51.6246 61.48 51.3534 62.0241 51.0686C62.5683 50.7838 63.1074 50.4774 63.6487 50.16C64.19 49.8427 64.694 49.5253 65.2274 49.1565C65.5374 48.937 65.7536 48.6086 65.8324 48.2367C65.9119 47.8648 65.8489 47.4767 65.6548 47.1495Z" fill="#CE7A63"/>
<path d="M66.9737 45.1726C67.8858 47.0142 66.5727 48.6117 64.1656 51.172C62.9084 50.1509 62.0306 48.7363 61.6719 47.1552C61.6719 47.1552 64.4556 44.8553 66.9737 45.1726Z" fill="#00A1FF"/>
<path opacity="0.2" d="M67.0683 47.3529C66.1777 46.8104 65.1731 46.5664 64.4772 47.4532C63.9338 48.1674 63.3045 48.8114 62.6035 49.3708C63.0295 50.0479 63.5601 50.6538 64.1737 51.1662C65.6199 49.6365 66.6545 48.4513 67.0683 47.3529Z" fill="black"/>
<path d="M58.0383 40.7164L58.6555 41.126C58.7707 41.2011 58.8659 41.3029 58.9339 41.4229C59.0013 41.5428 59.0385 41.6773 59.0428 41.8149L59.0915 43.1194C59.1001 43.3761 59.0471 43.6311 58.9375 43.8635C58.8287 44.0959 58.6662 44.2991 58.4636 44.4565L58.2065 44.6545C57.1233 44.0443 56.4216 42.596 56.4216 42.596L56.1724 42.2054C56.1195 42.1267 56.0822 42.0382 56.0629 41.945C56.0443 41.8517 56.0436 41.7557 56.0622 41.6623C56.0808 41.5689 56.1173 41.4801 56.1703 41.4011C56.2233 41.3221 56.2913 41.2544 56.3708 41.2019L57.134 40.6974C57.2708 40.6128 57.4283 40.5696 57.5886 40.5729C57.7497 40.5763 57.9058 40.6261 58.0383 40.7164Z" fill="#CE7A63"/>
<path d="M64.8587 96.0216C66.2613 91.6821 67.22 86.8622 66.267 83.3446C72.0614 66.2958 69.4481 61.3326 69.4481 61.3326L62.5519 58.813C62.5519 58.813 61.566 74.1665 61.2681 81.5955C61.1034 85.7474 60.3968 91.1473 59.5813 96.0238L64.8587 96.0216Z" fill="#263238"/>
<path opacity="0.5" d="M68.4357 67.6363L67.0352 65.3745L66.1796 67.1372C65.7336 71.998 65.9448 76.8974 66.8083 81.7016C67.9237 78.3458 68.8044 74.917 69.4452 71.4388L68.4357 67.6363Z" fill="black"/>
<path d="M69.0958 96.0182H74.3246C74.8658 91.5076 74.8658 86.6555 73.2685 83.4121C75.7057 65.5686 72.1852 61.1993 72.1852 61.1993L64.9346 60.0493C64.9346 60.0493 66.9028 75.308 68.0319 82.6496C68.6139 86.4521 68.9447 91.3859 69.0958 96.0182Z" fill="#263238"/>
<path d="M63.7453 48.5926C63.4396 49.9126 63.2227 51.2519 63.0959 52.6012C62.8632 54.5675 62.6921 56.5094 62.4673 59.7559L72.2854 61.3263C72.526 58.5273 73.3465 55.4218 76.0944 49.4686C76.2498 49.1589 76.3343 48.8184 76.3407 48.472C76.3479 48.1255 76.2777 47.7819 76.1345 47.4662C75.992 47.1506 75.7808 46.8709 75.5159 46.6477C75.2517 46.4245 74.9403 46.2633 74.6052 46.176C74.2236 46.0757 73.8176 45.978 73.398 45.8885C71.9303 45.5476 70.4396 45.3119 68.939 45.1833C68.4485 45.1508 67.9366 45.1319 67.4469 45.121C65.6763 45.0749 64.0732 46.8703 63.7453 48.5926Z" fill="#00A1FF"/>
<path d="M73.878 40.8018C73.2629 42.1769 72.3723 44.7345 73.152 45.841C73.152 45.841 71.8253 45.4206 68.6599 46.7496C68.0127 45.4179 68.695 45.1223 68.695 45.1223C70.3818 45.0002 70.6174 43.8177 70.5909 42.6813L73.878 40.8018Z" fill="#CE7A63"/>
<path d="M69.3235 46.4852C69.4932 46.5479 69.6485 46.6464 69.7774 46.7741C69.9063 46.9019 70.0058 47.0559 70.0702 47.2256C70.1247 47.3491 70.2041 47.4597 70.3036 47.5502C70.4032 47.6407 70.5206 47.7092 70.6487 47.7509C70.7762 47.7927 70.9115 47.8068 71.0454 47.7925C71.1793 47.7781 71.3082 47.7356 71.4241 47.6677C72.2368 47.2094 73.2599 46.5558 73.7718 45.9753C73.5069 45.7732 73.2527 45.5568 73.0115 45.3271C73.0115 45.3271 69.965 46.0241 69.3235 46.4852Z" fill="white"/>
<path d="M68.4428 46.1884C68.2115 46.2259 67.9925 46.3189 67.8042 46.4596C67.7519 46.4976 67.6889 46.5181 67.6244 46.5182C67.56 46.5182 67.497 46.4978 67.4447 46.4599C67.3925 46.422 67.3538 46.3685 67.3337 46.307C67.3137 46.2456 67.313 46.1794 67.333 46.1179C67.6717 45.1577 68.2559 45.033 68.2559 45.033C68.5387 44.9252 68.8509 44.9252 69.1337 45.033C68.8996 45.1106 68.7006 45.27 68.5738 45.4822C68.4471 45.6942 68.4006 45.9449 68.4428 46.1884Z" fill="white"/>
<path opacity="0.2" d="M72.5398 41.5684L70.6016 42.6803C70.6102 42.9525 70.5938 43.2248 70.5522 43.494C71.1859 43.494 72.1775 42.9732 72.3937 42.3521C72.4904 42.1022 72.5398 41.8364 72.5398 41.5684Z" fill="black"/>
<path d="M75.5589 38.1146C74.7462 40.3658 74.4756 41.3313 72.9678 42.2345C70.7175 43.5905 68.1264 42.2751 68.2373 39.8694C68.3404 37.6997 69.6342 34.3854 72.1415 33.9975C72.6778 33.8962 73.2305 33.9402 73.7439 34.1251C74.2572 34.3099 74.7112 34.6289 75.0598 35.0489C75.4085 35.4689 75.6383 35.9746 75.7264 36.5137C75.8138 37.0527 75.7565 37.6055 75.5589 38.1146Z" fill="#CE7A63"/>
<path d="M72.5396 38.0333C72.4802 38.2259 72.3342 38.3588 72.2096 38.3289C72.085 38.2991 72.0334 38.1201 72.09 37.9275C72.1473 37.735 72.2991 37.6048 72.4236 37.6346C72.5482 37.6645 72.5991 37.8435 72.5396 38.0333Z" fill="#263238"/>
<path d="M70.1434 37.3928C70.084 37.5827 69.9351 37.7156 69.8105 37.6857C69.6859 37.6559 69.6344 37.4769 69.6945 37.2871C69.754 37.0972 69.9029 36.9616 70.0275 36.9914C70.152 37.0212 70.2036 37.1948 70.1434 37.3928Z" fill="#263238"/>
<path d="M70.0795 37.0105L69.6614 36.769C69.6614 36.769 69.7867 37.1895 70.0795 37.0105Z" fill="#263238"/>
<path d="M70.8393 37.7817C70.5343 38.18 70.1791 38.5373 69.7832 38.8449C69.862 38.9375 69.96 39.0114 70.0703 39.0612C70.1813 39.1109 70.3016 39.1353 70.4226 39.1324L70.8393 37.7817Z" fill="#BA4D3C"/>
<path d="M73.2678 36.9181C73.2528 36.9168 73.2377 36.912 73.2249 36.9039C73.212 36.8959 73.2005 36.885 73.1919 36.872C73.1182 36.7506 73.0151 36.6496 72.8919 36.5785C72.7688 36.5075 72.6306 36.4685 72.4881 36.4652C72.4738 36.4656 72.4588 36.463 72.4451 36.4575C72.4308 36.4521 72.4187 36.4439 72.4079 36.4336C72.3972 36.4232 72.3893 36.4109 72.3836 36.3972C72.3778 36.3835 72.3743 36.3688 72.3743 36.354C72.3764 36.3223 72.39 36.2924 72.4122 36.2698C72.4351 36.2473 72.4645 36.2339 72.4967 36.2319C72.6757 36.2351 72.8518 36.2828 73.0079 36.3709C73.1647 36.4589 73.2964 36.5845 73.3924 36.7364C73.4031 36.7565 73.4081 36.7791 73.4067 36.8017C73.4053 36.8243 73.3974 36.8461 73.3852 36.8648C73.3723 36.8835 73.3544 36.8983 73.3337 36.9077C73.3136 36.9171 73.2907 36.9207 73.2678 36.9181Z" fill="#263238"/>
<path d="M69.6293 35.7793C69.6164 35.7739 69.6042 35.7658 69.5935 35.7555C69.5835 35.7453 69.5756 35.7331 69.5699 35.7197C69.5606 35.6905 69.5627 35.6588 69.5763 35.6314C69.5899 35.604 69.6143 35.5831 69.6429 35.5732C69.8162 35.5001 70.0045 35.468 70.1921 35.4792C70.3796 35.4906 70.5629 35.545 70.7262 35.6383C70.7383 35.6468 70.7484 35.6578 70.7563 35.6706C70.7641 35.6833 70.7691 35.6975 70.7713 35.7122C70.7734 35.727 70.772 35.742 70.7684 35.7563C70.7641 35.7707 70.757 35.784 70.7476 35.7956C70.729 35.8203 70.7018 35.837 70.671 35.8425C70.6403 35.848 70.6088 35.842 70.5823 35.8254C70.452 35.7523 70.3066 35.7104 70.157 35.7029C70.0081 35.6953 69.8584 35.7225 69.7217 35.782C69.7066 35.7877 69.6909 35.7904 69.6751 35.79C69.6594 35.7895 69.6436 35.7859 69.6293 35.7793Z" fill="#263238"/>
<path d="M72.4753 37.654L72.0608 37.4126C72.0608 37.4126 72.1825 37.8275 72.4753 37.654Z" fill="#263238"/>
<path d="M63.5455 55.9875H61.2057C61.0919 55.9825 60.9831 55.9406 60.895 55.8682C60.8076 55.7959 60.7453 55.6968 60.7181 55.5861L59.6356 50.5089C59.6213 50.4612 59.6191 50.4109 59.6284 50.3621C59.6384 50.3133 59.6592 50.2675 59.69 50.2285C59.7208 50.1895 59.7602 50.1584 59.8053 50.1379C59.8504 50.1173 59.8998 50.1078 59.9492 50.1102H62.289C62.4021 50.115 62.5109 50.1565 62.599 50.2284C62.6864 50.3003 62.7486 50.3986 62.7766 50.5089L63.8591 55.5861C63.8727 55.6339 63.8756 55.6844 63.8656 55.7332C63.8562 55.7821 63.8355 55.828 63.8047 55.8672C63.7739 55.9064 63.7345 55.9377 63.6894 55.9586C63.6443 55.9796 63.5949 55.9895 63.5455 55.9875Z" fill="#263238"/>
<path d="M63.275 55.9875H60.9352C60.8214 55.9825 60.7125 55.9406 60.6245 55.8682C60.5371 55.7959 60.4748 55.6968 60.4476 55.5861L59.3651 50.5089C59.3508 50.4612 59.3486 50.4109 59.3579 50.3621C59.3679 50.3133 59.3887 50.2675 59.4195 50.2285C59.4503 50.1895 59.4897 50.1584 59.5348 50.1379C59.5799 50.1173 59.6293 50.1078 59.6787 50.1102H62.0185C62.1316 50.115 62.2404 50.1565 62.3285 50.2284C62.4158 50.3003 62.4781 50.3986 62.5061 50.5089L63.5886 55.5861C63.6029 55.6339 63.6051 55.6844 63.595 55.7332C63.5857 55.7821 63.565 55.828 63.5342 55.8672C63.5034 55.9064 63.464 55.9377 63.4189 55.9586C63.3738 55.9796 63.3244 55.9895 63.275 55.9875Z" fill="#263238"/>
<path opacity="0.2" d="M63.275 55.9875H60.9352C60.8214 55.9825 60.7125 55.9406 60.6245 55.8682C60.5371 55.7959 60.4748 55.6968 60.4476 55.5861L59.3651 50.5089C59.3508 50.4612 59.3486 50.4109 59.3579 50.3621C59.3679 50.3133 59.3887 50.2675 59.4195 50.2285C59.4503 50.1895 59.4897 50.1584 59.5348 50.1379C59.5799 50.1173 59.6293 50.1078 59.6787 50.1102H62.0185C62.1316 50.115 62.2404 50.1565 62.3285 50.2284C62.4158 50.3003 62.4781 50.3986 62.5061 50.5089L63.5886 55.5861C63.6029 55.6339 63.6051 55.6844 63.595 55.7332C63.5857 55.7821 63.565 55.828 63.5342 55.8672C63.5034 55.9064 63.464 55.9377 63.4189 55.9586C63.3738 55.9796 63.3244 55.9895 63.275 55.9875Z" fill="white"/>
<path d="M62.4352 53.0032L63.1612 52.8432C63.2951 52.8135 63.4347 52.8162 63.5672 52.8511C63.7004 52.886 63.8228 52.952 63.9244 53.0439L64.8939 53.9173C65.0843 54.0901 65.2304 54.3055 65.3213 54.5459C65.4123 54.7864 65.4452 55.0449 65.4165 55.3004L65.3786 55.6205C64.1958 55.9704 62.6715 55.4767 62.6715 55.4767L62.2161 55.3845C62.1223 55.3682 62.0329 55.3334 61.9534 55.2822C61.8732 55.2309 61.8037 55.1643 61.75 55.0861C61.6956 55.0078 61.6577 54.9196 61.6376 54.8265C61.6176 54.7334 61.6169 54.6373 61.634 54.5437L61.8044 53.6406C61.8381 53.4851 61.9154 53.3424 62.0271 53.2295C62.1388 53.1165 62.2806 53.038 62.4352 53.0032Z" fill="#CE7A63"/>
<path d="M74.9152 47.7167C74.5178 47.679 74.1219 47.8006 73.814 48.0548C73.5069 48.309 73.3121 48.6752 73.2742 49.0728V49.1243C73.247 49.3956 73.2119 49.7264 73.1768 50.033C73.141 50.3394 73.098 50.6567 73.0522 50.9687C72.9598 51.5951 72.8489 52.2135 72.7243 52.8265C72.5997 53.4394 72.4537 54.0415 72.2775 54.6301C72.1343 55.102 71.9689 55.5576 71.7928 56.0025C71.5744 56.0113 71.3561 55.9976 71.1406 55.9617C70.4411 55.8565 69.7501 55.7033 69.0714 55.5034C68.4356 55.3027 67.7934 55.0694 67.1519 54.8253C66.5103 54.5812 65.8631 54.3181 65.2323 54.066H65.2159C65.0462 53.9952 64.8565 53.9894 64.6825 54.0496C64.5092 54.1097 64.3632 54.2317 64.2737 54.3923C64.1834 54.5529 64.1555 54.741 64.1956 54.9208C64.235 55.1006 64.3388 55.2597 64.4877 55.3677C65.0834 55.8071 65.6841 56.1814 66.3042 56.572C66.9242 56.9625 67.5664 57.2962 68.2351 57.6189C69.0048 57.9569 69.8017 58.2291 70.6179 58.4325C71.0589 58.5545 71.5136 58.6201 71.9718 58.6278C72.2782 58.6314 72.5833 58.5865 72.8761 58.4949C73.2863 58.3692 73.6522 58.1293 73.9321 57.8033C73.9808 57.7428 74.0238 57.6784 74.0617 57.6107L74.0889 57.5592C74.4391 56.9135 74.7433 56.2437 74.9989 55.5549C75.2452 54.8835 75.455 54.199 75.6268 53.5045C75.803 52.8183 75.9383 52.1267 76.0493 51.4324C76.1008 51.0825 76.1467 50.7354 76.1875 50.3855C76.2283 50.0356 76.2576 49.6966 76.277 49.3007C76.2977 48.9117 76.1674 48.5298 75.9132 48.2346C75.6598 47.9395 75.3018 47.7539 74.9152 47.7167Z" fill="#CE7A63"/>
<path d="M75.367 46.5186C77.0403 47.7038 77.1212 49.4775 76.2169 52.8732C75.0069 53.4808 72.0664 52.7132 72.0664 52.7132C72.0664 52.7132 72.9921 47.4407 75.367 46.5186Z" fill="#00A1FF"/>
<path d="M69.345 39.7867C69.345 39.7867 70.1569 39.6267 72.3636 39.6945C72.0929 40.3563 71.5839 40.8824 70.444 40.8472C70.1705 40.865 69.9013 40.7734 69.6951 40.5923C69.4889 40.4112 69.3629 40.1556 69.345 39.8816C69.345 39.8491 69.3422 39.8193 69.345 39.7867Z" fill="#263238"/>
<path d="M70.9861 40.3288C70.5487 40.2917 70.1112 40.3932 69.7346 40.619C69.943 40.7622 70.1893 40.8388 70.4413 40.8387C70.878 40.8771 71.3148 40.7755 71.6899 40.5485C71.4844 40.4025 71.2374 40.3256 70.9861 40.3288Z" fill="#BA4D3C"/>
<path d="M69.4453 39.7742C69.4654 39.8563 69.5076 39.9312 69.5678 39.991C69.6272 40.0507 69.7016 40.093 69.784 40.1133C70.4427 40.1319 71.1021 40.0947 71.7551 40.0021C71.8589 39.9952 71.9598 39.9629 72.0486 39.9081C72.1374 39.8532 72.2111 39.7775 72.2641 39.6875C71.324 39.6418 70.3811 39.6708 69.4453 39.7742Z" fill="white"/>
<path d="M72.161 33.8476C72.0193 33.8693 71.8789 33.901 71.7415 33.9425V34.0727C72.0973 34.0679 72.4517 34.1201 72.7918 34.2273C74.6655 34.7996 74.9576 35.8546 74.3297 37.4141C74.029 38.1572 73.8665 39.733 74.213 40.0287C74.3025 40.1046 74.5731 40.0937 74.9254 40.0287C75.1581 39.4862 75.38 38.8543 75.6643 38.0569C75.8647 37.5354 75.922 36.97 75.8311 36.4189C75.7402 35.8677 75.5039 35.351 75.1466 34.9219C74.7894 34.4929 74.324 34.1671 73.7992 33.9783C73.2744 33.7894 72.7087 33.7443 72.161 33.8476Z" fill="#263238"/>
<path d="M75.7723 40.1783C75.599 40.36 75.3914 40.5053 75.1609 40.6059C74.931 40.7065 74.6833 40.7603 74.432 40.7641C73.7826 40.7641 73.6795 40.0915 74.0454 39.5328C74.3726 39.031 75.1036 38.4263 75.6699 38.7002C76.2355 38.9741 76.2219 39.7145 75.7723 40.1783Z" fill="#CE7A63"/>
<g opacity="0.9">
<path d="M71.78 51.6957C67.22 51.4245 65.1623 50.5702 64.3418 50.0929C64.3153 50.0788 64.2909 50.0615 64.2687 50.0413C64.0332 49.8352 64.331 49.4582 64.6045 49.6155C65.3219 50.0305 67.2987 50.874 71.8122 51.1533C71.8838 51.1575 71.9504 51.1898 71.9977 51.2431C72.0456 51.2965 72.0707 51.3666 72.0664 51.4381C72.065 51.474 72.0564 51.5091 72.0406 51.5416C72.0256 51.574 72.0034 51.6031 71.9769 51.627C71.9504 51.651 71.9189 51.6694 71.8853 51.6812C71.8516 51.693 71.8158 51.6979 71.78 51.6957Z" fill="white"/>
</g>
<g opacity="0.9">
<path d="M71.541 54.2807C71.5417 54.3175 71.5338 54.3538 71.5195 54.3877C71.5052 54.4215 71.4837 54.452 71.4572 54.4774C71.4307 54.5027 71.3992 54.5224 71.3649 54.5353C71.3305 54.5481 71.294 54.5537 71.2567 54.5519C68.6556 54.4571 66.0967 53.8565 63.724 52.7835C63.6918 52.7672 63.6624 52.7445 63.6388 52.7165C63.6152 52.6887 63.5973 52.6563 63.5865 52.6213C63.5751 52.5863 63.5715 52.5495 63.5751 52.5131C63.5794 52.4766 63.5901 52.4413 63.608 52.4092C63.6409 52.3484 63.6968 52.3026 63.7627 52.2815C63.8285 52.2603 63.9001 52.2653 63.9624 52.2953C66.2714 53.3297 68.7566 53.9116 71.284 54.0094C71.3534 54.0129 71.4193 54.043 71.4665 54.0935C71.5145 54.144 71.5417 54.211 71.541 54.2807Z" fill="white"/>
</g>
<g opacity="0.9">
<path d="M66.9544 58.7988C64.8423 58.3866 63.7569 58.1045 63.2994 57.9852C63.2643 57.975 63.2313 57.9578 63.2034 57.9346C63.1748 57.9115 63.1512 57.8828 63.1347 57.8504C63.1175 57.8179 63.1075 57.7824 63.1046 57.7459C63.1018 57.7094 63.1061 57.6727 63.1175 57.638C63.1404 57.5722 63.1869 57.5174 63.2485 57.4851C63.3101 57.4528 63.3817 57.4454 63.4483 57.4644C63.8865 57.5892 64.9697 57.8685 67.0575 58.2781C67.1277 58.2918 67.19 58.333 67.2301 58.3925C67.2701 58.4519 67.2852 58.5249 67.2716 58.5954C67.2551 58.6638 67.2129 58.7233 67.1542 58.7612C67.0947 58.7992 67.0231 58.8127 66.9544 58.7988Z" fill="white"/>
</g>
<path d="M71.7735 34.7514C71.6826 34.79 71.5802 34.7914 71.4879 34.7555C71.3962 34.7195 71.3217 34.649 71.2809 34.5589C71.2437 34.4672 71.2315 34.3674 71.2451 34.2695C71.258 34.1715 71.2967 34.0787 71.3568 34.0001C71.4778 33.8431 71.6361 33.7183 71.8172 33.6367C71.664 33.819 71.5566 34.0359 71.5058 34.2687C71.5108 34.4802 71.5759 34.8192 71.7735 34.7514Z" fill="#263238"/>
<path d="M74.034 40.2834C74.034 40.3082 74.0283 40.3328 74.0176 40.3553C74.0068 40.3777 73.9918 40.3977 73.9724 40.4138C73.9538 40.43 73.9316 40.442 73.9073 40.4489C73.8837 40.4559 73.8586 40.4576 73.8343 40.4542C73.7842 40.4435 73.7391 40.4189 73.7025 40.3835C73.666 40.348 73.6402 40.3029 73.6281 40.2535C73.608 40.1533 73.608 40.05 73.6281 39.9497C73.6445 39.7186 73.7004 39.492 73.7935 39.2799C73.8865 39.0659 74.0569 38.8946 74.2703 38.7998C74.3082 38.845 74.3326 38.9002 74.3397 38.9589C74.3476 39.0175 74.3383 39.0772 74.3133 39.1307C74.2574 39.226 74.1944 39.3167 74.1235 39.4019C74.0419 39.5231 73.9889 39.6613 73.9689 39.806C73.9488 39.9508 73.9617 40.0983 74.0075 40.2373C74.029 40.2426 74.0125 40.2807 74.034 40.2834Z" fill="#263238"/>
<path d="M43.5285 57.4873H24.2509C23.54 57.4873 22.8583 57.7703 22.3557 58.2738C21.8531 58.7774 21.5703 59.4603 21.5703 60.1724V74.851C21.5703 75.5627 21.8531 76.2457 22.3557 76.7491C22.8583 77.2531 23.54 77.5359 24.2509 77.5359H38.8153C38.9563 78.6851 39.5119 79.7426 40.3775 80.5101C41.2438 81.2776 42.3593 81.7007 43.5149 81.7015C43.6209 81.7015 43.7261 81.7015 43.8321 81.6857C43.0796 80.6927 42.4646 79.2442 42.0615 77.5359H43.5371C44.248 77.5359 44.9297 77.2531 45.4323 76.7491C45.9349 76.2457 46.217 75.5627 46.217 74.851V60.1724C46.217 59.8191 46.1475 59.4693 46.0122 59.143C45.8776 58.8167 45.6793 58.5203 45.4294 58.2709C45.1795 58.0214 44.8831 57.8238 44.5574 57.6894C44.2309 57.5549 43.8815 57.4862 43.5285 57.4873Z" fill="#00A1FF"/>
<path opacity="0.4" d="M43.5285 57.4873H24.2509C23.54 57.4873 22.8583 57.7703 22.3557 58.2738C21.8531 58.7774 21.5703 59.4603 21.5703 60.1724V74.851C21.5703 75.5627 21.8531 76.2457 22.3557 76.7491C22.8583 77.2531 23.54 77.5359 24.2509 77.5359H38.8153C38.9563 78.6851 39.5119 79.7426 40.3775 80.5101C41.2438 81.2776 42.3593 81.7007 43.5149 81.7015C43.6209 81.7015 43.7261 81.7015 43.8321 81.6857C43.0796 80.6927 42.4646 79.2442 42.0615 77.5359H43.5371C44.248 77.5359 44.9297 77.2531 45.4323 76.7491C45.9349 76.2457 46.217 75.5627 46.217 74.851V60.1724C46.217 59.8191 46.1475 59.4693 46.0122 59.143C45.8776 58.8167 45.6793 58.5203 45.4294 58.2709C45.1795 58.0214 44.8831 57.8238 44.5574 57.6894C44.2309 57.5549 43.8815 57.4862 43.5285 57.4873Z" fill="white"/>
<path d="M47.3896 63.7232L48.8896 62.332L50.1734 64.7105C50.1734 64.7105 48.6863 65.8467 47.8063 65.1472L47.3896 63.7232Z" fill="#FF8B7B"/>
<path d="M47.3889 63.7246L46.3687 65.8997L47.7684 67.0603L48.992 65.0757L47.3889 63.7246Z" fill="#FF8B7B"/>
<path d="M50.3165 62.6613L50.5628 63.5591C50.6237 63.7689 50.6193 63.9923 50.5492 64.1992C50.4797 64.4061 50.3487 64.5873 50.1733 64.7168L49.6313 65.0777L48.0991 62.3821L49.4122 62.0506C49.5117 62.0305 49.6141 62.0298 49.7136 62.0498C49.8132 62.0699 49.9077 62.1093 49.9922 62.1658C50.0766 62.2224 50.1482 62.2954 50.2041 62.3806C50.2599 62.4658 50.2979 62.561 50.3165 62.6613Z" fill="#FF8B7B"/>
<path d="M47.3896 63.7269C47.3896 63.7269 47.9309 62.0508 47.8443 61.5381C47.7985 61.2319 48.1149 61.2807 48.3698 61.3728C48.4679 61.4064 48.5538 61.4687 48.6154 61.5525C48.6777 61.6355 48.7128 61.7358 48.7163 61.8396C48.7378 62.3816 48.7164 63.4398 48.3018 63.5071C47.9925 63.5543 47.6868 63.6281 47.3896 63.7269Z" fill="#FF8B7B"/>
<path d="M49.1411 65.4666C48.7201 64.9954 48.1594 64.6718 47.5408 64.5444L47.0862 64.4492C46.8156 64.3955 46.764 64.4492 46.7318 64.5279L46.6015 64.7312L46.3309 65.1358C46.1519 65.4071 45.9736 65.6778 45.7896 65.9491C45.4295 66.4918 45.0528 66.9987 44.6741 67.4928C44.319 67.9646 43.9288 68.4085 43.5071 68.8216L43.3961 68.9247C43.255 68.7729 43.1255 68.6125 42.9844 68.4471C42.5885 67.9453 42.2183 67.4226 41.8768 66.882C41.5274 66.34 40.3961 64.6962 40.0876 64.1048C39.9329 63.8119 39.7811 63.5134 39.6379 63.2155L39.4296 62.768C39.3673 62.6241 39.2914 62.4559 39.2477 62.3478L39.2184 62.2769C38.9964 61.7879 38.5897 61.4063 38.0879 61.216C37.586 61.0259 37.0296 61.0424 36.5392 61.2621C36.0495 61.4814 35.6664 61.8867 35.4738 62.3886C35.2812 62.8898 35.2948 63.4475 35.5118 63.9394C35.6092 64.1592 35.685 64.3167 35.7824 64.4986L36.0531 65.0191C36.2335 65.3642 36.4139 65.7035 36.5943 66.0357C36.9788 66.7059 38.2031 68.4149 38.652 69.0572C39.1074 69.7116 39.6064 70.3352 40.1441 70.9237C40.7105 71.5495 41.3369 72.1172 42.015 72.6184L42.0987 72.6807C42.3071 72.8325 42.5469 72.9342 42.8004 72.9785C43.0538 73.0229 43.3137 73.0093 43.5608 72.9384C44.1128 72.7774 44.6268 72.5082 45.0743 72.1466C45.4166 71.8752 45.7344 71.5745 46.0251 71.2487C46.5328 70.6767 46.9953 70.0652 47.4084 69.4209C47.8065 68.8051 48.1559 68.1758 48.4917 67.5465C48.6513 67.2264 48.8081 66.9092 48.9542 66.5842L49.1711 66.0959L49.2764 65.8489C49.3093 65.7622 49.3251 65.667 49.1411 65.4666Z" fill="#263238"/>
<path opacity="0.4" d="M39.1073 64.6079L37.6181 65.6633L37.1907 66.6828C37.2637 66.8188 37.3339 66.9542 37.4098 67.0902C37.7914 67.7596 38.2224 68.4104 38.6606 69.0534C39.1166 69.7078 39.615 70.3314 40.1527 70.9192C40.4233 71.1906 40.6939 71.4619 40.9653 71.7333C40.2343 70.0106 39.1073 64.6079 39.1073 64.6079Z" fill="black"/>
<path d="M25.7967 72.8455C25.9134 75.5576 25.4852 75.433 25.4745 77.5323H38.6684C39.3858 71.1286 39.05 70.1442 39.0636 65.8941C39.0636 63.5021 38.6978 61.061 36.3208 60.8115C33.5285 60.5387 30.7161 60.5568 27.9274 60.8658C27.51 60.9168 27.1062 61.0507 26.741 61.26C26.3759 61.4694 26.0558 61.7494 25.8002 62.0844C25.5446 62.4188 25.3578 62.8011 25.2518 63.2092C25.1458 63.6173 25.1222 64.0419 25.1823 64.4593C25.7157 68.075 25.4258 70.1227 25.7967 72.8455Z" fill="#263238"/>
<path opacity="0.9" d="M35.1165 60.7162C33.3588 60.601 31.5953 60.5955 29.8369 60.6999C29.8749 61.2423 30.2865 62.5987 33.2836 63.7729C33.2836 63.7729 33.9523 62.3188 34.5158 62.9725C34.5158 62.9725 34.9676 62.1377 35.937 63.6748C35.937 63.6748 37.3833 62.1241 35.1165 60.7162Z" fill="white"/>
<path opacity="0.4" d="M27.9846 64.5635C28.2745 67.078 26.6715 71.2815 25.8187 73.3127C25.8187 73.1716 25.8187 73.017 25.8187 72.8516C25.5861 71.154 25.6125 69.7163 25.5481 68.0023L27.9846 64.5635Z" fill="black"/>
<path d="M31.1307 55.9048C31.1751 57.554 30.8571 59.1928 30.1992 60.7053C30.1748 60.7629 30.1691 60.8266 30.182 60.8877C30.1949 60.949 30.2264 61.0046 30.2722 61.047C31.377 62.0012 32.7939 62.5145 34.253 62.4902C36.0265 62.5116 35.9234 61.9475 35.5038 61.3319C35.4423 61.2443 35.3628 61.1712 35.2711 61.1176C34.0576 60.3962 34.0146 59.4306 34.3554 58.8475L31.1307 55.9048Z" fill="#FF8B7B"/>
<path opacity="0.2" d="M31.1335 55.9048L34.3561 58.8475C34.248 59.0327 34.1857 59.2409 34.1743 59.455C34.1621 59.669 34.2015 59.8828 34.2881 60.0788C33.6086 60.1 32.9457 59.8626 32.4337 59.4143C31.6025 58.7065 31.3204 57.8711 31.1121 56.7022C31.1285 56.4472 31.1335 56.176 31.1335 55.9048Z" fill="black"/>
<path d="M30.172 54.3744C30.3131 56.5441 30.0073 56.8913 31.1064 57.9898C32.761 59.6414 35.4552 59.9561 35.8368 57.7592C36.1783 55.7793 36.3781 52.1965 34.2423 51.3612C33.7712 51.1736 33.2607 51.1094 32.7581 51.1747C32.2555 51.2399 31.778 51.4325 31.3706 51.7342C30.9632 52.0359 30.6396 52.4367 30.4298 52.8986C30.22 53.3606 30.1312 53.8685 30.172 54.3744Z" fill="#FF8B7B"/>
<path d="M35.43 56.7193C35.43 56.7193 34.6697 56.478 32.5117 56.3857C32.7415 57.1614 33.194 57.8069 34.2988 57.8422C35.4035 57.8774 35.43 56.7193 35.43 56.7193Z" fill="#263238"/>
<path d="M33.8056 57.2112C34.2402 57.2043 34.6633 57.3534 34.9969 57.6316C34.7979 57.7814 34.5502 57.8537 34.3017 57.835C33.8664 57.8438 33.4426 57.6934 33.1104 57.4118C33.3101 57.2629 33.5571 57.1917 33.8056 57.2112Z" fill="#FF5652"/>
<path d="M35.3328 56.6837C35.2677 56.8437 35.2003 57.0064 34.9834 57.0498C34.3448 57.0196 33.7104 56.9288 33.0882 56.7786C32.9815 56.7593 32.8813 56.7123 32.7983 56.6424C32.7152 56.5725 32.6515 56.482 32.6143 56.3799C33.5278 56.3976 34.4378 56.4994 35.3328 56.6837Z" fill="white"/>
<path d="M34.583 54.6909C34.8107 55.0954 35.0942 55.466 35.425 55.792C35.3398 55.8757 35.2367 55.9396 35.1243 55.979C35.0111 56.0183 34.8909 56.0323 34.772 56.0198L34.583 54.6909Z" fill="#FF5652"/>
<path d="M32.4466 53.7522C32.428 53.7497 32.4108 53.7411 32.398 53.7278C32.3872 53.7177 32.3793 53.7057 32.3736 53.6924C32.3686 53.6791 32.3657 53.6649 32.3657 53.6505C32.3657 53.6361 32.3686 53.6218 32.3736 53.6086C32.3793 53.5953 32.3872 53.5833 32.398 53.5732C32.5096 53.4413 32.6521 53.3382 32.8125 53.2726C32.9722 53.207 33.1461 53.1808 33.318 53.1962C33.3473 53.2005 33.3731 53.2161 33.3903 53.2395C33.4075 53.2628 33.4146 53.2922 33.4103 53.321C33.406 53.3498 33.3903 53.3756 33.3674 53.3929C33.3438 53.4102 33.3144 53.4175 33.2858 53.4132C33.149 53.4025 33.0115 53.4248 32.8848 53.4781C32.7581 53.5314 32.6457 53.6142 32.5576 53.7196C32.544 53.735 32.5261 53.7463 32.5068 53.752C32.4867 53.7578 32.466 53.7579 32.4466 53.7522Z" fill="#263238"/>
<path d="M36.0422 54.1409C36.0243 54.144 36.0064 54.1427 35.9892 54.1369C35.972 54.1313 35.957 54.1215 35.9448 54.1084C35.8546 54.0058 35.7415 53.9263 35.6148 53.8763C35.488 53.8263 35.3513 53.8073 35.216 53.8209C35.188 53.8256 35.1594 53.8192 35.1365 53.803C35.1129 53.7867 35.0971 53.762 35.0914 53.734C35.0871 53.7053 35.0935 53.6759 35.11 53.6521C35.1272 53.6282 35.1522 53.6119 35.1809 53.6066C35.352 53.5878 35.5246 53.61 35.6849 53.6713C35.8453 53.7326 35.9892 53.8313 36.1045 53.9592C36.1145 53.9693 36.1224 53.9813 36.1281 53.9946C36.1338 54.0078 36.1367 54.0221 36.1367 54.0365C36.1367 54.0509 36.1338 54.0651 36.1281 54.0784C36.1224 54.0917 36.1145 54.1037 36.1045 54.1138C36.0866 54.129 36.0651 54.1384 36.0422 54.1409Z" fill="#263238"/>
<path d="M21.7785 73.2907C21.7836 73.3938 21.7986 73.4954 21.8251 73.595C22.0692 74.462 22.3871 75.3069 22.7752 76.1195C22.9721 76.5498 23.1747 76.9729 23.3845 77.3889C23.663 77.4848 23.9558 77.5342 24.2508 77.5357H27.1727L26.8827 76.887C26.5605 76.1796 26.2627 75.4687 25.9921 74.7663C25.7665 74.1964 25.5768 73.6129 25.4236 73.02C25.4536 72.7924 25.5002 72.5683 25.561 72.347C25.6455 72.022 25.7594 71.669 25.8889 71.311C26.1596 70.5979 26.4574 69.8626 26.7825 69.1416C27.1075 68.4199 27.4677 67.6796 27.8307 66.95C28.193 66.2204 28.5724 65.4823 28.949 64.7935V64.7692L28.9676 64.7283C29.2132 64.2486 29.2583 63.6902 29.0929 63.1768C28.9275 62.6635 28.566 62.2368 28.0863 61.9905C27.6066 61.7449 27.0495 61.6998 26.5369 61.8652C26.0243 62.0306 25.5983 62.3936 25.3527 62.8733C24.9467 63.6709 24.5809 64.4326 24.2129 65.2224C23.8448 66.0114 23.5119 66.809 23.1869 67.6223C22.8618 68.4364 22.5697 69.2576 22.2983 70.1397C22.1659 70.5814 22.047 71.0368 21.9468 71.5279C21.8222 72.0871 21.7649 72.6585 21.7757 73.2312L21.7785 73.2907Z" fill="#263238"/>
<path d="M29.1896 55.8309C29.3772 56.2959 29.7344 56.6721 30.1883 56.8832C30.7676 57.1327 31.0876 56.5658 30.9494 55.9149C30.8277 55.3319 30.3752 54.4965 29.7824 54.5236C29.1896 54.5507 28.9426 55.2342 29.1896 55.8309Z" fill="#FF8B7B"/>
<path d="M32.9585 54.4904C32.9585 54.6776 33.0372 54.8376 33.1647 54.8457C33.2921 54.8538 33.3974 54.7074 33.406 54.5148C33.4139 54.3222 33.3272 54.1677 33.2026 54.1595C33.0774 54.1514 32.9692 54.2978 32.9585 54.4904Z" fill="#2E353A"/>
<path d="M35.1001 54.622C35.1001 54.8119 35.1817 54.9719 35.3034 54.98C35.4251 54.9881 35.5368 54.8389 35.5504 54.6491C35.564 54.4592 35.4688 54.3019 35.3471 54.2938C35.2247 54.2857 35.1108 54.4321 35.1001 54.622Z" fill="#2E353A"/>
<path d="M41.2947 19.4405H22.0278C21.3176 19.4412 20.6367 19.7244 20.1348 20.2279C19.6322 20.7314 19.3501 21.4139 19.3501 22.1255V36.8038C19.3501 37.1563 19.4188 37.5054 19.5534 37.8312C19.688 38.1569 19.8849 38.4529 20.1334 38.7023C20.3825 38.9517 20.6775 39.1495 21.0026 39.2844C21.3276 39.4194 21.6763 39.4889 22.0278 39.4889H36.5864C36.7261 40.6386 37.2809 41.6973 38.1465 42.4653C39.0114 43.2332 40.1277 43.6573 41.284 43.6575C41.3921 43.6575 41.498 43.6575 41.6033 43.6412C40.8508 42.6459 40.2336 41.2002 39.8327 39.4889H41.3083C42.0193 39.4889 42.7008 39.206 43.2042 38.7024C43.7068 38.1989 43.9889 37.5159 43.9889 36.8038V22.1255C43.9889 21.7719 43.9187 21.4218 43.7827 21.0953C43.6474 20.7688 43.4483 20.4723 43.1985 20.2229C42.9479 19.9735 42.6507 19.776 42.3242 19.6417C41.9978 19.5074 41.6477 19.439 41.2947 19.4405Z" fill="#00A1FF"/>
<path opacity="0.4" d="M41.2947 19.4405H22.0278C21.3176 19.4412 20.6367 19.7244 20.1348 20.2279C19.6322 20.7314 19.3501 21.4139 19.3501 22.1255V36.8038C19.3501 37.1563 19.4188 37.5054 19.5534 37.8312C19.688 38.1569 19.8849 38.4529 20.1334 38.7023C20.3825 38.9517 20.6775 39.1495 21.0026 39.2844C21.3276 39.4194 21.6763 39.4889 22.0278 39.4889H36.5864C36.7261 40.6386 37.2809 41.6973 38.1465 42.4653C39.0114 43.2332 40.1277 43.6573 41.284 43.6575C41.3921 43.6575 41.498 43.6575 41.6033 43.6412C40.8508 42.6459 40.2336 41.2002 39.8327 39.4889H41.3083C42.0193 39.4889 42.7008 39.206 43.2042 38.7024C43.7068 38.1989 43.9889 37.5159 43.9889 36.8038V22.1255C43.9889 21.7719 43.9187 21.4218 43.7827 21.0953C43.6474 20.7688 43.4483 20.4723 43.1985 20.2229C42.9479 19.9735 42.6507 19.776 42.3242 19.6417C41.9978 19.5074 41.6477 19.439 41.2947 19.4405Z" fill="white"/>
<path d="M36.5728 39.4949C36.4626 37.9184 36.4626 36.336 36.5728 34.7594C36.7411 31.9822 35.9127 28.9798 35.2869 28.4672C34.3855 27.7213 33.5457 27.0189 33.2478 27.9573C33.0746 28.4997 33.023 29.3948 33.0345 30.3983C33.061 32.8229 33.5757 35.847 33.8192 37.2438C33.9087 37.7374 34.1335 39.4976 34.1335 39.4976L36.5728 39.4949Z" fill="#00A1FF"/>
<path d="M34.8896 28.5829C34.8581 28.3835 34.7707 28.1974 34.6368 28.0467C34.5022 27.8962 34.3283 27.7876 34.1335 27.734C33.4569 27.5523 32.287 27.2567 31.2231 27.0668C29.9694 26.8627 28.7021 26.7467 27.432 26.7197C26.6201 26.6871 25.8404 26.7197 25.2147 26.7468C25.1409 26.7526 25.0672 26.7653 24.9956 26.7848C24.8631 26.8223 24.7399 26.8855 24.6318 26.9709C24.5244 27.0562 24.4342 27.1619 24.3676 27.2821C24.3003 27.4022 24.2581 27.5344 24.2424 27.6711C24.2266 27.8077 24.2373 27.9462 24.2753 28.0785C25.8805 33.8201 26.2142 36.5675 26.2979 39.4913H34.1335C34.4994 36.8388 35.2168 34.6609 35.2819 33.1014C35.3378 31.5848 35.2061 30.0671 34.8896 28.5829Z" fill="#00A1FF"/>
<path opacity="0.8" d="M34.8896 28.5829C34.8581 28.3835 34.7707 28.1974 34.6368 28.0467C34.5022 27.8962 34.3283 27.7876 34.1335 27.734C33.4569 27.5523 32.287 27.2567 31.2231 27.0668C29.9694 26.8627 28.7021 26.7467 27.432 26.7197C26.6201 26.6871 25.8404 26.7197 25.2147 26.7468C25.1409 26.7526 25.0672 26.7653 24.9956 26.7848C24.8631 26.8223 24.7399 26.8855 24.6318 26.9709C24.5244 27.0562 24.4342 27.1619 24.3676 27.2821C24.3003 27.4022 24.2581 27.5344 24.2424 27.6711C24.2266 27.8077 24.2373 27.9462 24.2753 28.0785C25.8805 33.8201 26.2142 36.5675 26.2979 39.4913H34.1335C34.4994 36.8388 35.2168 34.6609 35.2819 33.1014C35.3378 31.5848 35.2061 30.0671 34.8896 28.5829Z" fill="white"/>
<path d="M31.6698 25.743C31.155 26.44 30.7791 27.2673 31.586 28.184C31.7607 28.3752 31.8631 28.6219 31.8753 28.881C31.8753 29.296 31.6455 29.6946 30.2973 28.9027C28.342 27.7528 28.5074 26.4617 28.5074 26.4617C29.5334 26.1498 30.1484 23.9882 30.3861 22.7515L31.6698 25.743Z" fill="#FFB573"/>
<path opacity="0.2" d="M30.4942 24.6035C30.3453 25.1297 30.9002 25.9597 31.3226 26.3014C31.4214 26.1107 31.536 25.9292 31.667 25.759L30.9087 23.9824C30.7312 24.1603 30.5909 24.3714 30.4942 24.6035Z" fill="black"/>
<path d="M35.6385 19.2353C36.3266 20.1086 34.7779 22.7395 34.6096 22.1889C34.339 21.2939 33.9438 19.4767 33.9495 18.7309C33.9603 17.5538 34.954 18.3647 35.6385 19.2353Z" fill="#263238"/>
<path d="M29.9372 19.5148C30.1198 19.2037 30.3611 18.9315 30.6489 18.7141C30.9367 18.4966 31.2639 18.338 31.6126 18.2473C31.9613 18.1566 32.325 18.1357 32.6816 18.1856C33.0381 18.2356 33.3818 18.3555 33.6925 18.5385C35.5361 19.6071 35.3958 22.6067 34.7185 24.3317C33.9768 26.2546 31.4694 26.5015 30.1728 24.752C29.3007 23.5858 29.4117 22.7369 29.5657 20.7272C29.5929 20.2995 29.7203 19.8842 29.9372 19.5148Z" fill="#FFB573"/>
<path d="M32.3871 21.7314C32.3735 21.8967 32.4466 22.0378 32.5525 22.0487C32.6578 22.0595 32.7587 21.9348 32.7773 21.7775C32.7967 21.6201 32.7179 21.471 32.612 21.4601C32.506 21.4493 32.4115 21.5876 32.3871 21.7314Z" fill="#263238"/>
<path d="M32.5576 21.4883L32.9621 21.415C32.9621 21.415 32.7337 21.6917 32.5576 21.4883Z" fill="#263238"/>
<path d="M34.4392 22.2015C34.4392 22.3669 34.4986 22.508 34.6046 22.5189C34.7106 22.5297 34.8108 22.405 34.8301 22.2477C34.8488 22.0904 34.77 21.9411 34.664 21.9303C34.5588 21.9195 34.4636 22.047 34.4392 22.2015Z" fill="#263238"/>
<path d="M34.6096 21.9468L35.0141 21.8735C35.0141 21.8735 34.7865 22.1502 34.6096 21.9468Z" fill="#263238"/>
<path d="M33.6702 23.4429C33.7654 23.4815 33.8678 23.4991 33.9701 23.4944C34.0725 23.4897 34.172 23.4629 34.2637 23.4158C34.0682 23.0649 33.9229 22.6889 33.8298 22.2983L33.6702 23.4429Z" fill="#ED893E"/>
<path d="M32.1244 23.3699C32.1194 23.3583 32.1186 23.3452 32.1229 23.3332C32.1272 23.3213 32.1351 23.3111 32.1459 23.3048C32.1573 23.2991 32.1709 23.2983 32.1831 23.3023C32.1953 23.3064 32.2053 23.315 32.211 23.3265C32.3112 23.5044 32.4516 23.656 32.622 23.7687C32.7916 23.8814 32.9857 23.952 33.1883 23.9747C33.2005 23.9779 33.2105 23.985 33.2177 23.9949C33.2241 24.0049 33.2277 24.0169 33.2262 24.029C33.2255 24.0349 33.2241 24.0407 33.2212 24.046C33.2177 24.0512 33.2141 24.0557 33.2091 24.0593C33.2041 24.0629 33.199 24.0654 33.1926 24.0667C33.1869 24.068 33.1811 24.0681 33.1747 24.0669C33.0974 24.0584 33.0201 24.043 32.9449 24.0208C32.7716 23.9723 32.6105 23.8897 32.4695 23.778C32.3284 23.6662 32.211 23.5275 32.1244 23.3699Z" fill="#263238"/>
<path d="M32.3162 20.6879C32.3012 20.6677 32.2948 20.6424 32.2983 20.6175C32.3019 20.5926 32.3155 20.5701 32.3356 20.555C32.4959 20.4573 32.6764 20.3952 32.8632 20.3727C33.0494 20.3503 33.2391 20.368 33.4181 20.4248C33.4425 20.4334 33.4618 20.4509 33.4732 20.4737C33.484 20.4965 33.4861 20.5228 33.4783 20.5468C33.4697 20.5705 33.4532 20.59 33.431 20.6012C33.4081 20.6123 33.3823 20.6143 33.3587 20.6065C33.2091 20.5582 33.0515 20.5419 32.8947 20.5587C32.7387 20.5755 32.5876 20.6251 32.4516 20.7042C32.4358 20.7167 32.4165 20.7235 32.3964 20.7235C32.3764 20.7235 32.3563 20.7167 32.3406 20.7042L32.3162 20.6879Z" fill="#263238"/>
<path d="M35.2703 21.3166C35.2052 21.2147 35.1171 21.1299 35.0126 21.0695C34.9074 21.009 34.7899 20.9748 34.6697 20.9694C34.6568 20.9697 34.6439 20.9676 34.6324 20.963C34.6202 20.9584 34.6095 20.9514 34.6009 20.9426C34.5916 20.9337 34.5844 20.9231 34.5794 20.9115C34.5744 20.8998 34.5723 20.8872 34.5723 20.8745C34.5723 20.849 34.5816 20.8246 34.5995 20.8064C34.6174 20.7882 34.641 20.7776 34.6668 20.7769C34.8186 20.7822 34.9675 20.8239 35.1007 20.8984C35.2331 20.973 35.3462 21.0782 35.43 21.2054C35.4372 21.2156 35.4422 21.2272 35.4443 21.2394C35.4472 21.2515 35.4472 21.2641 35.4443 21.2762C35.4422 21.2884 35.4372 21.2999 35.43 21.3101C35.4228 21.3203 35.4135 21.3289 35.4035 21.3355C35.3892 21.3448 35.3727 21.3497 35.3556 21.3497C35.3391 21.3497 35.3226 21.3448 35.3083 21.3355L35.2703 21.3166Z" fill="#263238"/>
<path d="M32.8068 19.1122C32.5046 19.169 32.2182 19.2925 31.9691 19.4735C31.7199 19.6545 31.5144 19.8887 31.3662 20.1591C31.2288 20.414 30.3402 20.9728 30.1885 21.225C29.7123 22.0197 30.2321 24.2817 30.0073 24.4525C29.7825 24.6234 29.8612 23.9535 29.6472 23.8233C29.4202 23.7206 29.2026 23.5981 28.9971 23.4571C28.7264 23.2293 27.7871 20.7747 28.9462 19.2885C29.5226 18.5045 30.3667 17.9601 31.3175 17.7589C32.2812 17.5948 33.2707 17.8201 34.069 18.3853C34.3203 18.567 34.7621 19.0634 34.069 19.2858C33.8793 19.3454 33.8714 19.1936 33.6738 19.1448C33.3903 19.0714 33.0946 19.0603 32.8068 19.1122Z" fill="#263238"/>
<path d="M28.1986 21.2255C28.8674 20.5746 29.7015 20.5746 30.4382 20.5746C30.7876 20.6023 31.1399 20.5628 31.4749 20.458C32.2167 20.1352 32.672 19.0748 32.7558 18.7276C32.8002 18.5856 32.8811 18.4573 32.9885 18.3548C33.0966 18.2523 33.2291 18.179 33.373 18.1418C33.4904 18.136 33.6071 18.1575 33.7145 18.2046C33.8226 18.2516 33.9178 18.323 33.993 18.413C34.1255 18.6056 34.1119 18.8849 33.9522 19.2267L34.0582 19.2728C34.2343 18.8795 34.2422 18.5649 34.0875 18.3371C34.0009 18.2315 33.8899 18.1474 33.7653 18.0915C33.6408 18.0355 33.504 18.0091 33.3672 18.0143C33.1983 18.0521 33.0422 18.1344 32.9155 18.2526C32.788 18.3707 32.6949 18.5207 32.6448 18.687C32.5689 19.007 32.1222 20.043 31.4291 20.3414C31.1084 20.44 30.7718 20.4759 30.4382 20.4471C29.7179 20.4471 28.8129 20.4471 28.1199 21.1306L28.1986 21.2255Z" fill="#263238"/>
<path opacity="0.1" d="M28.1986 21.2255C28.8674 20.5746 29.7015 20.5746 30.4382 20.5746C30.7876 20.6023 31.1399 20.5628 31.4749 20.458C32.2167 20.1352 32.672 19.0748 32.7558 18.7276C32.8002 18.5856 32.8811 18.4573 32.9885 18.3548C33.0966 18.2523 33.2291 18.179 33.373 18.1418C33.4904 18.136 33.6071 18.1575 33.7145 18.2046C33.8226 18.2516 33.9178 18.323 33.993 18.413C34.1255 18.6056 34.1119 18.8849 33.9522 19.2267L34.0582 19.2728C34.2343 18.8795 34.2422 18.5649 34.0875 18.3371C34.0009 18.2315 33.8899 18.1474 33.7653 18.0915C33.6408 18.0355 33.504 18.0091 33.3672 18.0143C33.1983 18.0521 33.0422 18.1344 32.9155 18.2526C32.788 18.3707 32.6949 18.5207 32.6448 18.687C32.5689 19.007 32.1222 20.043 31.4291 20.3414C31.1084 20.44 30.7718 20.4759 30.4382 20.4471C29.7179 20.4471 28.8129 20.4471 28.1199 21.1306L28.1986 21.2255Z" fill="white"/>
<path d="M28.7723 21.9903C28.7838 21.9042 28.8117 21.8211 28.8547 21.7459C28.8976 21.6706 28.9556 21.6046 29.0243 21.5517C29.0931 21.4988 29.1711 21.46 29.2549 21.4375C29.3386 21.415 29.426 21.4094 29.5119 21.4208C30.0102 21.4967 30.2372 22.1693 30.2372 22.6087C30.2372 23.0942 29.8771 23.4549 29.4389 23.181C29.1103 22.971 28.8776 22.6396 28.7917 22.2588C28.7666 22.1717 28.7602 22.0802 28.7723 21.9903Z" fill="#FFB573"/>
<path d="M29.6579 29.1438C29.5527 30.5324 28.2718 35.7778 25.4967 35.9243C25.0542 35.9367 24.6232 35.7828 24.2889 35.493C22.0522 34.1369 23.8099 27.6006 24.2588 27.2209C24.4542 27.0532 24.6884 26.9372 24.9397 26.8836C25.191 26.8299 25.4523 26.8402 25.6986 26.9136C25.9449 26.987 26.169 27.1211 26.3501 27.3037C26.532 27.4862 26.6644 27.7113 26.7368 27.9586C26.7947 27.7518 26.8413 27.5417 26.875 27.3294C26.9909 26.6215 27.3754 24.9725 28.0849 24.8532C28.5131 24.7799 29.393 24.7419 29.6472 25.0918C29.9021 25.4417 29.8341 26.852 29.6579 29.1438Z" fill="#00A1FF"/>
<g opacity="0.2">
<path d="M29.5117 21.4204V21.5425L29.6392 22.7467V24.2981L29.8504 23.3759C29.9041 23.1357 29.9162 22.8879 29.8855 22.6437L29.7365 21.4882L29.5117 21.4204Z" fill="black"/>
</g>
<path d="M28.12 25.134L27.7871 22.7174L29.7983 22.7012C29.7983 22.7012 29.6336 24.5156 29.1296 25.1421L28.12 25.134Z" fill="#FFB573"/>
<path d="M28.1415 21.0679L29.6307 21.331L29.7904 22.6979L27.7871 22.7196L28.1415 21.0679Z" fill="#FFB573"/>
<path opacity="0.2" d="M26.1195 30.1572C26.1195 30.1572 24.9145 32.9454 24.8766 31.8416C24.8386 30.64 26.1195 30.1572 26.1195 30.1572Z" fill="black"/>
<path d="M100.382 46.4629H92.9299C92.5891 46.4629 92.2619 46.5986 92.0206 46.8402C91.7794 47.0818 91.644 47.4095 91.644 47.7511V52.5571C91.6448 52.8983 91.7808 53.2253 92.0214 53.4663C92.2626 53.7073 92.5898 53.8427 92.9299 53.8427H95.0721L96.028 55.0957C96.101 55.1924 96.1962 55.2708 96.305 55.3248C96.4139 55.3787 96.5334 55.4068 96.6544 55.4068C96.7762 55.4068 96.8957 55.3787 97.0045 55.3248C97.1134 55.2708 97.2079 55.1924 97.2816 55.0957L98.2375 53.8427H100.382C100.722 53.8427 101.048 53.7072 101.289 53.4662C101.53 53.2251 101.665 52.8981 101.665 52.5571V47.7511C101.665 47.41 101.53 47.0827 101.29 46.8411C101.049 46.5996 100.723 46.4636 100.382 46.4629Z" fill="#00A1FF"/>
<path opacity="0.7" d="M100.382 46.4629H92.9299C92.5891 46.4629 92.2619 46.5986 92.0206 46.8402C91.7794 47.0818 91.644 47.4095 91.644 47.7511V52.5571C91.6448 52.8983 91.7808 53.2253 92.0214 53.4663C92.2626 53.7073 92.5898 53.8427 92.9299 53.8427H95.0721L96.028 55.0957C96.101 55.1924 96.1962 55.2708 96.305 55.3248C96.4139 55.3787 96.5334 55.4068 96.6544 55.4068C96.7762 55.4068 96.8957 55.3787 97.0045 55.3248C97.1134 55.2708 97.2079 55.1924 97.2816 55.0957L98.2375 53.8427H100.382C100.722 53.8427 101.048 53.7072 101.289 53.4662C101.53 53.2251 101.665 52.8981 101.665 52.5571V47.7511C101.665 47.41 101.53 47.0827 101.29 46.8411C101.049 46.5996 100.723 46.4636 100.382 46.4629Z" fill="white"/>
<path d="M99.9486 49.7682L97.5687 48.3145V49.1878H96.4854C95.7845 49.1878 95.1122 49.4667 94.6167 49.9631C94.1213 50.4595 93.8428 51.1328 93.8428 51.8349C93.8435 52.031 93.865 52.2265 93.9079 52.418C94.0404 51.8325 94.3683 51.3096 94.8365 50.9346C95.3048 50.5597 95.8861 50.355 96.4854 50.354H97.5687V51.23L99.9486 49.7682Z" fill="#00A1FF"/>
<path d="M47.9525 17.0464H53.6653C53.9273 17.0464 54.1779 17.1503 54.3627 17.3355C54.5474 17.5206 54.6512 17.7717 54.6512 18.0336V21.733C54.6512 21.8625 54.6254 21.9908 54.576 22.1104C54.5266 22.23 54.4536 22.3386 54.3627 22.4301C54.271 22.5216 54.1622 22.594 54.0426 22.6434C53.923 22.6927 53.7949 22.7179 53.6653 22.7175H52.0221L51.2911 23.6803C51.2346 23.7546 51.1622 23.8147 51.0785 23.8561C50.9954 23.8975 50.9031 23.919 50.8107 23.919C50.7176 23.919 50.6253 23.8975 50.5422 23.8561C50.4585 23.8147 50.3861 23.7546 50.3296 23.6803L49.5957 22.7175H47.9525C47.8229 22.7179 47.6955 22.6926 47.5759 22.6433C47.4564 22.594 47.3482 22.5214 47.2566 22.4299C47.165 22.3384 47.0926 22.2298 47.0432 22.1102C46.9946 21.9905 46.9688 21.8624 46.9695 21.733V18.0336C46.9688 17.9041 46.9946 17.7758 47.0432 17.656C47.0926 17.5363 47.165 17.4274 47.2566 17.3356C47.3475 17.2439 47.4564 17.1712 47.5759 17.1216C47.6948 17.0719 47.8229 17.0463 47.9525 17.0464Z" fill="#00A1FF"/>
<path opacity="0.7" d="M47.9525 17.0464H53.6653C53.9273 17.0464 54.1779 17.1503 54.3627 17.3355C54.5474 17.5206 54.6512 17.7717 54.6512 18.0336V21.733C54.6512 21.8625 54.6254 21.9908 54.576 22.1104C54.5266 22.23 54.4536 22.3386 54.3627 22.4301C54.271 22.5216 54.1622 22.594 54.0426 22.6434C53.923 22.6927 53.7949 22.7179 53.6653 22.7175H52.0221L51.2911 23.6803C51.2346 23.7546 51.1622 23.8147 51.0785 23.8561C50.9954 23.8975 50.9031 23.919 50.8107 23.919C50.7176 23.919 50.6253 23.8975 50.5422 23.8561C50.4585 23.8147 50.3861 23.7546 50.3296 23.6803L49.5957 22.7175H47.9525C47.8229 22.7179 47.6955 22.6926 47.5759 22.6433C47.4564 22.594 47.3482 22.5214 47.2566 22.4299C47.165 22.3384 47.0926 22.2298 47.0432 22.1102C46.9946 21.9905 46.9688 21.8624 46.9695 21.733V18.0336C46.9688 17.9041 46.9946 17.7758 47.0432 17.656C47.0926 17.5363 47.165 17.4274 47.2566 17.3356C47.3475 17.2439 47.4564 17.1712 47.5759 17.1216C47.6948 17.0719 47.8229 17.0463 47.9525 17.0464Z" fill="white"/>
<path d="M48.291 19.5847L50.121 18.4673V19.1372H50.958C51.2616 19.1381 51.5609 19.2071 51.8351 19.3393C52.1086 19.4715 52.3484 19.6635 52.5382 19.901C52.7279 20.1387 52.8618 20.4158 52.9305 20.7121C52.9993 21.0085 53.0007 21.3165 52.9348 21.6134C52.8324 21.1645 52.5818 20.7636 52.2224 20.4763C51.863 20.1891 51.4177 20.0325 50.958 20.0323H50.121V20.7021L48.291 19.5847Z" fill="#00A1FF"/>
</svg>
