<svg width="231" height="135" viewBox="0 0 231 135" fill="none" xmlns="http://www.w3.org/2000/svg">
<path d="M69.2876 124.399C97.883 124.399 121.064 121.243 121.064 117.351C121.064 113.458 97.883 110.303 69.2876 110.303C40.6923 110.303 17.5112 113.458 17.5112 117.351C17.5112 121.243 40.6923 124.399 69.2876 124.399Z" fill="#ECF3FD"/>
<path d="M20.041 33.841C19.0671 38.2177 18.9565 42.7782 19.6098 47.2144C21.7774 61.9364 32.407 74.0473 44.1559 83.1798C48.4276 86.5004 52.9945 89.5973 58.1576 91.2149C63.338 92.838 69.7324 94.5163 75.1544 94.7792C80.095 95.0187 84.2618 93.8083 89.0353 92.5118C95.1869 90.8406 100.373 86.3682 103.613 80.8786C106.853 75.389 108.259 68.9533 108.408 62.5804C108.536 57.095 107.535 51.1267 103.529 47.3768C100.716 44.7427 96.8479 43.6047 93.5701 41.5777C88.5631 38.4811 82.1328 31.6331 79.6396 26.3001C77.9257 22.6339 72.4495 12.5308 57.0156 10.2586C49.1728 9.10384 25.0196 11.4681 20.041 33.841Z" fill="#ECF3FD"/>
<path d="M78.4442 58.2644H64.2432V59.7858H78.4442V58.2644Z" fill="#A5C4B6"/>
<path d="M104.891 56.4845C103.331 56.4845 102.066 57.7493 102.066 59.3096V59.771H107.717V59.3096C107.717 57.7493 106.452 56.4845 104.891 56.4845Z" fill="#A5C4B6"/>
<path d="M56.1484 61.8727C56.1484 79.4075 56.1484 96.9423 56.1484 114.477C56.1484 115.343 57.494 115.344 57.494 114.477C57.494 96.942 57.494 79.4072 57.494 61.8727C57.494 61.0067 56.1484 61.0052 56.1484 61.8727Z" fill="#30374E"/>
<path d="M107.423 61.8727C107.423 79.4075 107.423 96.9423 107.423 114.477C107.423 115.343 108.769 115.344 108.769 114.477C108.769 96.942 108.769 79.4072 108.769 61.8727C108.769 61.0067 107.423 61.0052 107.423 61.8727Z" fill="#30374E"/>
<path d="M56.8212 101.476C73.7861 101.476 90.7512 101.476 107.716 101.476C108.582 101.476 108.583 100.131 107.716 100.131C90.7512 100.131 73.7861 100.131 56.8212 100.131C55.9555 100.131 55.954 101.476 56.8212 101.476Z" fill="#30374E"/>
<path d="M114.363 59.771H51.9438V64.508H114.363V59.771Z" fill="#81A393"/>
<path d="M108.401 50.8578H69.2778L72.1265 27.4994H111.25L108.401 50.8578Z" fill="#3E425E"/>
<path d="M107.696 49.9085H70.2817L72.8314 28.4489H110.246L107.696 49.9085Z" fill="#FFE9D9"/>
<path d="M97.4603 58.2644H80.3687V59.7708H97.4603V58.2644Z" fill="#A5C4B6"/>
<path d="M91.0035 50.8579H86.8257V58.2642H91.0035V50.8579Z" fill="#A5C4B6"/>
<mask id="mask0_189_3409" style="mask-type:luminance" maskUnits="userSpaceOnUse" x="70" y="28" width="41" height="22">
<path d="M107.696 49.9085H70.2817L72.8314 28.4489H110.246L107.696 49.9085Z" fill="white"/>
</mask>
<g mask="url(#mask0_189_3409)">
<path d="M85.2405 38.3559C86.9135 36.6616 98.5751 36.8488 99.9191 38.0685C101.52 39.5208 102.103 48.5492 101.224 51.8444C96.2643 52.5982 81.0681 52.9409 80.7203 51.7015C80.5822 51.2084 84.5483 39.057 85.2405 38.3559Z" fill="white"/>
<path d="M79.4529 39.3533C79.4395 38.8973 79.5053 38.2673 79.3034 37.8582C79.1016 37.4492 78.8923 37.1047 78.668 36.4379C77.8084 36.4379 78.7802 38.2087 78.3343 38.415C77.6301 37.1597 77.411 36.4185 77.2444 35.13C77.1003 34.4955 76.7011 34.6558 76.6616 35.1641C76.5836 36.1727 76.7564 36.7516 77.097 37.7042C76.351 36.8832 76.2015 36.6616 75.8014 35.4754C75.7227 35.2425 75.4802 35.0173 75.2434 35.0828C74.8562 35.4658 75.7921 37.1771 76.3309 38.1109C75.4168 37.5592 74.5111 36.2672 74.2704 36.6045C74.0761 36.8347 74.2773 37.1774 74.4741 37.4055C74.9399 37.9459 75.4061 38.4862 75.8719 39.0265C75.1429 38.7355 74.2579 38.2742 73.9849 38.554C73.9849 38.9502 74.5171 39.0989 75.0365 39.3237C75.7141 39.617 76.2323 40.2019 76.5836 40.8514C76.9346 41.5011 77.1368 42.2188 77.3362 42.9298C78.233 42.7603 79.1294 42.5907 80.0261 42.4212C79.5558 41.1555 79.4924 40.6959 79.4529 39.3533Z" fill="#E8996D"/>
<path d="M84.7604 40.7736C84.4022 41.2311 82.8348 44.1892 81.9159 46.2121C81.0362 44.7813 80.6908 43.4127 80.3682 41.9323C80.315 41.688 79.923 41.601 79.8772 41.3453C79.8183 41.0167 79.7651 40.6776 79.7146 40.3251C78.5906 40.8821 77.9934 41.1166 76.7403 41.1683C76.8156 41.4147 77.0052 42.2313 76.777 42.2531C76.4592 42.2836 76.5797 42.9349 76.6733 43.2405C77.1664 44.8539 78.2572 50.6784 80.9109 51.7997C82.5501 52.4923 85.5911 49.1089 85.8055 47.5732C85.8094 49.3188 85.5032 53.2945 85.6895 53.3226C89.5659 53.9108 94.6375 54.144 98.5219 53.6127C98.9175 51.292 98.7624 49.7503 98.777 48.1365C98.8144 44.0251 100.793 43.1005 100.455 42.463C100.029 41.6575 98.5746 39.2181 96.6462 39.2181C94.0293 39.2181 92.9788 38.9864 90.375 39.0477C88.5089 39.0922 86.2615 38.856 84.7604 40.7736Z" fill="#F4D376"/>
<path d="M93.8807 38.8229C93.8738 39.0585 89.6365 39.3907 89.6365 38.5753C89.6365 37.7327 89.4505 36.458 89.4702 35.6156C89.844 34.2112 93.6205 34.372 93.7617 35.4667C93.8917 36.4759 93.8992 38.1991 93.8807 38.8229Z" fill="#D1855E"/>
<path d="M88.3862 35.9548C88.6539 36.7789 88.824 37.2528 89.538 37.7429C90.2524 38.2333 91.2347 38.3798 91.9989 37.9716C92.5103 37.6986 92.8774 37.2148 93.1537 36.7053C93.7114 35.677 93.8465 34.6711 93.6253 33.5226C93.4043 32.3741 92.8021 31.0997 91.7696 30.5495C91.2771 30.2873 90.7039 30.1435 90.1561 30.2484C88.5905 30.5483 88.0268 31.3428 87.947 32.8753C87.9102 33.5917 88.2041 35.3944 88.3862 35.9548Z" fill="#E8996D"/>
<path d="M89.1041 39.5068C89.6424 39.9622 90.9066 40.0301 91.798 40.0262C92.6158 40.0226 93.6581 39.9033 94.3521 39.6264C94.5079 39.5642 94.7905 39.3471 94.8123 39.2108C94.8497 38.9769 94.5145 38.7593 94.2843 38.7141C93.8908 38.4716 95.1436 37.8254 94.4858 37.722C93.8313 37.6191 92.3613 38.192 90.2915 37.9331C89.5252 37.8374 89.3487 37.7914 89.1358 37.9705C88.6754 38.3583 89.3015 38.602 89.3768 38.9895C89.4304 39.2649 88.3264 38.8487 89.1041 39.5068Z" fill="#E5C26C"/>
<path d="M103.786 48.3602C104.892 50.3101 105.056 52.2483 104.047 52.8464C102.412 53.8155 101.401 53.9793 99.5126 54.1955C98.8446 54.2721 98.1153 54.3355 97.5502 53.9707C97.2775 53.7945 97.0574 53.4994 97.0652 53.1747C97.0828 52.4448 96.405 52.0701 97.0969 51.8372C97.982 51.5394 98.9894 50.6426 100.271 50.3047C99.2668 49.3936 98.9502 48.7708 98.2164 47.352C97.4449 45.8605 96.4328 44.0189 96.3631 42.3411C96.3284 41.5083 96.6152 40.216 97.5592 39.9391C98.6431 39.621 99.3096 40.8981 99.8523 41.6333C101.489 43.8511 102.425 45.9622 103.786 48.3602Z" fill="#F4D376"/>
<path d="M90.7646 31.0446C91.499 30.8556 91.5295 32.3713 91.7191 32.6823C91.9963 33.138 92.6592 33.544 93.2112 33.3891C93.2829 34.2356 93.4836 34.1106 93.9321 34.7236C93.9629 34.7658 94.0299 34.7532 94.0397 34.7024C94.156 34.1163 94.0478 33.9842 93.9763 33.315C94.8261 33.2845 94.784 32.6826 94.784 32.6826C94.3355 32.4777 94.2939 31.4479 93.8214 30.7937C93.349 30.1391 92.6786 29.5907 91.8868 29.4344C91.296 29.3174 90.5825 29.4897 90.317 30.0303C89.4899 29.3632 87.6949 29.679 87.6734 30.7414C87.645 32.1401 86.8317 32.4107 86.7791 32.4909C86.6816 32.6392 87.8696 33.6364 88.8432 32.9421C89.7294 32.31 88.6658 30.9285 89.8658 31.0176C90.1615 31.1124 90.169 31.2264 90.2976 31.4775C90.4091 31.3295 90.5326 31.1044 90.7646 31.0446Z" fill="#3E4260"/>
<path d="M94.3882 34.2124C94.3676 34.0581 94.3398 33.8927 94.2306 33.7815C94.111 33.6595 93.9164 33.6347 93.7534 33.6855C92.8976 33.9525 92.616 35.3029 93.3471 35.8468C93.3943 35.8818 93.4451 35.9129 93.5008 35.932C93.6864 35.996 93.896 35.9185 94.0453 35.7909C94.2588 35.6079 94.3751 35.3313 94.4151 35.0529C94.4549 34.7745 94.4253 34.491 94.3882 34.2124Z" fill="#E8996D"/>
<path d="M89.9353 34.0192C90.0427 34.416 89.9359 34.8062 89.6432 35.0942C89.5726 35.1635 89.593 35.2784 89.6734 35.3289C89.8543 35.4431 90.0355 35.5573 90.2164 35.6716C90.3797 35.7747 90.5298 35.5161 90.3674 35.4135C90.1865 35.2993 90.0053 35.1851 89.8244 35.0705C89.8346 35.1489 89.8447 35.2272 89.8546 35.3053C90.2224 34.9435 90.3584 34.4369 90.2236 33.9394C90.1733 33.7543 89.8848 33.8329 89.9353 34.0192Z" fill="#CC835E"/>
<path d="M91.2672 35.9194C90.8247 36.1503 90.2948 36.2092 89.8125 36.0809C89.8125 36.0809 90.0768 36.8861 90.54 36.8488C91.0029 36.8117 91.2672 35.9194 91.2672 35.9194Z" fill="white"/>
<path d="M88.645 34.3413C88.7754 34.196 88.9404 34.1251 89.1357 34.1326C89.3283 34.14 89.3277 33.841 89.1357 33.8336C88.8672 33.8234 88.613 33.9298 88.4333 34.1299C88.3053 34.2725 88.5161 34.4848 88.645 34.3413Z" fill="#A0644A"/>
<path d="M91.2849 33.9184C91.4275 33.7668 91.7128 33.8221 91.8737 33.9157C92.0402 34.0126 92.1909 33.7546 92.0247 33.6577C91.7484 33.4968 91.3109 33.4552 91.0735 33.707C90.9416 33.847 91.1524 34.0587 91.2849 33.9184Z" fill="#A0644A"/>
<path d="M88.3474 33.2837C88.6617 33.1593 88.9846 33.08 89.3216 33.0525C89.5121 33.037 89.5139 32.738 89.3216 32.7535C88.9574 32.7831 88.6079 32.8606 88.2679 32.9954C88.0912 33.0654 88.1683 33.3548 88.3474 33.2837Z" fill="#3E4260"/>
<path d="M90.8936 32.9602C91.2904 32.8807 91.6862 32.8654 92.0887 32.9064C92.2801 32.9258 92.2786 32.6268 92.0887 32.6074C91.6593 32.5634 91.2371 32.587 90.8143 32.6717C90.6256 32.7096 90.7055 32.9979 90.8936 32.9602Z" fill="#3E4260"/>
<path d="M93.5981 34.5221C93.698 34.3287 93.6965 34.7772 93.695 34.8349C93.6917 34.9716 93.7133 35.4886 93.5078 35.4939C93.3159 35.499 93.315 35.7983 93.5078 35.793C94.0682 35.7777 94.0048 34.962 93.9928 34.5766C93.9872 34.396 93.986 34.1478 93.7656 34.0954C93.5626 34.0473 93.4223 34.2115 93.3398 34.3708C93.2519 34.5422 93.5096 34.6935 93.5981 34.5221Z" fill="#CC835E"/>
<path d="M85.9735 47.0515C85.8715 45.7804 85.8721 44.5132 85.9759 43.242C85.9914 43.0504 85.6924 43.0513 85.6769 43.242C85.5734 44.5132 85.5725 45.7801 85.6745 47.0515C85.6897 47.242 85.989 47.2438 85.9735 47.0515Z" fill="#E5C26C"/>
<path d="M84.5958 45.5965C84.6595 46.3758 84.7683 47.1472 84.9232 47.9136C84.9612 48.102 85.2497 48.0221 85.2115 47.8341C85.062 47.094 84.9564 46.3491 84.8948 45.5965C84.8793 45.4061 84.5803 45.4043 84.5958 45.5965Z" fill="#E5C26C"/>
<path d="M83.9018 47.3926C83.9745 47.7565 84.0953 48.1031 84.2594 48.4359C84.3447 48.6084 84.6027 48.4571 84.5175 48.2849C84.3644 47.9751 84.2577 47.6519 84.1901 47.3131C84.1524 47.1244 83.8641 47.2042 83.9018 47.3926Z" fill="#E5C26C"/>
<path d="M98.6624 47.2669C97.9807 45.9187 97.6455 44.4897 97.6511 42.9788C97.652 42.7865 97.353 42.7862 97.3521 42.9788C97.3461 44.5372 97.7011 46.0275 98.4041 47.4179C98.4911 47.5896 98.7494 47.4383 98.6624 47.2669Z" fill="#E5C26C"/>
<path d="M96.9475 45.1877C97.0617 46.149 97.3664 47.0437 97.8727 47.8699C97.9731 48.0337 98.2318 47.8836 98.1307 47.7189C97.6535 46.9402 97.3545 46.0952 97.2465 45.1877C97.2241 44.999 96.9248 44.9969 96.9475 45.1877Z" fill="#E5C26C"/>
<path d="M96.8914 47.988C97.1405 48.3244 97.3899 48.6608 97.639 48.9972C97.7523 49.15 98.0119 49.0011 97.897 48.8462C97.648 48.5098 97.3986 48.1734 97.1495 47.837C97.0365 47.6842 96.7766 47.8331 96.8914 47.988Z" fill="#E5C26C"/>
<path d="M88.6852 41.0876C90.0317 43.0106 91.7462 44.6058 93.7643 45.8055C93.9299 45.9041 94.0806 45.6455 93.9153 45.5474C91.9421 44.3741 90.2604 42.8174 88.9436 40.9369C88.8338 40.7802 88.5743 40.9294 88.6852 41.0876Z" fill="#E5C26C"/>
<path d="M89.5377 46.9098C90.4303 47.8355 91.4592 48.5863 92.6146 49.1515C92.7868 49.2358 92.9384 48.978 92.7656 48.8934C91.6329 48.339 90.625 47.6065 89.7494 46.6983C89.6155 46.5596 89.4041 46.7713 89.5377 46.9098Z" fill="#E5C26C"/>
<path d="M81.9001 46.7518C82.0648 47.5747 81.8803 48.3779 81.6818 49.1771C81.6354 49.364 81.9237 49.4436 81.97 49.2567C82.1829 48.4003 82.3644 47.552 82.1883 46.6726C82.1506 46.4839 81.8624 46.5638 81.9001 46.7518Z" fill="#E5C26C"/>
<path d="M82.3368 46.6816C82.3867 46.9184 82.4363 47.1549 82.4863 47.3917C82.526 47.5798 82.8143 47.5003 82.7745 47.3122C82.7246 47.0754 82.6749 46.8389 82.625 46.6021C82.5855 46.414 82.297 46.4935 82.3368 46.6816Z" fill="#E5C26C"/>
<path d="M101.091 50.3576C101.526 50.1979 101.99 50.282 102.331 50.6013C102.471 50.7329 102.683 50.5218 102.542 50.3899C102.129 50.003 101.545 49.8738 101.011 50.0694C100.832 50.1349 100.909 50.424 101.091 50.3576Z" fill="#E5C26C"/>
</g>
<path d="M97.5809 31.6164C100.173 31.6164 102.764 31.6164 105.355 31.6164C105.548 31.6164 105.548 31.3174 105.355 31.3174C102.764 31.3174 100.173 31.3174 97.5809 31.3174C97.3887 31.3174 97.3881 31.6164 97.5809 31.6164Z" fill="#EFD1BD"/>
<path d="M98.4779 33.9088C101.335 33.9088 104.192 33.9088 107.05 33.9088C107.242 33.9088 107.243 33.6097 107.05 33.6097C104.192 33.6097 101.335 33.6097 98.4779 33.6097C98.2857 33.6097 98.2851 33.9088 98.4779 33.9088Z" fill="#EFD1BD"/>
<path d="M102.465 37.0981C103.528 37.0981 104.591 37.0981 105.654 37.0981C105.846 37.0981 105.847 36.7991 105.654 36.7991C104.591 36.7991 103.528 36.7991 102.465 36.7991C102.272 36.7991 102.272 37.0981 102.465 37.0981Z" fill="#EFD1BD"/>
<path d="M76.1516 30.8189C78.9755 30.8189 81.7997 30.8189 84.6236 30.8189C84.8159 30.8189 84.8165 30.5199 84.6236 30.5199C81.7997 30.5199 78.9755 30.5199 76.1516 30.5199C75.9594 30.5199 75.9591 30.8189 76.1516 30.8189Z" fill="#EFD1BD"/>
<path d="M79.9393 34.407C81.1354 34.407 82.3315 34.407 83.5275 34.407C83.7198 34.407 83.7204 34.108 83.5275 34.108C82.3315 34.108 81.1354 34.108 79.9393 34.108C79.7471 34.108 79.7465 34.407 79.9393 34.407Z" fill="#EFD1BD"/>
<path d="M80.9358 36.899C81.5007 36.899 82.0655 36.899 82.6303 36.899C82.8226 36.899 82.8232 36.6 82.6303 36.6C82.0655 36.6 81.5007 36.6 80.9358 36.6C80.7435 36.6 80.7433 36.899 80.9358 36.899Z" fill="#EFD1BD"/>
<path d="M103.063 41.1848C103.861 41.1848 104.658 41.1848 105.455 41.1848C105.648 41.1848 105.648 40.8857 105.455 40.8857C104.658 40.8857 103.861 40.8857 103.063 40.8857C102.871 40.8857 102.871 41.1848 103.063 41.1848Z" fill="#EFD1BD"/>
<path d="M103.96 43.4774C104.392 43.4774 104.824 43.4774 105.256 43.4774C105.448 43.4774 105.449 43.1783 105.256 43.1783C104.824 43.1783 104.392 43.1783 103.96 43.1783C103.768 43.1783 103.768 43.4774 103.96 43.4774Z" fill="#EFD1BD"/>
<path d="M73.5606 47.2647C74.225 47.2647 74.8894 47.2647 75.5541 47.2647C75.7463 47.2647 75.7469 46.9657 75.5541 46.9657C74.8897 46.9657 74.2253 46.9657 73.5606 46.9657C73.368 46.9657 73.3677 47.2647 73.5606 47.2647Z" fill="#EFD1BD"/>
<path d="M73.959 44.0753C74.2912 44.0753 74.6234 44.0753 74.9556 44.0753C75.1479 44.0753 75.1485 43.7762 74.9556 43.7762C74.6234 43.7762 74.2912 43.7762 73.959 43.7762C73.7664 43.7762 73.7661 44.0753 73.959 44.0753Z" fill="#EFD1BD"/>
<path d="M73.4602 41.4838C73.9919 41.4838 74.5235 41.4838 75.0549 41.4838C75.2471 41.4838 75.2477 41.1848 75.0549 41.1848C74.5232 41.1848 73.9916 41.1848 73.4602 41.1848C73.268 41.1848 73.2677 41.4838 73.4602 41.4838Z" fill="#EFD1BD"/>
<path d="M14.2544 43.6406C11.6643 44.3761 9.67736 46.1526 10.1044 48.1043C11.4604 54.301 16.4662 69.9436 20.969 81.8426C21.9899 84.5403 23.1889 89.257 24.4277 91.8617C24.6968 92.4274 59.0533 91.0816 59.48 90.9279C59.8298 90.802 66.3791 85.9298 70.0166 82.9523C71.0434 82.1117 70.4915 79.2158 70.2074 77.9199C69.7353 75.7649 49.6792 74.7766 49.3183 74.5015C48.9843 74.2468 40.6546 42.4445 37.4665 41.4871C34.0231 40.4528 19.5406 42.1389 14.2544 43.6406Z" fill="#CA9A8E"/>
<path d="M13.4346 46.4469C14.9943 45.7852 16.6607 47.2195 17.494 48.3938C18.3594 49.6134 18.7714 51.0245 19.2155 52.4305C19.8885 54.5621 20.5849 56.6866 21.2885 58.8081C22.9522 63.825 24.6599 68.8278 26.4106 73.8148C27.6103 77.2325 28.7504 80.7037 30.1734 84.0378C30.6169 85.0762 31.2915 85.5496 32.3849 85.9099C34.6906 86.67 37.2517 86.7947 39.6588 86.864C41.1129 86.9059 42.57 86.893 44.0223 86.8066C45.5831 86.7136 47.1275 86.5085 48.6938 86.4744C50.6164 86.4326 52.5648 86.4604 54.48 86.6505C56.3165 86.8329 57.776 87.4576 58.9443 88.9227C59.0642 89.0731 59.2747 88.8602 59.1557 88.7113C58.3193 87.6624 57.2949 86.9191 55.9837 86.5928C54.4932 86.222 52.8895 86.2244 51.3634 86.1844C48.3478 86.1054 45.3903 86.5052 42.3855 86.574C39.639 86.6368 36.8274 86.5545 34.1231 86.0364C32.765 85.7762 31.1342 85.4757 30.5236 84.1005C29.0459 80.7725 27.9329 77.2498 26.7276 73.8177C24.9473 68.7486 23.2118 63.6629 21.5218 58.5629C20.7434 56.2142 19.9726 53.8624 19.2364 51.4999C18.6904 49.7471 17.9201 47.965 16.4083 46.8281C15.5301 46.1676 14.3481 45.737 13.2833 46.1888C13.1072 46.2639 13.2594 46.5213 13.4346 46.4469Z" fill="#B58379"/>
<path d="M69.3172 116.76C73.3419 117.094 78.5824 116.837 82.6027 116.456C83.0303 116.415 83.5667 116.27 83.619 115.844C83.6543 115.557 83.4324 115.307 83.2111 115.12C82.237 114.301 80.9919 113.893 79.78 113.503C78.4775 113.083 77.1753 112.664 75.8727 112.245C75.516 112.13 75.1518 112.011 74.8525 111.786C73.8406 111.025 73.9647 109.439 73.2136 108.42C71.6106 108.465 70.0049 108.427 68.4058 108.307C69.2986 108.374 69.1075 116.05 69.3172 116.76Z" fill="#EFD4C2"/>
<path d="M69.6799 71.8217C71.1343 71.9302 71.6991 72.4532 72.5636 73.6277C73.945 75.5047 70.8993 78.6006 70.5596 78.656C62.0778 80.0398 54.9247 82.3416 46.3451 81.8423C45.6122 81.7995 44.034 79.7925 43.3909 79.4385C41.8542 78.5935 41.4254 76.7243 41.3761 74.9712C41.3597 74.3822 41.6775 72.6222 42.0037 72.1309C43.0144 70.6092 47.3041 71.7739 49.1603 71.7371C53.6838 71.6474 65.1687 71.4829 69.6799 71.8217Z" fill="#B1CDC1"/>
<path d="M34.0797 80.7761C34.8852 82.4595 36.6692 83.4977 38.4899 83.9077C40.3106 84.3176 60.0512 85.1737 60.299 85.9619C61.9071 91.0792 64.9353 98.8916 66.6968 104.317C67.8868 107.982 68.26 111.408 68.4059 111.503C68.8317 111.779 74.5584 112.119 74.7068 110.207C74.7187 110.054 74.5013 107.02 73.4383 102.513C71.4349 94.0176 70.4518 80.4041 67.3316 78.6794C63.5789 76.6051 49.859 75.2978 48.5523 74.4558C46.3091 73.0107 45.02 72.1098 45.0541 69.4417C41.9653 70.9621 35.486 74.3924 32.0449 74.5019C31.5315 74.5168 33.7197 80.0232 34.0797 80.7761Z" fill="#B1CDC1"/>
<path d="M60.7372 86.1961C61.2718 86.1186 61.8067 86.0409 62.3417 85.9634C62.5312 85.9359 62.4508 85.6477 62.2621 85.6752C61.7275 85.7526 61.1926 85.8304 60.6579 85.9078C60.4677 85.9353 60.5485 86.2233 60.7372 86.1961Z" fill="#9AB7A9"/>
<path d="M61.2008 86.9323C61.6998 86.895 62.1738 86.9859 62.619 87.2152C62.7897 87.3031 62.9413 87.0454 62.77 86.9572C62.2799 86.7048 61.7513 86.5921 61.2008 86.6333C61.01 86.6477 61.0085 86.9467 61.2008 86.9323Z" fill="#9AB7A9"/>
<path d="M69.0756 110.452C70.5733 110.602 72.043 110.441 73.4726 109.972C73.6547 109.912 73.5766 109.623 73.393 109.683C71.985 110.146 70.5494 110.301 69.0756 110.153C68.8842 110.134 68.8857 110.433 69.0756 110.452Z" fill="#9AB7A9"/>
<path d="M34.427 78.6447C35.0226 77.945 35.6182 77.2453 36.2139 76.5453C36.338 76.3997 36.1274 76.1871 36.0025 76.3339C35.4068 77.0336 34.8112 77.7333 34.2155 78.4333C34.0915 78.5789 34.302 78.7915 34.427 78.6447Z" fill="#9AB7A9"/>
<path d="M35.1151 79.6828C35.6441 78.95 36.173 78.2171 36.7017 77.4842C36.8144 77.3278 36.5552 77.1786 36.4433 77.3332C35.9144 78.0661 35.3857 78.799 34.8568 79.5318C34.7443 79.6879 35.0036 79.8374 35.1151 79.6828Z" fill="#9AB7A9"/>
<path d="M36.9625 79.373C37.5204 80.895 39.0526 81.8575 40.6696 81.6557C40.858 81.6321 40.8604 81.3327 40.6696 81.3567C39.1931 81.5412 37.7659 80.6994 37.2507 79.2935C37.1852 79.1144 36.8961 79.1918 36.9625 79.373Z" fill="#9AB7A9"/>
<path d="M44.9222 82.021C45.9989 82.3451 47.0903 82.5864 48.2033 82.7467C48.3916 82.7739 48.4727 82.4857 48.2828 82.4584C47.1699 82.2982 46.0782 82.0569 45.0017 81.7327C44.8169 81.6768 44.738 81.9654 44.9222 82.021Z" fill="#9AB7A9"/>
<path d="M59.556 52.4161C60.3663 48.7227 61.3997 44.8017 61.9981 40.2495C60.9916 39.6341 60.8732 39.1566 60.3035 38.5885C59.5683 37.8556 59.3566 36.9487 58.609 35.4536C59.623 34.5924 60.5027 37.3972 61.2006 36.9986C60.9647 34.8965 59.5118 32.2891 59.8607 31.6911C60.6582 31.335 61.4 34.5081 61.8486 35.055C62.2546 33.9588 60.9016 30.9205 61.3788 30.3491C62.3007 30.2137 62.7456 33.7492 63.2441 35.0096C63.6926 35.0096 63.2509 30.6027 64.0164 30.7941C64.7179 30.919 64.1907 34.0584 64.7496 35.3561C65.2376 35.1187 65.0612 32.5008 65.7731 32.8498C66.4211 33.4672 65.5103 34.1756 65.8598 36.7471C66.2291 39.4655 65.3372 40.2495 65.3372 40.2495C65.4618 42.3569 65.9367 59.7706 62.0728 59.7856C60.337 59.7922 57.4342 59.0204 55.8716 58.2642C54.0335 57.3749 47.9148 54.0463 47.5156 53.5164C46.4051 52.0417 49.6891 47.5978 50.4591 45.9203C50.2402 46.3975 58.7523 52.028 59.556 52.4161Z" fill="#F8AF7F"/>
<path d="M57.2692 50.4303C56.562 53.07 54.8552 55.7959 52.7385 57.2201C51.0293 56.7452 48.3848 55.3288 47.6259 54.4778C46.7672 53.5147 46.6506 52.1198 46.5761 50.8313C46.5023 49.5539 46.4287 48.2766 46.3548 46.9992C46.1955 44.239 48.0434 42.8414 49.8898 44.1164C52.3495 45.8148 57.3119 50.2701 57.2692 50.4303Z" fill="#6884CD"/>
<path d="M62.3767 37.2339C62.9586 36.9155 63.582 36.7809 64.2434 36.8228C64.4357 36.835 64.4348 36.536 64.2434 36.5238C63.5321 36.4786 62.8506 36.6338 62.226 36.9756C62.0567 37.068 62.2075 37.3263 62.3767 37.2339Z" fill="#CC835E"/>
<path d="M59.7854 53.0168C60.509 53.5718 60.7076 54.8327 60.8577 55.6768C60.8915 55.8658 61.1794 55.786 61.1459 55.5973C60.9755 54.6402 60.756 53.3873 59.9361 52.7585C59.7836 52.6416 59.6347 52.9011 59.7854 53.0168Z" fill="#E8996D"/>
<path d="M50.3813 55.0291C50.5278 54.5857 50.7219 54.168 50.9644 53.7691C51.0646 53.6043 50.8062 53.4536 50.7063 53.6181C50.4513 54.0382 50.2474 54.4828 50.0934 54.9496C50.0324 55.1326 50.3212 55.2112 50.3813 55.0291Z" fill="#5773B2"/>
<path d="M49.5718 54.7254C49.7754 54.1955 49.9787 53.6653 50.1824 53.1355C50.2514 52.9558 49.9623 52.878 49.8941 53.056C49.6905 53.5858 49.4872 54.116 49.2835 54.6458C49.2145 54.8258 49.5033 54.9036 49.5718 54.7254Z" fill="#5773B2"/>
<path d="M51.2625 55.3634C51.3929 55.0614 51.584 54.8061 51.8378 54.5968C51.9864 54.4742 51.7738 54.264 51.6264 54.3854C51.3558 54.6084 51.1432 54.8904 51.0045 55.2124C50.9288 55.3874 51.1863 55.5399 51.2625 55.3634Z" fill="#5773B2"/>
<path d="M28.0621 44.4012C27.3465 49.0539 29.3876 55.2085 29.9043 61.1191C30.3125 65.7852 31.0008 69.8405 32.0387 74.9715C37.2894 73.6209 43.7989 72.5412 49.1608 71.7374C48.6286 62.8932 48.3364 52.8391 49.8901 44.1163C46.7678 41.9403 45.2374 42.2172 43.0304 41.9457C42.4154 41.8701 37.0809 41.6345 34.06 42.0931C32.0593 42.3972 30.2117 43.1666 28.0621 44.4012Z" fill="#6884CD"/>
<path d="M48.7904 54.3922C48.8314 52.7064 48.8793 51.0205 48.913 49.3344C48.9259 48.6936 48.9319 48.0399 48.7749 47.4138C48.5764 46.6226 48.0749 45.9489 47.9789 45.1266C47.9568 44.9377 47.6575 44.9356 47.6799 45.1266C47.7514 45.739 48.0043 46.2483 48.2421 46.8083C48.5904 47.6282 48.6317 48.4544 48.614 49.3341C48.5802 51.0202 48.5324 52.7061 48.4914 54.3919C48.4866 54.5845 48.7857 54.5845 48.7904 54.3922Z" fill="#5773B2"/>
<path d="M36.3781 55.2011C38.182 58.8167 41.5827 61.4651 45.5297 62.3295C45.7172 62.3705 45.7973 62.0826 45.6092 62.0413C41.7313 61.1918 38.4087 58.6023 36.6364 55.05C36.5503 54.8778 36.2923 55.0291 36.3781 55.2011Z" fill="#5773B2"/>
<path d="M37.861 63.7791C39.5516 65.2141 41.5389 66.1859 43.7127 66.6278C43.9005 66.6661 43.9809 66.3778 43.7923 66.3396C41.6702 65.9084 39.7239 64.9695 38.0724 63.568C37.9268 63.4436 37.7142 63.6541 37.861 63.7791Z" fill="#5773B2"/>
<path d="M17.5117 73.0283C21.8668 73.3689 26.245 73.6057 30.5894 74.0656C33.4799 74.3715 37.6865 74.8448 39.808 77.08C41.539 78.9037 42.23 82.0008 42.9291 84.334C43.6685 86.8024 44.2645 89.3078 44.9444 91.7921C45.2488 92.9044 46.9801 92.4322 46.6745 91.3151C45.8929 88.4598 45.2153 85.5791 44.3201 82.7552C43.5749 80.4053 42.7685 77.4409 40.934 75.671C38.6212 73.4392 34.7812 72.8151 31.7352 72.41C27.0317 71.7844 22.2415 71.6041 17.5117 71.2342C16.3605 71.1442 16.3661 72.9389 17.5117 73.0283Z" fill="#30374E"/>
<path d="M16.6464 72.3699C18.1433 76.8297 19.813 81.2276 21.4017 85.6551C22.0951 87.588 22.549 89.8898 23.5752 91.6704C24.4985 93.2725 26.0029 93.3246 27.6792 93.254C37.5942 92.8363 47.5074 92.3761 57.4215 91.9371C58.5715 91.8863 58.5778 90.0919 57.4215 90.143C48.4989 90.538 39.576 90.933 30.6535 91.328C29.5629 91.3762 28.4724 91.4288 27.3819 91.4728C26.0594 91.5263 25.2712 91.2345 24.7838 89.9272C24.0674 88.0051 23.446 86.043 22.7478 84.1134C21.2758 80.045 19.7532 75.9952 18.3765 71.893C18.0108 70.804 16.2774 71.2711 16.6464 72.3699Z" fill="#30374E"/>
<path d="M41.7987 117.052H40.1864C39.8474 117.052 39.5723 117.327 39.5723 117.666V119.56C39.5723 119.899 39.8474 120.174 40.1864 120.174H41.7987C42.1378 120.174 42.4129 119.899 42.4129 119.56V117.666C42.4129 117.327 42.1378 117.052 41.7987 117.052Z" fill="#30374E"/>
<path d="M40.4791 91.9998C40.6884 98.5321 40.8974 105.065 41.1067 111.597C41.1435 112.749 42.9379 112.753 42.9008 111.597C42.6915 105.065 42.4825 98.5321 42.2732 91.9998C42.2364 90.848 40.442 90.8429 40.4791 91.9998Z" fill="#30374E"/>
<path d="M41.7655 110.732C37.832 112.087 33.8981 113.443 29.9646 114.799C28.8795 115.173 29.346 116.906 30.4415 116.529C34.3751 115.173 38.3089 113.818 42.2424 112.462C43.3276 112.088 42.8611 110.354 41.7655 110.732Z" fill="#30374E"/>
<path d="M41.7657 112.462C46.1313 113.817 50.4966 115.173 54.8622 116.528C55.9674 116.872 56.4401 115.14 55.3392 114.798C50.9736 113.443 46.6079 112.087 42.2426 110.731C41.1375 110.389 40.6647 112.12 41.7657 112.462Z" fill="#30374E"/>
<path d="M41.139 111.358C40.7207 113.616 40.3021 115.873 39.8838 118.131C39.6744 119.26 41.4033 119.744 41.6138 118.608C42.0322 116.351 42.4508 114.093 42.8691 111.835C43.0784 110.707 41.3495 110.223 41.139 111.358Z" fill="#30374E"/>
<path d="M33.0501 116.367C33.0501 117.134 32.4279 117.756 31.6603 117.756C30.8928 117.756 30.2705 117.134 30.2705 116.367C30.2705 115.599 30.8928 114.977 31.6603 114.977C32.4279 114.977 33.0501 115.599 33.0501 116.367Z" fill="#30374E"/>
<path d="M53.7106 117.756C54.4782 117.756 55.1004 117.134 55.1004 116.367C55.1004 115.599 54.4782 114.977 53.7106 114.977C52.943 114.977 52.3208 115.599 52.3208 116.367C52.3208 117.134 52.943 117.756 53.7106 117.756Z" fill="#30374E"/>
<path d="M22.1636 69.4916C21.469 72.5301 30.3198 72.79 34.5395 73.2508C36.4888 73.4637 38.5442 73.7172 40.1069 74.9016C41.4811 75.9434 41.9338 76.8374 42.6593 78.4016C43.3912 79.5339 44.1821 77.6872 44.1259 77.0755C44.0105 75.8205 44.5541 75.502 44.0105 73.827C43.46 72.1312 42.2143 71.3457 39.3737 70.6873C36.2732 69.9688 32.0134 67.2848 28.9058 66.5986C30.0615 61.4541 31.4076 59.8158 31.7907 55.0483C29.8184 55.094 25.6298 53.552 23.6835 53.2315C23.3872 53.183 22.4892 65.9976 22.1636 69.4916Z" fill="#F8AF7F"/>
<path d="M23.1125 52.5481C22.8066 54.9749 22.1631 57.2199 22.1631 59.7855C25.312 60.0666 28.5584 59.8363 31.6586 60.4559C31.9755 57.7525 33.1148 55.0326 33.1519 52.3107C33.1707 50.9454 32.8603 48.2941 31.6601 47.0594C31.0115 46.3923 28.9465 44.1136 28.0614 44.4006C24.9203 45.4208 23.3603 50.5824 23.1125 52.5481Z" fill="#6884CD"/>
<path d="M42.5313 75.5979C42.7347 75.9986 42.8809 76.416 42.976 76.8549C43.0166 77.043 43.3052 76.9635 43.2642 76.7754C43.1638 76.3116 43.0041 75.8697 42.7894 75.4469C42.7024 75.2752 42.4443 75.4265 42.5313 75.5979Z" fill="#E8996D"/>
<path d="M43.066 74.8136C43.1991 75.2122 43.3318 75.6111 43.4646 76.0097C43.525 76.1912 43.8142 76.1134 43.7529 75.9301C43.6201 75.5315 43.487 75.1327 43.3543 74.7341C43.2939 74.5526 43.005 74.6303 43.066 74.8136Z" fill="#E8996D"/>
<path d="M25.5886 67.9161C26.3652 67.51 27.1869 67.2738 28.0606 67.2077C28.2514 67.1934 28.2528 66.8941 28.0606 66.9087C27.1354 66.979 26.2596 67.2284 25.4376 67.6581C25.2672 67.7472 25.4182 68.0055 25.5886 67.9161Z" fill="#E8996D"/>
<path d="M31.9298 59.2315C32.3822 56.1782 35.0423 53.0446 33.3893 49.9285C33.299 49.7584 33.041 49.9094 33.1313 50.0795C34.722 53.078 32.0778 56.2084 31.6416 59.1519C31.6135 59.3403 31.9014 59.4213 31.9298 59.2315Z" fill="#5773B2"/>
<path d="M33.078 57.5369C33.5606 56.4464 34.1135 55.3957 34.739 54.3803C34.8404 54.2161 34.5817 54.0657 34.4809 54.2292C33.8554 55.2447 33.3025 56.2954 32.8199 57.3859C32.7428 57.5603 33.0002 57.7128 33.078 57.5369Z" fill="#5773B2"/>
<path d="M34.0591 42.0931C33.9487 42.318 36.9804 45.0674 40.8688 44.781C42.197 44.6832 43.3778 42.5449 43.0298 41.9457C42.6904 41.3617 42.4105 40.744 42.1845 40.1077C41.7294 38.8261 41.5479 36.7405 41.5455 35.3806C39.4392 35.3055 36.639 34.8178 34.5997 34.4117C34.9307 37.5302 34.6969 40.793 34.0591 42.0931Z" fill="#E8996D"/>
<path d="M36.7257 38.2179C37.9235 39.3389 39.5797 39.8059 41.1819 40.1585C41.465 40.2206 41.7572 40.2811 42.0427 40.2308C42.4446 40.1602 42.7783 39.8813 43.0498 39.5766C43.8847 38.6407 44.3069 37.4021 44.5162 36.1654C44.939 33.669 44.207 30.7189 43.8518 28.2027C43.6996 27.1244 42.2763 26.8284 41.2587 26.4412C40.7405 26.2441 40.1763 26.2139 39.6228 26.1858C38.8259 26.1455 38.0294 26.1051 37.2325 26.065C36.8701 26.0468 36.4954 26.0303 36.1569 26.1607C35.8606 26.2749 35.6172 26.4926 35.3947 26.7193C32.0084 30.1666 33.4368 35.1395 36.7257 38.2179Z" fill="#F8AF7F"/>
<path d="M34.9875 30.2136C34.5671 27.9617 41.2719 28.2488 43.8521 28.203C45.2817 28.1776 45.3364 26.4885 45.204 25.8354C45.0715 25.1824 43.8085 23.5928 41.7267 23.2107C41.8622 23.7008 41.4313 24.1977 40.9439 24.3422C40.4562 24.4866 39.935 24.3843 39.4306 24.3197C36.7694 23.9777 34.501 24.3739 32.4088 26.0531C31.6407 26.6697 30.7086 28.4162 30.6521 29.3994C30.5953 30.3825 31.2002 30.9208 31.9851 31.1941C32.4947 32.3312 33.1064 32.9774 33.7164 34.0628C34.1055 34.7553 34.083 35.0355 34.6006 34.4121C35.3308 33.5312 35.0497 31.3478 34.9875 30.2136Z" fill="#673C3D"/>
<path d="M34.8217 33.4317C34.4904 32.9189 33.1113 31.3173 32.3234 33.1512C32.0546 33.777 32.9274 34.8681 33.584 35.9661C34.0571 36.757 35.0528 36.923 35.2878 36.5731C35.9815 35.5406 34.8217 33.4317 34.8217 33.4317Z" fill="#F8AF7F"/>
<path d="M41.0787 31.3875C40.9771 32.1171 41.0835 32.832 41.4681 33.4704C41.6666 33.7999 42.0514 34.0496 42.2099 34.386C42.555 35.1192 41.5868 35.0483 41.1403 35.1267C40.9511 35.1599 41.0312 35.4481 41.2199 35.4149C41.7808 35.3165 42.8893 35.5073 42.6719 34.607C42.5828 34.2386 42.2548 33.9913 42.0212 33.7222C41.4731 33.0898 41.2522 32.2917 41.367 31.467C41.3933 31.279 41.1051 31.1976 41.0787 31.3875Z" fill="#CC835E"/>
<path d="M34.4079 33.3997C34.1337 33.046 33.5889 32.5813 33.1568 32.9835C32.8076 33.3085 32.9481 33.8419 33.1075 34.2232C33.3987 34.9187 34.2055 36.4882 35.1557 35.9915C35.3265 35.9024 35.1755 35.6441 35.0047 35.7332C34.4091 36.0445 33.8625 34.9922 33.6212 34.576C33.4795 34.3314 33.3368 34.0689 33.2732 33.7911C33.2477 33.6805 33.2032 33.4804 33.26 33.3644C33.5342 32.8035 34.0362 33.4048 34.1962 33.6111C34.314 33.763 34.5242 33.5501 34.4079 33.3997Z" fill="#CC835E"/>
<path d="M37.5272 31.2997C37.9629 30.8925 38.5426 30.7217 39.1296 30.8357C39.3177 30.8721 39.3981 30.5839 39.2091 30.5474C38.5148 30.4126 37.8334 30.6045 37.3161 31.0883C37.1749 31.2199 37.3867 31.431 37.5272 31.2997Z" fill="#673C3D"/>
<path d="M42.1403 30.6996C42.5533 30.3979 43.0427 30.3285 43.523 30.5067C43.7036 30.5737 43.7816 30.2848 43.6025 30.2185C43.0577 30.0163 42.4588 30.0986 41.9896 30.4415C41.8356 30.554 41.9845 30.8135 42.1403 30.6996Z" fill="#673C3D"/>
<path d="M39.5724 32.8909C39.5724 33.2303 39.4244 33.5051 39.242 33.5051C39.0596 33.5051 38.9116 33.23 38.9116 32.8909C38.9116 32.5515 39.0596 32.2767 39.242 32.2767C39.4244 32.2767 39.5724 32.5515 39.5724 32.8909Z" fill="#673C3D"/>
<path d="M43.8932 32.3764C43.8932 32.7158 43.7452 32.9906 43.5628 32.9906C43.3804 32.9906 43.2324 32.7155 43.2324 32.3764C43.2324 32.0373 43.3804 31.7622 43.5628 31.7622C43.7452 31.7622 43.8932 32.0373 43.8932 32.3764Z" fill="#673C3D"/>
<path d="M39.5854 36.1282H42.7744C42.7744 36.1282 42.3959 38.4031 41.3894 38.3552C40.3829 38.3074 39.5854 36.1282 39.5854 36.1282Z" fill="white"/>
<path d="M43.693 27.2602C44.3003 26.4382 44.1481 25.2422 43.3551 24.5978C43.2071 24.4776 42.9942 24.6878 43.1437 24.8092C43.8416 25.3761 43.9687 26.3868 43.4349 27.1092C43.3204 27.2641 43.5797 27.4136 43.693 27.2602Z" fill="#7F4F52"/>
<path d="M42.314 27.2723C42.6675 26.7625 42.7416 26.1217 42.5084 25.5458C42.4372 25.3696 42.1478 25.4465 42.2201 25.6253C42.4268 26.136 42.3705 26.6674 42.056 27.1213C41.9459 27.2801 42.2049 27.4296 42.314 27.2723Z" fill="#7F4F52"/>
<path d="M40.8782 27.3446C41.1632 26.848 41.255 26.3002 41.1593 25.7365C41.127 25.5473 40.839 25.6274 40.871 25.8161C40.953 26.2987 40.8633 26.7702 40.6202 27.1936C40.5242 27.3608 40.7822 27.5115 40.8782 27.3446Z" fill="#7F4F52"/>
<path d="M39.5022 27.057C39.7474 26.6761 39.8587 26.2374 39.8219 25.7856C39.8063 25.5951 39.507 25.5934 39.5229 25.7856C39.5561 26.1908 39.4643 26.564 39.2442 26.906C39.1395 27.0684 39.3982 27.2185 39.5022 27.057Z" fill="#7F4F52"/>
<path d="M38.1076 27.1574C38.3091 26.7762 38.3749 26.3722 38.3169 25.9458C38.2912 25.7559 38.0029 25.837 38.0286 26.0253C38.075 26.3668 38.0098 26.7029 37.8492 27.0064C37.7595 27.1765 38.0176 27.3278 38.1076 27.1574Z" fill="#7F4F52"/>
<path d="M36.8186 27.1434C36.7214 26.7944 36.696 26.4449 36.7367 26.0851C36.7582 25.8944 36.4592 25.8959 36.4377 26.0851C36.3943 26.4703 36.4266 26.8497 36.5304 27.2229C36.5815 27.408 36.8704 27.3293 36.8186 27.1434Z" fill="#7F4F52"/>
<path d="M34.8462 26.3448C34.746 26.7257 34.7849 27.1031 34.9514 27.4592C35.0328 27.6332 35.2908 27.4816 35.2098 27.3082C35.0782 27.0268 35.0561 26.7236 35.1347 26.4243C35.1835 26.238 34.8949 26.1585 34.8462 26.3448Z" fill="#7F4F52"/>
<path d="M33.2317 27.0817C33.2634 27.6352 33.4091 28.1585 33.668 28.6486C33.758 28.8187 34.0164 28.6677 33.9264 28.4976C33.6916 28.0538 33.5598 27.5829 33.5308 27.0817C33.5197 26.8904 33.2207 26.8892 33.2317 27.0817Z" fill="#7F4F52"/>
<path d="M32.0603 27.9405C31.9442 28.4704 32.1652 29.0047 32.6245 29.2944C32.7878 29.3973 32.9379 29.1387 32.7755 29.0364C32.4331 28.8202 32.2618 28.4162 32.3485 28.02C32.3895 27.8326 32.1015 27.7524 32.0603 27.9405Z" fill="#7F4F52"/>
<path d="M31.3412 29.3742C31.3657 29.5722 31.4428 29.7417 31.5962 29.873C31.7415 29.9977 31.9541 29.7872 31.8076 29.6616C31.7182 29.585 31.6551 29.4938 31.6402 29.3742C31.6169 29.1859 31.3175 29.1835 31.3412 29.3742Z" fill="#7F4F52"/>
<path d="M44.0137 86.549C44.0538 86.9544 44.3139 87.2998 44.566 87.62C47.3758 91.1885 49.552 93.1584 52.7802 96.3531C53.0571 96.627 53.3836 96.9188 53.7726 96.8994C54.161 96.8799 54.4729 96.5343 54.5716 96.1581C54.6703 95.7819 54.5994 95.3837 54.507 95.006C54.112 93.3937 52.0883 88.9656 52.3732 88.4648C52.9432 87.4622 53.6082 86.5134 54.356 85.6355C54.4918 85.4761 54.6341 85.3123 54.6933 85.1113C54.7997 84.748 54.6042 84.3596 54.3419 84.0866C52.9225 82.608 43.793 84.3094 44.0137 86.549Z" fill="#EFD4C2"/>
<path d="M49.7438 83.3321C49.6553 83.9807 52.3509 89.1082 53.3371 88.778C59.1173 86.8422 64.7026 83.4093 70.2819 80.9537C74.8616 78.9384 74.5273 74.7486 73.4808 73.5714C72.4339 72.3945 70.6883 71.7148 69.1143 71.7791C65.5772 71.9235 63.0858 74.8452 60.4357 76.9302C57.2619 79.4276 49.8897 82.2643 49.7438 83.3321Z" fill="#B1CDC1"/>
<path d="M49.5571 74.3635C51.0115 75.1478 52.8053 75.2217 54.3991 75.5611C56.2395 75.9528 58.0584 76.4342 59.8552 76.9915C60.0394 77.0486 60.1183 76.7601 59.9347 76.7033C58.2276 76.1737 56.5008 75.7124 54.7543 75.332C53.113 74.9747 51.2044 74.9122 49.7078 74.1052C49.5389 74.014 49.3876 74.272 49.5571 74.3635Z" fill="#9AB7A9"/>
<path d="M49.8169 82.7762C52.4725 81.5452 55.1002 80.2537 57.6903 78.8899C58.892 78.2572 60.0698 77.5811 61.2683 76.9428C62.1375 76.4796 63.0585 75.9324 64.0243 75.7153C64.2121 75.6731 64.1325 75.3849 63.9448 75.4271C63.0124 75.6367 62.1549 76.1453 61.3128 76.5827C60.1257 77.199 58.9695 77.8757 57.7869 78.5012C55.117 79.9135 52.4064 81.2477 49.6662 82.5179C49.4916 82.5989 49.6435 82.8567 49.8169 82.7762Z" fill="#9AB7A9"/>
<path d="M60.6647 85.7695C63.5035 84.4156 66.2975 82.9647 69.1459 81.6311C69.3199 81.5495 69.1683 81.2918 68.9949 81.3731C66.1465 82.7064 63.3528 84.1575 60.5136 85.5114C60.3402 85.594 60.4918 85.852 60.6647 85.7695Z" fill="#9AB7A9"/>
<path d="M60.6592 76.9569C60.8592 76.256 61.529 75.9128 62.1082 75.5566C62.7003 75.1927 63.292 74.8291 63.8841 74.4652C64.0476 74.3648 63.8978 74.1058 63.7331 74.2072C62.9589 74.6829 62.1674 75.1389 61.4094 75.6398C60.9337 75.9543 60.5312 76.3146 60.3706 76.8774C60.318 77.0628 60.6066 77.142 60.6592 76.9569Z" fill="#9AB7A9"/>
<path d="M60.643 76.1038C60.9113 75.7402 61.1795 75.3763 61.4474 75.0127C61.5616 74.8578 61.3024 74.7083 61.1893 74.8617C60.9211 75.2253 60.6529 75.5892 60.385 75.9528C60.2705 76.108 60.53 76.2572 60.643 76.1038Z" fill="#9AB7A9"/>
<path d="M50.9041 83.5543C51.2841 85.1573 52.1127 86.5681 53.3279 87.6801C53.4696 87.8099 53.6816 87.5991 53.5393 87.4687C52.3591 86.3887 51.5613 85.0315 51.1923 83.4748C51.1481 83.2876 50.8595 83.3668 50.9041 83.5543Z" fill="#9AB7A9"/>
<path d="M112.532 84.6914H100.571V117.052H112.532V84.6914Z" fill="#A5C4B6"/>
<path d="M109.442 89.2H103.661V91.5538H109.442V89.2Z" fill="#8CAF9F"/>
<path d="M109.442 94.7769H103.661V97.1307H109.442V94.7769Z" fill="#8CAF9F"/>
<path d="M109.442 100.354H103.661V102.708H109.442V100.354Z" fill="#8CAF9F"/>
<path d="M106.552 112.376C107.74 112.376 108.704 111.412 108.704 110.224C108.704 109.035 107.74 108.072 106.552 108.072C105.363 108.072 104.4 109.035 104.4 110.224C104.4 111.412 105.363 112.376 106.552 112.376Z" fill="#8CAF9F"/>
<path d="M106.551 111.047C107.006 111.047 107.375 110.679 107.375 110.224C107.375 109.769 107.006 109.4 106.551 109.4C106.096 109.4 105.728 109.769 105.728 110.224C105.728 110.679 106.096 111.047 106.551 111.047Z" fill="white"/>
<path d="M104.857 86.4355C106.851 86.4355 108.844 86.4355 110.837 86.4355C111.03 86.4355 111.03 86.1365 110.837 86.1365C108.844 86.1365 106.851 86.1365 104.857 86.1365C104.665 86.1365 104.665 86.4355 104.857 86.4355Z" fill="#8CAF9F"/>
<path d="M101.917 87.781C101.917 96.9841 101.917 106.187 101.917 115.39C101.917 115.582 102.216 115.583 102.216 115.39C102.216 106.187 102.216 96.9838 102.216 87.781C102.216 87.5888 101.917 87.5885 101.917 87.781Z" fill="#8CAF9F"/>
<path d="M103.163 115.739C105.389 115.739 107.615 115.739 109.841 115.739C110.033 115.739 110.034 115.44 109.841 115.44C107.615 115.44 105.389 115.44 103.163 115.44C102.971 115.44 102.97 115.739 103.163 115.739Z" fill="#8CAF9F"/>
<path d="M111.286 111.35C111.286 103.427 111.286 95.5046 111.286 87.5819C111.286 87.3897 110.987 87.3891 110.987 87.5819C110.987 95.5046 110.987 103.427 110.987 111.35C110.987 111.542 111.286 111.542 111.286 111.35Z" fill="#8CAF9F"/>
<path d="M173.808 124.198C199.846 124.198 220.953 121.099 220.953 117.277C220.953 113.455 199.846 110.356 173.808 110.356C147.771 110.356 126.664 113.455 126.664 117.277C126.664 121.099 147.771 124.198 173.808 124.198Z" fill="#FFF5EE"/>
<path d="M133.669 32.7285C126.581 39.8636 122.38 51.7847 123.156 61.8115C125.097 86.8862 139.007 79.2192 141.141 78.5189C148.364 76.1489 156.217 78.2782 163.465 80.5705C170.713 82.8627 178.364 85.346 185.772 83.6375C191.037 82.4232 195.593 79.1986 199.818 75.8293C203.945 72.5377 207.937 69.0034 211.083 64.7646C218.485 54.7922 220.564 41.4403 218.05 29.2785C217.053 24.4575 215.292 19.6287 211.89 16.0698C208.527 12.5513 203.725 10.5422 198.866 10.2597C194.008 9.9771 189.119 11.3561 184.926 13.826C181.304 15.9589 178.073 19.0489 173.962 19.9229C162.075 22.4499 148.433 17.8648 133.669 32.7285Z" fill="#FFF5EE"/>
<path d="M161.06 54.9753H157.412V64.9531H161.06V54.9753Z" fill="#E8CAB5"/>
<path d="M162.423 64.0129H142.588V65.6219H162.423V64.0129Z" fill="#E8CAB5"/>
<path d="M177.701 56.0991L138.888 56.3981L137.123 34.115H175.936L177.701 56.0991Z" fill="#E8CAB5"/>
<path d="M176.421 54.9754H139.947L138.403 35.239H174.901L176.421 54.9754Z" fill="#A5C4B6"/>
<mask id="mask1_189_3409" style="mask-type:luminance" maskUnits="userSpaceOnUse" x="138" y="35" width="39" height="20">
<path d="M176.421 54.9754H139.947L138.403 35.239H174.901L176.421 54.9754Z" fill="white"/>
</mask>
<g mask="url(#mask1_189_3409)">
<path d="M148.547 41.9666C148.741 43.1572 150.094 43.4883 149.331 44.6948C148.976 45.2557 148.717 45.962 148.911 46.5965C149.058 47.0767 149.499 47.4158 149.681 47.8838C149.97 48.6262 149.58 49.5938 150.106 50.1922C150.422 50.5522 150.949 50.6185 151.426 50.661C153.445 50.841 155.463 51.021 157.482 51.2007C158.189 51.2638 158.92 51.3242 159.592 51.0958C160.264 50.8673 160.865 50.2681 160.86 49.5582C160.851 48.2695 159.006 47.5049 159.124 46.2215C159.2 45.3981 160.102 44.6706 159.796 43.9024C159.618 43.4545 159.088 43.2371 158.869 42.808C158.578 42.2393 158.929 41.568 158.979 40.9311C159.068 39.802 158.424 38.5518 157.295 38.6379C157.15 36.915 154.933 36.5655 154.134 36.9294C154.134 36.9294 151.206 35.9636 150.242 38.7196C150.044 39.2868 148.217 39.9476 148.547 41.9666Z" fill="#3E4260"/>
<path d="M151.24 48.3271C150.652 48.5092 149.536 48.9009 148.693 49.414C148.314 49.6439 149.772 56.8251 150.317 57.3391C153.106 59.9656 159.856 59.2719 160.86 56.9043C160.901 56.8068 162.276 52.8374 161.781 51.0571C161.695 50.7479 161.606 48.5274 161.354 48.3283C161.168 48.1809 158.58 47.7491 157.954 47.657C157.954 47.657 155.797 48.8949 154.927 48.9448C153.824 49.0073 151.24 48.3271 151.24 48.3271Z" fill="white"/>
<path d="M152.364 47.8723C152.034 47.988 151.24 48.3271 151.24 48.3271C151.286 48.5083 154.779 51.4921 155.603 51.0086C156.439 50.5174 158.174 47.8723 157.953 47.657C157.953 47.657 157.082 47.7628 156.617 47.3627C156.393 47.1693 156.321 44.5721 156.184 44.4617C156.052 44.3547 153.25 43.9854 152.423 44.195C152.706 46.0489 152.655 47.9913 152.364 47.8723Z" fill="#F9BFA2"/>
<path d="M151.468 43.8216C152.078 44.6956 152.365 45.1438 153.437 45.8893C154.312 46.4977 155.903 46.7322 156.593 45.9204C156.895 45.5648 157.244 44.7087 157.366 44.2584C157.762 42.7876 157.583 41.1493 156.934 39.9015C156.231 38.55 154.5 37.9175 152.979 38.0123C152.387 38.0491 151.763 38.2339 151.394 38.6983C150.323 40.0468 150.584 42.5538 151.468 43.8216Z" fill="#FFD0B6"/>
<path d="M165.61 46.4423C165.195 46.4088 164.883 45.7612 164.531 45.5393C163.946 45.1694 163.625 44.5795 162.953 43.9031C163.149 43.5619 163.681 43.605 163.965 44.0107C164.531 44.8229 164.856 44.4614 164.856 44.4614C164.995 43.6702 164.453 42.7076 163.334 40.7913C163.624 40.4728 164.282 41.6692 164.531 42.0202C165.119 42.8467 164.869 42.9256 165.364 43.4881C165.315 42.3988 164.77 41.0215 164.856 39.9343C165.122 39.7384 165.908 41.4927 165.956 43.5494C166.278 43.3374 166.393 40.2877 166.766 40.3894C167.138 40.491 166.613 42.5755 167.038 43.4881C167.491 42.5034 167.519 41.5334 167.856 41.7355C167.856 41.7355 167.709 43.7883 167.727 44.0116C167.767 44.4951 167.594 45.8308 167.587 46.0829C167.545 47.6393 171.356 54.539 168.718 56.4467C167.79 57.118 160.837 54.1279 160.501 52.9414C159.98 51.1052 160.292 47.8369 161.354 48.3279C162.669 48.9361 166.369 53.2084 166.814 53.0861C166.872 52.5353 165.61 46.4423 165.61 46.4423Z" fill="#FFD0B6"/>
<path d="M154.355 39.8349C154.862 40.2505 155.56 40.8121 156.57 40.4464C157.079 40.2619 157.539 42.5473 157.973 42.2231C159.193 41.3117 157.576 39.1274 156.975 38.9477C156.598 38.835 155.099 37.3815 152.775 37.8091C149.691 38.3763 148.941 41.6849 149.97 42.1929C150.413 42.4115 150.721 43.4805 151.072 43.0696C151.826 42.1858 152.078 40.851 152.1 40.4548C152.763 40.8934 154.417 41.0884 154.355 39.8349Z" fill="#3E4260"/>
<path d="M144.682 55.406C144.681 56.8742 147.353 56.2722 147.552 56.0925C147.677 55.9789 149.607 54.1175 149.659 53.9564C150.018 52.8452 150.439 48.9452 148.693 49.414C146.711 49.9454 144.682 54.0721 144.682 55.406Z" fill="#FFD0B6"/>
<path d="M150.952 42.3882C150.785 42.2757 150.395 41.8754 150.323 42.6561C150.271 43.2227 150.609 43.7376 150.962 44.1838C151.054 44.3007 151.159 44.4257 151.305 44.4553C151.448 44.4843 151.598 44.4092 151.687 44.2947C151.777 44.1802 151.814 44.0325 151.825 43.8874C151.851 43.5522 151.119 42.5006 150.952 42.3882Z" fill="#FFD0B6"/>
<path d="M154.593 42.1761C154.56 42.4138 154.583 42.6201 154.685 42.842C154.752 42.9861 154.841 43.1156 154.938 43.2409C154.999 43.321 155.399 43.7337 155.129 43.8329C154.949 43.8987 155.027 44.1879 155.208 44.1212C155.457 44.03 155.573 43.8003 155.494 43.5414C155.35 43.0654 154.802 42.8267 154.882 42.2553C154.908 42.0676 154.62 41.9859 154.593 42.1761Z" fill="#EFAE92"/>
<path d="M154.019 44.6304C154.43 44.8747 154.884 44.9561 155.356 44.887C155.545 44.8592 155.465 44.5709 155.276 44.5988C154.886 44.6559 154.507 44.5724 154.17 44.3724C154.004 44.2737 153.854 44.5324 154.019 44.6304Z" fill="#EFAE92"/>
<path d="M153.113 42.7667C153.233 42.5739 153.462 42.4919 153.678 42.5553C153.863 42.6095 153.942 42.3209 153.757 42.2671C153.411 42.166 153.044 42.3116 152.855 42.616C152.753 42.7796 153.012 42.93 153.113 42.7667Z" fill="#CC835E"/>
<path d="M155.665 42.2281C155.836 42.0956 156.071 42.0878 156.257 42.1895C156.426 42.2819 156.577 42.0238 156.408 41.9314C156.093 41.7592 155.734 41.799 155.454 42.0167C155.302 42.1345 155.515 42.3447 155.665 42.2281Z" fill="#CC835E"/>
<path d="M152.56 41.7808C152.755 41.579 153.003 41.4626 153.284 41.4495C153.475 41.4405 153.477 41.1415 153.284 41.1505C152.926 41.1669 152.598 41.3107 152.349 41.5691C152.215 41.7078 152.426 41.9195 152.56 41.7808Z" fill="#3E4260"/>
<path d="M155.497 41.2431C155.742 41.1495 155.986 41.1788 156.202 41.3304C156.36 41.4411 156.51 41.1821 156.353 41.0721C156.08 40.8804 155.729 40.8359 155.417 40.9546C155.239 41.0227 155.316 41.3119 155.497 41.2431Z" fill="#3E4260"/>
</g>
<path d="M141.742 38.9453C143.602 38.9453 145.463 38.9453 147.323 38.9453C147.516 38.9453 147.516 38.6462 147.323 38.6462C145.463 38.6462 143.602 38.6462 141.742 38.6462C141.549 38.6462 141.549 38.9453 141.742 38.9453Z" fill="#BAD8CA"/>
<path d="M142.24 42.6334C143.502 42.6334 144.765 42.6334 146.027 42.6334C146.22 42.6334 146.22 42.3344 146.027 42.3344C144.765 42.3344 143.502 42.3344 142.24 42.3344C142.047 42.3344 142.047 42.6334 142.24 42.6334Z" fill="#BAD8CA"/>
<path d="M142.739 45.7231C143.37 45.7231 144.001 45.7231 144.632 45.7231C144.824 45.7231 144.825 45.4241 144.632 45.4241C144.001 45.4241 143.37 45.4241 142.739 45.4241C142.546 45.4241 142.546 45.7231 142.739 45.7231Z" fill="#BAD8CA"/>
<path d="M162.075 37.6497C165.264 37.6497 168.453 37.6497 171.643 37.6497C171.835 37.6497 171.836 37.3507 171.643 37.3507C168.453 37.3507 165.264 37.3507 162.075 37.3507C161.882 37.3507 161.882 37.6497 162.075 37.6497Z" fill="#BAD8CA"/>
<path d="M169.251 40.5402C170.281 40.5402 171.311 40.5402 172.341 40.5402C172.533 40.5402 172.533 40.2412 172.341 40.2412C171.311 40.2412 170.281 40.2412 169.251 40.2412C169.059 40.2412 169.058 40.5402 169.251 40.5402Z" fill="#BAD8CA"/>
<path d="M169.75 43.929C170.48 43.929 171.211 43.929 171.942 43.929C172.134 43.929 172.135 43.63 171.942 43.63C171.211 43.63 170.48 43.63 169.75 43.63C169.557 43.63 169.557 43.929 169.75 43.929Z" fill="#BAD8CA"/>
<path d="M170.746 47.1186C171.178 47.1186 171.61 47.1186 172.042 47.1186C172.234 47.1186 172.235 46.8196 172.042 46.8196C171.61 46.8196 171.178 46.8196 170.746 46.8196C170.554 46.8196 170.554 47.1186 170.746 47.1186Z" fill="#BAD8CA"/>
<path d="M171.245 50.5073C171.61 50.5073 171.975 50.5073 172.341 50.5073C172.533 50.5073 172.534 50.2083 172.341 50.2083C171.976 50.2083 171.61 50.2083 171.245 50.2083C171.052 50.2083 171.052 50.5073 171.245 50.5073Z" fill="#BAD8CA"/>
<path d="M142.639 49.2116C143.469 49.2116 144.3 49.2116 145.13 49.2116C145.323 49.2116 145.323 48.9126 145.13 48.9126C144.3 48.9126 143.469 48.9126 142.639 48.9126C142.446 48.9126 142.446 49.2116 142.639 49.2116Z" fill="#BAD8CA"/>
<path d="M132.299 67.8482C132.299 83.7618 132.299 99.6753 132.299 115.589C132.299 116.743 134.093 116.745 134.093 115.589C134.093 99.6753 134.093 83.7618 134.093 67.8482C134.093 66.6937 132.299 66.6919 132.299 67.8482Z" fill="#8CAF9F"/>
<path d="M207.046 67.8482C207.046 83.7618 207.046 99.6753 207.046 115.589C207.046 116.743 208.84 116.745 208.84 115.589C208.84 99.6753 208.84 83.7618 208.84 67.8482C208.84 66.6937 207.046 66.6919 207.046 67.8482Z" fill="#8CAF9F"/>
<path d="M210.664 65.6218H130.279V68.4197H210.664V65.6218Z" fill="#3E4260"/>
<path d="M143.337 58.3811H138.054V65.6217H143.337V58.3811Z" fill="#B1CDC1"/>
<path d="M138.533 59.9833C137.954 59.8562 136.926 59.5132 136.462 60.0604C136.073 60.5197 135.976 61.5202 136.007 62.1054C136.041 62.7539 136.421 63.6877 136.906 64.1357C137.467 64.6542 138.247 64.5387 138.929 64.4009C139.305 64.3246 139.146 63.7478 138.77 63.8241C138.143 63.9512 137.517 64.0214 137.117 63.427C136.862 63.0464 136.648 62.538 136.619 62.0862C136.595 61.7334 136.631 61.1706 136.79 60.8396C137.104 60.1869 137.788 60.4312 138.374 60.5598C138.748 60.6423 138.909 60.0658 138.533 59.9833Z" fill="#B1CDC1"/>
<path d="M178.253 63.0123C177.986 62.9121 176.706 62.8948 176.421 62.8789C175.905 62.8502 175.955 62.9016 175.558 63.2326C175.1 63.6148 174.675 64.0376 174.291 64.4942C174.107 64.7131 173.675 65.3939 173.848 65.6218C173.961 65.771 174.38 65.6792 174.558 65.6218C174.737 65.5644 174.935 65.1909 175.096 65.0946C176.258 64.3967 176.77 63.9275 177.701 64.3967C177.748 64.4203 178.322 64.7648 178.325 64.8171C178.328 64.8638 177.741 64.8958 177.589 64.9245C176.972 65.0402 176.577 64.7663 176.24 64.9532C176.15 65.0031 175.91 65.2845 176.421 65.6218C177.016 66.015 179.073 66.1983 179.741 65.9471C180.408 65.6959 181.039 65.323 181.744 65.2127C181.826 65.1999 181.917 65.1858 181.966 65.1194C182.004 65.0674 182.005 64.9977 182.005 64.9331C182 64.4125 181.994 63.8917 181.989 63.3711C180.675 63.4372 179.491 63.4757 178.253 63.0123Z" fill="#E8996D"/>
<path d="M203.339 64.0127C203.34 67.8482 185.675 66.8345 183.454 64.9531C182.722 64.3342 183.636 62.503 184.122 62.6134C186.892 63.2413 196.368 62.2468 196.312 62.0016C195.496 58.431 193.841 54.9529 192.804 52.1132C192.205 50.4737 190.684 45.7253 195.35 46.0961C198.08 46.3129 198.179 50.8788 199.071 53.0168C200.464 56.3556 203.337 60.3947 203.339 64.0127Z" fill="#E8996D"/>
<path d="M191.513 30.8111C191.084 30.2642 190.556 29.7813 189.924 29.4922C189.346 29.2278 188.701 29.1716 188.077 29.0517C185.348 28.5276 180.762 30.0214 180.762 32.6662C180.762 32.8973 180.696 33.2325 180.712 33.8623C180.729 34.4923 181.126 35.3517 181.121 36.3088C180.848 37.0847 180.727 38.076 180.524 38.4258C180.406 38.6291 180.261 38.8992 180.421 39.0717C180.486 39.1423 180.585 39.1686 180.679 39.1904C180.968 39.2574 181.26 39.3124 181.553 39.3561C181.753 40.3814 182.022 41.358 182.387 42.1548C182.937 43.3554 184.264 43.1218 185.543 42.7944C188.275 42.0947 190.681 40.9884 192.003 38.4973C193.326 36.0056 193.255 33.0298 191.513 30.8111Z" fill="#F8AF7F"/>
<path d="M183.453 46.5045C186.017 47.7718 189.057 48.0445 191.806 47.2542C192.04 47.1869 192.286 47.1032 192.439 46.9133C192.653 46.6481 192.618 46.2671 192.569 45.9301C192.26 43.7985 191.832 41.6838 191.289 39.5997C191.252 39.4586 191.21 39.3094 191.103 39.2107C190.851 38.9793 190.455 39.1608 190.152 39.3195C188.786 40.0369 187.239 40.0129 185.804 39.551C185.697 40.2028 185.665 47.5977 183.453 46.5045Z" fill="#F8AF7F"/>
<path d="M180.052 33.4489C179.421 33.4016 182.564 33.6716 184.451 33.0649C185.509 32.7244 188.207 42.3048 185.647 44.1724C185.647 44.1724 188.017 45.0022 192.276 44.1159C194.966 43.5559 195.713 43.0583 196.715 42.3093C195.807 40.6967 194.961 37.8656 194.707 34.4404C194.268 28.5301 190.129 27.3669 188.496 27.1346C184.838 26.614 179.265 28.5639 180.052 33.4489Z" fill="#3D4F77"/>
<path d="M187.241 34.2101C186.45 33.9936 185.75 34.7035 185.362 35.6134C185.362 35.6134 185.214 37.7053 185.884 38.3957C186.555 39.0861 187.201 38.7668 187.73 37.8482C188.362 36.7526 188.086 34.4409 187.241 34.2101Z" fill="#F8AF7F"/>
<path d="M182.154 35.9656C182.154 36.305 182.006 36.2808 181.824 36.2808C181.641 36.2808 181.493 36.3047 181.493 35.9656C181.493 35.6265 181.641 35.3514 181.824 35.3514C182.006 35.3514 182.154 35.6265 182.154 35.9656Z" fill="#673C3D"/>
<path d="M182.119 40.3345C182.596 40.4068 183.081 40.1685 183.273 39.7143C183.347 39.5391 183.09 39.3866 183.015 39.5633C182.88 39.8833 182.552 40.0998 182.198 40.0459C182.01 40.0178 181.929 40.3058 182.119 40.3345Z" fill="#CC835E"/>
<path d="M186.426 35.4853C186.61 35.2279 186.904 34.9196 187.138 35.2348C187.316 35.4752 187.352 35.9539 187.338 36.2353C187.306 36.8743 186.974 37.4014 186.52 37.8302C186.379 37.9627 186.591 38.1738 186.731 38.0416C187.504 37.3123 187.864 36.2924 187.474 35.2671C187.185 34.5079 186.566 34.7776 186.168 35.3343C186.056 35.4913 186.315 35.6408 186.426 35.4853Z" fill="#CC835E"/>
<path d="M181.179 34.4783C181.564 34.2188 182.031 34.2002 182.433 34.4383C182.599 34.5366 182.749 34.2783 182.584 34.1802C182.098 33.8914 181.498 33.9033 181.028 34.2203C180.869 34.327 181.019 34.5863 181.179 34.4783Z" fill="#2B2D77"/>
<path d="M181.229 32.4188C181.333 31.5516 181.745 30.7895 182.397 30.2118C182.542 30.0841 182.33 29.873 182.186 30.0004C181.471 30.6334 181.044 31.473 180.93 32.4188C180.907 32.6096 181.207 32.6078 181.229 32.4188Z" fill="#4C648E"/>
<path d="M182.544 32.3045C182.853 31.3757 183.344 30.5499 184.01 29.8325C184.141 29.6917 183.93 29.4797 183.798 29.6211C183.098 30.3752 182.581 31.2487 182.255 32.225C182.194 32.4079 182.483 32.4866 182.544 32.3045Z" fill="#4C648E"/>
<path d="M184.324 32.0028C184.484 31.3733 184.759 30.7962 185.159 30.2831C185.275 30.133 185.065 29.9198 184.947 30.0717C184.516 30.6264 184.209 31.2418 184.036 31.9235C183.988 32.1098 184.276 32.1894 184.324 32.0028Z" fill="#4C648E"/>
<path d="M186.652 30.3848C186.437 31.0327 186.222 31.681 186.006 32.3289C185.946 32.5119 186.234 32.5906 186.295 32.4085C186.51 31.7605 186.725 31.1123 186.94 30.4643C187.001 30.2813 186.713 30.2027 186.652 30.3848Z" fill="#4C648E"/>
<path d="M187.8 30.5119C187.926 31.1482 187.939 31.7851 187.836 32.4255C187.807 32.6139 188.094 32.695 188.125 32.5051C188.236 31.8096 188.225 31.1233 188.088 30.4326C188.051 30.2439 187.763 30.3238 187.8 30.5119Z" fill="#4C648E"/>
<path d="M189.092 30.662C189.314 31.2795 189.444 31.9107 189.478 32.5665C189.488 32.7578 189.787 32.759 189.777 32.5665C189.742 31.8844 189.612 31.2254 189.38 30.5825C189.315 30.4031 189.026 30.4805 189.092 30.662Z" fill="#4C648E"/>
<path d="M190.219 30.3381C190.572 30.8805 190.792 31.4753 190.864 32.1193C190.886 32.3083 191.185 32.3107 191.163 32.1193C191.085 31.422 190.86 30.7759 190.477 30.1871C190.373 30.0265 190.114 30.1761 190.219 30.3381Z" fill="#4C648E"/>
<path d="M191.476 29.9273C191.913 30.467 192.265 31.0591 192.539 31.6969C192.615 31.8733 192.873 31.7211 192.798 31.5459C192.513 30.8832 192.141 30.2759 191.687 29.7159C191.566 29.5664 191.356 29.779 191.476 29.9273Z" fill="#4C648E"/>
<path d="M188.928 35.8062C189.013 36.9521 188.85 38.0157 188.488 39.1035C188.427 39.2865 188.716 39.3648 188.777 39.183C189.147 38.0683 189.314 36.9802 189.227 35.8062C189.213 35.6158 188.914 35.614 188.928 35.8062Z" fill="#4C648E"/>
<path d="M190.433 36.354C190.411 37.0543 190.427 37.7486 190.475 38.4474C190.488 38.6385 190.787 38.6397 190.774 38.4474C190.726 37.7486 190.71 37.0543 190.732 36.354C190.739 36.1615 190.44 36.1618 190.433 36.354Z" fill="#4C648E"/>
<path d="M191.834 36.1046C191.853 36.7884 191.933 37.4615 192.029 38.1382C192.056 38.328 192.344 38.2473 192.317 38.0586C192.225 37.4077 192.151 36.7621 192.133 36.1043C192.128 35.9126 191.829 35.9117 191.834 36.1046Z" fill="#4C648E"/>
<path d="M193.222 36.3041C193.284 36.8406 193.384 37.3677 193.526 37.8889C193.577 38.0743 193.865 37.9957 193.815 37.8094C193.68 37.3145 193.58 36.8137 193.521 36.3041C193.499 36.1152 193.199 36.1131 193.222 36.3041Z" fill="#4C648E"/>
<path d="M187.607 41.1887C187.563 41.9255 187.422 42.6384 187.187 43.3375C187.125 43.5202 187.414 43.5988 187.475 43.417C187.719 42.6922 187.86 41.9518 187.906 41.189C187.917 40.9965 187.618 40.9971 187.607 41.1887Z" fill="#4C648E"/>
<path d="M189.131 41.6944C189.016 42.2595 188.901 42.8244 188.786 43.3895C188.747 43.5773 189.036 43.6577 189.074 43.469C189.189 42.9039 189.305 42.3391 189.42 41.7739C189.458 41.5861 189.17 41.5057 189.131 41.6944Z" fill="#4C648E"/>
<path d="M190.639 41.7859C190.636 42.2676 190.634 42.7493 190.631 43.2311C190.63 43.4236 190.929 43.4236 190.93 43.2311C190.933 42.7493 190.935 42.2676 190.938 41.7859C190.939 41.5936 190.64 41.5933 190.639 41.7859Z" fill="#4C648E"/>
<path d="M192.075 41.5367C192.109 41.9123 192.189 42.2732 192.326 42.6249C192.395 42.8022 192.684 42.725 192.614 42.5453C192.487 42.2197 192.405 41.8851 192.374 41.5367C192.358 41.3466 192.059 41.3448 192.075 41.5367Z" fill="#4C648E"/>
<path d="M193.138 41.6241C193.221 42.0206 193.355 42.3986 193.535 42.7616C193.621 42.9341 193.878 42.7828 193.793 42.6106C193.624 42.2703 193.504 41.916 193.426 41.5446C193.387 41.3565 193.099 41.4363 193.138 41.6241Z" fill="#4C648E"/>
<path d="M194.137 41.3647C194.288 41.6129 194.439 41.8614 194.59 42.1095C194.69 42.2737 194.948 42.1236 194.848 41.9585C194.697 41.7104 194.546 41.4619 194.395 41.2137C194.295 41.0495 194.037 41.1996 194.137 41.3647Z" fill="#4C648E"/>
<path d="M157.24 87.4354C152.803 94.054 151.167 99.6235 146.874 106.695C145.973 108.18 144.596 110.664 143.189 111.683C142.016 112.533 139.255 114.208 138.335 114.419C137.566 114.594 135.611 114.845 136.259 115.941C136.758 116.482 137.373 115.934 139.25 116.39C141.143 116.849 142.9 116.114 144.433 115.991C145.966 115.868 148.275 116.491 148.918 115.094C149.094 114.712 149.002 112.592 148.935 112.326C148.844 111.965 149.002 111.592 149.174 111.261C151.739 106.335 158.554 101.946 160.679 96.8154C160.989 96.0679 161.605 94.0932 162.081 93.439C162.535 92.8158 163.587 91.8431 164.229 91.4167C168.404 88.6443 170.928 86.7692 175.469 84.6473C174.586 82.6472 173.619 80.6839 172.573 78.7642C172.198 78.0768 166.399 82.7106 165.877 83.1454C163.74 84.9269 158.163 85.1267 157.24 87.4354Z" fill="#E8996D"/>
<path d="M155.178 87.0865C154.832 88.4228 155.52 89.7468 156.045 91.0236C157.032 93.4268 158.686 96.8143 159.982 99.0662C161.879 102.364 163.417 105.218 165.314 108.516C164.659 110.476 164.507 111.704 163.852 113.664C163.668 114.213 163.451 114.806 162.959 115.11C162.236 115.557 161.022 115.337 160.731 116.136C160.929 116.793 162.364 116.742 163.67 116.689C163.946 116.678 165.301 116.478 165.564 116.39C166.311 116.141 166.632 115.525 166.76 115.293C167.46 114.026 166.85 113.662 167.743 112.521C168.602 111.424 168.838 112.121 170.11 111.098C171.196 110.225 171.667 109.363 171.095 108.217C170.582 107.188 169.92 106.914 169.002 106.223C167.888 105.384 166.738 102.07 166.411 100.392C165.791 97.215 165.763 93.4388 163.022 90.3523C165.633 89.4281 169.056 87.8624 171.668 86.9382C170.835 84.9614 170.003 82.9849 169.17 81.0081C168.882 80.3249 162.07 82.1423 161.224 82.5759C159.262 83.5815 155.793 84.7129 155.178 87.0865Z" fill="#F8AF7F"/>
<path d="M164.839 90.2187C165.127 90.7447 178.207 89.6993 184.738 87.4947C187.673 86.5038 190.688 85.2297 192.59 82.7846C194.571 80.237 196.373 77.8727 195.033 74.9364C194.886 74.6135 182.328 73.1994 179.97 74.2792C176.182 76.0132 166.249 80.2316 162.646 81.6295C161.027 82.2572 163.248 87.0366 164.839 90.2187Z" fill="#FFE9D9"/>
<path d="M164.084 82.8385C164.451 84.8018 165.222 86.6315 166.372 88.2644C166.482 88.4205 166.741 88.2713 166.63 88.1134C165.494 86.5005 164.734 84.6978 164.372 82.7587C164.337 82.5703 164.049 82.6501 164.084 82.8385Z" fill="#EFD4C2"/>
<path d="M167.708 83.9879C168.161 85.2453 168.748 86.4363 169.473 87.5594C169.577 87.7205 169.836 87.5707 169.731 87.4084C169.019 86.3059 168.442 85.1436 167.996 83.9084C167.932 83.7287 167.643 83.8061 167.708 83.9879Z" fill="#EFD4C2"/>
<path d="M171.661 85.9178C171.931 86.308 172.238 86.6671 172.584 86.9918C172.725 87.1234 172.937 86.9123 172.796 86.7804C172.468 86.473 172.175 86.136 171.919 85.7668C171.81 85.6098 171.551 85.7593 171.661 85.9178Z" fill="#EFD4C2"/>
<path d="M174.575 85.8488C174.84 86.1481 175.106 86.4477 175.371 86.747C175.499 86.8915 175.71 86.6792 175.582 86.5356C175.317 86.2363 175.052 85.9367 174.786 85.6374C174.659 85.493 174.448 85.705 174.575 85.8488Z" fill="#EFD4C2"/>
<path d="M177.149 85.8702C177.232 85.9201 177.315 85.9698 177.398 86.0197C177.564 86.119 177.714 85.8606 177.549 85.7617C177.466 85.7117 177.383 85.6621 177.3 85.6122C177.135 85.5129 176.984 85.7712 177.149 85.8702Z" fill="#EFD4C2"/>
<path d="M179.461 84.8998C179.627 85.0325 179.793 85.1656 179.959 85.2984C180.108 85.4174 180.321 85.2072 180.171 85.087C180.005 84.9542 179.839 84.8211 179.672 84.6884C179.524 84.5694 179.311 84.7796 179.461 84.8998Z" fill="#EFD4C2"/>
<path d="M179.656 46.438C178.282 47.4538 178.802 54.4504 178.802 56.159C178.802 57.0163 176.421 62.879 180.351 62.8722C180.351 62.8722 181.493 66.6523 180.913 70.0928C180.548 72.2549 181.193 71.052 179.97 74.279C185.27 78.4547 188.493 80.4452 195.496 78.1661C197.248 67.2811 198.704 55.491 195.35 46.0963C193.82 45.4947 189.733 45.4947 186.001 45.5255C183.717 45.5443 180.351 45.9243 179.656 46.438Z" fill="#B1CDC1"/>
<path d="M187.359 47.5007C189.23 49.4338 191.52 50.867 194.075 51.7096C194.258 51.77 194.337 51.4815 194.155 51.4214C191.646 50.594 189.407 49.1868 187.57 47.2893C187.436 47.1505 187.225 47.3623 187.359 47.5007Z" fill="#90B2A3"/>
<path d="M187.518 52.8219C189.179 54.5236 191.188 55.792 193.436 56.5668C193.619 56.6296 193.697 56.3407 193.516 56.2785C191.316 55.5205 189.355 54.2748 187.729 52.6105C187.595 52.4724 187.383 52.6841 187.518 52.8219Z" fill="#90B2A3"/>
<path d="M189.16 57.9124C189.553 58.1845 189.968 58.4168 190.405 58.6106C190.58 58.6877 190.732 58.4303 190.556 58.3525C190.119 58.1588 189.704 57.9261 189.311 57.6543C189.152 57.5443 189.002 57.8036 189.16 57.9124Z" fill="#90B2A3"/>
<path d="M182.499 66.9523C183.279 66.7364 184.06 66.5206 184.841 66.3044C185.026 66.2532 184.947 65.9647 184.761 66.0161C183.98 66.232 183.2 66.4479 182.419 66.6641C182.234 66.7152 182.313 67.0038 182.499 66.9523Z" fill="#90B2A3"/>
<path d="M182.318 68.4923C183.083 68.6212 183.848 68.7498 184.613 68.8787C184.801 68.9104 184.882 68.6224 184.692 68.5904C183.928 68.4616 183.163 68.333 182.398 68.2041C182.209 68.1724 182.128 68.4604 182.318 68.4923Z" fill="#90B2A3"/>
<path d="M182.03 70.0284C182.612 70.3588 183.194 70.6895 183.777 71.0199C183.944 71.115 184.095 70.8566 183.928 70.7618C183.345 70.4314 182.763 70.1007 182.181 69.7703C182.013 69.6749 181.862 69.9333 182.03 70.0284Z" fill="#90B2A3"/>
<path d="M181.797 71.9982C182.228 72.3287 182.642 72.68 183.04 73.0493C183.18 73.1803 183.392 72.9692 183.251 72.8379C182.834 72.451 182.399 72.0859 181.948 71.7399C181.795 71.6233 181.646 71.8828 181.797 71.9982Z" fill="#90B2A3"/>
<path d="M172.352 56.5238C171.377 57.7342 169.494 60.9435 168.838 60.9874C165.272 61.2275 158.086 62.4439 155.112 62.0567C153.642 61.8653 152.673 64.1728 153.674 65.2663C158.007 65.2885 162.177 66.2202 166.51 66.2423C167.798 66.2489 170.706 66.1098 171.949 65.7711C174.671 65.0295 176.686 61.1997 178.47 59.0139C181.243 55.6171 182.859 52.8596 182.319 48.5081C182.213 47.6493 181.141 46.3923 180.277 46.3522C177.224 46.2114 173.798 54.7291 172.352 56.5238Z" fill="#F8AF7F"/>
<path d="M150.922 59.2654C150.08 59.4798 147.935 60.3691 147.728 60.5646C147.507 60.773 146.701 63.4612 146.649 64.552C147.423 65.1593 147.668 64.0661 147.948 63.5428C148.228 63.0195 148.76 62.4266 149.301 62.6715C150.399 63.8337 150.696 65.1013 151.654 65.4822C152.611 65.8632 152.728 65.3575 153.75 65.2269C154.453 65.1369 155.94 62.2316 155.113 62.0567C154.301 61.8851 153.675 61.6704 153.675 61.6704C152.854 61.2329 151.908 59.0139 150.922 59.2654Z" fill="#F8AF7F"/>
<path d="M182.319 48.5081C182.319 48.5081 183.757 55.3755 182.319 59.3324C180.882 63.2892 180.053 62.0017 179.193 58.4311C178.505 55.5726 175.962 45.6402 182.319 48.5081Z" fill="#F8AF7F"/>
<path d="M179.573 57.8391C180.247 57.1676 180.942 56.5175 181.616 55.8456C181.752 55.7096 181.541 55.4982 181.405 55.6342C180.731 56.3058 180.035 56.9562 179.361 57.6277C179.225 57.7638 179.436 57.9752 179.573 57.8391Z" fill="#CC835E"/>
<path d="M147.644 62.2923C148.184 61.9756 148.746 61.7137 149.337 61.5062C149.517 61.4428 149.44 61.1539 149.257 61.2179C148.643 61.4335 148.055 61.7047 147.494 62.0342C147.328 62.1314 147.478 62.3901 147.644 62.2923Z" fill="#E8996D"/>
<path d="M148.21 61.1924C148.644 61.0112 149.09 60.8865 149.555 60.8168C149.745 60.7884 149.664 60.5002 149.476 60.5286C149.011 60.5982 148.564 60.7229 148.13 60.9041C147.956 60.9771 148.032 61.2665 148.21 61.1924Z" fill="#E8996D"/>
<path d="M168.658 61.4876C168.487 61.8132 168.316 62.1388 168.145 62.4644C168.056 62.6346 168.314 62.7859 168.403 62.6154C168.574 62.2898 168.745 61.9642 168.916 61.6386C169.006 61.4681 168.748 61.3168 168.658 61.4876Z" fill="#E8996D"/>
<path d="M202.411 94.8201C203.236 94.6837 204.108 94.8536 204.821 95.2901C204.572 94.2158 205.286 93.0096 206.347 92.7102C207.409 92.4112 208.647 93.0673 208.996 94.1135C209.585 93.6276 210.342 93.3504 211.106 93.3421C211.173 93.7795 211.241 94.217 211.308 94.6541C211.33 94.7947 211.355 94.9436 211.449 95.05C211.575 95.1924 211.783 95.2175 211.966 95.2671C212.536 95.4223 212.967 95.878 213.367 96.3137C213.508 96.4683 213.652 96.6255 213.747 96.8124C214.039 97.3835 213.8 98.1125 213.345 98.5649C212.891 99.0173 212.268 99.2509 211.658 99.4479C211.487 99.5032 211.304 99.5639 211.195 99.7057C210.941 100.034 211.236 100.486 211.339 100.888C211.551 101.718 210.781 102.569 209.93 102.664C209.078 102.759 208.252 102.272 207.683 101.632C207.493 101.417 207.301 101.169 207.02 101.108C206.409 100.975 206.02 101.773 205.436 101.996C204.528 102.343 203.57 101.202 202.643 101.49C202.898 101.411 202.428 95.3664 202.411 94.8201Z" fill="#FFE9D9"/>
<path d="M213.793 116.86H201.854L200.498 97.2229H215.149L213.793 116.86Z" fill="#CA9A8E"/>
<path d="M206.634 94.972C206.639 95.2663 206.643 95.5608 206.648 95.855C206.649 95.931 206.716 96.0111 206.798 96.0045C207.463 95.9513 208.095 96.0754 208.687 96.3864C208.857 96.4758 209.009 96.2177 208.838 96.1283C208.202 95.7943 207.514 95.6484 206.798 95.7058C206.848 95.7558 206.898 95.8054 206.947 95.8553C206.943 95.5611 206.938 95.2666 206.933 94.9723C206.93 94.7801 206.631 94.7795 206.634 94.972Z" fill="#EFD4C2"/>
<path d="M209.696 95.1506C209.627 95.9194 210.42 96.5596 211.157 96.3572C211.342 96.3063 211.264 96.0178 211.077 96.0689C210.515 96.2235 209.943 95.7235 209.995 95.1506C210.012 94.959 209.713 94.9602 209.696 95.1506Z" fill="#EFD4C2"/>
<path d="M203.233 95.8089C203.609 96.1758 204.064 96.4297 204.575 96.5535C204.762 96.5986 204.842 96.3104 204.655 96.2652C204.192 96.1531 203.786 95.9303 203.444 95.5975C203.306 95.463 203.095 95.6744 203.233 95.8089Z" fill="#EFD4C2"/>
<path d="M206.527 94.1973C206.882 94.3901 207.237 94.583 207.592 94.7759C207.762 94.8677 207.913 94.6096 207.743 94.5178C207.388 94.325 207.033 94.1321 206.678 93.9392C206.508 93.8471 206.357 94.1052 206.527 94.1973Z" fill="#EFD4C2"/>
<path d="M202.336 100.504C205.17 103.338 208.004 106.172 210.838 109.006C210.974 109.142 211.186 108.931 211.049 108.794C208.216 105.96 205.382 103.126 202.548 100.293C202.412 100.156 202.2 100.368 202.336 100.504Z" fill="#B58379"/>
<path d="M206.497 100.142C208.366 102.011 210.235 103.88 212.104 105.75C212.24 105.886 212.452 105.675 212.315 105.538C210.446 103.669 208.577 101.8 206.708 99.9308C206.572 99.7944 206.36 100.006 206.497 100.142Z" fill="#B58379"/>
<path d="M210.838 100.323C211.441 100.926 212.044 101.529 212.647 102.132C212.784 102.268 212.995 102.057 212.859 101.921C212.256 101.317 211.653 100.715 211.05 100.112C210.914 99.9757 210.702 100.187 210.838 100.323Z" fill="#B58379"/>
<path d="M203.06 106.473C205.592 109.006 208.125 111.538 210.657 114.07C210.794 114.207 211.005 113.995 210.869 113.859C208.336 111.327 205.804 108.794 203.272 106.262C203.135 106.125 202.924 106.337 203.06 106.473Z" fill="#B58379"/>
<path d="M203.241 110.453C204.327 111.538 205.412 112.623 206.497 113.709C206.634 113.845 206.845 113.634 206.709 113.497C205.623 112.412 204.538 111.327 203.453 110.241C203.317 110.105 203.105 110.316 203.241 110.453Z" fill="#B58379"/>
<path d="M203.166 115.742C205.578 115.742 207.99 115.742 210.402 115.742C210.594 115.742 210.594 115.443 210.402 115.443C207.99 115.443 205.578 115.443 203.166 115.443C202.973 115.443 202.973 115.742 203.166 115.742Z" fill="#B58379"/>
<path d="M186.015 93.4391C186.015 100.783 186.015 108.127 186.015 115.471C186.015 116.626 187.809 116.627 187.809 115.471C187.809 108.127 187.809 100.783 187.809 93.4391C187.809 92.2846 186.015 92.2828 186.015 93.4391Z" fill="#30374E"/>
<path d="M191.631 59.7074C188.159 59.8883 188.342 62.5032 188.03 66.3784C187.75 69.8434 187.33 83.0006 185.465 86.0817C184.259 88.0758 168.65 89.0138 166.261 89.3789C164.173 89.698 165.152 94.67 165.927 95.088C166.701 95.506 185.433 94.5231 193.843 93.3767C196.942 92.9542 198.171 92.9635 200.843 91.3369C204.798 88.9304 207.824 61.5628 204.93 59.627C203.728 58.8226 193.512 59.6094 191.631 59.7074Z" fill="#6884CD"/>
<path d="M198.454 117.428C198.454 119.299 193.309 120.815 186.962 120.815C180.614 120.815 175.469 119.298 175.469 117.428C175.469 115.558 180.614 112.846 186.962 112.846C193.309 112.846 198.454 115.558 198.454 117.428Z" fill="#30374E"/>
<path d="M167.063 91.5662C171.499 91.2854 175.943 91.0525 180.376 90.7235C183.296 90.5071 187.383 90.0732 188.701 87.014C189.259 85.7201 189.428 84.287 189.592 82.8998C189.811 81.0403 190.112 79.1921 190.293 77.3277C190.696 73.1861 190.875 69.0085 191.131 64.8552C191.173 64.1684 191.074 62.9792 191.507 62.3937C191.793 62.0059 192.589 61.9243 193.025 61.8433C194.204 61.6241 195.457 61.4799 196.66 61.511C196.853 61.5161 196.853 61.2171 196.66 61.212C195.691 61.1869 194.702 61.2993 193.743 61.4294C193.057 61.5224 191.749 61.5735 191.28 62.194C191.007 62.5534 190.985 63.1655 190.935 63.5907C190.851 64.2964 190.831 65.0074 190.777 65.7155C190.61 67.8929 190.482 70.0709 190.359 72.2513C190.137 76.21 189.724 80.1513 189.141 84.0729C188.922 85.5401 188.61 87.234 187.497 88.3093C186.094 89.6641 183.633 90.0768 181.774 90.2948C179.462 90.5657 177.118 90.6305 174.796 90.7774C172.218 90.9406 169.64 91.1036 167.063 91.2668C166.872 91.2791 166.87 91.5784 167.063 91.5662Z" fill="#5773B2"/>
<path d="M177.84 116.631C176.899 117.759 179.296 118.535 180.003 118.692C181.66 119.059 183.434 119.131 185.126 119.185C188.36 119.287 191.937 119.137 194.842 117.556C195.011 117.463 194.861 117.205 194.691 117.297C192.258 118.622 189.341 118.883 186.617 118.904C185.322 118.915 184.026 118.854 182.735 118.743C181.976 118.677 181.212 118.61 180.463 118.477C180.039 118.402 177.297 117.747 178.051 116.842C178.173 116.696 177.963 116.483 177.84 116.631Z" fill="#4F5477"/>
</svg>
