<svg width="232" height="114" viewBox="0 0 232 114" fill="none" xmlns="http://www.w3.org/2000/svg">
<path d="M221.018 68.5654C221.016 68.6352 221.011 68.705 221.006 68.7749C220.913 70.5834 220.724 72.3631 220.459 74.0994C219.144 82.829 215.955 90.5255 213.207 95.8909C210.964 100.267 209.014 103.096 208.609 103.672C208.555 103.746 208.528 103.78 208.528 103.78H28.112C28.112 103.78 24.1989 100.382 20.0356 96.1462C19.4664 95.036 18.8801 93.8897 18.2962 92.7844C18.1563 92.5171 18.0141 92.2522 17.8742 91.9897C16.4758 89.3648 15.1608 87.0529 14.3586 86.0102C11.9469 82.882 10.9067 78.5641 12.8817 75.1854C12.8817 75.1854 12.8817 75.183 12.8841 75.1806C14.3831 72.6183 17.1112 71.1975 20.0454 69.9188C22.2142 68.9748 24.4982 68.1078 26.4756 66.9182C26.5419 66.8748 26.6081 66.8363 26.6719 66.7954C27.0056 66.5907 27.3343 66.3715 27.6508 66.1403C27.7366 66.0777 27.8201 66.0127 27.9059 65.9501C32.7537 62.2343 34.0515 55.8719 33.8111 50.0874C33.5756 44.303 32.1306 38.5282 32.8249 32.7751C33.8823 24.043 40.2045 15.9973 48.9188 12.3056C57.6282 8.61387 68.4253 9.40616 76.3864 14.3188C83.1331 18.4826 88.2213 25.459 96.1923 26.9642C102.465 28.1514 108.832 25.5361 114.298 22.4753C119.759 19.4169 125.068 15.7661 131.336 14.5524C137.605 13.3387 145.284 15.5133 147.455 21.028C149.246 25.5722 146.922 31.1375 149.8 35.1857C151.626 37.7528 155.153 39.3952 158.48 39.0628C177.825 37.1122 193.399 36.3079 205.967 43.595C216.924 49.9502 221.6 56.7075 221.018 68.5654Z" fill="#FFE6CF"/>
<path d="M40.3295 103.781H26.2193C26.2193 103.781 22.7613 100.381 19.0826 96.1465C17.8161 94.6905 16.5245 93.1365 15.3388 91.588C14.2583 90.179 13.2645 88.7719 12.4583 87.4515C11.6774 86.1745 11.0729 84.9745 10.7311 83.9252C10.1843 82.2525 9.78317 80.4688 10.1286 78.7433C10.4259 77.2628 11.3722 75.7237 12.7596 75.1869C12.986 75.0966 13.2259 75.0362 13.4755 75.0061C13.988 74.9459 14.5424 75.0342 15.1162 75.2303C16.6592 75.7596 18.3363 77.0612 19.6527 78.259C19.7869 78.3816 19.9194 78.5039 20.0462 78.6246C21.1919 79.7059 21.9863 80.6231 22.0457 80.6927C22.0285 80.6588 22.0131 80.6267 21.9959 80.5928C20.4896 77.545 18.9984 74.2205 19.035 70.9126C19.0389 70.581 19.0561 70.2497 19.0926 69.9181C19.1444 69.4434 19.2307 68.9688 19.3556 68.4977C19.7739 66.9269 20.768 65.2823 22.3799 64.9245C23.6119 64.6514 24.7633 65.1694 25.8128 66.1394C25.8952 66.2148 25.976 66.2938 26.0584 66.3769C26.2924 66.6124 26.5209 66.8703 26.7453 67.1453C26.7493 67.1472 26.7512 67.1508 26.7529 67.1547C26.8238 67.2433 26.893 67.3317 26.9639 67.4242C27.7833 68.4922 28.522 69.79 29.1687 71.1087C29.1727 71.1161 29.1763 71.1255 29.1822 71.1349C30.2261 73.2784 31.0264 75.4766 31.5156 76.8423C31.5328 76.8931 31.5522 76.9439 31.5713 76.995C31.7038 77.3661 31.813 77.6673 31.8937 77.8766C31.9302 77.9708 31.9629 78.0481 31.9876 78.1027C31.9705 78.003 31.953 77.905 31.9359 77.8051C31.8976 77.579 31.8591 77.3511 31.8228 77.1214C31.6922 76.3058 31.5907 75.4807 31.5848 74.667C31.5809 73.8477 31.6731 73.0395 31.9302 72.2579C31.9935 72.0676 32.0683 71.8812 32.1567 71.6984C32.1567 71.6965 32.1567 71.6965 32.1567 71.6965C32.2295 71.5438 32.3102 71.3969 32.4003 71.252C33.258 69.8506 34.8181 68.8315 36.4206 69.1405C38.921 69.6226 39.7922 72.6403 40.1337 75.1173C41.5517 85.406 40.3295 103.781 40.3295 103.781Z" fill="#7178D5"/>
<path d="M33.0073 81.2826C32.9801 81.2272 30.3003 75.6927 32.353 71.2313L32.5279 71.3089C30.5127 75.6889 33.1533 81.1458 33.1803 81.2004L33.0073 81.2826Z" fill="#47393D"/>
<path d="M15.2496 91.6562C15.1829 91.5741 8.59612 83.3851 10.3409 78.0647L10.5237 78.1225C8.8103 83.3468 15.3335 91.4575 15.3995 91.5389L15.2496 91.6562Z" fill="#47393D"/>
<path d="M18.2527 93.6463C18.2147 93.6024 14.439 89.2306 13.5293 85.8503L13.7148 85.8021C14.6132 89.1408 18.3609 93.4808 18.3984 93.5242L18.2527 93.6463Z" fill="#47393D"/>
<path d="M25.8893 86.2256C23.3788 81.8658 19.9648 78.7768 19.9307 78.7462L20.0602 78.6071C20.0945 78.6379 23.5302 81.7461 26.0564 86.1328L25.8893 86.2256Z" fill="#47393D"/>
<path d="M31.8759 77.826C29.0406 69.9193 25.9965 66.4929 25.9663 66.4592L26.1098 66.3342C26.1405 66.3682 29.2094 69.8225 32.057 77.7637L31.8759 77.826Z" fill="#47393D"/>
<path d="M27.7979 70.7344C26.6259 68.3773 25.2307 66.8883 23.7626 66.4288C22.5578 66.0512 21.7158 66.4907 21.7075 66.4953L21.6157 66.3301C21.6528 66.3103 22.5389 65.8482 23.821 66.2494C25.3617 66.7318 26.7579 68.2128 27.9704 70.6516L27.7979 70.7344Z" fill="#47393D"/>
<path d="M168.053 86.699C167.945 87.6551 167.628 88.7701 167.172 89.9717C166.635 91.3902 165.901 92.9266 165.089 94.4606C165.084 94.4678 165.079 94.4774 165.074 94.4847C164.724 95.1445 164.36 95.8019 163.988 96.4497C162.29 99.4142 160.462 102.164 159.351 103.78H127.793C124.918 100.698 119.06 93.6563 122.607 90.8266C123.991 89.7237 128.954 92.18 128.954 92.18C128.954 92.18 122.909 82.6316 124.565 80.8953C127.681 77.6274 132.599 85.1795 132.725 85.3745C132.646 85.0904 129.729 74.5835 133.269 73.9526C138.88 72.9508 140.639 81.2838 141.105 81.8562C141.522 79.9345 141.539 73.8442 144.753 73.0375C146.184 72.6786 147.611 73.6804 148.387 74.952C148.468 75.0844 148.541 75.2169 148.608 75.3541C148.689 75.5251 148.755 75.6937 148.811 75.8647C149.044 76.5751 149.128 77.3096 149.125 78.0513C149.118 78.7906 149.027 79.5395 148.909 80.2788C148.875 80.4859 148.841 80.693 148.806 80.9002C148.792 80.9917 148.774 81.0784 148.76 81.1699C148.782 81.1193 148.811 81.0495 148.846 80.9652C148.919 80.7725 149.017 80.5004 149.137 80.1632C149.155 80.1175 149.172 80.0717 149.187 80.026C149.631 78.7858 150.352 76.7918 151.296 74.8484C151.301 74.8364 151.304 74.8291 151.309 74.8243C151.893 73.6275 152.56 72.4475 153.301 71.4794C153.365 71.3975 153.426 71.3156 153.492 71.2361C153.492 71.2313 153.495 71.2289 153.5 71.2265C153.703 70.9761 153.909 70.7425 154.12 70.5306C154.194 70.4535 154.267 70.3836 154.341 70.3138C155.29 69.4324 156.331 68.9628 157.444 69.2109C158.902 69.536 159.797 71.029 160.178 72.4547C160.29 72.8809 160.366 73.312 160.413 73.7431C160.447 74.0441 160.462 74.3427 160.467 74.6437C160.499 77.6467 159.152 80.6641 157.79 83.4287C157.776 83.46 157.761 83.4889 157.746 83.5202C157.756 83.5106 157.857 83.4745 158.028 83.4215C158.926 83.1446 161.78 82.4053 163.872 82.3715C166.21 82.3354 167.157 83.0458 167.614 83.9248C167.807 84.3029 167.913 84.7123 167.999 85.1072C168.006 85.1409 168.011 85.1723 168.018 85.2036C168.109 85.637 168.117 86.1403 168.053 86.699Z" fill="#7178D5"/>
<path d="M164.025 96.4774C164.081 96.3994 169.556 88.6229 167.679 83.8998L167.517 83.9622C169.36 88.6001 163.938 96.3024 163.883 96.3794L164.025 96.4774Z" fill="#47393D"/>
<path d="M160.485 98.3704C160.519 98.3307 163.931 94.3637 164.754 91.2964L164.586 91.2526C163.774 94.282 160.387 98.2201 160.353 98.2594L160.485 98.3704Z" fill="#47393D"/>
<path d="M154.271 88.5392C156.54 84.5831 159.625 81.7805 159.656 81.7525L159.539 81.6263C159.508 81.6543 156.403 84.4745 154.12 88.4552L154.271 88.5392Z" fill="#47393D"/>
<path d="M152.547 74.4828C153.606 72.3438 154.867 70.9928 156.194 70.576C157.282 70.2335 158.043 70.6323 158.051 70.6362L158.134 70.4864C158.101 70.4683 157.3 70.0491 156.141 70.4132C154.748 70.8508 153.487 72.1948 152.391 74.4076L152.547 74.4828Z" fill="#47393D"/>
<path d="M107.93 18.9592H60.3203V98.2086H107.93V18.9592Z" fill="white"/>
<path d="M107.93 15.4139V18.9594H60.3203V15.4139C60.3203 14.2098 61.3151 13.234 62.5418 13.234H105.709C106.936 13.234 107.93 14.2098 107.93 15.4139Z" fill="#47393D"/>
<path d="M60.3201 98.2089H107.93V101.693C107.93 102.897 106.936 103.873 105.709 103.873H62.5413C61.3147 103.873 60.3198 102.897 60.3198 101.693V98.2089H60.3201Z" fill="#47393D"/>
<path d="M60.5652 18.9595H60.3203V98.2371H60.5652V18.9595Z" fill="#47393D"/>
<path d="M90.1234 16.1284H78.1273C78.009 16.1284 77.9131 16.0342 77.9131 15.9181C77.9131 15.802 78.009 15.7079 78.1273 15.7079H90.1234C90.2416 15.7079 90.3375 15.802 90.3375 15.9181C90.3375 16.0344 90.2416 16.1284 90.1234 16.1284Z" fill="#E8DFDE"/>
<path d="M84.9068 65.3252H65.7231V83.8077H84.9068V65.3252Z" fill="#B3C0C6"/>
<path d="M102.527 65.3252H86.7539V68.2003H102.527V65.3252Z" fill="#D5DCE0"/>
<path d="M102.527 69.6985H86.7539V72.5736H102.527V69.6985Z" fill="#D5DCE0"/>
<path d="M102.527 73.9883H86.7539V76.8634H102.527V73.9883Z" fill="#D5DCE0"/>
<path d="M102.527 86.4697H65.7231V90.3288H102.527V86.4697Z" fill="#D5DCE0"/>
<path d="M102.527 92.1287H65.7231V93.7973H102.527V92.1287Z" fill="#B3C0C6"/>
<path d="M102.527 55.2548H65.7231V59.1139H102.527V55.2548Z" fill="#C5D1D8"/>
<path d="M102.527 60.9136H65.7231V62.5822H102.527V60.9136Z" fill="#B3C0C6"/>
<path d="M84.9068 33.3798H65.7231V51.8623H84.9068V33.3798Z" fill="#B3C0C6"/>
<path d="M102.527 33.3798H86.7539V36.2549H102.527V33.3798Z" fill="#D5DCE0"/>
<path d="M102.527 37.7533H86.7539V40.6284H102.527V37.7533Z" fill="#D5DCE0"/>
<path d="M102.527 42.0432H86.7539V44.9183H102.527V42.0432Z" fill="#D5DCE0"/>
<path d="M102.527 23.3096H65.7231V27.1687H102.527V23.3096Z" fill="#D5DCE0"/>
<path d="M102.527 28.9685H65.7231V30.6371H102.527V28.9685Z" fill="#B3C0C6"/>
<path d="M127.529 103.468C123.21 99.7583 121.62 94.6912 121.604 94.6404L121.84 94.571C121.855 94.6211 123.426 99.6239 127.691 103.287L127.529 103.468Z" fill="#47393D"/>
<path d="M24.3174 60.1833C26.1599 57.7693 26.5301 54.3514 25.2455 51.6114C24.8834 50.8391 24.3787 50.0988 23.6425 49.6506C22.9065 49.2025 21.9043 49.1049 21.1857 49.5798C20.4176 50.0875 20.1587 51.0756 20.0891 51.982C20.0194 52.8884 20.0709 53.8348 19.6916 54.664C18.6639 56.9098 15.136 57.1141 14.0399 59.3286C13.4991 60.4212 13.9331 62.0224 15.0847 62.6541C17.2618 63.8488 22.4749 62.5975 24.3174 60.1833Z" fill="#FFE6CF"/>
<path d="M153.948 32.7582C156.403 34.5723 159.884 34.9432 162.678 33.6885C163.466 33.3348 164.221 32.8411 164.68 32.1196C165.138 31.3981 165.239 30.4146 164.757 29.7083C164.242 28.9531 163.236 28.6969 162.313 28.6263C161.389 28.5557 160.425 28.6044 159.581 28.2302C157.295 27.2161 157.095 23.7529 154.842 22.6721C153.73 22.1389 152.098 22.5613 151.451 23.69C150.23 25.8244 151.493 30.9439 153.948 32.7582Z" fill="#FFE6CF"/>
<path d="M190.32 44.5711L190.306 44.3832C190.339 44.3808 193.689 44.1566 197.661 45.4354C201.328 46.6163 206.294 49.3561 209.123 55.7019L208.947 55.7773C206.147 49.4953 201.231 46.7832 197.601 45.6143C193.665 44.3471 190.353 44.5687 190.32 44.5711Z" fill="#47393D"/>
<path d="M202.404 45.7792L202.491 45.6116C202.563 45.6477 209.712 49.3334 212.633 58.2405L212.45 58.2983C209.555 49.4683 202.475 45.8151 202.404 45.7792Z" fill="#47393D"/>
<path d="M55.5905 16.6307C46.4209 16.1303 41.9782 22.6299 39.8634 26.9589L39.6885 26.8806C41.8271 22.5033 46.3297 15.9191 55.6197 16.4255L55.5905 16.6307Z" fill="#47393D"/>
<path d="M55.9056 15.0606C50.9575 13.7811 46.4939 16.9826 46.4495 17.0151L46.3462 16.8513C46.3913 16.8181 50.932 13.5584 55.9706 14.8614L55.9056 15.0606Z" fill="#47393D"/>
<path d="M129.867 13.4095C138.254 9.73487 144.764 14.2541 148.311 17.5593L148.446 17.4251C144.859 14.0831 138.262 9.50586 129.766 13.2284L129.867 13.4095Z" fill="#47393D"/>
<path d="M129.004 12.0527C133.162 9.12656 138.495 10.5568 138.549 10.5715L138.586 10.3824C138.531 10.3673 133.106 8.90959 128.871 11.8892L129.004 12.0527Z" fill="#47393D"/>
<path d="M50.3706 101.236L49.771 96.4805H53.3232L53.4792 101.236H50.3706Z" fill="#FFB486"/>
<path d="M53.4117 99.181C52.0697 99.5256 50.0761 98.8987 50.0761 98.8987L49.9351 97.7698L53.3746 98.0539L53.4117 99.181Z" fill="#FCA377"/>
<path d="M33.4287 101.236L33.7567 96.4805H37.3089L36.5373 101.236H33.4287Z" fill="#FFB486"/>
<path d="M37.1433 97.4965L36.9001 98.9971C35.2601 99.0917 34.095 98.4964 33.6387 98.2103L33.7388 96.7498L37.1433 97.4965Z" fill="#FCA377"/>
<path d="M57.9271 98.2545C57.9271 98.2545 55.5548 69.0091 49.1486 54.7917L43.1934 55.0848C43.1934 55.0848 43.7017 75.6759 48.1697 98.2545C48.1697 98.2545 53.7589 99.5563 57.9271 98.2545Z" fill="#5555C9"/>
<path d="M41.0511 98.2545C41.0511 98.2545 35.1903 99.1845 31.8472 96.9526C31.8472 96.9526 33.6273 65.2432 39.0791 54.8459H45.489C45.489 54.8459 45.2797 71.9384 41.0511 98.2545Z" fill="#5555C9"/>
<path d="M39.2222 39.7928C39.3799 39.2392 39.6768 38.5326 39.6768 38.5326C39.5728 39.0626 39.571 39.6488 39.5821 39.9657C40.9736 40.5921 43.8806 41.408 48.3942 40.3245C48.3368 39.8691 48.3108 39.4376 48.3108 39.4376C48.3906 39.727 48.5056 40.0184 48.617 40.2698C48.7784 40.2299 48.9399 40.188 49.105 40.1425C48.9695 39.5797 48.9121 38.6019 48.9121 38.6019C49.0699 39.1903 49.3815 39.7892 49.5132 40.0278C49.7877 39.9459 50.0679 39.8585 50.3537 39.7639C50.3537 39.7639 49.4538 38.4163 48.8641 34.909C48.378 32.0262 46.8717 30.6641 44.5822 30.7243C39.8738 30.8481 38.6177 39.4253 38.6177 39.4253C38.6177 39.4253 38.8176 39.5816 39.2222 39.7928Z" fill="#47393D"/>
<path d="M55.4988 49.9649C55.4988 49.9649 53.6121 41.6271 46.1093 41.196C34.5615 40.5326 31.0122 47.9055 31.0122 47.9055L55.4988 49.9649Z" fill="#C16A4C"/>
<path d="M43.5438 32.8382C44.8185 32.1232 47.0569 32.0926 47.5687 33.7856C48.041 35.348 47.9657 40.0603 45.8349 39.971C43.6075 39.8775 42.9049 38.2157 42.7062 37.2001C42.6348 36.8351 42.269 33.5532 43.5438 32.8382Z" fill="#FFB486"/>
<path d="M42.7601 37.1169C42.7601 37.1169 41.7648 37.4174 41.5791 36.5391C41.4115 35.7469 42.3698 35.4381 42.6784 35.7851L42.7601 37.1169Z" fill="#FFB486"/>
<path d="M57.0739 54.1698C59.4431 52.2558 62.987 46.9359 62.987 46.9359C63.2358 46.7731 64.29 46.06 64.6592 45.3315C64.8223 45.0074 64.7389 44.7379 64.4624 44.7488C64.4995 44.4446 64.3587 44.3264 64.0692 44.3899C64.0505 44.1022 63.8967 44.0475 63.6963 44.0986C63.6072 43.4211 62.2009 44.847 62.1102 45.0618C62.0488 45.2058 61.8612 45.7489 61.8148 45.9129C61.7537 46.1296 55.0215 50.9498 55.0215 50.9498L57.0739 54.1698Z" fill="#FFB486"/>
<path d="M63.9756 46.6623C64.3178 46.4942 64.4564 46.0855 64.2852 45.7496L61.7654 40.8078C61.5941 40.4718 61.1778 40.3358 60.8356 40.5041C60.4933 40.6722 60.3547 41.0808 60.5262 41.4168L63.046 46.3586C63.217 46.6943 63.6333 46.8304 63.9756 46.6623Z" fill="#F75C5C"/>
<path d="M63.3967 41.1605C65.7326 38.8055 65.6813 35.0376 63.2821 32.7447C60.8829 30.4518 57.0444 30.5022 54.7085 32.8572C52.3726 35.2122 52.4239 38.9801 54.8231 41.273C57.2223 43.5659 61.0608 43.5155 63.3967 41.1605Z" fill="#F75C5C"/>
<path d="M54.4762 39.2546C53.8646 38.0551 53.7655 36.6935 54.1971 35.4205C54.6286 34.1478 55.5393 33.1161 56.7615 32.5155C57.9833 31.9152 59.3704 31.8176 60.6675 32.2415C61.9641 32.6651 63.0151 33.5592 63.6267 34.7588C64.2383 35.9583 64.3377 37.3198 63.9062 38.5928C63.4744 39.8655 62.5639 40.8972 61.3417 41.4978C60.6086 41.8578 59.8289 42.0285 59.0601 42.0285C57.1828 42.0285 55.372 41.0113 54.4762 39.2546ZM56.8445 32.6788C55.6666 33.2575 54.7888 34.2516 54.373 35.4783C53.9571 36.705 54.0526 38.0173 54.6421 39.1734C55.8589 41.5599 58.827 42.5299 61.2585 41.3352C62.4364 40.7566 63.3139 39.7625 63.7298 38.5357C64.1458 37.309 64.0502 35.9968 63.4606 34.8406C62.8711 33.6845 61.8584 32.8231 60.6086 32.4146C60.0971 32.2475 59.5706 32.1644 59.0468 32.1644C58.2912 32.1644 57.54 32.3371 56.8445 32.6788Z" fill="white"/>
<path d="M59.3267 38.7705L60.3252 38.28L58.5197 33.3245L56.3672 34.3821L59.3267 38.7705Z" fill="white"/>
<path d="M60.162 40.4077L61.1606 39.917L60.6854 38.985L59.6868 39.4757L60.162 40.4077Z" fill="white"/>
<path d="M64.6612 44.8868C64.7635 44.9725 64.7657 45.1271 64.6649 45.2146C64.4836 45.3716 64.2373 45.5115 64.1254 45.472C63.9279 45.4022 64.1676 45.1209 64.3487 44.9121C64.4279 44.8201 64.5677 44.8088 64.6612 44.8868Z" fill="#FFB486"/>
<path d="M64.3152 44.7397C64.3711 44.8261 64.3601 44.9391 64.2872 45.0125C64.1057 45.1955 63.784 45.4342 63.6138 45.328C63.5056 45.2603 63.7342 44.9506 63.9337 44.7043C64.0303 44.5848 64.232 44.6108 64.3152 44.7397Z" fill="#FFB486"/>
<path d="M63.8588 44.369C63.9587 44.4384 63.9837 44.5735 63.914 44.6722C63.7641 44.8842 63.5082 45.1382 63.2251 45.1199C62.9825 45.1043 63.3188 44.666 63.5271 44.3972C63.6 44.3031 63.7352 44.2831 63.8335 44.3515L63.8588 44.369Z" fill="#FFB486"/>
<path d="M63.6149 43.9813C63.7348 44.0759 63.7446 44.2512 63.6362 44.3581C63.4377 44.5537 63.1556 44.7507 62.9883 44.7227C62.8092 44.6929 63.0501 44.3198 63.2363 44.0405C63.3202 43.915 63.4954 43.8871 63.6149 43.9813Z" fill="#FFB486"/>
<path d="M61.9604 45.5702C62.0348 44.8507 62.4747 44.0634 62.6538 44.1781C62.8329 44.2927 62.5385 44.9284 62.639 45.1507C62.7715 45.4431 62.8819 45.7147 62.6439 46.3131L61.9604 45.5702Z" fill="#FFB486"/>
<path d="M33.0124 97.4662L32.8208 97.4537C32.8421 97.1368 35.0121 65.6263 40.5228 55.3877L40.6923 55.4756C35.2008 65.679 33.0338 97.1495 33.0124 97.4662Z" fill="#47393D"/>
<path d="M37.6851 49.7681L35.6641 61.1128C40.938 62.6679 46.8896 61.2707 51.7565 58.1008L49.7408 46.9125L45.9902 41.306C45.9902 41.306 44.1612 43.3546 42.1455 41.2595L36.8956 43.4209L37.6851 49.7681Z" fill="#C16A4C"/>
<path d="M35.5735 59.6484C35.5735 59.6484 32.0645 54.6038 37.4957 51.0081L40.6068 42.4194L40.607 42.3618C36.9636 42.3435 33.0478 44.5318 30.9274 47.5984C27.3816 52.7263 27.738 58.8578 33.6746 62.0195L35.5735 59.6484Z" fill="#C16A4C"/>
<path d="M62.7578 48.3426L60.9894 46.1109L55.82 49.6363C55.82 49.6363 53.1549 44.3183 50.9619 42.943L49.5581 52.2484C49.5581 52.2484 52.0819 56.0536 55.8104 55.596C59.3474 55.1618 62.7578 48.3426 62.7578 48.3426Z" fill="#C16A4C"/>
<path d="M44.4172 72.8776L44.2261 72.8601C44.5354 69.6179 44.793 66.4471 44.9913 63.4362L45.1829 63.4484C44.9844 66.4611 44.7266 69.6338 44.4172 72.8776Z" fill="#47393D"/>
<path d="M49.5911 98.3204C49.5513 98.1332 45.5982 79.5168 44.4741 70.1363L44.6647 70.1141C45.7881 79.4863 49.7392 98.0947 49.779 98.2816L49.5911 98.3204Z" fill="#47393D"/>
<path d="M49.833 46.8994L49.6504 46.931L51.6621 58.1203L51.8448 58.0887L49.833 46.8994Z" fill="#47393D"/>
<path d="M41.9473 35.61C41.9473 35.61 42.3035 35.408 42.6578 35.7776C42.6578 35.7776 42.752 35.0386 43.0061 34.5724L43.1661 35.3972C43.4239 35.4371 44.2453 35.5693 45.1457 35.5864C45.3994 35.5913 46.1128 35.5864 46.1128 35.5864L46.2755 34.208L46.5797 35.5592C46.7894 35.5429 46.9523 35.5209 47.1192 35.499L47.2381 34.6887L47.4683 35.4516C47.6927 35.4152 47.8485 35.3805 47.9246 35.3642C47.971 34.785 47.9896 33.2226 46.9376 32.3176C45.7298 31.2797 43.1752 31.8497 42.5834 33.0933C41.9917 34.3371 41.9473 35.61 41.9473 35.61Z" fill="#47393D"/>
<path d="M44.3323 42.2128C45.3902 42.2128 46.0183 41.3061 46.0183 41.3061L45.7533 38.3034L42.8441 36.6063L42.1099 41.2596C42.1099 41.2596 43.0208 42.2128 44.3323 42.2128Z" fill="#FFB486"/>
<path d="M45.7363 40.1395L45.7441 39.9574C44.4201 39.9018 43.5727 38.9082 43.0948 38.0846L42.9336 38.1747C43.4348 39.0382 44.3276 40.0802 45.7363 40.1395Z" fill="#47393D"/>
<path d="M34.9724 62.1023C32.414 60.74 30.7448 58.7408 30.145 56.3208C29.4605 53.5603 30.1874 50.4439 32.1915 47.5457L32.3503 47.6514C30.377 50.5051 29.6602 53.5683 30.3314 56.2762C30.9182 58.643 32.5546 60.6004 35.0639 61.9369L34.9724 62.1023Z" fill="#47393D"/>
<path d="M49.3608 103.781H58.6016C58.6126 103.673 58.635 103.342 58.5646 102.994C58.5609 102.987 49.4906 103.045 49.4906 103.045L49.3608 103.781Z" fill="#47393D"/>
<path d="M49.4902 103.045L58.5602 102.987C58.4731 102.065 57.2951 101.632 56.195 101.357C56.1206 101.339 56.0485 101.322 55.9761 101.304C55.8184 101.268 55.6646 101.235 55.5179 101.202C55.4418 101.186 55.3675 101.169 55.2971 101.155C54.9168 101.071 54.6013 101 54.4195 100.916C54.2563 100.839 54.0576 100.728 53.8852 100.627C53.8258 100.592 53.7721 100.557 53.722 100.526C53.5589 100.426 53.4418 100.35 53.4418 100.35C52.8481 100.541 51.9539 101.089 49.9912 100.217L49.9318 100.552L49.8985 100.741L49.4902 103.045Z" fill="#F75C5C"/>
<path d="M55.9766 101.304C56.1137 101.616 56.1287 101.951 56.1287 101.954L56.3141 101.947C56.3122 101.929 56.3011 101.656 56.1954 101.357C56.1213 101.339 56.0489 101.323 55.9766 101.304Z" fill="#47393D"/>
<path d="M55.2974 101.155C55.4495 101.477 55.4644 101.834 55.4644 101.838L55.6499 101.832C55.6499 101.812 55.6369 101.515 55.5182 101.202C55.4421 101.186 55.3678 101.169 55.2974 101.155Z" fill="#47393D"/>
<path d="M49.8984 100.742C50.7073 101.137 51.3994 101.273 51.9725 101.273C53.0318 101.273 53.6793 100.803 53.8851 100.627C53.8257 100.592 53.772 100.558 53.722 100.526C53.377 100.816 52.1136 101.643 49.9318 100.552L49.8984 100.742Z" fill="#47393D"/>
<path d="M32.687 103.781H41.9278C41.9388 103.673 41.9611 103.342 41.8907 102.994C41.887 102.987 32.8168 103.045 32.8168 103.045L32.687 103.781Z" fill="#47393D"/>
<path d="M32.8174 103.045L41.8874 102.987C41.8003 102.065 40.6222 101.632 39.5219 101.357C39.4478 101.339 39.3754 101.322 39.303 101.304C39.1453 101.268 38.9915 101.235 38.8448 101.202C38.7687 101.186 38.6946 101.169 38.624 101.155C38.2437 101.071 37.9282 101 37.7464 100.916C37.5832 100.839 37.3848 100.728 37.2121 100.627C37.1527 100.592 37.099 100.557 37.0489 100.526C36.8858 100.426 36.7687 100.35 36.7687 100.35C36.175 100.541 35.2808 101.089 33.3181 100.217L33.2587 100.552L33.2254 100.741L32.8174 103.045Z" fill="#F75C5C"/>
<path d="M39.3027 101.304C39.4401 101.616 39.4548 101.951 39.4548 101.954L39.6403 101.947C39.6383 101.929 39.6273 101.656 39.5216 101.357C39.4475 101.339 39.3751 101.323 39.3027 101.304Z" fill="#47393D"/>
<path d="M38.624 101.155C38.7761 101.477 38.7911 101.834 38.7911 101.838L38.9766 101.832C38.9766 101.812 38.9636 101.515 38.8448 101.202C38.7688 101.186 38.6947 101.169 38.624 101.155Z" fill="#47393D"/>
<path d="M33.2251 100.742C34.034 101.137 34.7261 101.273 35.2992 101.273C36.3585 101.273 37.0059 100.803 37.2118 100.627C37.1524 100.592 37.0987 100.558 37.0486 100.526C36.7034 100.816 35.4402 101.643 33.2585 100.552L33.2251 100.742Z" fill="#47393D"/>
<path d="M35.2767 53.3628L35.1108 53.2682C35.6256 52.4 36.4101 51.6135 37.4425 50.9301L37.5497 51.0863C36.5414 51.7534 35.7767 52.5195 35.2767 53.3628Z" fill="#47393D"/>
<path d="M37.6946 49.4062L36.959 53.109L37.1473 53.1451L37.8829 49.4422L37.6946 49.4062Z" fill="#47393D"/>
<path d="M58.5739 48.531L56.4668 50.1178L56.5836 50.2672L58.6906 48.6804L58.5739 48.531Z" fill="#47393D"/>
<path d="M35.2409 60.0638C35.4187 60.2038 35.9744 60.6722 36.1991 60.71C36.4074 60.7449 37.5583 60.7921 37.5259 61.0307C37.492 61.2809 36.707 61.0866 36.7146 61.2882C36.7192 61.4124 38.2516 61.8184 38.0975 62.0817C37.9962 62.2546 37.1025 61.8847 37.0843 61.9933C37.0676 62.0942 38.2656 62.3244 38.1289 62.5876C37.9857 62.8636 36.8323 62.1679 36.7737 62.2989C36.7448 62.3637 38.1446 62.8576 38.0271 63.0697C37.8699 63.3534 36.7948 62.6546 36.7119 62.7781C36.6712 62.8388 37.0961 63.0189 37.3348 63.1579C37.4673 63.2349 37.4253 63.3522 37.3208 63.3476C36.2391 63.3002 34.8817 62.0084 34.7085 61.9478C34.4509 61.8575 34.2006 61.7633 33.9575 61.6658L35.2409 60.0638Z" fill="#FFBA8C"/>
<path d="M135.344 101.236L135.758 96.4805H132.206L132.421 101.236H135.344Z" fill="#FFB486"/>
<path d="M135.747 96.5559L135.511 99.2328C134.259 99.3111 133.051 99.1601 132.318 99.0361L132.191 96.2717L135.747 96.5559Z" fill="#FCA377"/>
<path d="M136.28 103.781H127.04C127.029 103.673 127.006 103.342 127.077 102.994C127.08 102.987 136.151 103.045 136.151 103.045L136.28 103.781Z" fill="#47393D"/>
<path d="M136.15 103.045L127.08 102.987C127.167 102.065 128.345 101.632 129.446 101.357C129.52 101.339 129.592 101.322 129.664 101.304C129.822 101.268 129.976 101.235 130.123 101.202C130.199 101.186 130.273 101.169 130.344 101.155C130.724 101.071 131.039 101 131.221 100.916C131.384 100.839 131.583 100.728 131.755 100.627C131.815 100.592 131.869 100.557 131.919 100.526C132.082 100.426 132.199 100.35 132.199 100.35C132.792 100.541 133.687 101.089 135.649 100.217L135.709 100.552L135.742 100.741L136.15 103.045Z" fill="#F75C5C"/>
<path d="M129.664 101.304C129.527 101.616 129.512 101.951 129.512 101.954L129.327 101.947C129.329 101.929 129.34 101.656 129.445 101.357C129.519 101.339 129.592 101.323 129.664 101.304Z" fill="#47393D"/>
<path d="M130.343 101.155C130.191 101.477 130.176 101.834 130.176 101.838L129.991 101.832C129.991 101.812 130.004 101.515 130.122 101.202C130.199 101.186 130.273 101.169 130.343 101.155Z" fill="#47393D"/>
<path d="M135.742 100.741C134.933 101.137 134.241 101.273 133.668 101.273C132.609 101.273 131.961 100.803 131.755 100.627C131.815 100.592 131.868 100.557 131.919 100.526C132.263 100.816 133.527 101.643 135.709 100.552L135.742 100.741Z" fill="#47393D"/>
<path d="M114.538 101.236L116.065 96.4805H112.513L111.429 101.236H114.538Z" fill="#FFB486"/>
<path d="M116.072 96.44L115.23 99.055C113.631 99.3356 112.399 99.0695 111.961 98.9493L112.566 96.2924H113.835L116.072 96.44Z" fill="#FCA377"/>
<path d="M133.328 41.5743C133.328 41.5743 142.915 43.2996 142.052 52.6076C141.693 56.4771 139.639 57.9646 139.639 57.9646L137.619 55.8808L133.784 57.1468L133.328 41.5743Z" fill="white"/>
<path d="M128.003 42.473L128.676 37.4115H131.724L132.443 42.473H128.003Z" fill="#FFB587"/>
<path d="M129.561 39.3663C131.488 38.8346 133.763 36.2239 132.913 33.2074C132.239 30.8144 128.075 31.4745 126.963 33.5284C125.239 36.7137 125.132 40.5882 129.561 39.3663Z" fill="#FFB587"/>
<path d="M145.066 55.9628L144.169 58.8938C143.905 59.754 142.959 60.226 142.082 59.9351L98.3829 45.4441C97.547 45.1669 97.0834 44.2973 97.3341 43.4778C97.5851 42.6583 98.4604 42.1837 99.3134 42.405L143.91 53.965C144.805 54.1969 145.329 55.1026 145.066 55.9628Z" fill="#5555C9"/>
<path d="M106.025 44.0052C108.307 34.8189 102.571 25.556 93.2123 23.316C83.8537 21.0759 74.4171 26.7069 72.135 35.8932C69.8529 45.0794 75.5895 54.3423 84.9481 56.5824C94.3067 58.8224 103.743 53.1914 106.025 44.0052Z" fill="white"/>
<path d="M111.975 47.5372C111.79 47.4069 111.181 47.0083 111.083 46.806C110.992 46.6187 110.635 45.5437 110.41 45.6386C110.174 45.738 110.576 46.4275 110.377 46.4749C110.253 46.504 109.441 45.1653 109.225 45.3823C109.082 45.5246 109.687 46.2697 109.585 46.316C109.49 46.3591 108.941 45.2889 108.72 45.4892C108.488 45.6992 109.482 46.6013 109.369 46.6921C109.313 46.7372 108.451 45.5473 108.274 45.7156C108.038 45.9408 109.014 46.7682 108.916 46.88C108.867 46.9349 108.576 46.5821 108.375 46.3938C108.264 46.2895 108.16 46.3605 108.193 46.4581C108.531 47.4678 110.165 48.4017 110.271 48.5491C110.429 48.7682 110.589 48.9794 110.75 49.1827L111.975 47.5372Z" fill="#FFBA8C"/>
<path d="M89.0695 55.1769C88.3666 55.1769 87.6601 55.1299 86.954 55.0336C86.2322 54.936 85.5151 54.7882 84.8223 54.5938C77.436 52.5332 72.6625 45.339 73.7194 37.8597C73.8813 36.709 74.178 35.5734 74.6016 34.4844C75.0901 33.2345 75.7483 32.0497 76.5577 30.9627C77.1288 30.1959 77.7812 29.4751 78.4963 28.8208C79.4887 27.9113 80.5971 27.1339 81.7904 26.5104C84.6891 24.9894 87.9495 24.4204 91.2191 24.8654C93.0434 25.1139 94.7833 25.6676 96.39 26.5107C97.5833 27.1358 98.689 27.9132 99.6765 28.8213C100.39 29.4759 101.039 30.1964 101.608 30.9631C102.415 32.0444 103.074 33.2292 103.567 34.4844C104.033 35.6678 104.345 36.9094 104.496 38.1747C104.572 38.8082 104.606 39.4558 104.598 40.0988C104.593 40.743 104.543 41.3973 104.452 42.0432C104.368 42.6329 104.249 43.2207 104.1 43.7903C103.934 44.415 103.729 45.0259 103.492 45.6063C102.954 46.9313 102.228 48.1729 101.335 49.2966C98.3758 53.0276 93.8135 55.1769 89.0695 55.1769ZM89.058 24.9063C86.5585 24.9063 84.1113 25.506 81.881 26.6763C80.7024 27.2921 79.6077 28.0601 78.6273 28.9583C77.9208 29.6047 77.2768 30.3163 76.7127 31.0734C75.9132 32.147 75.2633 33.3171 74.781 34.5516C74.3624 35.6271 74.0693 36.7488 73.9096 37.8854C72.8659 45.2723 77.5798 52.3776 84.8748 54.4127C85.559 54.6047 86.2673 54.7508 86.9802 54.8469C92.3847 55.5831 97.8279 53.4117 101.184 49.1805C102.066 48.0708 102.782 46.8446 103.314 45.536C103.548 44.9626 103.75 44.3593 103.914 43.7426C104.062 43.18 104.178 42.5994 104.262 42.0167C104.352 41.3787 104.401 40.7326 104.407 40.0964C104.414 39.4611 104.38 38.822 104.305 38.1961C104.157 36.9465 103.848 35.7205 103.388 34.5518C102.901 33.3121 102.25 32.1417 101.452 31.0737C100.891 30.3163 100.25 29.6047 99.5455 28.9583C98.5701 28.0613 97.4781 27.2936 96.2997 26.6763C94.7129 25.8438 92.9946 25.2972 91.1926 25.0516C90.4797 24.9545 89.7667 24.9063 89.058 24.9063Z" fill="white"/>
<path d="M91.6247 21.9905C81.5169 20.615 72.1905 27.5401 70.7899 37.4599C69.3876 47.377 76.4427 56.5314 86.5499 57.9092C96.6535 59.2835 105.98 52.3586 107.38 42.441C108.783 32.5217 101.728 23.367 91.6247 21.9905ZM104.325 42.0248C103.159 50.2863 95.3901 56.0558 86.9714 54.91C78.553 53.7642 72.6777 46.137 73.8446 37.8756C75.0119 29.6119 82.7804 23.8424 91.201 24.9887C99.6174 26.1343 105.493 33.7614 104.325 42.0248Z" fill="#5555C9"/>
<path d="M89.1191 55.9643C88.3644 55.9643 87.6049 55.9133 86.8444 55.8097C77.936 54.5972 71.6933 46.4963 72.9283 37.7513C73.5266 33.5141 75.77 29.7598 79.2446 27.1797C82.7198 24.5993 87.0114 23.5021 91.3281 24.0897C95.6433 24.6768 99.467 26.8789 102.095 30.2901C104.723 33.701 105.84 37.9131 105.241 42.1501C104.643 46.3861 102.4 50.1399 98.9258 52.7198C96.0635 54.845 92.6472 55.9643 89.1191 55.9643ZM89.0526 24.1232C85.5652 24.1232 82.1894 25.229 79.3604 27.3297C75.9265 29.8795 73.7096 33.5897 73.1181 37.7771C71.8976 46.4193 78.0668 54.4248 86.8706 55.6231C91.1352 56.2035 95.3761 55.1191 98.81 52.5693C102.243 50.0197 104.46 46.3102 105.052 42.1238C105.643 37.9367 104.539 33.7742 101.942 30.4035C99.3451 27.0325 95.5665 24.8562 91.3021 24.2761C90.5501 24.1738 89.7987 24.1232 89.0526 24.1232Z" fill="white"/>
<path d="M89.1235 58.0296C88.2715 58.0296 87.414 57.9718 86.5554 57.855C76.4981 56.4862 69.4504 47.3404 70.8449 37.4676C71.5205 32.6843 74.0531 28.4457 77.9758 25.5327C81.8989 22.6198 86.7438 21.3808 91.6176 22.0445C96.4892 22.7075 100.806 25.1934 103.773 29.0443C106.739 32.8952 108.001 37.6502 107.325 42.4338C106.65 47.2159 104.118 51.4538 100.195 54.3665C96.9634 56.766 93.1065 58.0296 89.1235 58.0296ZM89.0484 22.058C85.1062 22.058 81.2897 23.3081 78.0916 25.683C74.2096 28.5653 71.7036 32.7599 71.0348 37.4934C69.655 47.2631 76.6294 56.3135 86.5818 57.6684C91.4039 58.3248 96.1972 57.0986 100.079 54.216C103.961 51.3337 106.466 47.1401 107.135 42.4075C107.804 37.674 106.555 32.9685 103.62 29.1578C100.684 25.3471 96.4121 22.8869 91.5911 22.2309C90.7412 22.1153 89.8917 22.058 89.0484 22.058Z" fill="#47393D"/>
<g opacity="0.44">
<path d="M84.8482 34.5178V54.5033C77.5697 52.4727 72.7452 45.4372 73.8141 37.8726C73.9792 36.6991 74.2785 35.5784 74.6912 34.5178H84.8482Z" fill="#B3C0C6"/>
<path d="M104.401 38.1854H87.1631V34.5179H103.478C103.937 35.6837 104.25 36.9138 104.401 38.1854Z" fill="#D5DCE0"/>
<path d="M104.503 40.0973C104.497 40.7359 104.449 41.3801 104.357 42.0299C104.272 42.6213 104.155 43.2014 104.007 43.7666H87.1626V40.0973H104.503Z" fill="#D5DCE0"/>
<path d="M103.403 45.571C102.862 46.9028 102.137 48.1348 101.26 49.2385H87.1631V45.571H103.403Z" fill="#D5DCE0"/>
<path d="M96.3452 26.5934H81.8359C84.607 25.1393 87.8557 24.5026 91.2062 24.9585C93.058 25.2106 94.7871 25.7758 96.3452 26.5934Z" fill="#D5DCE0"/>
<path d="M101.531 31.018H76.6357C77.2096 30.2476 77.8563 29.5355 78.5624 28.8894H99.6115C100.32 29.5394 100.963 30.2515 101.531 31.018Z" fill="#B3C0C6"/>
</g>
<path d="M129.395 97.8271C132.754 98.3444 135.876 98.5601 138.25 97.8271C138.25 97.8271 140.259 75.7232 136.698 55.4141L129.576 55.4446C129.576 55.4446 126.837 79.8522 129.395 97.8271Z" fill="#F75C5C"/>
<path d="M109.813 97.8271C113.056 98.2772 116.089 98.3817 118.723 97.8271C129.652 77.9252 134.226 55.4445 134.226 55.4445H125.781C114.874 73.8879 109.813 97.8271 109.813 97.8271Z" fill="#F75C5C"/>
<path d="M116.846 49.6631L112.053 47.1311L110.306 49.3604C110.306 49.3604 113.132 56.5897 118.672 55.9816C123.105 55.4954 125.777 47.3399 125.777 47.3399L116.846 49.6631Z" fill="white"/>
<path d="M138.811 61.5012C131.186 64.9081 120.104 61.926 120.104 61.926L120.442 60.8238L120.494 60.6536L123.376 51.2318L115.796 51.1422C115.796 51.1422 120.875 44.1479 123.832 42.4473C124.605 42.0032 125.64 41.668 126.811 41.4573C126.902 41.4414 126.995 41.4257 127.088 41.4118C128.992 41.1064 131.22 41.1273 133.25 41.5485C133.322 41.5625 133.393 41.5784 133.463 41.5941C134.602 41.8467 135.671 42.2276 136.577 42.7507C136.577 42.7507 136.034 45.7556 136.796 47.7968C138.528 52.4373 138.789 57.9802 138.816 60.3427C138.818 60.4094 138.818 60.4725 138.818 60.5339C138.823 61.1484 138.811 61.5012 138.811 61.5012Z" fill="white"/>
<path d="M119.325 46.579L116.156 50.3965L116.304 50.5154L119.474 46.698L119.325 46.579Z" fill="#47393D"/>
<path d="M129.186 35.1489C129.186 35.1489 126.701 34.2343 127.355 31.2821C127.355 31.2821 127.641 31.5068 128.524 31.4346C129.33 31.3686 132.325 30.1269 133.828 32.9507C135.32 35.7517 133.273 39.08 131.246 38.5023C129.376 37.9696 129.153 35.7907 129.186 35.1489Z" fill="#47393D"/>
<path d="M129.628 36.7132C130.102 36.7132 130.486 36.3361 130.486 35.8708C130.486 35.4056 130.102 35.0284 129.628 35.0284C129.154 35.0284 128.77 35.4056 128.77 35.8708C128.77 36.3361 129.154 36.7132 129.628 36.7132Z" fill="#FFB587"/>
<path d="M138.145 37.7011C138.434 37.7596 139.392 38.0214 139.766 38.9538C140.25 40.1632 140.547 40.8902 142.105 41.0277L141.697 41.4949C138.411 41.6664 140.277 37.6729 137.45 38.3267C136.552 38.5338 136.226 37.0872 135.951 34.9493C135.677 32.8113 133.412 33.8324 133.412 33.8324L133.384 32.7342C133.384 32.7342 134.752 30.4173 136.708 31.6154C138.663 32.8115 138.057 35.5804 140.822 33.9323C144.071 31.9959 145.995 36.5863 145.995 36.5863L142.294 40.8151C141.941 40.819 140.855 40.7472 140.313 39.7095C139.643 38.4206 139.521 37.9366 138.145 37.7011Z" fill="#47393D"/>
<path d="M127.987 39.6968C127.023 39.6968 126.501 39.2075 126.471 39.1791L126.606 39.0447C126.643 39.0803 127.535 39.9066 129.184 39.265L129.255 39.4401C128.771 39.6279 128.348 39.6968 127.987 39.6968Z" fill="#47393D"/>
<path d="M132.286 41.3327C130.038 42.3702 128.171 41.2371 128.171 41.2371L128.224 40.8325L132.204 40.781L132.286 41.3327Z" fill="#FFB587"/>
<path d="M138.817 60.5341C135.883 61.7189 132.741 62.1066 129.881 62.1066C125.478 62.1066 121.739 61.1853 120.441 60.8236L120.493 60.6533C122.625 61.2501 131.404 63.3685 138.816 60.3427C138.817 60.4096 138.817 60.4727 138.817 60.5341Z" fill="#47393D"/>
<path d="M138.715 61.5015C138.715 61.4213 138.689 53.4088 136.706 47.8279L136.887 47.7657C138.881 53.377 138.907 61.4208 138.907 61.5012H138.715V61.5015Z" fill="#47393D"/>
<path d="M133.462 41.5943C132.631 42.3789 131.651 42.6457 130.698 42.6457C128.862 42.6457 127.134 41.6523 126.811 41.4575C126.902 41.4416 126.995 41.426 127.088 41.412C127.96 41.9052 131.107 43.4479 133.25 41.5488C133.321 41.5627 133.392 41.5784 133.462 41.5943Z" fill="#47393D"/>
<path d="M115.533 103.781H106.293C106.282 103.673 106.259 103.342 106.33 102.994C106.333 102.987 115.404 103.045 115.404 103.045L115.533 103.781Z" fill="#47393D"/>
<path d="M115.403 103.045L106.333 102.987C106.421 102.065 107.599 101.632 108.699 101.357C108.773 101.339 108.845 101.322 108.918 101.304C109.076 101.268 109.229 101.235 109.376 101.202C109.452 101.186 109.526 101.169 109.597 101.155C109.977 101.071 110.293 101 110.474 100.916C110.638 100.839 110.836 100.728 111.009 100.627C111.068 100.592 111.122 100.557 111.172 100.526C111.335 100.426 111.452 100.35 111.452 100.35C112.046 100.541 112.94 101.089 114.903 100.217L114.962 100.552L114.996 100.741L115.403 103.045Z" fill="#F75C5C"/>
<path d="M108.918 101.304C108.78 101.616 108.766 101.951 108.766 101.954L108.58 101.947C108.582 101.929 108.593 101.656 108.699 101.357C108.773 101.339 108.845 101.323 108.918 101.304Z" fill="#47393D"/>
<path d="M109.597 101.155C109.445 101.477 109.43 101.834 109.43 101.838L109.244 101.832C109.244 101.812 109.257 101.515 109.376 101.202C109.452 101.186 109.526 101.169 109.597 101.155Z" fill="#47393D"/>
<path d="M114.995 100.741C114.187 101.137 113.495 101.273 112.921 101.273C111.862 101.273 111.215 100.803 111.009 100.627C111.068 100.592 111.122 100.557 111.172 100.526C111.517 100.816 112.78 101.643 114.962 100.552L114.995 100.741Z" fill="#47393D"/>
<path d="M146.09 36.0737C146.08 36.0501 145.003 33.7099 143.248 33.1962C142.511 32.9802 141.749 33.1165 140.985 33.6008C140.249 34.0668 139.704 34.2366 139.268 34.1361C138.753 34.0169 138.468 33.544 138.137 32.9966C137.801 32.4396 137.421 31.8079 136.706 31.3966C136.2 31.1054 135.695 31.0255 135.207 31.1582C134.186 31.4363 133.554 32.5569 133.548 32.5682L133.379 32.4783C133.406 32.4295 134.055 31.2774 135.154 30.9771C135.696 30.829 136.25 30.9159 136.803 31.2343C137.56 31.6702 137.955 32.324 138.303 32.9007C138.611 33.4113 138.877 33.8522 139.312 33.9531C139.694 34.041 140.192 33.8789 140.881 33.4428C141.695 32.927 142.51 32.7835 143.304 33.0161C145.143 33.555 146.221 35.898 146.266 35.9974L146.09 36.0737Z" fill="#47393D"/>
<path d="M129.164 35.2404C127.864 34.9319 127.061 34.3862 126.776 33.619C126.353 32.4746 127.24 31.2765 127.278 31.226L127.432 31.3379C127.424 31.3495 126.568 32.5069 126.957 33.5556C127.218 34.2595 127.976 34.7648 129.208 35.0574L129.164 35.2404Z" fill="#47393D"/>
<path d="M118.807 97.8717L118.638 97.7824C124.511 87.0877 128.526 75.6318 130.86 67.9044L131.044 67.9581C128.707 75.6937 124.688 87.1628 118.807 97.8717Z" fill="#47393D"/>
<path d="M125.413 49.4893L124.367 50.6752L124.512 50.7984L125.558 49.6125L125.413 49.4893Z" fill="#47393D"/>
<path d="M137.933 60.5165H137.741C137.741 58.6829 137.515 56.3807 137.513 56.3575L137.704 56.3392C137.706 56.3624 137.933 58.6737 137.933 60.5165Z" fill="#47393D"/>
<path d="M118.023 56.1115C112.904 56.1115 110.245 49.4639 110.217 49.3939L110.396 49.3264C110.424 49.398 113.261 56.4794 118.662 55.8877C122.982 55.4138 125.66 47.3917 125.687 47.3108L125.869 47.3686C125.759 47.7038 123.127 55.5874 118.684 56.0751C118.459 56.0997 118.238 56.1115 118.023 56.1115Z" fill="#47393D"/>
<g opacity="0.8">
<path d="M101.632 45.5533C101.799 44.25 101.931 43.0173 101.972 41.7886C102.002 40.5641 101.955 39.3544 101.801 38.1617C101.651 36.965 101.393 35.7862 101.054 34.6065C100.703 33.4281 100.257 32.2667 99.7646 31.0457L99.8419 30.9901C100.233 31.5021 100.592 32.0389 100.915 32.5959C101.234 33.1551 101.516 33.735 101.761 34.3295C102.251 35.5189 102.584 36.7707 102.753 38.0441C102.911 39.319 102.901 40.6127 102.73 41.8842C102.643 42.52 102.518 43.1499 102.353 43.7705C102.181 44.3892 101.97 44.9968 101.72 45.5882L101.632 45.5533Z" fill="white"/>
</g>
<g opacity="0.8">
<path d="M90.961 53.3981C90.2356 53.3102 89.5275 53.1785 88.8425 53.0061C81.564 51.1843 76.7395 44.8727 77.8084 38.0862C77.9735 37.0334 78.2728 36.028 78.6855 35.0765C79.1786 33.9442 79.8368 32.8916 80.6295 31.9367C81.2033 31.2456 81.85 30.6069 82.5561 30.0273C83.5387 29.2196 84.6402 28.5251 85.8298 27.9673C87.6031 27.1327 89.5736 26.5985 91.6406 26.4278C88.5452 26.1778 85.5612 26.7555 82.9879 27.9673C81.7983 28.5251 80.6967 29.2196 79.7141 30.0273C79.0078 30.6069 78.3611 31.2456 77.7875 31.9367C76.9951 32.8916 76.3369 33.9444 75.8435 35.0765C75.4309 36.028 75.1316 37.0334 74.9664 38.0862C73.8975 44.8727 78.7218 51.1843 86.0006 53.0061C86.6856 53.1785 87.3938 53.3102 88.1191 53.3981C89.3241 53.545 90.514 53.5655 91.6749 53.4709C91.437 53.4523 91.199 53.427 90.961 53.3981ZM90.961 53.3981C90.2356 53.3102 89.5275 53.1785 88.8425 53.0061C81.564 51.1843 76.7395 44.8727 77.8084 38.0862C77.9735 37.0334 78.2728 36.028 78.6855 35.0765C79.1786 33.9442 79.8368 32.8916 80.6295 31.9367C81.2033 31.2456 81.85 30.6069 82.5561 30.0273C83.5387 29.2196 84.6402 28.5251 85.8298 27.9673C87.6031 27.1327 89.5736 26.5985 91.6406 26.4278C88.5452 26.1778 85.5612 26.7555 82.9879 27.9673C81.7983 28.5251 80.6967 29.2196 79.7141 30.0273C79.0078 30.6069 78.3611 31.2456 77.7875 31.9367C76.9951 32.8916 76.3369 33.9444 75.8435 35.0765C75.4309 36.028 75.1316 37.0334 74.9664 38.0862C73.8975 44.8727 78.7218 51.1843 86.0006 53.0061C86.6856 53.1785 87.3938 53.3102 88.1191 53.3981C89.3241 53.545 90.514 53.5655 91.6749 53.4709C91.437 53.4523 91.199 53.427 90.961 53.3981Z" fill="white"/>
</g>
<path d="M82.4637 35.6345H83.629V41.7455C83.629 42.5715 83.3763 43.2176 82.8712 43.6838C82.3661 44.1501 81.6926 44.3832 80.8511 44.3832C79.9775 44.3832 79.2972 44.1638 78.8102 43.7253C78.323 43.2867 78.0796 42.6722 78.0796 41.8818H79.239C79.239 42.3757 79.3769 42.761 79.6527 43.0377C79.9284 43.3142 80.3281 43.4527 80.8514 43.4527C81.3303 43.4527 81.7179 43.3046 82.0138 43.0081C82.3096 42.7117 82.4595 42.297 82.4637 41.7633V35.6345Z" fill="#F75C5C"/>
<path d="M92.3672 40.2284C92.3672 41.0742 92.2224 41.812 91.9324 42.4423C91.6427 43.0725 91.2322 43.5536 90.7006 43.8855C90.1692 44.2173 89.5493 44.3835 88.8407 44.3835C88.1482 44.3835 87.5343 44.2166 86.999 43.8826C86.4637 43.5488 86.0478 43.0725 85.752 42.4541C85.4561 41.8356 85.304 41.1195 85.2959 40.3052V39.6827C85.2959 38.8529 85.4429 38.1201 85.7368 37.4836C86.0304 36.8474 86.4463 36.3604 86.9838 36.0225C87.5211 35.6847 88.1361 35.5159 88.8285 35.5159C89.5328 35.5159 90.154 35.6828 90.6915 36.0168C91.2288 36.3508 91.6424 36.8348 91.9322 37.4691C92.2222 38.1032 92.3669 38.8413 92.3669 39.683V40.2284H92.3672ZM91.2141 39.6712C91.2141 38.6477 91.0048 37.8624 90.586 37.315C90.1673 36.7679 89.5816 36.4941 88.8287 36.4941C88.0959 36.4941 87.5191 36.7679 87.0986 37.315C86.6779 37.8624 86.4615 38.6219 86.4495 39.5941V40.2282C86.4495 41.2201 86.6617 41.9996 87.0863 42.5665C87.5113 43.1336 88.0959 43.4171 88.8407 43.4171C89.5895 43.4171 90.1692 43.1495 90.5799 42.614C90.9906 42.0784 91.2018 41.3109 91.2141 40.3113V39.6712Z" fill="#F75C5C"/>
<path d="M94.106 44.2649V35.6348H96.9803C97.9344 35.6348 98.652 35.8284 99.1329 36.2156C99.614 36.6029 99.8546 37.176 99.8546 37.9346C99.8546 38.3377 99.7378 38.6944 99.5043 39.0045C99.2707 39.3149 98.9528 39.5548 98.5502 39.7246C99.0252 39.8551 99.4005 40.1031 99.6763 40.4685C99.952 40.834 100.09 41.2697 100.09 41.7756C100.09 42.5501 99.8343 43.1586 99.3232 43.6012C98.812 44.0439 98.0894 44.2652 97.1555 44.2652L94.106 44.2649ZM95.2654 39.3154H97.0166C97.524 39.3154 97.9295 39.1907 98.2335 38.9412C98.5374 38.6917 98.6895 38.3531 98.6895 37.9254C98.6895 37.4503 98.5485 37.1047 98.2668 36.8889C97.9849 36.6732 97.5563 36.5653 96.9808 36.5653H95.2659V39.3154H95.2654ZM95.2654 40.2284V43.3344H97.1795C97.719 43.3344 98.1447 43.1972 98.4567 42.9224C98.7688 42.6479 98.9248 42.2695 98.9248 41.7874C98.9248 40.748 98.349 40.2284 97.1977 40.2284H95.2654Z" fill="#F75C5C"/>
<path d="M80.851 44.7447C79.8866 44.7447 79.1162 44.4913 78.5613 43.9916C77.9975 43.4837 77.7114 42.7741 77.7114 41.8821V41.5208H79.6069V41.8821C79.6069 42.2816 79.708 42.5771 79.9155 42.7854C80.1209 42.9915 80.427 43.0917 80.8512 43.0917C81.2307 43.0917 81.5249 42.9819 81.7509 42.7555C81.9795 42.5265 82.0921 42.2014 82.0956 41.7609V35.2736H83.9971V41.7458C83.9971 42.6712 83.7032 43.412 83.1233 43.9473C82.5497 44.4764 81.7852 44.7447 80.851 44.7447ZM78.4675 42.2433C78.5277 42.7565 78.7224 43.1565 79.0588 43.4592C79.4737 43.8327 80.0764 44.0222 80.851 44.0222C81.6022 44.0222 82.1804 43.8255 82.6189 43.4207C83.0509 43.0219 83.2609 42.4738 83.2609 41.7455V35.9958H82.8313V41.7636C82.8264 42.3943 82.6397 42.8971 82.2761 43.261C81.9096 43.628 81.4302 43.8139 80.8507 43.8139C80.2268 43.8139 79.7352 43.6379 79.389 43.2904C79.1184 43.019 78.9526 42.6679 78.8942 42.2431H78.4675V42.2433Z" fill="#F75C5C"/>
<path d="M88.8403 44.7447C88.08 44.7447 87.3938 44.5571 86.8011 44.1875C86.2084 43.8178 85.7432 43.2863 85.4184 42.6077C85.1014 41.9448 84.9361 41.1712 84.9277 40.3089V39.683C84.9277 38.805 85.0872 38.0151 85.4015 37.3348C85.7236 36.6371 86.189 36.0934 86.7852 35.7187C87.3798 35.3444 88.0675 35.1549 88.8285 35.1549C89.6004 35.1549 90.2934 35.3423 90.8884 35.7117C91.4855 36.083 91.9497 36.6246 92.2681 37.3215C92.578 37.9994 92.735 38.7939 92.735 39.6832V40.2287C92.735 41.1221 92.5777 41.9171 92.2676 42.5914C91.9492 43.2839 91.4885 43.8219 90.8979 44.1909C90.3089 44.5583 89.6166 44.7447 88.8403 44.7447ZM88.8283 35.8774C88.2103 35.8774 87.6566 36.0286 87.1821 36.3272C86.7076 36.6253 86.3342 37.0648 86.072 37.6332C85.8011 38.2191 85.6637 38.9088 85.6637 39.683V40.3055C85.6711 41.0598 85.8129 41.7324 86.0847 42.3007C86.3489 42.8531 86.7228 43.283 87.1958 43.5777C87.6689 43.8727 88.2221 44.0223 88.8403 44.0223C89.4743 44.0223 90.0336 43.8737 90.5027 43.5806C90.9701 43.2888 91.3383 42.8558 91.5966 42.2935C91.8636 41.7133 91.9988 41.0183 91.9988 40.2282V39.6828C91.9988 38.896 91.8633 38.201 91.5962 37.6168C91.3378 37.0513 90.9671 36.6157 90.4941 36.3217C90.0192 36.0269 89.4588 35.8774 88.8283 35.8774ZM88.8403 43.7786C87.9755 43.7786 87.2856 43.4429 86.7896 42.7806C86.3195 42.1531 86.081 41.2943 86.081 40.2282V39.5941C86.0941 38.5437 86.3372 37.7052 86.8045 37.0973C87.2964 36.4572 87.9775 36.1326 88.8285 36.1326C89.6995 36.1326 90.3896 36.4575 90.88 37.0978C91.3457 37.7066 91.5817 38.5723 91.5817 39.671V40.3113C91.5684 41.3894 91.3302 42.2359 90.8734 42.8314C90.3916 43.46 89.7076 43.7786 88.8403 43.7786ZM88.8283 36.8553C88.212 36.8553 87.7422 37.0769 87.3919 37.5327C87.0214 38.0149 86.8278 38.7101 86.8171 39.5987V40.2284C86.8171 41.1371 87.0072 41.8518 87.3825 42.3527C87.7371 42.8259 88.214 43.0561 88.8403 43.0561C89.4725 43.0561 89.9453 42.8406 90.2853 42.397C90.646 41.9269 90.8344 41.2237 90.8457 40.307V39.671C90.8457 38.7322 90.6592 38.0124 90.2915 37.5318C89.9429 37.0766 89.4642 36.8553 88.8283 36.8553Z" fill="#F75C5C"/>
<path d="M97.1553 44.6262H93.7378V35.2736H96.9801C98.0169 35.2736 98.8199 35.4966 99.366 35.9363C99.9342 36.3938 100.222 37.0662 100.222 37.9346C100.222 38.4148 100.08 38.8471 99.7998 39.2191C99.671 39.3903 99.5193 39.544 99.3464 39.6788C99.5883 39.8305 99.7973 40.0225 99.9715 40.2534C100.294 40.6806 100.457 41.1929 100.457 41.7754C100.457 42.6544 100.157 43.3597 99.566 43.8719C98.9884 44.3724 98.1774 44.6262 97.1553 44.6262ZM94.474 43.9037H97.1555C97.9929 43.9037 98.6403 43.7108 99.0799 43.3303C99.5122 42.9561 99.7225 42.4475 99.7225 41.7756C99.7225 41.3453 99.6109 40.9882 99.381 40.6835C99.1533 40.3815 98.8491 40.1817 98.4514 40.0723L97.4475 39.7966L98.4053 39.3925C98.75 39.247 99.0127 39.0498 99.2085 38.7895C99.3957 38.5407 99.4867 38.2611 99.4867 37.9344C99.4867 37.2837 99.2946 36.8126 98.8996 36.4945C98.4882 36.1634 97.8425 35.9955 96.9804 35.9955H94.474V43.9037ZM97.1796 43.6954H94.8975V39.8669H97.1977C98.5488 39.8669 99.2929 40.5487 99.2929 41.7872C99.2929 42.3738 99.0942 42.8463 98.7024 43.1912C98.3224 43.5259 97.8098 43.6954 97.1796 43.6954ZM95.6335 42.973H97.1796C97.6293 42.973 97.9666 42.8685 98.211 42.6534C98.4438 42.4485 98.5569 42.1653 98.5569 41.7872C98.5569 40.9477 98.1504 40.5894 97.1977 40.5894H95.6335V42.973ZM97.0164 39.6767H94.8972V36.2041H96.9801C97.6462 36.2041 98.1408 36.3348 98.4926 36.6043C98.8672 36.8909 99.0571 37.3357 99.0571 37.9257C99.0571 38.4634 98.8594 38.8983 98.4693 39.2186C98.0989 39.5225 97.6102 39.6767 97.0164 39.6767ZM95.6335 38.9542H97.0167C97.4389 38.9542 97.7596 38.8593 97.9973 38.6643C98.2183 38.4827 98.3214 38.2479 98.3214 37.9254C98.3214 37.5645 98.2296 37.3186 98.0402 37.1736C97.8258 37.0096 97.4693 36.9263 96.9804 36.9263H95.6335V38.9542Z" fill="#F75C5C"/>
<path d="M164.789 31.8625C167.366 32.0807 168.356 33.3804 168.835 34.2948C169.314 35.2092 169.432 36.2322 169.55 37.2345C169.669 38.2365 169.801 39.26 170.306 40.164C170.741 40.9431 171.439 41.6072 171.761 42.4272C172.182 43.501 171.858 44.7737 170.95 45.6168C168.6 44.859 166.274 44.2822 163.924 43.5241C164.493 40.0024 164.789 31.8625 164.789 31.8625Z" fill="#47393D"/>
<path d="M155.736 46.9144C154.766 42.0205 159.236 41.3267 160.023 38.3456C160.453 36.7168 160.243 31.9189 164.354 31.8479C168.085 31.7836 168.528 35.9719 168.528 35.9719L167.47 34.5747L163.361 34.849C163.387 36.1756 162.963 37.0223 162.963 37.0223L165.332 39.6815L162.965 45.803L155.736 46.9144Z" fill="#47393D"/>
<path d="M154.677 46.7225C154.215 43.609 155.772 42.2503 157.277 40.9364C158.181 40.1477 159.034 39.4028 159.38 38.3117C159.469 38.0297 159.544 37.6439 159.63 37.1974C160.018 35.1926 160.662 31.8465 164.144 31.9402L164.136 32.181C160.878 32.0849 160.268 35.1883 159.871 37.2422C159.783 37.6962 159.707 38.088 159.614 38.3832C159.248 39.5384 158.37 40.305 157.44 41.1165C155.983 42.388 154.477 43.7029 154.92 46.6881L154.677 46.7225Z" fill="#47393D"/>
<path d="M179.21 83.9878L181.286 86.0367L174.23 86.1349L179.21 83.9878Z" fill="#443438"/>
<path d="M175.716 87.4107L176.06 84.0128H179.786L178.976 87.312C178.976 87.312 178.545 88.4181 177.292 88.3774C176.088 88.3384 175.716 87.4107 175.716 87.4107Z" fill="#FFB78F"/>
<path d="M157.912 98.9689L147.012 98.6236L154.799 96.6807L157.912 98.9689Z" fill="#443438"/>
<path d="M154.511 97.2972L153.956 99.3249L153.573 100.719C153.573 100.719 153.227 101.512 152.018 101.661C150.823 101.808 150.44 100.695 150.44 100.695L150.566 99.4598L150.786 97.2972H154.511Z" fill="#FFB78F"/>
<path d="M154.51 97.2972L153.955 99.3249C152.702 99.5103 151.222 99.4839 150.565 99.4598L150.786 97.2972H154.51Z" fill="#FCA377"/>
<path d="M179.754 84.2623L179.199 86.29C177.945 86.4754 176.466 86.449 175.809 86.4249L176.029 84.2623H179.754Z" fill="#FCA377"/>
<path d="M157.912 98.9688C157.912 98.9688 166.283 77.9233 166.036 60.5637L156.505 60.7781C155.713 63.1927 155.846 66.2742 155.716 67.4268C154.066 81.9746 146.799 98.6213 146.799 98.6213C146.799 98.6213 149.228 99.1458 153.092 98.197C155.24 97.6698 156.863 98.2972 157.912 98.9688Z" fill="#C16A4C"/>
<path d="M149.142 98.7153L148.972 98.6462C149.042 98.479 156.034 81.755 157.476 67.3681C157.506 67.0699 157.516 66.6307 157.529 66.1221C157.564 64.6779 157.617 62.4951 158.182 60.6921L158.358 60.7454C157.8 62.5245 157.748 64.6921 157.713 66.1264C157.7 66.6386 157.69 67.081 157.659 67.3859C156.214 81.7998 149.212 98.5479 149.142 98.7153Z" fill="#47393D"/>
<path d="M170.795 84.58C170.795 84.58 171.975 86.1793 173.91 86.1143C175.845 86.049 178.187 84.2985 181.286 86.037C181.286 86.037 183.227 77.3803 183.805 70.9355C183.972 69.0844 184.026 67.2946 183.198 66.2579C182.214 65.0254 180.334 64.5828 177.536 63.8206C174.263 62.9293 171.443 62.1676 171.443 62.1676L170.948 60.1879L162.198 60.3877L165.527 70.3393L173.849 72.8248L170.795 84.58Z" fill="#C16A4C"/>
<path d="M177.935 43.4515C178.707 43.4996 179.593 42.722 179.663 41.9967C179.698 41.6222 179.845 41.4043 179.555 41.3725C179.644 41.0698 179.517 40.9265 179.206 40.9455C179.234 40.6505 179.085 40.5706 178.869 40.5908C178.888 39.8862 177.205 41.0623 177.031 41.2311C176.605 41.6446 176.564 42.4425 176.564 42.4425L173.991 50.1284L173.273 48.1727L167.883 51.0262C167.883 51.0262 169.234 53.9107 171.85 55.2217C173.011 55.8035 174.71 55.9157 175.445 55.6751C178.033 54.8282 178.611 52.7682 178.563 49.712C178.515 46.5352 177.935 43.4515 177.935 43.4515Z" fill="#FFB587"/>
<path d="M154.546 62.3121C160.11 66.7848 172.015 61.7351 172.015 61.7351L170.262 48.696L166.981 42.8143C166.981 42.8143 165.283 44.7314 163.092 42.4935L156.293 44.9682L156.745 52.341C156.745 52.3449 154.546 62.3121 154.546 62.3121Z" fill="#5555C9"/>
<path d="M155.631 52.4459L170.992 52.7146C170.992 52.7146 172.881 49.872 174.049 49.3752C174.049 49.3752 171.673 42.9066 165.233 42.3771C164.28 42.2986 163.381 42.2427 162.533 42.2268L155.631 52.4459Z" fill="#5555C9"/>
<path d="M162.685 42.6264C163.117 41.2181 163.241 39.6631 163.07 37.9673L166.067 39.6109L166.651 42.9233C166.651 42.9233 165.097 44.6789 162.685 42.6264Z" fill="#FFB587"/>
<path d="M167.567 34.2703C168.434 35.72 169.52 40.4555 167.325 40.8819C165.032 41.3277 163.452 38.8656 163.452 38.8656C163.452 38.8656 162.404 39.4693 161.952 38.5398C161.544 37.7015 162.547 37.0985 162.993 37.4021C162.993 37.4021 162.107 35.3205 163.23 34.2961C164.353 33.2716 166.628 32.6992 167.567 34.2703Z" fill="#FFB587"/>
<path d="M174.139 50.9919C174.016 50.6673 174.147 50.2783 174.149 50.2745L173.965 50.2167C173.959 50.235 173.81 50.6718 173.958 51.06L174.139 50.9919Z" fill="#47393D"/>
<path d="M162.993 37.4021C162.993 37.4021 165.874 36.6349 166.542 34.5128C166.542 34.5128 167.473 35.8433 168.454 36.114C168.454 36.114 168.676 32.993 165.829 32.822C162.981 32.651 161.972 35.4248 162.319 36.3471C162.542 36.9381 162.993 37.4021 162.993 37.4021Z" fill="#47393D"/>
<path d="M180.532 34.961C182.322 37.2394 184.768 38.3609 185.994 37.4655C187.22 36.5704 186.763 33.9978 184.972 31.7194C183.182 29.441 180.736 28.3198 179.51 29.2149C178.284 30.1098 178.741 32.6824 180.532 34.961Z" fill="white"/>
<path d="M181.162 33.2278L179.672 33.944L181.246 36.3213L182.587 35.1006L181.162 33.2278Z" fill="#47393D"/>
<path d="M181.433 34.5196C181.817 35.0403 182.323 35.3095 182.564 35.121C182.805 34.9322 182.689 34.3571 182.306 33.8364C181.922 33.3158 181.416 33.0466 181.175 33.2351C180.934 33.4237 181.05 33.9987 181.433 34.5196Z" fill="#F75C5C"/>
<path d="M176.534 39.6006L178.321 43.3922C178.396 43.5517 178.606 43.6027 178.75 43.497L179.555 42.9089C179.684 42.8145 179.73 42.6476 179.667 42.5036L177.806 38.272L176.534 39.6006Z" fill="#47393D"/>
<path d="M174.62 39.6354C175.061 40.1967 175.637 40.5187 176.021 40.4503L185.654 37.69C183.989 38.0891 181.97 36.7908 180.531 34.9606C179.227 33.3004 178.29 31.0642 179.152 29.47L174.173 38.1416C174.022 38.4843 174.19 39.0885 174.62 39.6354Z" fill="#F75C5C"/>
<path d="M174.62 39.6355C175.061 40.1969 175.637 40.5189 176.021 40.4505L177.341 40.062C176.83 39.9929 176.162 39.5431 175.621 38.8538C175.092 38.181 174.824 37.4585 174.876 36.9668L174.173 38.1415C174.022 38.4844 174.19 39.0886 174.62 39.6355Z" fill="#47393D"/>
<path d="M183.386 37.5844C182.325 37.0977 181.252 36.2091 180.367 35.0821C178.478 32.679 178.047 30.0317 179.385 29.0549C180.723 28.0784 183.251 29.1953 185.139 31.5984C186.025 32.7254 186.622 33.9611 186.82 35.0775C187.027 36.2402 186.779 37.1452 186.12 37.6256C185.794 37.864 185.39 37.9806 184.931 37.9755C184.466 37.9702 183.943 37.8397 183.386 37.5844ZM179.636 29.3745C178.522 30.1875 179.009 32.6903 180.698 34.8398C181.544 35.9165 182.562 36.7627 183.564 37.2222C184.522 37.6615 185.341 37.6913 185.869 37.3056C186.397 36.92 186.589 36.1528 186.41 35.1449C186.223 34.0906 185.653 32.9171 184.807 31.8404C183.499 30.1762 181.785 29.1238 180.56 29.1103C180.203 29.1064 179.888 29.191 179.636 29.3745Z" fill="#47393D"/>
<path d="M187.19 33.2696L191.953 32.7073L191.915 32.4089L187.152 32.9712L187.19 33.2696Z" fill="#47393D"/>
<path d="M186.382 30.5501L189.426 28.0017L189.222 27.7747L186.177 30.323L186.382 30.5501Z" fill="#47393D"/>
<path d="M183.657 28.6811L184.734 26.7885L184.46 26.6438L183.383 28.5364L183.657 28.6811Z" fill="#47393D"/>
<path d="M151.429 64.7762C151.429 64.7762 150.996 66.7256 151.485 67.5571C151.539 67.6518 151.666 67.6217 151.659 67.4632C151.647 67.1793 151.566 66.7078 151.643 66.7099C151.799 66.7126 151.787 68.0371 152.128 68.0144C152.381 67.9964 152.026 66.5067 152.099 66.4946C152.248 66.4732 152.284 67.8625 152.61 67.8321C152.918 67.803 152.446 66.635 152.544 66.5939C152.649 66.5479 152.829 67.5302 153.038 67.5208C153.356 67.5082 152.851 65.9509 152.959 65.8772C153.131 65.7575 153.402 66.5486 153.642 66.4359C153.87 66.3297 152.946 64.7889 152.955 64.6047C153.041 62.7475 154.589 55.9317 154.589 55.9317L157.431 51.0582L152.547 49.1926C152.547 49.1926 150.981 51.3674 150.273 54.0928C149.004 58.9775 151.429 64.7762 151.429 64.7762Z" fill="#FFB587"/>
<path d="M150.408 51.9559C150.408 51.9559 153.381 54.5529 156.647 54.2644L161.772 49.0567L161.855 48.4993L161.886 48.2907L162.377 44.9999L162.405 44.7993L162.729 42.6235L162.788 42.2264C152.909 42.9927 150.408 51.9559 150.408 51.9559Z" fill="#5555C9"/>
<path d="M179.733 41.459C179.813 41.5714 179.773 41.7258 179.646 41.7858C179.42 41.8936 179.132 41.9676 179.029 41.8985C178.848 41.7766 179.168 41.5606 179.409 41.4009C179.515 41.3306 179.66 41.3564 179.733 41.459Z" fill="#FFB587"/>
<path d="M179.422 41.2206C179.455 41.3215 179.413 41.4306 179.319 41.4843C179.085 41.6179 178.694 41.7699 178.551 41.6192C178.459 41.5233 178.776 41.276 179.046 41.0841C179.176 40.9911 179.373 41.0706 179.422 41.2206Z" fill="#FFB587"/>
<path d="M179.061 40.7309C179.143 40.8265 179.132 40.9674 179.034 41.0471C178.824 41.2178 178.495 41.4025 178.213 41.3093C177.972 41.2294 178.433 40.8828 178.717 40.6707C178.817 40.5963 178.959 40.6124 179.04 40.7066L179.061 40.7309Z" fill="#FFB587"/>
<path d="M178.92 40.2807C179.016 40.4067 178.978 40.5836 178.839 40.6612C178.584 40.803 178.244 40.9239 178.082 40.8517C177.909 40.7744 178.255 40.4676 178.52 40.2393C178.64 40.1365 178.825 40.1555 178.92 40.2807Z" fill="#FFB587"/>
<path d="M176.78 41.554C177.053 40.8582 177.718 40.0946 177.868 40.2564C178.018 40.418 177.546 40.9719 177.587 41.2195C177.641 41.5453 177.678 41.8446 177.273 42.3766L176.78 41.554Z" fill="#FFB587"/>
<path d="M154.485 55.8219L154.495 55.6213C154.49 55.621 153.95 55.5941 153.779 55.1825L153.586 55.2586C153.807 55.7908 154.458 55.8207 154.485 55.8219Z" fill="#47393D"/>
<path d="M174.884 90.4972H184.125C184.136 90.3898 184.158 90.0582 184.088 89.7105C184.084 89.7032 175.014 89.7615 175.014 89.7615L174.884 90.4972Z" fill="#47393D"/>
<path d="M175.014 89.7614L184.084 89.7031C183.997 88.7817 182.818 88.3483 181.718 88.0733C181.644 88.055 181.572 88.0386 181.499 88.0205C181.342 87.9842 181.188 87.9514 181.041 87.9187C180.965 87.9023 180.891 87.8859 180.82 87.8712C180.44 87.7874 180.124 87.7164 179.943 87.6326C179.779 87.556 179.581 87.445 179.408 87.3431C179.349 87.3084 179.295 87.274 179.245 87.2429C179.082 87.1427 178.965 87.0664 178.965 87.0664C178.371 87.2576 177.477 87.8057 175.514 86.9335L175.455 87.2684L175.422 87.4577L175.014 89.7614Z" fill="#F75C5C"/>
<path d="M181.5 88.0205C181.637 88.3319 181.652 88.6669 181.652 88.6707L181.838 88.6635C181.836 88.6452 181.825 88.3721 181.719 88.0735C181.645 88.0549 181.572 88.0386 181.5 88.0205Z" fill="#47393D"/>
<path d="M180.821 87.8711C180.973 88.1935 180.988 88.5504 180.988 88.5541L181.173 88.5485C181.173 88.5285 181.16 88.2316 181.042 87.9185C180.966 87.9022 180.891 87.8858 180.821 87.8711Z" fill="#47393D"/>
<path d="M175.422 87.4577C176.231 87.8529 176.923 87.9895 177.496 87.9895C178.555 87.9895 179.203 87.5196 179.409 87.3429C179.349 87.3082 179.295 87.2737 179.245 87.2427C178.9 87.5321 177.637 88.3589 175.455 87.2682L175.422 87.4577Z" fill="#47393D"/>
<path d="M149.732 103.781H158.973C158.984 103.673 159.006 103.342 158.936 102.994C158.932 102.987 149.862 103.045 149.862 103.045L149.732 103.781Z" fill="#47393D"/>
<path d="M149.862 103.045L158.932 102.987C158.845 102.065 157.667 101.632 156.566 101.357C156.492 101.339 156.42 101.322 156.347 101.304C156.19 101.268 156.036 101.235 155.889 101.202C155.813 101.186 155.739 101.169 155.668 101.155C155.288 101.071 154.973 101 154.791 100.916C154.628 100.839 154.429 100.728 154.256 100.627C154.197 100.592 154.143 100.557 154.093 100.526C153.93 100.426 153.813 100.35 153.813 100.35C153.219 100.541 152.325 101.089 150.363 100.217L150.303 100.552L150.27 100.741L149.862 103.045Z" fill="#F75C5C"/>
<path d="M156.348 101.304C156.485 101.616 156.5 101.951 156.5 101.954L156.685 101.947C156.683 101.929 156.672 101.656 156.566 101.357C156.492 101.339 156.42 101.323 156.348 101.304Z" fill="#47393D"/>
<path d="M155.668 101.155C155.821 101.477 155.836 101.834 155.836 101.838L156.021 101.832C156.021 101.812 156.008 101.515 155.889 101.202C155.813 101.186 155.739 101.169 155.668 101.155Z" fill="#47393D"/>
<path d="M150.27 100.742C151.079 101.137 151.771 101.273 152.344 101.273C153.403 101.273 154.051 100.803 154.257 100.627C154.197 100.592 154.144 100.558 154.094 100.526C153.748 100.816 152.485 101.643 150.303 100.552L150.27 100.742Z" fill="#47393D"/>
<path d="M157.998 99.0018L157.827 98.936C157.884 98.7927 163.545 84.4434 165.376 69.8583L165.558 69.8804C163.724 84.4884 158.055 98.8582 157.998 99.0018Z" fill="#47393D"/>
<path d="M166.599 41.1513C165.099 41.1513 164.347 39.9419 164.315 39.8901L164.526 39.7668C164.533 39.7782 165.241 40.9105 166.599 40.9105C166.603 40.9105 166.608 40.9105 166.612 40.9105L166.614 41.1513C166.609 41.1513 166.604 41.1513 166.599 41.1513Z" fill="#47393D"/>
<path d="M163.257 37.4088C163.12 37.4088 163.038 37.3997 163.034 37.399L163.065 37.1601C163.171 37.1731 165.662 37.4418 166.423 34.4832L166.661 34.5422C165.982 37.1818 163.939 37.4088 163.257 37.4088Z" fill="#47393D"/>
<path d="M170.355 48.6821L170.172 48.7058L171.926 61.745L172.108 61.7213L170.355 48.6821Z" fill="#47393D"/>
<path d="M156.229 53.3217C153.757 53.3217 151.059 51.0705 150.936 50.9663L151.056 50.8295C151.088 50.8567 154.321 53.5536 156.858 53.0857L156.893 53.2632C156.674 53.3034 156.453 53.3217 156.229 53.3217Z" fill="#47393D"/>
<path d="M170.778 51.6051L170.607 51.5377C170.652 51.4288 171.719 48.8651 173.403 48.217L173.47 48.3851C171.861 49.0045 170.789 51.5791 170.778 51.6051Z" fill="#47393D"/>
<path d="M212.471 77.2118V95.8918C210.229 100.268 208.277 103.097 207.872 103.671C207.818 103.746 207.792 103.781 207.792 103.781H172.57V92.8151C172.57 91.5597 173.608 90.5415 174.887 90.5415H183.615C184.894 90.5415 185.929 89.5255 185.929 88.2701V79.4854C185.929 78.23 186.966 77.2118 188.245 77.2118H212.471Z" fill="#E89477"/>
<path d="M170.884 84.3621L170.706 84.3166L173.778 72.7347H173.849C173.857 72.7347 174.664 72.7287 174.947 72.2993L175.101 72.3976C174.816 72.8306 174.143 72.9014 173.921 72.9132L170.884 84.3621Z" fill="#47393D"/>
<path d="M166.356 67.673L165.387 69.8964L165.556 69.9674L166.525 67.744L166.356 67.673Z" fill="#47393D"/>
<path d="M174.408 98.6664H174.224V94.5287C174.224 93.2254 175.304 92.1653 176.632 92.1653H185.359C186.585 92.1653 187.583 91.1861 187.583 89.9825V81.199C187.583 79.8959 188.663 78.8356 189.99 78.8356H194.283V79.0162H189.99C188.764 79.0162 187.767 79.9951 187.767 81.199V89.9825C187.767 91.2858 186.687 92.3459 185.359 92.3459H176.632C175.406 92.3459 174.408 93.3251 174.408 94.5287V98.6664Z" fill="#47393D"/>
<path d="M172.663 94.2175H172.479V103.875H172.663V94.2175Z" fill="#47393D"/>
<path d="M221.006 68.775C220.912 70.5836 220.724 72.3632 220.459 74.0995C219.144 82.8291 215.954 90.5257 213.207 95.8911C210.964 100.267 209.014 103.096 208.609 103.672C208.555 103.747 208.528 103.78 208.528 103.78H208.496L195.856 103.893C195.798 103.857 195.741 103.819 195.682 103.78C193.521 102.369 191.568 100.503 189.966 98.2511C188.447 96.1222 187.255 92.8279 188.734 90.6557C189.716 89.2132 191.443 88.9772 192.991 88.9507C193.646 88.9411 194.306 88.9483 194.961 88.9748C196.816 89.0494 198.668 89.271 200.498 89.6418C200.501 89.6418 200.503 89.6418 200.508 89.6443C201.185 89.7815 201.857 89.9356 202.527 90.1138C202.473 90.0609 202.417 90.0055 202.36 89.9453C202.284 89.8634 202.208 89.7743 202.13 89.678C198.41 85.1578 193.57 67.2241 200.452 65.8202C201.877 65.5288 203.447 66.1525 204.787 67.2675C206.273 68.5053 207.468 70.3524 207.863 72.2307C207.873 72.0766 207.893 71.9225 207.915 71.7756C207.915 71.7756 207.917 71.7732 207.915 71.7732C208.27 69.5769 210.083 67.8238 211.946 67.9779C213.933 68.1489 215.621 70.4728 215.498 72.8737C215.971 71.8334 216.619 70.8773 217.394 70.1501C217.399 70.1453 217.407 70.1404 217.412 70.1356C217.807 69.7648 218.233 69.4565 218.687 69.2253C219.099 69.0158 219.531 68.8689 219.98 68.7991C220.341 68.7437 220.684 68.7365 221.006 68.775Z" fill="#7178D5"/>
<path d="M210.415 92.5826C204.749 89.3597 195.055 89.1475 194.958 89.1456L194.961 88.9233C195.059 88.925 204.798 89.1382 210.506 92.3846L210.415 92.5826Z" fill="#47393D"/>
<path d="M214.518 80.0156L214.319 80.0125C214.32 79.9267 214.478 71.4276 218.663 69.1687L218.75 69.3688C214.676 71.568 214.52 79.9316 214.518 80.0156Z" fill="#47393D"/>
<path d="M210.251 83.6507C209.099 70.2665 204.775 67.4032 204.731 67.376L204.829 67.1821C205.01 67.2953 209.286 70.1076 210.45 83.6295L210.251 83.6507Z" fill="#47393D"/>
<path d="M215.287 82.8465L215.088 82.8412C215.094 82.5619 215.251 75.9724 216.645 73.7593L216.808 73.8869C215.449 76.0454 215.289 82.7789 215.287 82.8465Z" fill="#47393D"/>
<path d="M204.463 91.5306C198.178 89.7871 192.606 90.3773 192.551 90.3834L192.531 90.1623C192.587 90.156 198.191 89.5617 204.511 91.3146L204.463 91.5306Z" fill="#47393D"/>
<path d="M196.827 103.199C194.122 101.964 191.608 98.4249 191.583 98.3892L191.74 98.252C191.764 98.2871 194.247 101.781 196.903 102.993L196.827 103.199Z" fill="#47393D"/>
<path d="M141.013 82.5723C141.011 82.2292 141.007 74.1545 144.726 72.9514L144.783 73.1231C141.19 74.2853 141.196 82.4888 141.197 82.5714L141.013 82.5723Z" fill="#47393D"/>
<path d="M146.201 90.4184L146.02 90.3849C146.691 86.8625 149.646 75.6033 154.271 70.2545L154.412 70.3711C149.812 75.6905 146.869 86.908 146.201 90.4184Z" fill="#47393D"/>
<path d="M172.81 83.3152L172.63 83.2796C172.685 83.0142 173.984 76.7645 175.234 75.047L175.384 75.152C174.157 76.8382 172.823 83.2509 172.81 83.3152Z" fill="#47393D"/>
<path d="M141.591 87.0655C141.468 80.8989 139.086 77.6394 139.062 77.6074L139.21 77.5007C139.234 77.5332 141.651 80.8339 141.775 87.0619L141.591 87.0655Z" fill="#47393D"/>
<path d="M144.614 95.0975H144.43C144.43 95.0464 144.452 89.9406 146.315 84.901L146.488 84.9627C144.636 89.9726 144.614 95.0469 144.614 95.0975Z" fill="#47393D"/>
<path d="M124.87 97.4552C123.276 95.8073 123.338 92.9215 123.342 92.7994L123.526 92.8047C123.525 92.8339 123.462 95.7381 125.004 97.3311L124.87 97.4552Z" fill="#47393D"/>
<path d="M137.285 95.5147L137.102 95.5002C137.111 95.387 138.031 84.123 137.228 77.811L137.41 77.7883C138.216 84.1189 137.295 95.4017 137.285 95.5147Z" fill="#47393D"/>
<path d="M161.496 63.0109C157.996 63.0109 156.186 61.8217 156.162 61.8058L156.267 61.6572C156.297 61.6779 159.401 63.7092 165.381 62.3811L165.422 62.5576C163.939 62.8861 162.629 63.0109 161.496 63.0109Z" fill="#47393D"/>
<path d="M157.015 54.1248L156.834 54.0896C156.862 53.9526 157.534 50.7172 159.588 49.3593L159.691 49.509C157.7 50.8251 157.021 54.092 157.015 54.1248Z" fill="#47393D"/>
</svg>
