<svg width="195" height="145" viewBox="0 0 195 145" fill="none" xmlns="http://www.w3.org/2000/svg">
<path d="M175.334 133.885H162.426V133.982H175.334V133.885Z" fill="#EBEBEB"/>
<path d="M129.082 134.942H125.694V135.04H129.082V134.942Z" fill="#EBEBEB"/>
<path d="M162.036 130.266H154.557V130.363H162.036V130.266Z" fill="#EBEBEB"/>
<path d="M37.2774 130.92H20.4443V131.018H37.2774V130.92Z" fill="#EBEBEB"/>
<path d="M43.2156 130.92H40.7476V131.018H43.2156V130.92Z" fill="#EBEBEB"/>
<path d="M87.744 132.566H51.2368V132.663H87.744V132.566Z" fill="#EBEBEB"/>
<path d="M92.3683 110.231H17.1142C15.8877 110.231 14.8896 109.233 14.8896 108.006V2.22451C14.8896 0.998067 15.8877 0 17.1142 0H92.3683C93.5943 0 94.5924 0.998067 94.5924 2.22451V108.006C94.5924 109.233 93.5943 110.231 92.3683 110.231ZM17.1142 0.097819C15.9411 0.097819 14.9871 1.05185 14.9871 2.2249V108.007C14.9871 109.18 15.9411 110.134 17.1142 110.134H92.3683C93.541 110.134 94.495 109.18 94.495 108.007V2.22451C94.495 1.05185 93.541 0.0974295 92.3683 0.0974295L17.1142 0.097819Z" fill="#EBEBEB"/>
<path d="M176.663 110.231H101.409C100.183 110.231 99.1851 109.233 99.1851 108.006V2.22451C99.1851 0.998067 100.183 0 101.409 0H176.663C177.89 0 178.887 0.998067 178.887 2.22451V108.006C178.888 109.233 177.89 110.231 176.663 110.231ZM101.409 0.097819C100.237 0.097819 99.2825 1.05185 99.2825 2.2249V108.007C99.2825 109.18 100.237 110.134 101.409 110.134H176.663C177.836 110.134 178.79 109.18 178.79 108.007V2.22451C178.79 1.05185 177.836 0.0974295 176.663 0.0974295L101.409 0.097819Z" fill="#EBEBEB"/>
<path d="M194.859 127.612H0V127.709H194.859V127.612Z" fill="#EBEBEB"/>
<path d="M150.39 104.149C150.347 104.112 150.324 104.058 150.321 104.001C150.273 102.965 149.65 92.7941 143.421 85.8268C138.152 79.9323 143.557 84.1385 145.902 86.0341C146.09 86.1861 146.349 85.9636 146.226 85.7555C144.573 82.9604 140.424 75.5733 141.863 74.1352C143.222 72.7755 146.03 79.5231 147.284 82.7948C147.374 83.0317 147.729 82.9472 147.702 82.695C147.341 79.2312 146.815 71.9879 148.766 72.2424C150.698 72.4945 150.158 82.0644 149.777 86.7481C149.756 87.0076 150.125 87.0778 150.201 86.8283C151.073 83.9464 152.732 79.6875 154.68 80.8158C157.562 82.4861 150.436 88.3506 150.882 94.7155C151.318 100.954 151.434 105.047 150.39 104.149Z" fill="#F5F5F5"/>
<path d="M154.13 105.089C154.152 105.087 154.179 104.993 154.168 104.923C152.808 96.3036 161.936 90.0365 168.346 86.934C169.772 86.2438 171.253 85.529 172.471 84.4706C170.095 84.6288 167.724 85.6245 165.447 86.3872C165.147 86.4877 164.989 86.1767 165.248 85.9971C168.155 83.9776 176.251 76.5499 173.919 74.3878C172.864 73.4104 167.052 81.1619 165.684 82.552C165.464 82.7757 165.11 82.5765 165.265 82.3166C167.07 79.2967 167.665 69.7727 165.84 69.8889C165.064 69.938 164.772 74.4014 164.366 76.2159C163.605 79.6166 162.177 82.8111 160.686 85.939C160.554 86.2149 160.094 86.1678 160.163 85.8922C160.681 83.8104 160.874 77.7039 158.312 78.1443C156.454 78.4638 156.751 82.0582 156.734 83.9854C156.703 87.4047 156.417 90.9095 154.945 93.9559C153.943 96.0308 152.694 105.261 154.13 105.089Z" fill="#F5F5F5"/>
<path d="M152.063 106.045C152.092 106.02 152.108 105.984 152.109 105.946C152.141 105.251 152.56 98.4236 156.741 93.7462C160.278 89.7894 156.65 92.6129 155.076 93.8853C154.95 93.9874 154.776 93.8382 154.859 93.6983C155.968 91.8222 158.753 86.8634 157.788 85.8981C156.875 84.9853 154.99 89.5146 154.149 91.7107C154.088 91.8697 153.85 91.8132 153.868 91.6437C154.11 89.3186 154.463 84.4565 153.154 84.6272C151.857 84.7963 152.219 91.2204 152.475 94.3643C152.489 94.5385 152.241 94.5856 152.191 94.4181C151.606 92.4835 150.492 89.6249 149.184 90.3821C147.25 91.5034 152.033 95.4399 151.734 99.7124C151.44 103.901 151.363 106.648 152.063 106.045Z" fill="#E6E6E6"/>
<path d="M156.775 125.239C158.928 117.211 160.346 105.905 160.346 103.12H144.287C144.287 105.905 145.704 117.211 147.858 125.239C148.253 126.714 149.594 127.737 151.122 127.737H153.51C155.038 127.737 156.379 126.714 156.775 125.239Z" fill="#E6E6E6"/>
<path d="M159.883 108.435C160.003 107.459 160.1 106.569 160.174 105.788H144.458C144.533 106.569 144.63 107.459 144.75 108.435H159.883Z" fill="#F5F5F5"/>
<path d="M23.4622 71.5695H42.0728V52.9589H23.4622L23.4622 71.5695Z" fill="#F5F5F5"/>
<path d="M27.0526 69.7735H38.4822C39.4733 69.7735 40.2765 68.9703 40.2765 67.9793V56.5496C40.2765 55.5586 39.4733 54.7554 38.4822 54.7554H27.0526C26.0615 54.7554 25.2583 55.5586 25.2583 56.5496V67.9793C25.2583 68.9699 26.0619 69.7735 27.0526 69.7735Z" fill="#EBEBEB"/>
<path d="M35.8661 54.7554C35.7582 55.2659 35.3026 55.6525 34.7613 55.6525H30.7733C30.2316 55.6525 29.7764 55.2659 29.6685 54.7554H35.8661Z" fill="#E0E0E0"/>
<path d="M23.4622 90.1799H42.0728V71.5693H23.4622L23.4622 90.1799Z" fill="#F0F0F0"/>
<path d="M27.0526 88.3837H38.4822C39.4733 88.3837 40.2765 87.5805 40.2765 86.5895V75.1602C40.2765 74.1692 39.4733 73.366 38.4822 73.366H27.0526C26.0615 73.366 25.2583 74.1692 25.2583 75.1602V86.5899C25.2583 87.5805 26.0619 88.3837 27.0526 88.3837Z" fill="#FAFAFA"/>
<path d="M35.8661 73.366C35.7582 73.8765 35.3026 74.2631 34.7613 74.2631H30.7733C30.2316 74.2631 29.7764 73.8765 29.6685 73.366H35.8661Z" fill="#E0E0E0"/>
<path d="M23.4622 108.791H42.0728V90.1801H23.4622L23.4622 108.791Z" fill="#F5F5F5"/>
<path d="M27.0526 106.994H38.4822C39.4733 106.994 40.2765 106.191 40.2765 105.2V93.7703C40.2765 92.7793 39.4733 91.9761 38.4822 91.9761H27.0526C26.0615 91.9761 25.2583 92.7793 25.2583 93.7703V105.2C25.2583 106.191 26.0619 106.994 27.0526 106.994Z" fill="#EBEBEB"/>
<path d="M35.8658 91.9766C35.7578 92.4871 35.3022 92.8737 34.7609 92.8737H30.7733C30.2316 92.8737 29.7764 92.4871 29.6685 91.9766H35.8658Z" fill="#E0E0E0"/>
<path d="M23.4617 127.402H42.0723V108.791H23.4617L23.4617 127.402Z" fill="#F0F0F0"/>
<path d="M27.0526 125.605H38.4822C39.4733 125.605 40.2765 124.802 40.2765 123.811V112.381C40.2765 111.39 39.4733 110.587 38.4822 110.587H27.0526C26.0615 110.587 25.2583 111.39 25.2583 112.381V123.811C25.2583 124.802 26.0619 125.605 27.0526 125.605Z" fill="#FAFAFA"/>
<path d="M35.8658 110.587C35.7578 111.098 35.3022 111.484 34.7609 111.484H30.7733C30.2316 111.484 29.7764 111.098 29.6685 110.587H35.8658Z" fill="#E0E0E0"/>
<path d="M21.1821 127.401H23.4619L23.4619 52.9589H21.1821L21.1821 127.401Z" fill="#E6E6E6"/>
<path d="M170.964 14.345H152.854V32.4548H170.964V14.345Z" fill="#F0F0F0"/>
<path d="M170.964 32.4546H171.82V14.3448H170.964V32.4546Z" fill="#E6E6E6"/>
<path d="M169.325 15.9835H154.493V30.8154H169.325V15.9835Z" fill="#E6E6E6"/>
<path d="M167.866 17.4419H155.951V29.3575H167.866V17.4419Z" fill="#FAFAFA"/>
<path d="M171.273 35.3463H159.705V54.538H171.273V35.3463Z" fill="#F0F0F0"/>
<path d="M171.273 54.5377H171.82V35.3461H171.273V54.5377Z" fill="#E6E6E6"/>
<path d="M170.226 37.0828H160.751V52.8009H170.226V37.0828Z" fill="#E6E6E6"/>
<path d="M169.295 38.6282H161.683V51.2558H169.295V38.6282Z" fill="#FAFAFA"/>
<path d="M140.033 24.5593C144.519 24.5593 148.155 22.1411 148.155 19.1582C148.155 16.1752 144.519 13.7571 140.033 13.7571C135.548 13.7571 131.911 16.1752 131.911 19.1582C131.911 22.1411 135.548 24.5593 140.033 24.5593Z" fill="#E0E0E0"/>
<path d="M140.587 24.5593C145.073 24.5593 148.71 22.1411 148.71 19.1582C148.71 16.1752 145.073 13.7571 140.587 13.7571C136.102 13.7571 132.465 16.1752 132.465 19.1582C132.465 22.1411 136.102 24.5593 140.587 24.5593Z" fill="#EBEBEB"/>
<path d="M140.588 23.3804C144.094 23.3804 146.937 21.4901 146.937 19.1582C146.937 16.8264 144.094 14.936 140.588 14.936C137.081 14.936 134.238 16.8264 134.238 19.1582C134.238 21.4901 137.081 23.3804 140.588 23.3804Z" fill="#FAFAFA"/>
<path d="M97.4292 145C139.161 145 172.991 143.024 172.991 140.587C172.991 138.15 139.161 136.174 97.4292 136.174C55.6975 136.174 21.8672 138.15 21.8672 140.587C21.8672 143.024 55.6975 145 97.4292 145Z" fill="#F5F5F5"/>
<path d="M69.9678 138.621V139.924C69.9678 140.599 70.5149 141.146 71.1899 141.146H117.927C118.548 141.146 119.052 140.642 119.052 140.02V138.766C119.052 138.144 118.548 137.64 117.927 137.64H106.304C104.984 137.64 103.982 136.45 104.208 135.149L108.284 111.595H81.7388L70.3727 136.746C70.1057 137.335 69.9678 137.974 69.9678 138.621Z" fill="#407BFF"/>
<path opacity="0.2" d="M70.0856 137.594C70.0076 137.931 69.9663 138.273 69.9663 138.621V139.922C69.9663 140.596 70.5158 141.146 71.19 141.146H117.928C118.551 141.146 119.054 140.643 119.054 140.021V138.766C119.054 138.143 118.55 137.641 117.928 137.641H106.304C106.153 137.641 106.008 137.625 105.868 137.594H70.0856V137.594Z" fill="white"/>
<path d="M68.8695 136.746L80.2356 111.595H81.7383L70.3722 136.746C70.106 137.335 69.9681 137.975 69.9681 138.621V139.924C69.9681 140.599 70.5152 141.146 71.1902 141.146H69.6875C69.0125 141.146 68.4653 140.599 68.4653 139.924V138.621C68.4657 137.974 68.6033 137.335 68.8695 136.746Z" fill="#407BFF"/>
<g opacity="0.2">
<path d="M68.8695 136.746L80.2356 111.595H81.7383L70.3722 136.746C70.106 137.335 69.9681 137.975 69.9681 138.621V139.924C69.9681 140.599 70.5152 141.146 71.1902 141.146H69.6875C69.0125 141.146 68.4653 140.599 68.4653 139.924V138.621C68.4657 137.974 68.6033 137.335 68.8695 136.746Z" fill="black"/>
</g>
<path opacity="0.2" d="M81.7379 111.595H108.284L107.243 117.606H79.022L81.7379 111.595Z" fill="black"/>
<path d="M41.0708 114.235H154.332C156.619 114.235 158.31 112.381 158.11 110.094L150.95 28.2515C150.75 25.9646 148.734 24.1107 146.447 24.1107H33.186C30.8992 24.1107 29.2074 25.9646 29.4077 28.2515L36.5676 110.095C36.7679 112.381 38.7839 114.235 41.0708 114.235Z" fill="#263238"/>
<path d="M157.336 101.244L158.11 110.095C158.31 112.381 156.619 114.235 154.332 114.235H41.0706C38.7838 114.235 36.7678 112.381 36.5678 110.095L35.7935 101.244H157.336Z" fill="#407BFF"/>
<path d="M39.7905 98.744H152.901C154.142 98.744 155.059 97.7389 154.95 96.4988L149.032 28.8559C148.924 27.6158 147.831 26.6107 146.591 26.6107H33.4798C32.2397 26.6107 31.3227 27.6158 31.4311 28.8559L37.3489 96.4988C37.4577 97.7389 38.5504 98.744 39.7905 98.744Z" fill="#407BFF"/>
<path d="M39.7905 98.744H152.901C154.142 98.744 155.059 97.7389 154.95 96.4988L149.032 28.8559C148.924 27.6158 147.831 26.6107 146.591 26.6107H33.4798C32.2397 26.6107 31.3227 27.6158 31.4311 28.8559L37.3489 96.4988C37.4577 97.7389 38.5504 98.744 39.7905 98.744Z" fill="#407BFF"/>
<path d="M30.682 24.1111H33.1863C30.8994 24.1111 29.2077 25.965 29.408 28.2518L36.5679 110.095C36.7678 112.381 38.7838 114.235 41.0707 114.235H38.5667C36.2799 114.235 34.2639 112.381 34.0639 110.095L26.9033 28.2514C26.7033 25.965 28.3951 24.1111 30.682 24.1111Z" fill="#407BFF"/>
<path opacity="0.2" d="M30.682 24.1111H33.1863C30.8994 24.1111 29.2077 25.965 29.408 28.2518L36.5679 110.095C36.7678 112.381 38.7838 114.235 41.0707 114.235H38.5667C36.2799 114.235 34.2639 112.381 34.0639 110.095L26.9033 28.2514C26.7033 25.965 28.3951 24.1111 30.682 24.1111Z" fill="#407BFF"/>
<g opacity="0.3">
<path d="M34.9985 26.6107H39.3493L54.6816 98.744H50.3312L34.9985 26.6107Z" fill="white"/>
<path d="M59.0789 98.744L43.7466 26.6107H60.0925L75.4252 98.744H59.0789Z" fill="white"/>
</g>
<path opacity="0.6" d="M157.336 101.244L158.11 110.095C158.31 112.381 156.619 114.235 154.332 114.235H41.0706C38.7838 114.235 36.7678 112.381 36.5678 110.095L35.7935 101.244H157.336Z" fill="white"/>
<path opacity="0.2" d="M30.682 24.189H33.1863C30.8994 24.189 29.2077 26.0429 29.408 28.3297L36.5679 110.172C36.7678 112.459 38.7838 114.313 41.0707 114.313H38.5667C36.2799 114.313 34.2639 112.459 34.0639 110.172L26.9033 28.3293C26.7033 26.0429 28.3951 24.189 30.682 24.189Z" fill="white"/>
<path d="M44.7499 131.932C44.7348 131.956 44.8618 132.07 44.4296 132.098C43.3653 132.167 41.4872 132.146 40.808 131.244C39.8387 129.955 42.1599 130.016 41.9553 129.297C41.7507 128.578 39.2354 129.233 38.7783 128.211C38.3212 127.188 40.1318 127.344 40.0632 126.814C39.9946 126.283 38.0686 127.021 37.4724 125.94C36.8765 124.858 38.5242 125.403 38.2678 124.955C38.0113 124.507 35.9532 122.668 36.8219 122.224C37.6906 121.78 39.6185 123.706 40.2674 123.901C40.9163 124.096 41.1248 122.154 41.9666 122.78C42.8084 123.407 42.1575 126.348 43.1509 126.686C43.8906 126.937 43.5138 125.899 44.4354 125.916C45.6876 125.939 45.9795 130.032 44.7499 131.932Z" fill="#407BFF"/>
<g opacity="0.3">
<path d="M44.7499 131.932C44.7348 131.956 44.8618 132.07 44.4296 132.098C43.3653 132.167 41.4872 132.146 40.808 131.244C39.8387 129.955 42.1599 130.016 41.9553 129.297C41.7507 128.578 39.2354 129.233 38.7783 128.211C38.3212 127.188 40.1318 127.344 40.0632 126.814C39.9946 126.283 38.0686 127.021 37.4724 125.94C36.8765 124.858 38.5242 125.403 38.2678 124.955C38.0113 124.507 35.9532 122.668 36.8219 122.224C37.6906 121.78 39.6185 123.706 40.2674 123.901C40.9163 124.096 41.1248 122.154 41.9666 122.78C42.8084 123.407 42.1575 126.348 43.1509 126.686C43.8906 126.937 43.5138 125.899 44.4354 125.916C45.6876 125.939 45.9795 130.032 44.7499 131.932Z" fill="white"/>
</g>
<path d="M45.2596 133.078C46.0808 133.13 47.5177 132.428 48.1011 131.71C48.6934 130.981 47.0999 131.379 47.2873 130.795C47.4748 130.21 49.3949 130.732 49.7897 129.901C50.1845 129.069 48.7772 129.203 48.8517 128.772C48.9261 128.341 50.3716 128.493 50.8766 127.613C51.3813 126.732 50.0843 127.181 50.301 126.817C50.5177 126.452 52.1845 124.951 51.5302 124.594C50.8759 124.237 49.3061 125.808 48.7959 125.969C48.2862 126.129 48.2184 124.994 47.5414 125.506C46.8645 126.018 47.2499 128.402 46.4674 128.68C45.8847 128.887 46.1755 127.816 45.5044 128.06C44.3294 128.488 44.9264 133.057 45.2596 133.078Z" fill="#407BFF"/>
<g opacity="0.2">
<path d="M45.2596 133.078C46.0808 133.13 47.5177 132.428 48.1011 131.71C48.6934 130.981 47.0999 131.379 47.2873 130.795C47.4748 130.21 49.3949 130.732 49.7897 129.901C50.1845 129.069 48.7772 129.203 48.8517 128.772C48.9261 128.341 50.3716 128.493 50.8766 127.613C51.3813 126.732 50.0843 127.181 50.301 126.817C50.5177 126.452 52.1845 124.951 51.5302 124.594C50.8759 124.237 49.3061 125.808 48.7959 125.969C48.2862 126.129 48.2184 124.994 47.5414 125.506C46.8645 126.018 47.2499 128.402 46.4674 128.68C45.8847 128.887 46.1755 127.816 45.5044 128.06C44.3294 128.488 44.9264 133.057 45.2596 133.078Z" fill="white"/>
</g>
<path d="M43.7851 122.303C43.7508 122.355 44.0255 122.638 43.082 122.638C40.7589 122.638 36.6638 122.314 35.2097 120.142C33.1341 117.041 38.1942 117.525 37.769 115.844C37.3438 114.164 31.8394 115.297 30.8729 112.883C29.9064 110.469 33.8504 111.094 33.7167 109.867C33.5826 108.64 29.3604 110.05 28.0931 107.48C26.8257 104.909 30.4025 106.403 29.8565 105.337C29.3106 104.272 24.8771 99.746 26.7848 98.8559C28.6925 97.9658 32.8398 102.67 34.2491 103.213C35.6579 103.756 36.1704 99.329 37.9876 100.892C39.8049 102.455 38.2982 109.107 40.4545 110.029C42.0606 110.715 41.269 108.277 43.2784 108.452C46.0084 108.689 46.5232 118.124 43.7851 122.303Z" fill="#407BFF"/>
<g opacity="0.3">
<path d="M43.7851 122.303C43.7508 122.355 44.0255 122.638 43.082 122.638C40.7589 122.638 36.6638 122.314 35.2097 120.142C33.1341 117.041 38.1942 117.525 37.769 115.844C37.3438 114.164 31.8394 115.297 30.8729 112.883C29.9064 110.469 33.8504 111.094 33.7167 109.867C33.5826 108.64 29.3604 110.05 28.0931 107.48C26.8257 104.909 30.4025 106.403 29.8565 105.337C29.3106 104.272 24.8771 99.746 26.7848 98.8559C28.6925 97.9658 32.8398 102.67 34.2491 103.213C35.6579 103.756 36.1704 99.329 37.9876 100.892C39.8049 102.455 38.2982 109.107 40.4545 110.029C42.0606 110.715 41.269 108.277 43.2784 108.452C46.0084 108.689 46.5232 118.124 43.7851 122.303Z" fill="white"/>
</g>
<path d="M46.4273 124.836C48.3334 124.956 51.6694 123.327 53.0241 121.66C54.3986 119.968 50.6998 120.893 51.1351 119.536C51.5704 118.179 56.0276 119.391 56.9446 117.461C57.8616 115.53 54.5939 115.84 54.7669 114.841C54.9399 113.841 58.2958 114.193 59.4677 112.149C60.6396 110.106 57.6286 111.147 58.1309 110.301C58.6337 109.455 62.5032 105.97 60.9841 105.142C59.4649 104.313 55.8207 107.96 54.6367 108.333C53.4532 108.706 53.2957 106.07 51.7248 107.258C50.1534 108.447 51.0478 113.982 49.2313 114.627C47.8786 115.107 48.554 112.621 46.9959 113.188C44.2679 114.18 45.6533 124.787 46.4273 124.836Z" fill="#407BFF"/>
<g opacity="0.2">
<path d="M46.4273 124.836C48.3334 124.956 51.6694 123.327 53.0241 121.66C54.3986 119.968 50.6998 120.893 51.1351 119.536C51.5704 118.179 56.0276 119.391 56.9446 117.461C57.8616 115.53 54.5939 115.84 54.7669 114.841C54.9399 113.841 58.2958 114.193 59.4677 112.149C60.6396 110.106 57.6286 111.147 58.1309 110.301C58.6337 109.455 62.5032 105.97 60.9841 105.142C59.4649 104.313 55.8207 107.96 54.6367 108.333C53.4532 108.706 53.2957 106.07 51.7248 107.258C50.1534 108.447 51.0478 113.982 49.2313 114.627C47.8786 115.107 48.554 112.621 46.9959 113.188C44.2679 114.18 45.6533 124.787 46.4273 124.836Z" fill="white"/>
</g>
<path d="M45.188 130.583C45.1919 130.583 45.1961 130.582 45.2004 130.582C45.2834 130.576 45.3454 130.503 45.3388 130.42C44.0726 114.762 35.3569 108.062 35.2693 107.996C35.2026 107.946 35.1079 107.96 35.058 108.026C35.0081 108.093 35.0214 108.188 35.088 108.238C35.1749 108.303 43.783 114.93 45.0375 130.444C45.0438 130.523 45.11 130.583 45.188 130.583Z" fill="#407BFF"/>
<path d="M37.2227 110.244C37.2839 110.244 37.3419 110.206 37.3645 110.145C37.3934 110.067 37.3536 109.98 37.2757 109.951C37.2207 109.93 35.9015 109.453 33.6926 109.828C33.6104 109.842 33.555 109.92 33.5691 110.003C33.5831 110.085 33.661 110.141 33.7433 110.126C35.8661 109.766 37.158 110.23 37.1708 110.234C37.1876 110.241 37.2055 110.244 37.2227 110.244Z" fill="#407BFF"/>
<path d="M38.8041 112.204C38.8839 112.204 38.9506 112.142 38.9549 112.061C39.1942 107.35 36.617 103.558 36.5908 103.52C36.5437 103.451 36.4494 103.434 36.3808 103.481C36.3122 103.528 36.2947 103.622 36.3422 103.691C36.3675 103.728 38.8871 107.44 38.6528 112.045C38.6486 112.128 38.7129 112.199 38.7959 112.203C38.799 112.204 38.8013 112.204 38.8041 112.204Z" fill="#407BFF"/>
<path d="M41.3138 116.302C41.352 116.302 41.3898 116.288 41.419 116.258C41.4787 116.2 41.4798 116.105 41.4218 116.045C41.4023 116.025 39.4592 114.076 36.7763 114.915C36.6968 114.94 36.6524 115.024 36.6774 115.104C36.7023 115.183 36.7869 115.228 36.8664 115.203C39.3746 114.418 41.1876 116.237 41.2055 116.256C41.2351 116.286 41.2745 116.302 41.3138 116.302Z" fill="#407BFF"/>
<path d="M42.5973 119.141C42.6538 119.141 42.7076 119.109 42.7337 119.054C42.7801 118.957 43.8659 116.628 43.459 113.231C43.4489 113.148 43.3768 113.088 43.291 113.099C43.2084 113.109 43.1492 113.184 43.1589 113.267C43.5549 116.573 42.4718 118.901 42.4609 118.924C42.4251 118.999 42.4574 119.089 42.5322 119.125C42.5533 119.136 42.5755 119.141 42.5973 119.141Z" fill="#407BFF"/>
<path d="M44.8994 136.145C44.9778 136.145 45.044 136.084 45.0499 136.005L45.4147 131.887C46.5534 118.189 56.347 109.242 56.446 109.154C56.508 109.098 56.5134 109.003 56.4577 108.941C56.4016 108.879 56.3065 108.874 56.2445 108.929C56.1448 109.019 46.2631 118.042 45.1142 131.863L44.7494 135.983C44.7436 136.066 44.8059 136.139 44.8889 136.145C44.892 136.145 44.8955 136.145 44.8994 136.145Z" fill="#407BFF"/>
<path d="M52.353 114.149C52.3612 114.149 52.3694 114.148 52.378 114.147C52.3912 114.145 52.4076 114.139 52.4228 114.132L52.4723 114.114C53.7252 113.653 55.113 113.444 56.3788 113.523C56.4634 113.531 56.5339 113.466 56.539 113.382C56.5445 113.299 56.4809 113.227 56.3979 113.222C55.0908 113.14 53.6598 113.356 52.3679 113.831L52.3168 113.85C52.3078 113.853 52.2989 113.856 52.2903 113.861C52.2299 113.889 52.1929 113.955 52.2042 114.023C52.2166 114.097 52.2806 114.149 52.353 114.149Z" fill="#407BFF"/>
<path d="M50.9494 115.862C50.9517 115.862 50.9545 115.862 50.9568 115.862C51.0402 115.858 51.1041 115.787 51.1002 115.704C50.9015 111.639 53.1353 108.393 53.1579 108.361C53.2055 108.292 53.1891 108.198 53.1209 108.151C53.0519 108.103 52.9584 108.12 52.9108 108.188C52.8878 108.221 50.5951 111.548 50.799 115.719C50.8029 115.799 50.8695 115.862 50.9494 115.862Z" fill="#407BFF"/>
<path d="M49.4802 118.152C49.5168 118.152 49.5538 118.138 49.583 118.111C49.599 118.096 51.1891 116.65 53.4011 117.338C53.481 117.363 53.5652 117.318 53.5901 117.238C53.6147 117.159 53.5702 117.074 53.4907 117.049C51.1061 116.307 49.4463 117.825 49.3769 117.89C49.3161 117.947 49.313 118.042 49.3695 118.104C49.3995 118.136 49.4396 118.152 49.4802 118.152Z" fill="#407BFF"/>
<path d="M47.5783 121.947C47.6001 121.947 47.622 121.942 47.6426 121.932C47.7178 121.896 47.7502 121.807 47.7147 121.731C47.705 121.711 46.7521 119.644 47.1079 116.733C47.1181 116.65 47.0592 116.575 46.9766 116.565C46.8936 116.551 46.8184 116.614 46.8086 116.696C46.4415 119.699 47.401 121.773 47.4419 121.86C47.4676 121.915 47.5218 121.947 47.5783 121.947Z" fill="#407BFF"/>
<path d="M45.0608 133.709C45.0697 133.709 45.0795 133.708 45.0888 133.706C45.1707 133.691 45.2249 133.612 45.2093 133.53C44.1983 128.133 41.127 125.778 41.0958 125.755C41.0292 125.705 40.9348 125.719 40.8846 125.785C40.8347 125.852 40.8483 125.946 40.9146 125.996C40.9446 126.019 43.9244 128.311 44.9127 133.585C44.9259 133.658 44.9895 133.709 45.0608 133.709Z" fill="#407BFF"/>
<path d="M41.8855 126.878C41.9471 126.878 42.0048 126.84 42.0274 126.779C42.0562 126.7 42.0165 126.614 41.9385 126.585C41.914 126.576 41.3255 126.362 40.3508 126.528C40.2686 126.542 40.2132 126.62 40.2273 126.702C40.2409 126.784 40.3196 126.841 40.4015 126.826C41.2893 126.675 41.8286 126.866 41.8341 126.868C41.8508 126.875 41.8684 126.878 41.8855 126.878Z" fill="#407BFF"/>
<path d="M42.5672 127.722C42.6471 127.722 42.7138 127.66 42.7181 127.579C42.8225 125.521 41.7313 123.914 41.6849 123.847C41.6378 123.778 41.5438 123.76 41.4749 123.808C41.4063 123.855 41.3891 123.949 41.4363 124.018C41.4472 124.034 42.5158 125.611 42.4164 127.564C42.4121 127.647 42.4764 127.718 42.5594 127.722C42.5622 127.722 42.5645 127.722 42.5672 127.722Z" fill="#407BFF"/>
<path d="M43.6477 129.487C43.6859 129.487 43.7237 129.473 43.7533 129.444C43.8129 129.386 43.8141 129.291 43.756 129.231C43.7206 129.194 42.8729 128.346 41.6679 128.722C41.5884 128.746 41.544 128.831 41.569 128.911C41.5939 128.99 41.6781 129.035 41.758 129.01C42.7884 128.687 43.5327 129.434 43.5398 129.442C43.5694 129.472 43.6083 129.487 43.6477 129.487Z" fill="#407BFF"/>
<path d="M44.2012 130.71C44.2573 130.71 44.3114 130.678 44.3372 130.624C44.3578 130.581 44.8356 129.557 44.6575 128.069C44.6474 127.986 44.5745 127.925 44.4895 127.937C44.4069 127.947 44.3477 128.022 44.3578 128.105C44.525 129.501 44.0694 130.485 44.0648 130.494C44.0293 130.57 44.0612 130.66 44.1365 130.695C44.1571 130.706 44.1793 130.71 44.2012 130.71Z" fill="#407BFF"/>
<path d="M45.176 133.84C45.243 133.84 45.3038 133.795 45.3218 133.727C46.5045 129.238 49.6005 126.414 49.6316 126.386C49.6936 126.331 49.6987 126.235 49.6429 126.173C49.5868 126.111 49.4917 126.106 49.4298 126.161C49.3978 126.19 46.236 129.07 45.0299 133.651C45.0088 133.731 45.0567 133.814 45.1374 133.835C45.1503 133.839 45.1631 133.84 45.176 133.84Z" fill="#407BFF"/>
<path d="M47.6641 128.438C47.6489 128.362 47.6944 128.287 47.7673 128.265C47.7759 128.261 47.7837 128.258 47.788 128.256C48.355 128.048 48.9844 127.953 49.5596 127.989C49.6426 127.994 49.7062 128.066 49.7007 128.149C49.6957 128.232 49.6216 128.296 49.5405 128.29C49.0062 128.256 48.4213 128.345 47.8924 128.54L47.8737 128.546C47.8628 128.551 47.8515 128.555 47.8414 128.557C47.8312 128.559 47.8215 128.56 47.8118 128.56C47.7412 128.56 47.6781 128.511 47.6641 128.438ZM47.7358 128.279C47.7412 128.276 47.7549 128.271 47.7673 128.265C47.7556 128.269 47.7451 128.274 47.7358 128.279Z" fill="#407BFF"/>
<path d="M47.2069 129.298C47.2096 129.298 47.212 129.298 47.2143 129.297C47.2977 129.294 47.3616 129.223 47.3577 129.14C47.2735 127.42 48.219 126.044 48.2287 126.03C48.2767 125.961 48.2599 125.867 48.1913 125.82C48.1235 125.772 48.0288 125.788 47.9813 125.857C47.94 125.916 46.9668 127.328 47.0561 129.154C47.0604 129.235 47.127 129.298 47.2069 129.298Z" fill="#407BFF"/>
<path d="M46.5744 130.284C46.611 130.284 46.6481 130.271 46.6769 130.244C46.7034 130.22 47.3347 129.649 48.2377 129.93C48.3176 129.955 48.4018 129.909 48.4267 129.83C48.4517 129.751 48.4068 129.666 48.3273 129.641C47.2541 129.306 46.5027 129.993 46.4711 130.023C46.4103 130.08 46.4072 130.175 46.4637 130.235C46.4937 130.268 46.5339 130.284 46.5744 130.284Z" fill="#407BFF"/>
<path d="M45.7555 131.919C45.777 131.919 45.7988 131.914 45.8198 131.905C45.8951 131.869 45.9274 131.779 45.8923 131.704C45.888 131.695 45.4886 130.824 45.6386 129.598C45.6487 129.515 45.5899 129.44 45.5073 129.43C45.4247 129.417 45.3494 129.479 45.3393 129.561C45.178 130.879 45.6016 131.795 45.6195 131.833C45.6449 131.887 45.699 131.919 45.7555 131.919Z" fill="#407BFF"/>
<path d="M42.7918 140.851H47.6134C48.1274 140.851 48.5624 140.584 48.6313 140.227L49.9197 133.528H40.4858L41.7742 140.227C41.8428 140.584 42.2778 140.851 42.7918 140.851Z" fill="#407BFF"/>
<path d="M39.7007 133.504V134.736H40.7182L41.7748 140.225C41.8414 140.584 42.2759 140.851 42.7923 140.851H47.6135C48.1268 140.851 48.5613 140.584 48.6311 140.225L49.6876 134.736H50.8591V133.504H39.7007Z" fill="#407BFF"/>
<path opacity="0.5" d="M39.7007 133.504V134.736H40.7182L41.7748 140.225C41.8414 140.584 42.2759 140.851 42.7923 140.851H47.6135C48.1268 140.851 48.5613 140.584 48.6311 140.225L49.6876 134.736H50.8591V133.504H39.7007Z" fill="black"/>
<path d="M123.788 4.51294H66.5693V98.8465H123.788V4.51294Z" fill="#407BFF"/>
<g opacity="0.9">
<path d="M123.788 4.51294H66.5693V98.8465H123.788V4.51294Z" fill="white"/>
</g>
<path d="M95.3331 46.3438H94.9473V95.9272H95.3331V46.3438Z" fill="#407BFF"/>
<path d="M120.787 70.9872H103.235V71.9104H120.787V70.9872Z" fill="#263238"/>
<path d="M120.787 73.3274H103.235V74.2506H120.787V73.3274Z" fill="#263238"/>
<path d="M120.787 75.6676H103.235V76.5908H120.787V75.6676Z" fill="#263238"/>
<path d="M120.787 78.0079H103.235V78.9312H120.787V78.0079Z" fill="#263238"/>
<path d="M110.869 66.314H103.235V67.2372H110.869V66.314Z" fill="#407BFF"/>
<path d="M112.011 70.9872H103.235V71.9104H112.011V70.9872Z" fill="#407BFF"/>
<path d="M109.193 73.3274H103.235V74.2506H109.193V73.3274Z" fill="#407BFF"/>
<path d="M117.237 75.6676H103.235V76.5908H117.237V75.6676Z" fill="#407BFF"/>
<path d="M113.873 78.0079H103.235V78.9312H113.873V78.0079Z" fill="#407BFF"/>
<path d="M101.748 71.2179H98.0371V71.6797H101.748V71.2179Z" fill="#263238"/>
<path d="M101.748 73.5581H98.0371V74.0199H101.748V73.5581Z" fill="#263238"/>
<path d="M101.748 75.8983H98.0371V76.3597H101.748V75.8983Z" fill="#263238"/>
<path d="M101.748 78.2386H98.0371V78.7005H101.748V78.2386Z" fill="#263238"/>
<path d="M97.7942 66.9769L98.1375 67.0327C98.1808 67.2041 98.2482 67.3666 98.3394 67.5186L98.1422 67.7949C98.1056 67.8464 98.1114 67.9169 98.1559 67.9613L98.5214 68.3269C98.5658 68.3713 98.6364 68.3772 98.6878 68.3405L98.9641 68.143C99.1161 68.2342 99.2786 68.3016 99.4501 68.3448L99.5058 68.6882C99.5164 68.7505 99.5701 68.7961 99.6333 68.7961H100.15C100.213 68.7961 100.267 68.7505 100.277 68.6882L100.333 68.3448C100.505 68.3016 100.667 68.2342 100.819 68.143L101.096 68.3405C101.147 68.3772 101.217 68.3713 101.262 68.3269L101.628 67.9613C101.673 67.9165 101.679 67.8464 101.641 67.7949L101.444 67.5182C101.535 67.3663 101.603 67.2037 101.646 67.0323L101.99 66.9765C102.052 66.9664 102.097 66.9122 102.097 66.8491V66.3319C102.097 66.2688 102.052 66.215 101.99 66.2045L101.646 66.1488C101.603 65.9773 101.535 65.8148 101.445 65.6628L101.642 65.3861C101.679 65.3347 101.673 65.2641 101.629 65.2197L101.263 64.8541C101.218 64.8093 101.148 64.8035 101.097 64.8405L100.82 65.0377C100.668 64.9465 100.505 64.8791 100.334 64.8358L100.278 64.4925C100.268 64.4301 100.214 64.3845 100.151 64.3845H99.6341C99.5709 64.3845 99.5171 64.4301 99.5066 64.4925L99.4509 64.8358C99.2794 64.8791 99.1169 64.9465 98.9649 65.0377L98.6882 64.8405C98.6368 64.8035 98.5662 64.8093 98.5218 64.8541L98.1562 65.2197C98.1114 65.2645 98.1056 65.3347 98.1426 65.3861L98.3402 65.6628C98.249 65.8148 98.1816 65.9773 98.1383 66.1488L97.795 66.2045C97.7326 66.215 97.687 66.2688 97.687 66.3319V66.8491C97.6862 66.9126 97.7318 66.9664 97.7942 66.9769ZM99.892 65.1694C100.676 65.1694 101.314 65.807 101.314 66.5911C101.314 67.3748 100.676 68.0128 99.892 68.0128C99.1083 68.0128 98.4704 67.3752 98.4704 66.5911C98.4704 65.807 99.1079 65.1694 99.892 65.1694Z" fill="#407BFF"/>
<path d="M99.8948 87.0698C100.36 87.0698 100.737 86.6481 100.737 86.1279C100.737 85.6076 100.36 85.1859 99.8948 85.1859C99.4295 85.1859 99.0522 85.6076 99.0522 86.1279C99.0522 86.6481 99.4295 87.0698 99.8948 87.0698Z" fill="#407BFF"/>
<path d="M98.6152 89.2954V88.5226C98.6152 87.9964 99.003 87.5522 99.5377 87.4052L99.9212 87.5736L100.256 87.3936C100.484 87.445 100.686 87.5518 100.846 87.6948C101.082 87.9064 101.229 88.1983 101.229 88.5222V89.295L98.6152 89.2954Z" fill="#407BFF"/>
<path d="M74.1758 71.1321H69.2915V72.908H74.1758V71.1321Z" fill="#407BFF"/>
<path d="M74.1758 73.1875H69.2915V74.6575H74.1758V73.1875Z" fill="#407BFF"/>
<path d="M72.8413 71.5858H72.5334V71.0405C72.5334 70.8776 72.4009 70.7451 72.238 70.7451H71.3058C71.1429 70.7451 71.01 70.8776 71.01 71.0405V71.5858H70.7021V71.0405C70.7021 70.7077 70.973 70.4373 71.3058 70.4373H72.238C72.5708 70.4373 72.8413 70.7077 72.8413 71.0405V71.5858Z" fill="#407BFF"/>
<path d="M102.334 46.3912H97.4497V48.1672H102.334V46.3912Z" fill="#407BFF"/>
<path d="M102.334 48.5083H97.4497V49.9167H102.334V48.5083Z" fill="#407BFF"/>
<path d="M101 46.8452H100.692V46.2999C100.692 46.137 100.56 46.0045 100.397 46.0045H99.4645C99.3016 46.0045 99.1687 46.137 99.1687 46.2999V46.8452H98.8608V46.2999C98.8608 45.9671 99.1317 45.6967 99.4641 45.6967H100.396C100.729 45.6967 101 45.9671 101 46.2999V46.8452H101Z" fill="#407BFF"/>
<path d="M74.1946 47.765L73.3575 48.279L71.9724 49.1286C71.8617 49.1996 71.677 49.1996 71.5663 49.1286L70.1812 48.279L69.3441 47.765C69.2303 47.6972 69.2303 47.5834 69.3441 47.5156L71.5663 46.4045C71.677 46.3367 71.8617 46.3367 71.9724 46.4045L74.1946 47.5156C74.3084 47.5834 74.3084 47.6972 74.1946 47.765Z" fill="#407BFF"/>
<path d="M73.3574 48.6157L73.3577 50.6886C72.318 50.9716 71.2213 50.9716 70.1815 50.6886L70.1812 48.6157L71.5662 49.4653C71.6769 49.5362 71.8616 49.5362 71.9723 49.4653L73.3574 48.6157Z" fill="#407BFF"/>
<path d="M74.0646 47.7064H73.9106V50.3187H74.0646V47.7064Z" fill="#407BFF"/>
<path d="M73.7295 50.1415C73.7295 50.2923 73.8519 50.4147 74.0027 50.4147C74.1535 50.4147 74.2759 50.2923 74.2759 50.1415C74.2759 49.9907 74.1535 49.8683 74.0027 49.8683C73.8519 49.8683 73.7295 49.9907 73.7295 50.1415Z" fill="#407BFF"/>
<path d="M110.869 87.8824H103.235V88.8057H110.869V87.8824Z" fill="#407BFF"/>
<path d="M110.869 48.4349H103.235V49.3582H110.869V48.4349Z" fill="#407BFF"/>
<path d="M120.787 91.1021H98.7905V91.5639H120.787V91.1021Z" fill="#263238"/>
<path d="M120.787 93.1394H98.7905V93.6008H120.787V93.1394Z" fill="#263238"/>
<path d="M103.235 95.1769H98.7905V95.6387H103.235V95.1769Z" fill="#263238"/>
<path d="M90.2476 54.8466H75.5112V55.3084H90.2476V54.8466Z" fill="#263238"/>
<path d="M83.4669 56.884H75.5112V57.3458H83.4669V56.884Z" fill="#263238"/>
<path d="M90.2476 61.9558H75.5112V62.4176H90.2476V61.9558Z" fill="#263238"/>
<path d="M83.4669 63.9933H75.5112V64.4547H83.4669V63.9933Z" fill="#263238"/>
<path d="M90.2476 79.9744H75.5112V80.4358H90.2476V79.9744Z" fill="#263238"/>
<path d="M83.4669 82.0117H75.5112V82.4735H83.4669V82.0117Z" fill="#263238"/>
<path d="M90.2476 87.0948H75.5112V87.5567H90.2476V87.0948Z" fill="#263238"/>
<path d="M83.4669 89.1324H75.5112V89.5943H83.4669V89.1324Z" fill="#263238"/>
<path d="M119.552 51.9692H97.5557V52.4311H119.552V51.9692Z" fill="#263238"/>
<path d="M119.552 54.0067H97.5557V54.4681H119.552V54.0067Z" fill="#263238"/>
<path d="M102 56.0442H97.5557V56.506H102V56.0442Z" fill="#263238"/>
<path d="M83.19 48.4349H75.5562V49.3582H83.19V48.4349Z" fill="#407BFF"/>
<path d="M91.507 52.108H75.5566V53.2772H91.507V52.108Z" fill="#263238"/>
<path d="M71.772 53.0835C72.0619 53.0835 72.297 52.8484 72.297 52.5585C72.297 52.2686 72.0619 52.0336 71.772 52.0336C71.4821 52.0336 71.2471 52.2686 71.2471 52.5585C71.2471 52.8484 71.4821 53.0835 71.772 53.0835Z" fill="#263238"/>
<path d="M91.507 59.2164H75.5566V60.3856H91.507V59.2164Z" fill="#263238"/>
<path d="M71.772 60.1919C72.0619 60.1919 72.297 59.9568 72.297 59.6669C72.297 59.377 72.0619 59.142 71.772 59.142C71.4821 59.142 71.2471 59.377 71.2471 59.6669C71.2471 59.9568 71.4821 60.1919 71.772 60.1919Z" fill="#263238"/>
<path d="M91.507 66.3253H75.5566V67.4945H91.507V66.3253Z" fill="#263238"/>
<path d="M71.772 67.3005C72.0619 67.3005 72.297 67.0655 72.297 66.7756C72.297 66.4856 72.0619 66.2506 71.772 66.2506C71.4821 66.2506 71.2471 66.4856 71.2471 66.7756C71.2471 67.0655 71.4821 67.3005 71.772 67.3005Z" fill="#263238"/>
<path d="M83.19 73.5464H75.5562V74.4696H83.19V73.5464Z" fill="#407BFF"/>
<path d="M91.507 77.2195H75.5566V78.3886H91.507V77.2195Z" fill="#263238"/>
<path d="M71.772 78.1946C72.0619 78.1946 72.297 77.9595 72.297 77.6696C72.297 77.3797 72.0619 77.1447 71.772 77.1447C71.4821 77.1447 71.2471 77.3797 71.2471 77.6696C71.2471 77.9595 71.4821 78.1946 71.772 78.1946Z" fill="#263238"/>
<path d="M91.507 84.328H75.5566V85.4972H91.507V84.328Z" fill="#263238"/>
<path d="M71.772 85.3034C72.0619 85.3034 72.297 85.0684 72.297 84.7785C72.297 84.4886 72.0619 84.2535 71.772 84.2535C71.4821 84.2535 71.2471 84.4886 71.2471 84.7785C71.2471 85.0684 71.4821 85.3034 71.772 85.3034Z" fill="#263238"/>
<path d="M91.507 91.4364H75.5566V92.6056H91.507V91.4364Z" fill="#263238"/>
<path d="M71.772 92.4118C72.0619 92.4118 72.297 92.1768 72.297 91.8869C72.297 91.597 72.0619 91.3619 71.772 91.3619C71.4821 91.3619 71.2471 91.597 71.2471 91.8869C71.2471 92.1768 71.4821 92.4118 71.772 92.4118Z" fill="#263238"/>
<path d="M123.788 8.99316H66.5693V43.219H123.788V8.99316Z" fill="#407BFF"/>
<g opacity="0.8">
<path d="M123.788 8.99316H66.5693V43.219H123.788V8.99316Z" fill="white"/>
</g>
<path d="M76.0225 35.5373C76.0225 36.8296 74.9749 37.8771 73.6826 37.8771C72.3903 37.8771 71.3428 36.8296 71.3428 35.5373C71.3428 34.245 72.3903 33.1974 73.6826 33.1974C74.9749 33.1974 76.0225 34.245 76.0225 35.5373Z" fill="white"/>
<path d="M82.2622 35.5373C82.2622 36.8296 81.2147 37.8771 79.9224 37.8771C78.6301 37.8771 77.5825 36.8296 77.5825 35.5373C77.5825 34.245 78.6301 33.1974 79.9224 33.1974C81.2143 33.1974 82.2622 34.245 82.2622 35.5373Z" fill="white"/>
<path d="M88.2417 35.5373C88.2417 36.8296 87.1942 37.8771 85.9019 37.8771C84.6096 37.8771 83.562 36.8296 83.562 35.5373C83.562 34.245 84.6096 33.1974 85.9019 33.1974C87.1942 33.1974 88.2417 34.245 88.2417 35.5373Z" fill="white"/>
<path d="M94.0914 35.5373C94.0914 36.8296 93.0438 37.8771 91.7515 37.8771C90.4592 37.8771 89.4116 36.8296 89.4116 35.5373C89.4116 34.245 90.4592 33.1974 91.7515 33.1974C93.0438 33.1974 94.0914 34.245 94.0914 35.5373Z" fill="white"/>
<path d="M74.2785 35.0684H73.0649V35.545H74.2785V35.0684Z" fill="#263238"/>
<path d="M73.813 36.9208H73.3364V34.8822C73.3364 34.501 73.6466 34.1908 74.0278 34.1908H74.2542V34.6674H74.0278C73.9093 34.6674 73.813 34.7637 73.813 34.8822V36.9208Z" fill="#263238"/>
<path d="M85.3721 34.8046H84.8955V36.3525H85.3721V34.8046Z" fill="#263238"/>
<path d="M86.1089 34.8401H85.6323V36.3526H86.1089V34.8401Z" fill="#263238"/>
<path d="M86.6806 36.354C86.6806 36.3493 86.681 36.3345 86.683 36.3115C86.7289 35.6521 86.6132 35.437 86.5793 35.4155C86.2983 35.3988 86.1116 35.5605 86.045 35.6322L85.6958 35.3076C85.8096 35.1852 86.1264 34.9034 86.6175 34.9416C87.0392 34.972 87.2212 35.444 87.1584 36.345L86.6806 36.354Z" fill="#263238"/>
<path d="M85.2441 34.6792H85.0138C84.9448 34.6792 84.8887 34.6231 84.8887 34.5541V34.323C84.8887 34.254 84.9448 34.1979 85.0138 34.1979H85.2441C85.3131 34.1979 85.3692 34.254 85.3692 34.323V34.5541C85.3692 34.6231 85.3135 34.6792 85.2441 34.6792Z" fill="#263238"/>
<path d="M79.9576 36.1989C79.5831 36.1989 79.2783 35.8942 79.2783 35.5193C79.2783 35.1444 79.5831 34.8396 79.9576 34.8396C80.3325 34.8396 80.6373 35.1444 80.6373 35.5193C80.6373 35.8942 80.3321 36.1989 79.9576 36.1989ZM79.9576 35.0777C79.7144 35.0777 79.5164 35.2757 79.5164 35.5189C79.5164 35.7621 79.7144 35.96 79.9576 35.96C80.2008 35.96 80.3988 35.7621 80.3988 35.5189C80.3988 35.2761 80.2008 35.0777 79.9576 35.0777Z" fill="#263238"/>
<path d="M80.4956 36.9406H79.4196C78.9325 36.9406 78.5361 36.5442 78.5361 36.0567V34.9807C78.5361 34.4931 78.9325 34.0968 79.4196 34.0968H80.4956C80.9828 34.0968 81.3791 34.4931 81.3791 34.9807V36.0567C81.3791 36.5442 80.9828 36.9406 80.4956 36.9406ZM79.4196 34.3357C79.0638 34.3357 78.7743 34.6253 78.7743 34.9811V36.0571C78.7743 36.4129 79.0638 36.7025 79.4196 36.7025H80.4956C80.8514 36.7025 81.141 36.4129 81.141 36.0571V34.9811C81.141 34.6253 80.8514 34.3357 80.4956 34.3357H79.4196Z" fill="#263238"/>
<path d="M90.8439 36.39C90.805 36.39 90.7668 36.3748 90.7383 36.3459C90.7079 36.3155 90.6927 36.2735 90.6951 36.2321V34.9387C90.6951 34.8564 90.7617 34.7898 90.8439 34.7898H91.4792C91.7161 34.7898 91.909 34.9823 91.909 35.2193C91.909 35.3381 91.8607 35.4461 91.782 35.524C91.9102 35.6074 91.9948 35.7524 91.9948 35.9161C91.9948 36.0423 91.9453 36.1612 91.8553 36.2497C91.7652 36.3381 91.6471 36.3822 91.5201 36.3841C91.061 36.3767 90.9266 36.381 90.8872 36.3834C90.8728 36.388 90.8584 36.39 90.8439 36.39ZM91.0813 36.0817C91.19 36.0817 91.3338 36.0837 91.5244 36.0864C91.5622 36.0856 91.6132 36.07 91.646 36.0377C91.6787 36.0057 91.6966 35.9625 91.6966 35.9161C91.6966 35.8222 91.6203 35.7458 91.5263 35.7458H90.9924V36.0817C91.0193 36.0821 91.0485 36.0817 91.0813 36.0817ZM90.9928 35.3514H91.4792C91.5521 35.3514 91.6109 35.2921 91.6109 35.2193C91.6109 35.1468 91.5517 35.0875 91.4792 35.0875H90.9928V35.3514Z" fill="#263238"/>
<path d="M93.0132 35.8662H92.2065C92.1247 35.8662 92.058 35.8 92.0576 35.7181C92.0576 35.6893 92.0611 35.4313 92.2416 35.2665C92.3148 35.199 92.4462 35.1234 92.657 35.1441C92.8394 35.1616 92.977 35.2302 93.0662 35.3479C93.1956 35.5186 93.1644 35.7209 93.1601 35.7431C93.1473 35.8144 93.0853 35.8662 93.0132 35.8662ZM92.3873 35.5685H92.8511C92.8452 35.5541 92.8374 35.5397 92.8273 35.5268C92.7903 35.4792 92.7233 35.45 92.6282 35.4411C92.5463 35.4329 92.4851 35.4481 92.4423 35.487C92.4181 35.5089 92.4002 35.5381 92.3873 35.5685Z" fill="#263238"/>
<path d="M92.6289 36.3725C92.3518 36.3725 92.0692 36.1734 92.063 35.7291L92.061 35.5802L92.3588 35.5759L92.3607 35.7248C92.365 36.049 92.5669 36.0744 92.6285 36.0744C92.7391 36.0744 92.7886 36.0475 92.8081 36.0315L92.8066 35.9278L93.1043 35.9154L93.1063 36.0642C93.1066 36.0794 93.1047 36.1024 93.1 36.1172C93.093 36.1434 93.0135 36.3725 92.6289 36.3725Z" fill="#263238"/>
<path d="M92.5838 20.8011H71.8052V21.7244H92.5838V20.8011Z" fill="#263238"/>
<path d="M82.1943 24.0908H71.8052V25.0141H82.1943V24.0908Z" fill="#263238"/>
<path d="M92.5838 27.6115H71.8052V28.0733H92.5838V27.6115Z" fill="#263238"/>
<path d="M82.1943 30.9015H71.8052V31.3629H82.1943V30.9015Z" fill="#263238"/>
<path d="M75.0234 15.4321V18.4926H74.1578V17.2989H72.9774V18.4926H72.1118V15.4321H72.9774V16.5818H74.1578V15.4321H75.0234Z" fill="#407BFF"/>
<path d="M78.005 17.5174H76.2824C76.3526 17.7578 76.558 17.8978 76.8639 17.8978C77.0958 17.8978 77.2485 17.8319 77.4103 17.6924L77.8475 18.1472C77.6203 18.4009 77.2879 18.5318 76.8374 18.5318C75.9937 18.5318 75.4473 18.0116 75.4473 17.303C75.4473 16.5906 76.0022 16.0836 76.7501 16.0836C77.4496 16.0836 78.0182 16.5295 78.0182 17.312C78.0182 17.3732 78.0093 17.4519 78.005 17.5174ZM76.2692 17.0801H77.24C77.1963 16.8311 77.0128 16.6737 76.7548 16.6737C76.4968 16.6737 76.3175 16.8311 76.2692 17.0801Z" fill="#407BFF"/>
<path d="M78.4028 15.2482H79.2337V18.4922H78.4028V15.2482Z" fill="#407BFF"/>
<path d="M79.7715 15.2482H80.6024V18.4922H79.7715V15.2482Z" fill="#407BFF"/>
<path d="M80.9912 17.303C80.9912 16.5906 81.5551 16.0836 82.3291 16.0836C83.1117 16.0836 83.667 16.5906 83.667 17.303C83.667 18.0201 83.1117 18.5318 82.3291 18.5318C81.5555 18.5318 80.9912 18.0201 80.9912 17.303ZM82.8276 17.303C82.8276 16.9445 82.6132 16.7434 82.3291 16.7434C82.0493 16.7434 81.8307 16.9445 81.8307 17.303C81.8307 17.6663 82.0493 17.8713 82.3291 17.8713C82.6132 17.8716 82.8276 17.6663 82.8276 17.303Z" fill="#407BFF"/>
<path d="M83.9468 18.0725C83.9468 17.8145 84.1522 17.6223 84.4452 17.6223C84.7383 17.6223 84.9394 17.8149 84.9394 18.0725C84.9394 18.3262 84.7383 18.5316 84.4452 18.5316C84.1522 18.5319 83.9468 18.3262 83.9468 18.0725ZM83.9511 15.4321H84.939L84.773 17.378H84.1128L83.9511 15.4321Z" fill="#407BFF"/>
<path d="M123.788 4.51294H66.5693V8.99275H123.788V4.51294Z" fill="#407BFF"/>
<g opacity="0.2">
<path d="M103.12 32.1075C104.936 29.8985 104.33 27.3794 104.33 27.3794H103.653L102.504 28.2524C102.693 29.3857 102.918 30.7703 103.12 32.1075Z" fill="black"/>
</g>
<path d="M103.711 43.2981C103.711 43.2981 103.767 39.18 103.691 37.012C103.68 36.7267 103.668 36.4742 103.654 36.2707C103.485 33.9367 102.399 27.5991 102.138 26.0964C102.097 25.8664 102.185 25.6365 102.36 25.4845C102.617 25.2628 102.935 25.0819 103.3 24.9424C104.068 24.6427 105.046 24.509 106.111 24.4845C106.803 24.4681 107.53 24.4946 108.258 24.5543C108.409 24.5667 108.56 24.5788 108.71 24.5952C109.386 24.6587 110.057 24.7472 110.697 24.8477C110.983 24.891 111.262 24.9362 111.533 24.9833C111.954 25.0574 112.354 25.133 112.726 25.209C113.563 25.3773 114.251 25.5375 114.684 25.6462C114.696 25.6482 114.711 25.6505 114.723 25.6544C114.842 25.6833 114.947 25.7468 115.027 25.831C115.027 25.8329 115.029 25.8329 115.029 25.8329C115.132 25.9459 115.193 26.0936 115.193 26.2538L115.214 35.3752L115.218 37.27L115.231 43.3344L103.711 43.2981Z" fill="#407BFF"/>
<g opacity="0.2">
<path d="M110.54 27.0632C110.531 27.3107 110.322 27.504 110.075 27.4946C109.827 27.4852 109.634 27.2767 109.643 27.0293C109.653 26.7818 109.861 26.5885 110.109 26.5979C110.356 26.6072 110.549 26.8157 110.54 27.0632Z" fill="black"/>
</g>
<g opacity="0.2">
<path d="M111.027 30.8957C111.018 31.1432 110.81 31.3365 110.562 31.3271C110.315 31.3178 110.121 31.1093 110.131 30.8618C110.14 30.6143 110.349 30.421 110.596 30.4304C110.843 30.4397 111.037 30.6482 111.027 30.8957Z" fill="black"/>
</g>
<g opacity="0.2">
<path d="M111.3 35.5299C111.291 35.7773 111.083 35.9706 110.835 35.9613C110.588 35.9519 110.394 35.7438 110.404 35.496C110.413 35.2485 110.621 35.0552 110.869 35.0645C111.116 35.0739 111.31 35.2824 111.3 35.5299Z" fill="black"/>
</g>
<g opacity="0.2">
<path d="M111.126 40.1468C111.116 40.3943 110.908 40.5876 110.66 40.5782C110.413 40.5689 110.219 40.3608 110.229 40.1129C110.238 39.8654 110.447 39.6721 110.694 39.6815C110.942 39.6912 111.135 39.8993 111.126 40.1468Z" fill="black"/>
</g>
<path d="M107.779 23.9115L108.357 24.6882L109.481 25.433L110.155 25.6017L111.203 25.288L111.663 25.24L111.756 25.1683C110.707 24.4103 110.781 23.1695 111.167 22.1016L108.219 19.012C108.34 20.3495 108.371 22.526 107.779 23.9115Z" fill="#CE7A63"/>
<g opacity="0.3">
<path d="M110.91 23.2993C110.929 22.8983 111.027 22.4887 111.167 22.1017L109.362 20.2104L108.267 19.7026C108.291 20.166 108.299 20.68 108.278 21.2034C108.649 21.9618 109.403 22.9166 110.91 23.2993Z" fill="black"/>
</g>
<path d="M111.917 15.1889C111.917 15.1889 113.764 15.5381 113.461 14.1273C113.461 14.1273 113.353 14.5389 111.327 14.3459C109.301 14.153 111.917 15.1889 111.917 15.1889Z" fill="#263238"/>
<g opacity="0.9">
<path d="M111.917 15.1889C111.917 15.1889 113.764 15.5381 113.461 14.1273C113.461 14.1273 113.353 14.5389 111.327 14.3459C109.301 14.153 111.917 15.1889 111.917 15.1889Z" fill="black"/>
</g>
<path d="M107.804 17.141C107.86 19.1882 107.791 20.3881 108.788 21.4688C110.285 23.0982 112.839 22.2409 113.392 20.2241C113.892 18.3947 113.712 15.3631 111.74 14.4847C110.336 13.8502 108.684 14.4746 108.049 15.8787C107.87 16.2747 107.787 16.7069 107.804 17.141Z" fill="#CE7A63"/>
<path d="M110.98 17.8374C110.974 18.0046 111.057 18.1426 111.166 18.1457C111.276 18.1488 111.367 18.0179 111.373 17.8503C111.378 17.6831 111.295 17.5471 111.186 17.5444C111.076 17.5416 110.984 17.6726 110.98 17.8374Z" fill="#263238"/>
<path d="M112.858 17.9006C112.853 18.0654 112.936 18.2038 113.045 18.2065C113.154 18.2096 113.245 18.0787 113.25 17.9134C113.255 17.7486 113.173 17.6083 113.063 17.6052C112.954 17.602 112.863 17.7334 112.858 17.9006Z" fill="#263238"/>
<path d="M110.359 17.0367C110.343 17.0359 110.326 17.032 110.311 17.0246C110.271 16.9895 110.265 16.9291 110.297 16.8866C110.49 16.6392 110.791 16.4989 111.105 16.5102C111.158 16.5156 111.198 16.5635 111.192 16.6177C111.187 16.6719 111.139 16.7112 111.085 16.7058C110.836 16.6996 110.6 16.8126 110.449 17.0106C110.426 17.0339 110.392 17.0441 110.359 17.0367Z" fill="#263238"/>
<path d="M113.614 17.1663C113.581 17.1612 113.553 17.1394 113.541 17.1086C113.447 16.8802 113.25 16.7103 113.01 16.6507C112.957 16.6421 112.921 16.5918 112.929 16.5388C112.938 16.4858 112.988 16.4496 113.041 16.4582C113.349 16.5279 113.604 16.7419 113.726 17.033C113.747 17.0805 113.727 17.1367 113.679 17.1589C113.679 17.1593 113.678 17.1597 113.677 17.16C113.657 17.1694 113.635 17.1717 113.614 17.1663Z" fill="#263238"/>
<path d="M111.972 20.2681C112.083 20.2802 112.196 20.2825 112.308 20.2743C112.34 20.2724 112.365 20.2447 112.363 20.2127C112.363 20.212 112.363 20.2116 112.363 20.2108C112.361 20.1788 112.334 20.1547 112.302 20.1562C111.8 20.2003 111.306 20.0039 110.971 19.627C110.952 19.6005 110.914 19.595 110.888 19.6141C110.861 19.6336 110.856 19.6706 110.875 19.6971C111.153 20.0222 111.546 20.2268 111.972 20.2681Z" fill="#263238"/>
<path d="M112.381 17.8121C112.558 18.3125 112.803 18.786 113.11 19.2194C112.808 19.4766 112.331 19.3402 112.331 19.3402L112.381 17.8121Z" fill="#BA4D3C"/>
<path d="M106.033 24.7039C106.088 24.2358 107.048 23.4342 107.598 23.652C108.147 23.8699 109.059 25.2432 109.947 25.2986C110.834 25.3539 111.037 23.7264 111.505 23.8874C111.974 24.0483 112.512 24.5328 112.653 24.8859C112.816 25.2931 112.807 26.8189 112.389 26.6209C112.389 26.6209 111.816 25.5324 111.454 25.4034C111.117 25.283 110.418 25.7273 110.06 25.7292C109.672 25.7311 108.895 25.2518 108.54 25.4089C108.183 25.5663 107.861 26.564 107.471 26.546C106.888 26.5188 105.965 25.2838 106.033 24.7039Z" fill="#407BFF"/>
<g opacity="0.4">
<path d="M106.033 24.7039C106.088 24.2358 107.048 23.4342 107.598 23.652C108.147 23.8699 109.059 25.2432 109.947 25.2986C110.834 25.3539 111.037 23.7264 111.505 23.8874C111.974 24.0483 112.512 24.5328 112.653 24.8859C112.816 25.2931 112.807 26.8189 112.389 26.6209C112.389 26.6209 111.816 25.5324 111.454 25.4034C111.117 25.283 110.418 25.7273 110.06 25.7292C109.672 25.7311 108.895 25.2518 108.54 25.4089C108.183 25.5663 107.861 26.564 107.471 26.546C106.888 26.5188 105.965 25.2838 106.033 24.7039Z" fill="white"/>
</g>
<path d="M111.698 35.0392C113.068 35.6331 114.169 34.3966 114.169 34.3966L112.202 32.9117L111.277 34.3143L111.698 35.0392Z" fill="#CE7A63"/>
<path d="M112.202 32.9117L114.165 34.393L114.879 33.432L114.052 32.1471L112.202 32.9117Z" fill="#CE7A63"/>
<path d="M101.936 26.5453C101.931 27.6146 101.95 28.6782 101.989 29.7499C102.02 30.5609 102.055 31.3696 102.114 32.1806C102.174 32.9896 102.233 33.8084 102.334 34.6338L102.367 34.9378L102.383 35.0918L102.422 35.3462C102.463 35.5723 102.531 35.7917 102.627 35.999C102.777 36.3213 103.007 36.5984 103.297 36.8038C103.611 37.0193 103.98 37.1362 104.362 37.1386C104.608 37.1428 104.857 37.1058 105.093 37.0275L112.011 35.1635C112.011 35.1635 111.533 34.0119 111.615 33.8805C111.231 33.944 107.589 34.213 105.235 34.3813L105.265 33.7901C105.276 33.5169 105.555 26.9046 105.555 26.9046C105.553 26.0117 104.485 24.9318 103.594 24.9193C102.685 24.9069 101.938 25.638 101.936 26.5453Z" fill="#407BFF"/>
<g opacity="0.1">
<path d="M101.936 26.5453C101.931 27.6146 101.95 28.6782 101.989 29.7499C102.02 30.5609 102.055 31.3696 102.114 32.1806C102.174 32.9896 102.233 33.8084 102.334 34.6338L102.367 34.9378L102.383 35.0918L102.422 35.3462C102.463 35.5723 102.531 35.7917 102.627 35.999C102.777 36.3213 103.007 36.5984 103.297 36.8038C103.611 37.0193 103.98 37.1362 104.362 37.1386C104.608 37.1428 104.857 37.1058 105.093 37.0275L112.011 35.1635C112.011 35.1635 111.533 34.0119 111.615 33.8805C111.231 33.944 107.589 34.213 105.235 34.3813L105.265 33.7901C105.276 33.5169 105.555 26.9046 105.555 26.9046C105.553 26.0117 104.485 24.9318 103.594 24.9193C102.685 24.9069 101.938 25.638 101.936 26.5453Z" fill="white"/>
</g>
<path d="M111.615 33.8806C111.642 33.8767 111.652 33.8724 111.644 33.8704C111.63 33.8661 111.62 33.8704 111.615 33.8806Z" fill="#407BFF"/>
<path d="M108.072 18.8428C108.072 18.8428 108.837 18.4687 108.836 16.9698C108.836 16.9698 109.633 16.5068 109.696 15.4842C109.696 15.4842 113.582 15.0972 112.971 13.718C112.36 12.3388 109.627 11.8236 109.627 11.8236C109.627 11.8236 110.422 13.2137 107.889 14.296C105.356 15.3782 107.371 18.7302 107.371 18.7302L108.072 18.8428Z" fill="#263238"/>
<path d="M106.835 15.6148C106.835 15.6148 105.695 14.8572 106.144 14.4172C106.592 13.9772 106.835 15.6148 106.835 15.6148Z" fill="#263238"/>
<path d="M106.743 19.0132C107.004 19.4563 107.428 19.7786 107.925 19.9111C108.587 20.0771 108.902 19.4844 108.705 18.8679C108.529 18.3152 107.971 17.5596 107.314 17.6636C106.657 17.7673 106.429 18.4625 106.743 19.0132Z" fill="#CE7A63"/>
<path d="M107.822 35.1732C106.452 35.7672 105.352 34.5306 105.352 34.5306L107.318 33.0458L108.243 34.4484L107.822 35.1732Z" fill="#CE7A63"/>
<path d="M107.318 33.0454L105.355 34.5267L104.641 33.5656L105.468 32.2811L107.318 33.0454Z" fill="#CE7A63"/>
<path d="M117.186 34.7683L117.154 35.0723L117.137 35.2263L117.098 35.4807C117.057 35.7064 116.99 35.9262 116.893 36.1335C116.743 36.4558 116.513 36.7329 116.224 36.9383C115.926 37.1413 115.579 37.2586 115.218 37.2707C115.2 37.2727 115.179 37.2727 115.158 37.2727C114.912 37.277 114.663 37.2399 114.428 37.162L109.513 35.8377L107.509 35.298C107.509 35.298 107.511 35.2917 107.517 35.2773C107.567 35.1561 107.83 34.5096 107.897 34.1873C107.916 34.1031 107.922 34.0396 107.906 34.0146C107.92 34.0166 107.938 34.0209 107.963 34.0228C108.115 34.0435 108.456 34.0743 108.913 34.1113C109.542 34.1647 110.392 34.2301 111.291 34.296C111.424 34.3061 111.56 34.3167 111.697 34.3268C112.508 34.3884 113.338 34.448 114.066 34.499C114.14 34.5053 114.592 34.5205 114.664 34.5267L113.925 27.0387C113.925 27.0141 113.966 26.9896 113.97 26.9646C113.995 26.5519 114.237 26.1108 114.576 25.7553C114.611 25.7164 114.647 25.6813 114.684 25.6466C114.696 25.6486 114.711 25.6509 114.723 25.6548C115.032 25.6341 115.303 25.737 115.532 25.8843C116.002 26.1875 116.297 26.6985 116.369 27.2538C116.606 29.096 117.253 34.2138 117.186 34.7683Z" fill="#407BFF"/>
<g opacity="0.1">
<path d="M117.186 34.7683L117.154 35.0723L117.137 35.2263L117.098 35.4807C117.057 35.7064 116.99 35.9262 116.893 36.1335C116.743 36.4558 116.513 36.7329 116.224 36.9383C115.926 37.1413 115.579 37.2586 115.218 37.2707C115.2 37.2727 115.179 37.2727 115.158 37.2727C114.912 37.277 114.663 37.2399 114.428 37.162L109.513 35.8377L107.509 35.298C107.509 35.298 107.511 35.2917 107.517 35.2773C107.567 35.1561 107.83 34.5096 107.897 34.1873C107.916 34.1031 107.922 34.0396 107.906 34.0146C107.92 34.0166 107.938 34.0209 107.963 34.0228C108.115 34.0435 108.456 34.0743 108.913 34.1113C109.542 34.1647 110.392 34.2301 111.291 34.296C111.424 34.3061 111.56 34.3167 111.697 34.3268C112.508 34.3884 113.338 34.448 114.066 34.499C114.14 34.5053 114.592 34.5205 114.664 34.5267L113.925 27.0387C113.925 27.0141 113.966 26.9896 113.97 26.9646C113.995 26.5519 114.237 26.1108 114.576 25.7553C114.611 25.7164 114.647 25.6813 114.684 25.6466C114.696 25.6486 114.711 25.6509 114.723 25.6548C115.032 25.6341 115.303 25.737 115.532 25.8843C116.002 26.1875 116.297 26.6985 116.369 27.2538C116.606 29.096 117.253 34.2138 117.186 34.7683Z" fill="white"/>
</g>
<path d="M107.904 34.0147C107.877 34.0108 107.867 34.0065 107.875 34.0045C107.89 34.0002 107.9 34.0041 107.904 34.0147Z" fill="#407BFF"/>
<path d="M71.2469 6.77959C71.2469 7.13306 70.9601 7.41989 70.6066 7.41989C70.2531 7.41989 69.9663 7.13306 69.9663 6.77959C69.9663 6.42611 70.2531 6.13928 70.6066 6.13928C70.9605 6.13928 71.2469 6.42572 71.2469 6.77959Z" fill="white"/>
<path d="M73.7054 6.77959C73.7054 7.13306 73.419 7.41989 73.0651 7.41989C72.7112 7.41989 72.4248 7.13306 72.4248 6.77959C72.4248 6.42611 72.7116 6.13928 73.0651 6.13928C73.4186 6.13928 73.7054 6.42572 73.7054 6.77959Z" fill="white"/>
<path d="M76.1634 6.77959C76.1634 7.13306 75.877 7.41989 75.5231 7.41989C75.1693 7.41989 74.8828 7.13306 74.8828 6.77959C74.8828 6.42611 75.1696 6.13928 75.5231 6.13928C75.8766 6.13928 76.1634 6.42572 76.1634 6.77959Z" fill="white"/>
<path d="M132.783 131.725L132.227 138.208L128.748 138.004L129.005 131.267L132.783 131.725Z" fill="#CE7A63"/>
<path d="M162.479 129.395L165.146 135.276L162.092 137.042L159.048 131.11L162.479 129.395Z" fill="#CE7A63"/>
<path d="M139.285 73.3964C139.285 73.3964 131.289 99.5114 129.76 107.509C128.551 113.831 128.464 133.322 128.464 133.322L133.114 133.723C133.114 133.723 134.184 124.316 135.262 116.532C135.733 113.127 136.441 110.031 137.018 108.171C138.911 102.073 145.809 91.6313 148.021 85.6604C148.785 83.5976 149.025 73.705 149.025 73.705L139.285 73.3964Z" fill="#263238"/>
<path d="M133.924 132.582L127.82 132.071L127.829 134.441L133.525 134.848L133.924 132.582Z" fill="#407BFF"/>
<path opacity="0.5" d="M144.8 82.0273L148.902 85.4576C147.949 87.3104 143.897 93.6086 142.544 95.798C142.074 90.552 144.8 82.0273 144.8 82.0273Z" fill="black"/>
<path d="M140.731 73.3964C140.731 73.3964 145.705 102.988 148.313 111.236C150.17 117.108 159.749 133.128 159.749 133.128L163.546 131.029C163.546 131.029 159.925 122.335 157.412 115.585C156.554 113.282 155.518 111.204 155.215 109.776C153.921 103.677 154.428 91.0576 154.074 84.8225C153.962 82.8447 153.415 73.6275 153.415 73.6275L140.731 73.3964Z" fill="#263238"/>
<path d="M163.54 129.469L164.536 131.596L159.667 134.312L158.555 132.247L163.54 129.469Z" fill="#407BFF"/>
<path d="M127.39 138.114C126.989 138.11 126.575 138.026 126.442 137.84C126.374 137.731 126.376 137.587 126.449 137.483C126.503 137.388 126.589 137.321 126.689 137.294C127.228 137.141 128.352 137.844 128.402 137.875C128.43 137.893 128.444 137.927 128.438 137.961C128.432 137.995 128.408 138.021 128.376 138.028C128.051 138.087 127.721 138.117 127.39 138.114ZM126.878 137.435C126.828 137.433 126.779 137.439 126.732 137.453C126.668 137.464 126.613 137.506 126.582 137.566C126.525 137.668 126.545 137.717 126.567 137.746C126.716 137.973 127.529 137.988 128.129 137.915C127.744 137.672 127.319 137.509 126.878 137.435Z" fill="#407BFF"/>
<path d="M128.365 138.026C128.354 138.029 128.343 138.028 128.333 138.023C127.947 137.835 127.173 137.075 127.243 136.686C127.251 136.593 127.317 136.479 127.527 136.459C127.681 136.444 127.834 136.496 127.952 136.604C128.362 136.971 128.447 137.906 128.452 137.95C128.454 137.979 128.44 138.007 128.417 138.023C128.401 138.031 128.382 138.033 128.365 138.026ZM127.578 136.615L127.534 136.61C127.397 136.621 127.388 136.681 127.382 136.702C127.362 136.936 127.869 137.529 128.268 137.788C128.231 137.395 128.082 137.022 127.842 136.722C127.768 136.653 127.675 136.615 127.578 136.615Z" fill="#407BFF"/>
<path d="M128.706 137.547L132.227 137.589C132.359 137.59 132.474 137.69 132.503 137.83L133.135 140.912C133.193 141.184 133.034 141.454 132.78 141.514C132.748 141.521 132.715 141.525 132.681 141.525C131.412 141.487 130.284 141.399 128.704 141.383C126.84 141.361 127.312 141.606 125.12 141.614C123.799 141.617 123.56 140.003 124.12 139.93C126.684 139.614 126.951 138.786 127.941 137.813C128.156 137.626 128.429 137.531 128.706 137.547Z" fill="#263238"/>
<path d="M161.011 137.743C160.656 137.939 160.255 138.072 160.057 137.973C159.949 137.91 159.89 137.782 159.908 137.652C159.915 137.541 159.961 137.437 160.038 137.363C160.447 136.959 161.741 137.022 161.799 137.025C161.831 137.027 161.859 137.05 161.868 137.083C161.877 137.116 161.867 137.151 161.843 137.173C161.582 137.389 161.303 137.58 161.011 137.743ZM160.265 137.395C160.221 137.418 160.181 137.448 160.145 137.484C160.093 137.526 160.063 137.59 160.062 137.66C160.055 137.778 160.094 137.812 160.126 137.826C160.356 137.954 161.079 137.561 161.576 137.196C161.13 137.173 160.686 137.24 160.265 137.395Z" fill="#407BFF"/>
<path d="M161.832 137.178C161.824 137.186 161.813 137.191 161.802 137.191C161.381 137.216 160.37 136.927 160.263 136.547C160.229 136.46 160.238 136.326 160.414 136.202C160.543 136.112 160.701 136.082 160.851 136.119C161.372 136.241 161.852 137.03 161.874 137.066C161.889 137.092 161.89 137.123 161.876 137.149C161.865 137.165 161.849 137.175 161.832 137.178ZM160.527 136.316L160.486 136.333C160.37 136.412 160.388 136.469 160.392 136.49C160.476 136.709 161.18 136.983 161.643 137.013C161.44 136.683 161.147 136.426 160.805 136.278C160.711 136.254 160.612 136.267 160.527 136.316Z" fill="#407BFF"/>
<path d="M161.924 136.58L165.042 134.858C165.16 134.793 165.304 134.825 165.39 134.934L167.283 137.36C167.453 137.573 167.43 137.893 167.232 138.072C167.207 138.095 167.179 138.116 167.15 138.132C166.015 138.732 164.984 139.218 163.586 139.993C161.934 140.906 162.457 140.887 160.53 141.989C159.368 142.652 158.457 141.336 158.919 140.991C161.039 139.429 160.916 138.559 161.366 137.199C161.474 136.926 161.673 136.706 161.924 136.58Z" fill="#263238"/>
<path d="M132.545 54.3547L129.136 56.506C128.916 56.7379 121.898 49.9303 121.898 49.9303C121.898 49.9303 121.658 47.8126 121.562 47.4688L121.325 46.6169C121.298 46.5218 121.282 46.4244 121.277 46.3262L121.275 46.3032C121.234 45.5748 120.631 45.0054 119.901 45.0046C119.628 45.0043 119.361 45.0857 119.134 45.2377L117.537 46.3075C117.064 46.6243 116.834 47.1999 116.96 47.7553L120.489 50.7705C120.489 50.7705 125.356 59.9382 127.836 61.3806C130.124 62.7122 135.062 57.3454 135.062 57.3454L132.545 54.3547Z" fill="#CE7A63"/>
<path d="M138.714 51.5425C138.142 50.9065 137.524 50.3519 136.297 50.4388C134.394 50.5737 130.656 54.8313 130.656 54.8313L134.038 60.2161C134.038 60.2161 138.473 56.3076 139.189 54.691C139.747 53.4283 139.41 52.3161 138.714 51.5425Z" fill="#407BFF"/>
<path opacity="0.5" d="M138.714 51.5425C138.142 50.9065 137.524 50.3519 136.297 50.4388C134.394 50.5737 130.656 54.8313 130.656 54.8313L134.038 60.2161C134.038 60.2161 138.473 56.3076 139.189 54.691C139.747 53.4283 139.41 52.3161 138.714 51.5425Z" fill="black"/>
<path opacity="0.2" d="M135.95 58.4433C135.815 56.3011 135.737 53.9608 135.737 53.9608L137.36 57.0271C136.9 57.5127 136.41 58.0002 135.95 58.4433Z" fill="black"/>
<path d="M142.809 50.7704L141.083 50.173C141.094 49.6855 140.946 49.1917 140.717 48.7057C140.573 48.4056 140.412 48.1137 140.234 47.8323L141.867 45.0798L143.067 43.061C143.303 45.072 143.985 48.4789 145.504 49.749L142.809 50.7704Z" fill="#CE7A63"/>
<path opacity="0.2" d="M140.234 47.8324C140.412 48.1177 140.574 48.4131 140.717 48.7171C141.519 48.2342 142.345 46.901 142.151 45.9754C142.09 45.6671 141.994 45.3667 141.867 45.0798L140.234 47.8324Z" fill="black"/>
<path d="M153.769 51.7358L153.351 74.0873L151.782 74.3247C147.56 74.9634 143.25 74.6739 139.151 73.477L135.41 52.322C135.212 51.3325 135.959 50.4054 136.968 50.3874L152.124 50.1228C153.026 50.1072 153.767 50.8333 153.769 51.7358Z" fill="#407BFF"/>
<path opacity="0.5" d="M153.769 51.7358L153.351 74.0873L151.782 74.3247C147.56 74.9634 143.25 74.6739 139.151 73.477L135.41 52.322C135.212 51.3325 135.959 50.4054 136.968 50.3874L152.124 50.1228C153.026 50.1072 153.767 50.8333 153.769 51.7358Z" fill="black"/>
<path opacity="0.2" d="M153.53 63.1425C149.218 58.1639 149.218 54.5543 149.218 54.5543L153.744 55.9651L153.53 63.1425Z" fill="black"/>
<path d="M138.062 37.8482C138.062 37.8482 135.228 38.2204 135.822 36.0524C135.822 36.0524 135.947 36.7028 139.038 36.591C142.128 36.4791 138.062 37.8482 138.062 37.8482Z" fill="#263238"/>
<path opacity="0.9" d="M138.062 37.8482C138.062 37.8482 135.228 38.2204 135.822 36.0524C135.822 36.0524 135.947 36.7028 139.038 36.591C142.128 36.4791 138.062 37.8482 138.062 37.8482Z" fill="black"/>
<path d="M144.133 41.4356C143.457 44.3164 143.211 46.0323 141.483 47.3238C139.797 48.6142 137.384 48.2934 136.094 46.6075C135.619 45.9871 135.344 45.2365 135.306 44.4563C135.121 41.7622 136.256 37.5025 139.31 36.7332C141.378 36.1518 143.526 37.3568 144.107 39.4242C144.292 40.0809 144.301 40.7742 144.133 41.4356Z" fill="#CE7A63"/>
<path d="M139.565 41.6531C139.527 41.8892 139.366 42.0615 139.212 42.0276C139.059 41.9937 138.965 41.7988 139.003 41.5627C139.04 41.3265 139.202 41.1507 139.359 41.1881C139.517 41.2259 139.606 41.4169 139.565 41.6531Z" fill="#263238"/>
<path d="M136.879 41.2914C136.841 41.5276 136.683 41.6998 136.526 41.6659C136.369 41.632 136.279 41.4372 136.317 41.1975C136.355 40.9578 136.515 40.7895 136.673 40.823C136.83 40.8565 136.92 41.0514 136.879 41.2914Z" fill="#263238"/>
<path d="M137.714 41.524C137.306 42.2103 136.809 42.8401 136.236 43.3962C136.588 43.8425 137.334 43.7719 137.334 43.7719L137.714 41.524Z" fill="#BA4D3C"/>
<path d="M139.585 43.8339C139.115 44.2883 138.46 44.4964 137.814 44.3962C137.774 44.383 137.732 44.4044 137.718 44.4442C137.705 44.4839 137.726 44.5272 137.766 44.54C137.775 44.5432 137.785 44.5443 137.794 44.5439C137.893 44.5611 137.993 44.5704 138.094 44.572C138.691 44.5884 139.269 44.3592 139.693 43.9379C139.72 43.9087 139.72 43.8631 139.693 43.8339" fill="#263238"/>
<path d="M140.544 40.9009C140.566 40.9063 140.589 40.9063 140.611 40.9009C140.68 40.867 140.708 40.784 140.674 40.715C140.673 40.7131 140.672 40.7115 140.671 40.7095C140.471 40.3019 140.08 40.0205 139.63 39.9593C139.554 39.9531 139.487 40.0096 139.48 40.086C139.48 40.0876 139.48 40.0887 139.48 40.0903C139.474 40.1667 139.53 40.2337 139.607 40.2399C139.608 40.2399 139.61 40.2403 139.611 40.2403C139.96 40.2906 140.263 40.5077 140.423 40.8218C140.445 40.8697 140.492 40.9005 140.544 40.9009Z" fill="#263238"/>
<path d="M135.882 40.215C135.929 40.2162 135.973 40.1936 135.999 40.155C136.201 39.8498 136.533 39.6561 136.898 39.6312C136.976 39.6183 137.029 39.5455 137.016 39.4679C137.006 39.4075 136.959 39.3604 136.899 39.3502C136.444 39.3756 136.027 39.6141 135.774 39.9936C135.729 40.056 135.744 40.1425 135.806 40.1873C135.806 40.1877 135.807 40.1881 135.808 40.1889C135.829 40.2056 135.855 40.2146 135.882 40.215Z" fill="#263238"/>
<path opacity="0.9" d="M144.182 51.712L143.283 53.5117L143.014 53.9022L144.426 68.2653L142.542 69.9321L140.662 68.0057L142.17 53.9015L141.871 53.3356L141.06 51.7097L141.702 50.7689L143.371 50.3948L144.182 51.712Z" fill="white"/>
<path d="M145.867 49.0496L142.746 50.2507L140.218 49.1489L138.884 50.6622L140.188 53.7862L142.766 51.1073L145.32 53.9039L147.149 50.4097L145.867 49.0496Z" fill="#407BFF"/>
<path opacity="0.3" d="M145.867 49.0496L142.746 50.2507L140.218 49.1489L138.884 50.6622L140.188 53.7862L142.766 51.1073L145.32 53.9039L147.149 50.4097L145.867 49.0496Z" fill="black"/>
<path d="M156.795 56.907C156.795 56.907 160.225 61.5696 160.115 63.386C159.94 66.2914 153.599 73.0347 153.599 73.0347L152.804 75.5741C152.705 75.8917 152.486 76.1583 152.194 76.3181L150.155 77.4319C149.564 77.7546 148.825 77.5667 148.459 77.0016L147.988 76.2725C147.674 75.7873 147.722 75.1528 148.106 74.721L148.902 73.825C148.94 73.7822 148.981 73.742 149.024 73.7046L151.634 71.938C151.634 71.938 153.68 68.2961 154.803 65.6721C155.223 64.692 155.508 63.791 155.502 63.1659C155.487 61.7742 153.03 58.1771 153.03 58.1771L156.795 56.907Z" fill="#CE7A63"/>
<path d="M150.052 50.4345C150.75 49.9404 152.371 50.0444 153.131 50.4369C155.139 51.4728 158.373 57.4557 158.373 57.4557L152.553 60.6448C152.553 60.6448 149.076 55.4151 148.909 53.3418C148.839 52.4841 149.349 50.9322 150.052 50.4345Z" fill="#407BFF"/>
<path opacity="0.5" d="M150.052 50.4345C150.75 49.9404 152.371 50.0444 153.131 50.4369C155.139 51.4728 158.373 57.4557 158.373 57.4557L152.553 60.6448C152.553 60.6448 149.076 55.4151 148.909 53.3418C148.839 52.4841 149.349 50.9322 150.052 50.4345Z" fill="black"/>
<path d="M114.764 47.9053L113.627 48.0997L113.696 48.5058L114.834 48.3113L114.764 47.9053Z" fill="#263238"/>
<path opacity="0.2" d="M114.764 47.9053L113.627 48.0997L113.696 48.5058L114.834 48.3113L114.764 47.9053Z" fill="white"/>
<path d="M118.419 47.1839L114.637 47.8306L114.739 48.4318L118.522 47.7851L118.419 47.1839Z" fill="#263238"/>
<path opacity="0.4" d="M118.419 47.1839L114.637 47.8306L114.739 48.4318L118.522 47.7851L118.419 47.1839Z" fill="white"/>
<path d="M122.768 46.3655L118.084 47.1661L118.211 47.9102L122.895 47.1095L122.768 46.3655Z" fill="#263238"/>
<path opacity="0.5" d="M122.768 46.3655L118.084 47.1661L118.211 47.9102L122.895 47.1095L122.768 46.3655Z" fill="white"/>
<path d="M123.156 46.2213L122.672 46.304L122.826 47.204L123.31 47.1213L123.156 46.2213Z" fill="#407BFF"/>
<path d="M143.546 43.8924C143.546 43.8924 142.421 43.2393 142.565 40.9064C142.565 40.9064 141.401 40.1118 141.402 38.5143C141.402 38.5143 135.545 37.5513 136.603 35.4613C137.661 33.3712 141.855 32.8229 141.855 32.8229C141.855 32.8229 140.517 34.9125 144.255 36.8323C147.994 38.752 144.619 43.7817 144.619 43.7817L143.546 43.8924Z" fill="#263238"/>
<path d="M145.729 38.9827C145.729 38.9827 147.53 37.9098 146.892 37.183C146.254 36.4566 145.729 38.9827 145.729 38.9827Z" fill="#263238"/>
<path d="M144.824 44.0405C144.527 44.6317 144.018 45.0888 143.399 45.3207C142.586 45.6161 142.159 44.8963 142.369 44.0946C142.561 43.3678 143.214 42.3456 144.038 42.3986C144.863 42.4516 145.184 43.3062 144.824 44.0405Z" fill="#CE7A63"/>
</svg>
