<svg width="203" height="189" viewBox="0 0 203 189" fill="none" xmlns="http://www.w3.org/2000/svg">
<path d="M28.8612 126.032C28.3507 127.279 27.8254 128.522 27.4042 129.802C21.4657 147.841 38.2651 163.89 54.1768 168.712C63.0906 171.413 72.4409 171.039 81.268 168.243C89.7779 165.548 98.4721 162.315 107.553 162.863C120.841 163.665 128.965 174.392 141.013 177.778C145.16 178.944 149.667 179.148 153.736 177.735C162.889 174.556 169.475 163.4 171.685 154.422C174.592 142.615 170.405 130.742 165.291 120.185C157.772 104.661 155.162 88.6916 166.75 74.2911C178.953 59.1272 185.641 38.6634 169.437 23.3219C157.437 11.961 138.555 8.97631 122.786 12.0117C119.347 12.6736 115.963 13.6468 112.731 15.0014C104.162 18.5934 97.1712 25.0961 92.3578 32.9842C86.8558 42.0008 85.4952 52.814 79.9645 61.7735C70.8697 76.5073 53.0336 72.0546 40.711 81.4049C34.7907 85.8973 30.8388 92.8377 29.7937 100.178C28.5558 108.875 32.3415 117.527 28.8612 126.032Z" fill="#C8EEFB"/>
<path d="M48.2846 12.8841C35.1715 19.1512 26.673 34.6315 32.0929 49.3429C38.0969 65.6407 55.9093 62.5875 65.9366 52.1723C70.967 46.9474 75.8748 40.4202 78.3959 33.5644C80.1477 28.8013 80.4725 23.2727 78.0948 18.7891C74.8268 12.6266 67.2422 9.87494 60.2676 10.0044C56.0455 10.083 51.9819 11.1175 48.2846 12.8841Z" fill="#C8EEFB"/>
<path d="M183.149 107.162C189.298 100.639 190.743 89.844 184.352 82.5873C177.273 74.5482 167.706 80.2667 164.255 88.489C162.524 92.6134 161.153 97.4598 161.228 101.965C161.28 105.094 162.323 108.347 164.688 110.397C167.938 113.215 172.913 113.11 176.896 111.484C179.308 110.5 181.416 109 183.149 107.162Z" fill="#C8EEFB"/>
<path d="M25.4497 139.16H177.591V130.865C177.591 120.252 168.987 111.648 158.374 111.648C156.412 111.648 154.52 111.944 152.737 112.49C147.102 102.335 136.275 95.458 123.838 95.458C120.944 95.458 118.137 95.8331 115.462 96.5323C113.786 85.448 104.219 76.952 92.6672 76.952C80.2397 76.952 70.1138 86.7857 69.6342 99.0957C65.7241 97.3498 61.3958 96.3711 56.837 96.3711C39.4793 96.3711 25.4082 110.442 25.4082 127.8C25.4082 128.343 25.4222 128.882 25.4492 129.418L25.4497 139.16Z" fill="#FFC7CA"/>
<path d="M181.199 139.161H21.8013V140.673H181.199V139.161Z" fill="#FFDFEE"/>
<path d="M42.3534 103.651C42.3534 103.651 33.7957 115.935 17.8984 110.168C17.8984 110.168 27.3773 97.1194 42.3534 103.651Z" fill="#7DBF8D"/>
<path d="M18.3526 87.8914L15.5857 90.3448C18.1064 94.0544 21.6688 97.8392 26.6294 100.534L29.6775 97.739L29.5468 101.916C31.0169 102.517 32.5924 103.024 34.279 103.416L36.5519 101.82L36.129 103.792C38.3384 104.174 40.7254 104.361 43.3049 104.311C43.3049 104.311 41.2845 96.8174 35.6798 89.8009L32.3915 90.687L34.145 87.9971C32.5543 86.244 30.7217 84.5675 28.6206 83.0982L26.6637 84.7485L27.0701 82.0836C22.5684 79.3341 16.9509 77.5599 10 77.8513C10 77.8513 11.0332 82.8677 14.4281 88.5321L18.3526 87.8914Z" fill="#A0DAB0"/>
<path d="M10 77.8514C13.0003 79.7563 15.9046 81.8 18.77 83.8935C20.2097 84.9314 21.6176 86.0111 23.0357 87.0774C24.4441 88.1563 25.8398 89.2517 27.235 90.3479C28.6197 91.4573 29.9985 92.5738 31.3701 93.6997C32.7273 94.8429 34.1006 95.9662 35.4337 97.1382C38.1248 99.4516 40.7576 101.834 43.3053 104.311C40.4442 102.202 37.6536 100.017 34.8585 97.8381L30.679 94.5549L26.5131 91.2564L22.3607 87.941L18.2202 84.6091C15.4626 82.3828 12.7152 80.1429 10 77.8514Z" fill="#7DBF8D"/>
<path d="M44.1316 102.14C44.1316 102.14 31.3179 94.3978 36.0408 78.16C36.0408 78.16 49.6776 86.7723 44.1316 102.14Z" fill="#7DBF8D"/>
<path d="M44.7587 102.981C44.7587 102.981 45.8355 117.913 29.8506 123.433C29.8506 123.433 29.0086 107.327 44.7587 102.981Z" fill="#A0DAB0"/>
<path d="M160.646 103.651C160.646 103.651 169.204 115.935 185.101 110.168C185.101 110.168 175.623 97.1194 160.646 103.651Z" fill="#7DBF8D"/>
<path d="M184.647 87.8914L187.414 90.3448C184.893 94.0544 181.331 97.8392 176.37 100.534L173.322 97.739L173.452 101.916C171.982 102.517 170.407 103.024 168.72 103.416L166.447 101.82L166.87 103.792C164.661 104.174 162.274 104.361 159.694 104.311C159.694 104.311 161.715 96.8174 167.319 89.8009L170.608 90.687L168.854 87.9971C170.445 86.244 172.278 84.5675 174.379 83.0982L176.336 84.7485L175.929 82.0836C180.431 79.3341 186.049 77.5599 192.999 77.8513C192.999 77.8513 191.966 82.8677 188.571 88.5321L184.647 87.8914Z" fill="#A0DAB0"/>
<path d="M193 77.8513C189.999 79.7562 187.095 81.7998 184.23 83.8934C182.79 84.9313 181.382 86.011 179.964 87.0772C178.555 88.1561 177.16 89.2515 175.765 90.3478C174.38 91.4572 173.001 92.5737 171.63 93.6996C170.272 94.8428 168.899 95.9661 167.566 97.138C164.875 99.4515 162.242 101.834 159.694 104.311C162.555 102.202 165.346 100.017 168.141 97.838L172.321 94.5547L176.487 91.2563L180.639 87.9409L184.779 84.609C187.537 82.3826 190.284 80.1428 193 77.8513Z" fill="#7DBF8D"/>
<path d="M158.869 102.14C158.869 102.14 171.683 94.3978 166.96 78.16C166.96 78.16 153.323 86.7723 158.869 102.14Z" fill="#7DBF8D"/>
<path d="M158.241 102.981C158.241 102.981 157.164 117.913 173.149 123.433C173.149 123.433 173.991 107.327 158.241 102.981Z" fill="#A0DAB0"/>
<path d="M152.666 115.293H50.3335C44.8408 115.293 40.3882 110.84 40.3882 105.348V31.275C40.3882 25.7824 44.8408 21.3297 50.3335 21.3297H152.666C158.159 21.3297 162.611 25.7824 162.611 31.275V105.348C162.611 110.84 158.159 115.293 152.666 115.293Z" fill="#2B7AF0"/>
<path d="M50.3332 112.963C46.1343 112.963 42.7183 109.547 42.7183 105.348V31.2751C42.7183 27.0762 46.1343 23.6602 50.3332 23.6602H152.665C156.865 23.6602 160.28 27.0762 160.28 31.2751V105.348C160.28 109.547 156.864 112.963 152.665 112.963H50.3332Z" fill="#F7F7F7"/>
<path d="M160.281 42.7443V31.2751C160.281 27.0762 156.865 23.6602 152.666 23.6602H50.3332C46.1343 23.6602 42.7183 27.0762 42.7183 31.2751V42.7443H160.281Z" fill="#0B57C7"/>
<path d="M61.1989 27.31C61.1989 25.9253 60.0764 24.8029 58.6917 24.8029C57.307 24.8029 56.1846 25.9253 56.1846 27.31C56.1846 28.6947 57.307 29.8172 58.6917 29.8172C60.076 29.8172 61.1989 28.6947 61.1989 27.31Z" fill="#02214F"/>
<path d="M71.9006 27.31C71.9006 25.9253 70.7781 24.8029 69.3934 24.8029C68.0087 24.8029 66.8862 25.9253 66.8862 27.31C66.8862 28.6947 68.0087 29.8172 69.3934 29.8172C70.7781 29.8172 71.9006 28.6947 71.9006 27.31Z" fill="#02214F"/>
<path d="M82.6027 27.31C82.6027 25.9253 81.4802 24.8029 80.0955 24.8029C78.7109 24.8029 77.5884 25.9253 77.5884 27.31C77.5884 28.6947 78.7109 29.8172 80.0955 29.8172C81.4802 29.8172 82.6027 28.6947 82.6027 27.31Z" fill="#02214F"/>
<path d="M93.3053 27.31C93.3053 25.9253 92.1829 24.8029 90.7982 24.8029C89.4135 24.8029 88.291 25.9253 88.291 27.31C88.291 28.6947 89.4135 29.8172 90.7982 29.8172C92.1829 29.8172 93.3053 28.6947 93.3053 27.31Z" fill="#02214F"/>
<path d="M104.007 27.31C104.007 25.9253 102.885 24.8029 101.5 24.8029C100.115 24.8029 98.9927 25.9253 98.9927 27.31C98.9927 28.6947 100.115 29.8172 101.5 29.8172C102.885 29.8172 104.007 28.6947 104.007 27.31Z" fill="#02214F"/>
<path d="M114.709 27.31C114.709 25.9253 113.587 24.8029 112.202 24.8029C110.817 24.8029 109.695 25.9253 109.695 27.31C109.695 28.6947 110.817 29.8172 112.202 29.8172C113.587 29.8172 114.709 28.6947 114.709 27.31Z" fill="#02214F"/>
<path d="M125.412 27.31C125.412 25.9253 124.289 24.8029 122.905 24.8029C121.52 24.8029 120.397 25.9253 120.397 27.31C120.397 28.6947 121.52 29.8172 122.905 29.8172C124.289 29.8172 125.412 28.6947 125.412 27.31Z" fill="#02214F"/>
<path d="M136.113 27.31C136.113 25.9253 134.991 24.8029 133.606 24.8029C132.222 24.8029 131.099 25.9253 131.099 27.31C131.099 28.6947 132.222 29.8172 133.606 29.8172C134.991 29.8172 136.113 28.6947 136.113 27.31Z" fill="#02214F"/>
<path d="M146.816 27.31C146.816 25.9253 145.693 24.8029 144.308 24.8029C142.924 24.8029 141.801 25.9253 141.801 27.31C141.801 28.6947 142.924 29.8172 144.308 29.8172C145.693 29.8172 146.816 28.6947 146.816 27.31Z" fill="#02214F"/>
<path d="M58.6918 27.3101C57.8206 27.3101 57.1143 26.6038 57.1143 25.7325V20.909C57.1143 20.0377 57.8206 19.3314 58.6918 19.3314C59.5631 19.3314 60.2694 20.0377 60.2694 20.909V25.7325C60.2694 26.6038 59.5631 27.3101 58.6918 27.3101Z" fill="#539EF9"/>
<path d="M69.3935 27.3101C68.5222 27.3101 67.8159 26.6038 67.8159 25.7325V20.909C67.8159 20.0377 68.5222 19.3314 69.3935 19.3314C70.2647 19.3314 70.971 20.0377 70.971 20.909V25.7325C70.971 26.6038 70.2647 27.3101 69.3935 27.3101Z" fill="#539EF9"/>
<path d="M80.0956 27.3101C79.2244 27.3101 78.5181 26.6038 78.5181 25.7325V20.909C78.5181 20.0377 79.2244 19.3314 80.0956 19.3314C80.9669 19.3314 81.6732 20.0377 81.6732 20.909V25.7325C81.6736 26.6038 80.9669 27.3101 80.0956 27.3101Z" fill="#539EF9"/>
<path d="M90.7978 27.3101C89.9265 27.3101 89.2202 26.6038 89.2202 25.7325V20.909C89.2202 20.0377 89.9265 19.3314 90.7978 19.3314C91.669 19.3314 92.3753 20.0377 92.3753 20.909V25.7325C92.3753 26.6038 91.669 27.3101 90.7978 27.3101Z" fill="#539EF9"/>
<path d="M101.5 27.3101C100.629 27.3101 99.9224 26.6038 99.9224 25.7325V20.909C99.9224 20.0377 100.629 19.3314 101.5 19.3314C102.371 19.3314 103.077 20.0377 103.077 20.909V25.7325C103.077 26.6038 102.371 27.3101 101.5 27.3101Z" fill="#539EF9"/>
<path d="M112.202 27.3101C111.331 27.3101 110.625 26.6038 110.625 25.7325V20.909C110.625 20.0377 111.331 19.3314 112.202 19.3314C113.073 19.3314 113.78 20.0377 113.78 20.909V25.7325C113.78 26.6038 113.074 27.3101 112.202 27.3101Z" fill="#539EF9"/>
<path d="M122.904 27.3101C122.033 27.3101 121.327 26.6038 121.327 25.7325V20.909C121.327 20.0377 122.033 19.3314 122.904 19.3314C123.775 19.3314 124.482 20.0377 124.482 20.909V25.7325C124.482 26.6038 123.775 27.3101 122.904 27.3101Z" fill="#539EF9"/>
<path d="M133.606 27.3101C132.735 27.3101 132.029 26.6038 132.029 25.7325V20.909C132.029 20.0377 132.735 19.3314 133.606 19.3314C134.478 19.3314 135.184 20.0377 135.184 20.909V25.7325C135.184 26.6038 134.478 27.3101 133.606 27.3101Z" fill="#539EF9"/>
<path d="M144.308 27.3101C143.437 27.3101 142.73 26.6038 142.73 25.7325V20.909C142.73 20.0377 143.437 19.3314 144.308 19.3314C145.179 19.3314 145.886 20.0377 145.886 20.909V25.7325C145.886 26.6038 145.18 27.3101 144.308 27.3101Z" fill="#539EF9"/>
<path d="M59.901 64.8462H48.9893V75.7579H59.901V64.8462Z" fill="#B9DDFF"/>
<path d="M59.901 79.1083H48.9893V90.02H59.901V79.1083Z" fill="#B9DDFF"/>
<path d="M59.901 93.37H48.9893V104.282H59.901V93.37Z" fill="#B9DDFF"/>
<path d="M75.5861 64.8462H64.6743V75.7579H75.5861V64.8462Z" fill="#B9DDFF"/>
<path d="M75.5861 79.1083H64.6743V90.02H75.5861V79.1083Z" fill="#B9DDFF"/>
<path d="M75.5861 93.37H64.6743V104.282H75.5861V93.37Z" fill="#B9DDFF"/>
<path d="M91.2706 50.5837H80.3589V61.4955H91.2706V50.5837Z" fill="#FE769C"/>
<path d="M91.2706 64.8462H80.3589V75.7579H91.2706V64.8462Z" fill="#B9DDFF"/>
<path d="M91.2706 79.1083H80.3589V90.02H91.2706V79.1083Z" fill="#B9DDFF"/>
<path d="M91.2706 93.37H80.3589V104.282H91.2706V93.37Z" fill="#FCBA06"/>
<path d="M106.956 50.5837H96.0439V61.4955H106.956V50.5837Z" fill="#B9DDFF"/>
<path d="M106.956 64.8462H96.0439V75.7579H106.956V64.8462Z" fill="#B9DDFF"/>
<path d="M106.956 79.1083H96.0439V90.02H106.956V79.1083Z" fill="#B9DDFF"/>
<path d="M106.956 93.37H96.0439V104.282H106.956V93.37Z" fill="#B9DDFF"/>
<path d="M122.64 50.5837H111.729V61.4955H122.64V50.5837Z" fill="#B9DDFF"/>
<path d="M122.64 64.8462H111.729V75.7579H122.64V64.8462Z" fill="#FCBA06"/>
<path d="M122.64 79.1083H111.729V90.02H122.64V79.1083Z" fill="#B9DDFF"/>
<path d="M122.64 93.37H111.729V104.282H122.64V93.37Z" fill="#01BEEE"/>
<path d="M138.325 50.5837H127.414V61.4955H138.325V50.5837Z" fill="#B9DDFF"/>
<path d="M138.325 64.8462H127.414V75.7579H138.325V64.8462Z" fill="#B9DDFF"/>
<path d="M138.325 79.1083H127.414V90.02H138.325V79.1083Z" fill="#B9DDFF"/>
<path d="M138.325 93.37H127.414V104.282H138.325V93.37Z" fill="#B9DDFF"/>
<path d="M154.01 50.5837H143.098V61.4955H154.01V50.5837Z" fill="#0B57C7"/>
<path d="M154.01 64.8462H143.098V75.7579H154.01V64.8462Z" fill="#0B57C7"/>
<path d="M154.01 79.1083H143.098V90.02H154.01V79.1083Z" fill="#0B57C7"/>
<path d="M154.01 93.37H143.098V104.282H154.01V93.37Z" fill="#0B57C7"/>
<path d="M87.711 35.1852V38.7856H86.7133L85.3451 37.1501V38.7856H84.1621V35.1852H85.1598L86.528 36.8207V35.1852H87.711Z" fill="white"/>
<path d="M89.3394 36.9851C89.3394 35.8948 90.1983 35.1027 91.3711 35.1027C92.5439 35.1027 93.4029 35.8948 93.4029 36.9851C93.4029 38.0755 92.5444 38.8676 91.3711 38.8676C90.1983 38.8676 89.3394 38.0755 89.3394 36.9851ZM92.1789 36.9851C92.1789 36.4243 91.8186 36.0851 91.3711 36.0851C90.9237 36.0851 90.5638 36.4248 90.5638 36.9851C90.5638 37.5455 90.9241 37.8852 91.3711 37.8852C91.819 37.8852 92.1789 37.546 92.1789 36.9851Z" fill="white"/>
<path d="M98.7504 35.1852L97.2279 38.7856H96.0348L94.5122 35.1852H95.8187L96.6772 37.2889L97.5569 35.1852H98.7504Z" fill="white"/>
<path d="M103.049 37.87V38.7853H100.056V35.1848H102.982V36.1005H101.249V36.5221H102.771V37.3963H101.249V37.8696L103.049 37.87Z" fill="white"/>
<path d="M107.918 38.7852L107.908 37.1446L107.126 38.4612H106.591L105.809 37.2013V38.7856H104.704V35.1852H105.701L106.874 37.1036L108.016 35.1852H109.013L109.023 38.7856L107.918 38.7852Z" fill="white"/>
<path d="M114.346 37.7926C114.346 38.4203 113.816 38.7853 112.823 38.7853H110.797V35.1848H112.72C113.713 35.1848 114.176 35.5807 114.176 36.1258C114.176 36.4604 114.007 36.7378 113.677 36.9024C114.099 37.0571 114.346 37.3659 114.346 37.7926ZM111.99 36.0336V36.5687H112.556C112.829 36.5687 112.952 36.476 112.952 36.3014C112.952 36.1267 112.829 36.0341 112.556 36.0341L111.99 36.0336ZM113.122 37.6539C113.122 37.4687 112.989 37.371 112.721 37.371H111.99V37.9364H112.721C112.988 37.9369 113.122 37.8392 113.122 37.6539Z" fill="white"/>
<path d="M118.954 37.87V38.7853H115.96V35.1848H118.887V36.1005H117.153V36.5221H118.676V37.3963H117.153V37.8696L118.954 37.87Z" fill="white"/>
<path d="M122.151 37.8802H121.822V38.7853H120.608V35.1848H122.342C123.344 35.1848 123.982 35.7093 123.982 36.5429C123.982 37.0622 123.735 37.453 123.303 37.6742L124.059 38.7853H122.764L122.151 37.8802ZM122.264 36.1212H121.822V36.9645H122.264C122.598 36.9645 122.758 36.8051 122.758 36.5429C122.758 36.2806 122.598 36.1212 122.264 36.1212Z" fill="white"/>
<path d="M86.886 63.0599C82.0878 63.0599 78.1841 59.1562 78.1841 54.3576C78.1841 49.559 82.0878 45.6553 86.886 45.6553C91.6846 45.6553 95.5883 49.559 95.5883 54.3576C95.5883 59.1562 91.6846 63.0599 86.886 63.0599ZM86.886 46.1535C82.3623 46.1535 78.6823 49.8339 78.6823 54.3576C78.6823 58.8813 82.3623 62.5617 86.886 62.5617C91.4097 62.5617 95.0901 58.8813 95.0901 54.3576C95.0901 49.8339 91.4101 46.1535 86.886 46.1535Z" fill="#1F75FE"/>
<path d="M86.8859 60.6264C83.4293 60.6264 80.6172 57.8143 80.6172 54.3576C80.6172 50.901 83.4293 48.0889 86.8859 48.0889C90.343 48.0889 93.1551 50.901 93.1551 54.3576C93.1555 57.8143 90.343 60.6264 86.8859 60.6264ZM86.8859 48.5867C83.7042 48.5867 81.115 51.1754 81.115 54.3576C81.115 57.5394 83.7038 60.1286 86.8859 60.1286C90.0681 60.1286 92.6573 57.5398 92.6573 54.3576C92.6573 51.1754 90.0685 48.5867 86.8859 48.5867Z" fill="#1F75FE"/>
<path d="M86.8862 58.5871C84.5541 58.5871 82.6572 56.6898 82.6572 54.3577C82.6572 52.0256 84.5541 50.1288 86.8862 50.1288C89.2182 50.1288 91.1155 52.0261 91.1155 54.3577C91.1155 56.6898 89.2182 58.5871 86.8862 58.5871ZM86.8862 50.6266C84.829 50.6266 83.1554 52.3001 83.1554 54.3577C83.1554 56.4153 84.829 58.0889 86.8862 58.0889C88.9433 58.0889 90.6173 56.4149 90.6173 54.3577C90.6177 52.3001 88.9437 50.6266 86.8862 50.6266Z" fill="#1F75FE"/>
<path d="M61.0201 169.891C75.9377 169.891 88.0308 167.755 88.0308 165.121C88.0308 162.486 75.9377 160.35 61.0201 160.35C46.1024 160.35 34.0093 162.486 34.0093 165.121C34.0093 167.755 46.1024 169.891 61.0201 169.891Z" fill="#9AD8E8"/>
<path d="M87.3413 59.5517C87.3413 59.7129 87.2787 59.8744 87.1539 59.9966C86.5737 60.5587 85.4499 61.3885 83.9823 61.1961V61.1986C83.9823 61.1986 83.0823 62.2056 82.3354 62.9728C82.1743 63.1395 82.0208 63.3163 81.8774 63.4986L76.5416 70.3565L72.5428 75.4947L72.4595 75.5053C72.4307 75.2295 72.3605 74.9563 72.2645 74.6962C72.1029 74.2593 71.9236 73.8533 72.0589 73.3851C72.0978 73.2523 72.1473 73.1301 72.1968 73.0104L72.4155 73.0518C72.9932 72.719 73.469 72.266 73.8332 71.8393C74.3094 71.2827 74.5851 70.5827 74.624 69.8595C74.6346 69.6671 74.6291 69.4772 74.6059 69.2847C74.4836 68.2312 74.2417 67.1514 74.0049 66.2565L82.4369 58.3138C82.5566 58.1992 82.6738 58.0824 82.7829 57.9572L86.1545 54.1381C86.3808 53.8806 86.7686 53.8493 87.0338 54.0654C87.1873 54.1902 87.2656 54.375 87.2656 54.5598C87.2656 54.6871 87.2292 54.8148 87.1484 54.9265L85.5561 57.1507L84.9576 57.983L84.8455 58.1391C84.6036 58.48 84.6531 58.9457 84.9652 59.2239C85.1213 59.3644 85.3163 59.4346 85.5117 59.4346C85.6808 59.4346 85.85 59.3825 85.9955 59.276L86.3258 59.034C86.4895 58.9118 86.698 58.8805 86.8849 58.9351V58.9376C86.9784 58.9634 87.0698 59.0184 87.145 59.0911C87.2766 59.2159 87.3413 59.3851 87.3413 59.5517Z" fill="#D9844B"/>
<path d="M86.8868 58.9349C86.6994 58.8803 86.4913 58.9116 86.3277 59.0338L85.9974 59.2758C85.8882 58.0632 84.9595 57.9829 84.9595 57.9829L85.5579 57.1505C85.5579 57.1505 86.8842 57.2541 86.8868 58.9349Z" fill="#C56F3E"/>
<path d="M85.9966 59.2758C85.8511 59.3824 85.6819 59.4344 85.5127 59.4344C85.3177 59.4344 85.1224 59.3642 84.9663 59.2238C84.6542 58.9455 84.6047 58.4799 84.8466 58.139L84.9583 57.9829C84.9583 57.9829 85.8874 58.0633 85.9966 59.2758Z" fill="#C56F3E"/>
<path d="M73.7693 96.9839C73.6208 96.3567 73.4855 95.7117 73.3582 95.0587C73.0719 93.5835 72.8354 92.0825 72.6481 90.7164C72.6092 90.4508 72.5753 90.1907 72.5415 89.9386H72.544C72.544 89.9386 74.5263 88.0523 78.4525 88.4114L79.207 95.1784C79.207 95.1784 79.8156 97.6602 80.2842 98.9247C80.2842 98.9247 81.0801 102.294 81.2206 105.007C81.2206 105.007 81.6888 112.869 83.7937 117.222C83.7937 117.222 84.322 118.348 83.3255 119.748L81.2206 122.582C81.0514 122.808 80.7287 122.844 80.513 122.662C80.4013 122.566 80.3413 122.428 80.3413 122.29C80.3413 122.194 80.37 122.098 80.4271 122.014L81.1736 120.935L80.6145 121.46C80.5443 121.528 80.4504 121.562 80.3595 121.562C80.263 121.562 80.1696 121.525 80.0968 121.452C79.9539 121.312 79.9513 121.083 80.0863 120.937L81.2595 119.67C81.4545 119.462 81.5796 119.196 81.616 118.913C81.6655 118.531 81.6186 118.14 81.4781 117.781L81.1711 116.998L80.6509 118.936C80.5676 119.254 80.2787 119.467 79.964 119.467C79.9069 119.467 79.8524 119.46 79.7948 119.446C79.4256 119.355 79.1913 118.996 79.259 118.624C79.5479 117.045 79.5817 114.883 79.5817 114.883C79.5817 113.137 79.2852 111.719 79.1418 111.139C79.1004 110.97 79.0454 110.803 78.9807 110.64L78.6918 109.932L77.953 108.116L75.9161 103.108V103.105L74.5581 99.7702C74.506 99.6429 74.4591 99.5152 74.4202 99.3853C74.1829 98.641 73.9668 97.8293 73.7693 96.9839Z" fill="#D9844B"/>
<path d="M64.6113 116.452L65.886 121.694C66.0031 122.178 66.0446 122.675 66.0108 123.169L65.532 130.212C63.1048 134.957 59.8943 139.82 59.8943 139.82C56.4782 145.83 53.5904 154.17 52.5995 157.175C50.8409 156.65 46.6572 154.751 46.6572 154.751C48.2183 150.153 55.0136 135.392 56.4706 132.239C56.6554 131.843 56.7802 131.422 56.8479 130.99L58.3307 121.291C58.4165 120.724 58.3852 120.144 58.263 119.582C56.9413 113.525 60.2766 109.176 60.4043 109.011C60.4069 109.011 60.4069 109.009 60.4069 109.009C61.1588 108.728 62.7093 108.226 64.9027 107.903C66.2814 107.7 67.9152 107.571 69.7626 107.609C70.3036 107.623 70.8449 107.675 71.3808 107.763C72.2288 107.903 73.8004 108.13 75.4964 108.19C76.2872 108.216 77.1069 108.208 77.8923 108.14L77.9523 108.117L78.6912 109.933C78.9044 118.175 75.814 132.942 75.814 132.942C74.1595 142.932 73.912 153.1 73.8782 156.828C70.7354 157.577 67.8581 157.286 67.8581 157.286C67.4238 151.289 67.8581 135.164 67.8581 135.164C68.1445 130.871 68.0819 127.421 67.8844 124.768C67.5384 120.111 66.7813 117.907 66.7813 117.907C65.8835 117.547 65.1733 117.04 64.6113 116.452Z" fill="#018389"/>
<path d="M78.3318 87.3211L78.4515 88.411C74.5258 88.0519 72.5431 89.9382 72.5431 89.9382H72.5405C72.4834 89.4801 72.4289 89.0407 72.3794 88.6296C72.3794 88.6296 74.4218 87.0817 78.3293 87.3211H78.3318Z" fill="white"/>
<path d="M66.7553 82.7293C67.3851 82.5161 67.9704 82.1545 68.3396 81.6106C68.519 81.3454 68.6467 81.0147 68.8992 80.8066C69.2841 80.4894 69.828 80.492 70.1946 80.1122C70.4078 79.8884 70.5355 79.597 70.6163 79.298C70.6814 79.0637 70.7203 78.8167 70.6916 78.5773C70.6683 78.3823 70.6007 78.1895 70.629 77.9945C70.6577 77.794 70.8058 77.6955 70.9855 77.6304L70.9961 77.8127C71.285 77.7995 72.4062 77.7763 73.6652 78.1612C73.0198 78.4081 72.3825 78.8429 71.9714 79.2904C71.0139 80.3338 70.884 82.709 72.4189 83.3383C73.0744 83.6065 73.8289 83.3616 74.4561 83.7494C75.0309 84.1085 75.0546 84.7302 75.4395 85.1933C76.1733 86.0806 77.2894 85.8412 78.093 85.1777L78.3323 87.3215H78.3298C74.4223 87.0821 72.3799 88.6301 72.3799 88.6301C72.4294 89.0412 72.484 89.481 72.5411 89.9386C72.5749 90.1911 72.6088 90.4512 72.6477 90.7164C71.5523 91.619 70.1139 92.3007 69.622 93.5886C69.2189 94.6447 69.721 95.9507 70.9669 96.0471C71.8644 96.1148 72.6033 95.5789 73.3578 95.0587C73.4851 95.7117 73.6204 96.3567 73.7689 96.9839C73.329 97.1844 72.9027 97.4496 72.6269 98.0091C71.6229 100.062 72.58 102.182 72.0103 104.258C71.5472 105.947 69.6947 105.752 68.3054 106.108C67.6266 106.283 66.716 106.337 66.0913 106.668C65.5165 106.972 65.1418 107.402 64.9024 107.904C62.7091 108.226 61.1586 108.728 60.4066 109.009C60.4066 109.009 60.4066 109.012 60.4041 109.012C60.0683 109.137 59.894 109.217 59.894 109.217C61.0935 107.531 61.8869 105.942 62.3995 104.503C62.5268 104.147 62.6389 103.785 62.7324 103.421C63.4843 103.361 64.2879 103.517 64.9697 103.725C66.2186 104.108 66.9575 103.967 67.816 102.927C68.5054 102.086 68.4509 100.65 68.1645 99.6382C67.8135 98.3817 66.7676 97.4085 66.6712 96.0894C66.5282 94.146 67.9928 91.9607 66.3383 90.2592C65.3964 89.289 63.6586 89.2861 62.493 89.7128C61.9233 89.9209 61.3456 90.1992 60.8359 90.535C60.3001 88.1572 60.0683 86.1149 59.9697 84.6655C60.542 84.4498 61.1091 84.4417 61.7182 84.6109C61.7909 84.6291 61.8637 84.6498 61.9394 84.6761C63.4146 85.1705 64.4211 86.7624 65.5064 87.8138C66.2947 88.5759 67.7281 89.5335 68.8704 88.9431C69.9709 88.3759 69.6537 86.4088 68.829 85.7224C68.3764 85.3451 67.7128 85.2305 67.1926 84.9653C66.2795 84.5022 65.8892 83.7896 65.8659 82.931C66.0118 82.9128 66.1573 82.8866 66.3002 82.8557C66.4533 82.8206 66.6043 82.7788 66.7553 82.7293Z" fill="#FE769C"/>
<path d="M78.2567 163.211C78.2931 163.448 78.236 163.823 77.5986 164.018C77.5986 164.018 76.1471 164.761 72.7936 164.595C72.523 164.582 72.2552 164.624 72.0002 164.712C71.532 164.876 70.6916 165.121 69.8695 165.121H67.619C67.619 165.121 67.4604 163.781 67.7336 162.407C67.8246 161.952 67.8584 161.489 67.8584 161.024V160.769C67.8584 160.451 68.1134 160.196 68.4281 160.196H68.9276H69.4842C69.721 160.196 69.9473 160.29 70.1215 160.456C70.4104 160.732 71.0139 161.076 72.0336 160.62C72.0336 160.62 72.325 160.399 72.7674 160.308C73.1159 160.238 73.5608 160.249 74.029 160.519L74.9109 161.411C75.1139 161.619 75.3558 161.784 75.6239 161.898L78.041 162.933C78.1552 162.982 78.2385 163.086 78.2567 163.211Z" fill="white"/>
<path d="M77.8931 83.3849L78.0936 85.1773C77.2896 85.8409 76.1735 86.0802 75.4401 85.1929C75.0552 84.7298 75.0316 84.1081 74.4568 83.749C73.8296 83.3612 73.0755 83.6061 72.4195 83.3379C70.8847 82.7082 71.0145 80.333 71.972 79.29C72.3831 78.8425 73.0205 78.4082 73.6659 78.1608C75.4448 78.6996 77.5053 80.0496 77.8931 83.3849Z" fill="#EF4E8C"/>
<path d="M75.9152 103.108L77.9521 108.116L77.892 108.139C77.1062 108.207 76.287 108.215 75.4961 108.189L75.9152 103.108Z" fill="#B72963"/>
<path d="M75.9157 103.106V103.108L75.497 108.189C73.8006 108.13 72.2294 107.903 71.3814 107.763C70.8456 107.674 70.3042 107.622 69.7633 107.609C67.9163 107.57 66.2825 107.7 64.9033 107.903C65.1427 107.401 65.5174 106.972 66.0922 106.667C66.7164 106.337 67.627 106.282 68.3063 106.108C69.6956 105.751 71.5481 105.946 72.0112 104.258C72.5809 102.181 71.6233 100.061 72.6278 98.0083C72.9036 97.4488 73.3303 97.1836 73.7697 96.9832C73.9673 97.8286 74.1834 98.6402 74.4202 99.3846C74.4591 99.5148 74.5061 99.6421 74.5581 99.7694L75.9157 103.106Z" fill="#EF4E8C"/>
<path d="M74.6068 69.2843C74.7134 70.2054 74.4376 71.1367 73.8341 71.8392C73.4699 72.266 72.9937 72.7185 72.4164 73.0518L72.1978 73.0103C72.32 72.7113 72.4447 72.4275 72.4084 72.0659C72.364 71.6548 72.3018 71.577 72.6059 71.2488C72.9442 70.8847 73.2927 70.5569 73.3993 70.0519C73.4539 69.7892 73.4852 69.4509 73.4099 69.1883C73.3422 68.9595 73.1574 68.811 73.0821 68.5949C72.9548 68.2358 73.2644 68.0045 73.3786 67.6323C73.6311 66.8126 72.8948 66.1935 73.1159 65.4051C73.2225 65.0228 73.3786 64.5571 73.3371 64.1511L73.3659 64.1486C73.3659 64.1486 73.6831 65.0304 74.0058 66.256C74.2427 67.151 74.4846 68.2307 74.6068 69.2843Z" fill="#D9844B"/>
<path d="M73.878 156.826C73.8729 157.781 73.878 158.312 73.878 158.312L72.7411 158.437L68.9271 158.861L68.0503 158.957C67.9721 158.575 67.9074 158.002 67.8579 157.284C67.8579 157.284 70.7351 157.576 73.878 156.826Z" fill="#06B7B7"/>
<path d="M72.7414 160.195L72.7676 160.307C72.3252 160.398 72.0338 160.619 72.0338 160.619C71.0141 161.074 70.4101 160.731 70.1217 160.455C69.9474 160.288 69.7212 160.195 69.4843 160.195H68.9277V158.86L72.7418 158.436L72.7414 160.195Z" fill="#D9844B"/>
<path d="M72.6477 90.7164C72.8351 92.0821 73.0719 93.5835 73.3578 95.0587C72.6033 95.5789 71.8644 96.1148 70.967 96.0471C69.7206 95.9507 69.2185 94.6447 69.622 93.5886C70.1139 92.3008 71.5527 91.619 72.6477 90.7164Z" fill="#EF4E8C"/>
<path d="M68.8282 85.7212C69.6529 86.408 69.9701 88.3747 68.8697 88.9418C67.7277 89.5322 66.294 88.5751 65.5056 87.8126C64.4208 86.7616 63.4138 85.1692 61.9386 84.6748C61.8633 84.649 61.7901 84.6279 61.7174 84.6097C61.3922 83.9203 61.0149 83.2411 60.7573 82.539C60.9967 82.5546 61.2361 82.5466 61.4729 82.5183C61.8189 82.4794 62.2169 82.2713 62.5658 82.3258C62.935 82.3829 63.3254 82.6667 63.6976 82.7708C64.4001 82.9712 65.1415 83.0283 65.8647 82.9294C65.888 83.7879 66.2783 84.5006 67.1914 84.9637C67.7121 85.2297 68.3757 85.3439 68.8282 85.7212Z" fill="#EF4E8C"/>
<path d="M68.1651 99.6374C68.4514 100.649 68.5059 102.085 67.8166 102.926C66.958 103.967 66.2191 104.107 64.9702 103.725C64.2884 103.517 63.4849 103.36 62.7329 103.42C62.9177 102.707 63.0374 101.981 63.0945 101.25C63.4248 101.44 66.4221 100.491 66.4221 100.491C64.856 99.5854 62.098 94.9521 62.098 94.9521C61.5541 93.3991 61.1435 91.9108 60.8364 90.5345C61.3465 90.1987 61.9238 89.9204 62.4935 89.7124C63.6591 89.2856 65.3969 89.2882 66.3388 90.2588C67.9933 91.9603 66.5287 94.1456 66.6717 96.089C66.7677 97.4077 67.8136 98.3808 68.1651 99.6374Z" fill="#EF4E8C"/>
<path d="M67.884 124.767L67.8578 124.769C67.3997 126.335 66.531 128.263 65.5321 130.212L66.0108 123.169C66.0447 122.675 66.0028 122.178 65.8861 121.694L64.6113 116.452C65.1734 117.04 65.8835 117.547 66.781 117.906C66.781 117.906 67.538 120.11 67.884 124.767Z" fill="#004E4A"/>
<path d="M62.0981 94.9517C62.0981 94.9517 64.8561 99.5853 66.4222 100.49C66.4222 100.49 63.4253 101.44 63.0946 101.25C63.2506 99.3092 62.9673 97.337 62.288 95.4846C62.2229 95.3057 62.1578 95.1289 62.0981 94.9517Z" fill="#B72963"/>
<path d="M61.7186 84.6105C61.11 84.4413 60.5428 84.4494 59.9702 84.6651C59.8767 83.3252 59.8974 82.4899 59.9025 82.355C60.1782 82.4641 60.4671 82.5216 60.7585 82.5398C61.0161 83.2419 61.3933 83.9207 61.7186 84.6105Z" fill="#EF4E8C"/>
<path d="M52.7531 163.089C53.2213 163.31 54.548 164.044 54.3843 165.276C54.3843 165.276 54.0671 165.495 53.4192 165.575C52.7844 165.659 51.8349 165.604 50.5572 165.078C50.5572 165.078 49.5037 164.313 48.9077 163.052C48.9077 163.052 48.0103 161.392 45.3876 162.222C45.3876 162.222 44.8256 161.538 45.6063 160.408C45.6609 160.328 45.7129 160.247 45.7598 160.161C45.9002 159.896 46.2229 159.269 46.4856 158.553C46.6467 158.114 47.0942 157.843 47.5603 157.908C47.6047 157.913 47.6512 157.921 47.6981 157.929C48.5673 158.059 49.8264 158.394 50.6667 159.235C50.6667 159.235 51.2652 159.766 51.2652 161.225C51.2652 161.225 51.3849 162.721 52.449 162.992C52.5526 163.018 52.6566 163.045 52.7531 163.089Z" fill="white"/>
<path d="M53.4193 165.576L53.4218 165.607C52.0532 166.398 49.7952 166.14 49.7952 166.14C47.0321 166.007 46.8477 164.249 46.8477 164.249C46.4836 163.151 45.3882 162.222 45.3882 162.222C48.0108 161.392 48.9083 163.052 48.9083 163.052C49.5042 164.314 50.5577 165.079 50.5577 165.079C51.835 165.604 52.7845 165.659 53.4193 165.576Z" fill="#939393"/>
<path d="M52.5993 157.175C52.3599 157.898 52.2326 158.312 52.2326 158.312L51.2649 157.898L48.312 156.639L46.3555 155.804C46.3969 155.569 46.501 155.21 46.6574 154.75C46.6574 154.75 50.8407 156.65 52.5993 157.175Z" fill="#06B7B7"/>
<path d="M51.2648 157.898L50.6663 159.235C49.826 158.395 48.5669 158.06 47.6978 157.929L48.3119 156.639L51.2648 157.898Z" fill="#D9844B"/>
<path d="M86.8864 58.9375C87.1292 58.9768 87.3402 59.1875 87.3973 59.4471C87.4248 59.577 87.4134 59.7174 87.3626 59.8451C87.3157 59.9767 87.2079 60.0798 87.1262 60.1615C86.779 60.5104 86.3692 60.8014 85.9183 61.0133C85.4654 61.2197 84.965 61.3372 84.4664 61.3233C84.2173 61.3174 83.9716 61.2806 83.733 61.2197C83.4966 61.1507 83.2665 61.0649 83.0542 60.9456C83.519 61.0869 83.9961 61.1414 84.4634 61.1203C84.9303 61.0932 85.3867 60.9739 85.8096 60.7768C86.2343 60.5827 86.628 60.318 86.9892 60.0126C87.0844 59.9327 87.1601 59.8692 87.2083 59.7745C87.2582 59.6827 87.2802 59.5744 87.2721 59.4657C87.2624 59.2454 87.1093 59.0331 86.8864 58.9375Z" fill="#964712"/>
<path d="M62.4808 110.536C62.507 111.095 62.5734 111.651 62.688 112.196C62.7933 112.743 62.9439 113.28 63.1414 113.797C63.5276 114.831 64.1006 115.805 64.9017 116.558C65.6879 117.326 66.6987 117.838 67.7666 118.113C68.3008 118.255 68.8523 118.336 69.4072 118.374C69.9625 118.423 70.5216 118.412 71.0816 118.39C70.5271 118.471 69.9646 118.508 69.4013 118.502C68.8384 118.49 68.2737 118.429 67.7193 118.308C66.6116 118.066 65.5547 117.532 64.7219 116.746C64.513 116.551 64.3366 116.325 64.1488 116.11C64.0596 115.999 63.9818 115.879 63.8976 115.764L63.7737 115.59L63.665 115.407C63.3643 114.923 63.13 114.401 62.9532 113.864C62.595 112.79 62.4296 111.656 62.4808 110.536Z" fill="#003834"/>
<path d="M84.959 57.9826C85.2766 57.9208 85.6128 58.0976 85.8112 58.3598C85.9051 58.496 85.9753 58.6466 86.0045 58.8047C86.0235 58.8826 86.0227 58.9633 86.0282 59.0412C86.0231 59.1207 86.0151 59.1989 85.9969 59.2755C85.9575 59.204 85.9317 59.1338 85.9026 59.0653C85.8687 58.9985 85.8438 58.9308 85.8116 58.8678C85.749 58.7405 85.6809 58.6229 85.6023 58.5146C85.4411 58.301 85.2364 58.1285 84.959 57.9826Z" fill="#964712"/>
<path d="M80.6738 115.729C80.8574 116.117 81.0253 116.511 81.2012 116.903L81.4529 117.494C81.5345 117.689 81.6301 117.891 81.6804 118.111C81.7333 118.328 81.7557 118.554 81.743 118.778C81.7345 119 81.6813 119.24 81.5713 119.444C81.5176 119.548 81.4499 119.645 81.3721 119.732L81.1534 119.971L80.7191 120.445L80.2805 120.914L80.1735 121.029C80.1498 121.056 80.1325 121.087 80.1223 121.121C80.1007 121.189 80.1134 121.266 80.1502 121.325C80.2255 121.455 80.4196 121.484 80.5317 121.381L81.0088 120.952L81.4888 120.525C81.6529 120.382 81.8009 120.244 81.9312 120.077C82.064 119.915 82.1769 119.736 82.2687 119.545C82.3609 119.354 82.4231 119.148 82.4975 118.947C82.4201 119.366 82.2856 119.791 82.0336 120.153C81.9113 120.334 81.7527 120.498 81.6013 120.644L81.1458 121.098C80.9936 121.25 80.8434 121.398 80.6857 121.549C80.5829 121.647 80.437 121.693 80.297 121.677C80.1549 121.661 80.0246 121.579 79.9451 121.462C79.8639 121.343 79.8406 121.188 79.8817 121.05C79.9015 120.981 79.9366 120.917 79.9836 120.863L80.0944 120.742L80.5292 120.268L80.9682 119.798L81.1856 119.565C81.2511 119.493 81.3074 119.414 81.3552 119.329C81.5485 118.99 81.5497 118.553 81.4859 118.154C81.452 117.952 81.3738 117.759 81.3006 117.555L81.0832 116.95C80.9475 116.542 80.8028 116.138 80.6738 115.729Z" fill="#964712"/>
<path d="M73.4105 69.1878C73.3428 68.9589 73.158 68.8105 73.0827 68.5948C72.9554 68.2357 73.265 68.0044 73.3792 67.6322C73.6316 66.8126 72.8953 66.1934 73.1165 65.405C73.2231 65.0227 73.3792 64.557 73.3377 64.151C73.3377 64.143 73.3352 64.1328 73.3352 64.1248C73.2908 63.7814 73.0594 63.6799 72.8801 63.4117C72.664 63.0865 72.7135 62.6703 72.6018 62.2698C72.4665 61.7805 72.1907 61.3618 71.7771 61.0653C71.3554 60.7608 70.8458 60.6022 70.3408 60.5451C69.862 60.4905 69.3312 60.7713 68.8994 60.6961C68.66 60.6546 68.4156 60.5531 68.1682 60.4541C67.9339 60.3607 67.6945 60.2693 67.45 60.2279C66.9298 60.142 66.3859 60.0925 65.8632 60.1733C65.6682 60.2021 65.4728 60.2515 65.2854 60.3218C64.2501 60.7096 63.6309 61.4586 62.988 62.3197C62.6214 62.8116 61.9603 63.056 61.4113 63.2772C60.7714 63.5373 60.2639 63.8287 59.8583 64.409C59.5826 64.8019 59.3927 65.2468 59.2548 65.7019C59.1063 66.1908 59.0416 66.415 58.8179 66.5812C58.4796 66.8337 58.027 66.909 57.6705 67.1458C57.2645 67.4165 56.9185 67.7675 56.6301 68.1579C56.1877 68.7589 55.7766 69.5265 55.6078 70.2574C55.4543 70.9209 55.5791 71.5583 55.5482 72.224C55.5067 73.0563 55.1058 73.9073 55.1527 74.7189C55.2153 75.7598 55.431 76.8577 56.1416 77.6613C56.1572 77.682 56.1729 77.7002 56.191 77.7184C56.6072 78.1633 57.1981 78.4259 57.5779 78.9072C58.0435 79.4951 58.0334 80.4294 58.447 81.09C58.7904 81.6415 59.2874 82.1072 59.8884 82.3491C59.8934 82.3516 59.8989 82.3542 59.904 82.3542C60.1798 82.4633 60.4686 82.5208 60.76 82.539C60.9994 82.5546 61.2388 82.5466 61.4756 82.5183C61.8216 82.4794 62.2196 82.2713 62.5685 82.3258C62.9377 82.3829 63.3281 82.6667 63.7003 82.7708C64.4028 82.9712 65.1442 83.0283 65.8674 82.9294C66.0133 82.9112 66.1588 82.885 66.3018 82.8541C66.4553 82.8202 66.6063 82.7784 66.7568 82.7293C67.3866 82.5162 67.9719 82.1545 68.3411 81.6106C68.5205 81.3455 68.6482 81.0147 68.9007 80.8066C69.2856 80.4894 69.8295 80.492 70.1961 80.1122C70.4093 79.8885 70.537 79.597 70.6178 79.298C70.6829 79.0637 70.7218 78.8167 70.6931 78.5774C70.6698 78.3824 70.6022 78.1895 70.6305 77.9945C70.6593 77.7941 70.8073 77.6955 70.987 77.6304C71.1693 77.5627 71.3799 77.5314 71.5309 77.4612C72.0072 77.2426 72.3294 76.7562 72.4335 76.2411C72.483 75.9991 72.4906 75.7521 72.4622 75.5047C72.4335 75.229 72.3633 74.9557 72.2673 74.6956C72.1061 74.2588 71.9264 73.8527 72.0617 73.3845C72.1006 73.2517 72.1501 73.1295 72.1996 73.0098C72.3218 72.7108 72.4466 72.427 72.4102 72.0654C72.3658 71.6543 72.3036 71.5765 72.6077 71.2487C72.9461 70.8846 73.2946 70.5568 73.4011 70.0518C73.4544 69.7887 73.4857 69.4508 73.4105 69.1878Z" fill="#1E3135"/>
<path d="M66.7927 82.7166C66.7893 82.7166 66.7822 82.7094 66.7784 82.706C66.1279 82.0056 65.71 80.8836 65.5954 79.5509C65.499 78.3751 65.6453 77.0962 65.9955 76.1243C66.3994 74.995 67.1852 74.3412 67.9431 73.7089C68.9505 72.8694 69.9013 72.0759 69.7939 70.3C69.7584 69.6496 69.6653 69.0388 69.5723 68.4455C69.3722 67.1162 69.1794 65.8622 69.6437 64.3756C70.1618 62.7176 70.8445 61.6743 71.7914 61.0953C71.7948 61.0919 71.802 61.0881 71.8058 61.0881L71.7449 61.0454C70.7874 61.6387 70.1014 62.6889 69.5833 64.3578C69.1117 65.8584 69.3045 67.12 69.5084 68.4565C69.6014 69.046 69.6941 69.6572 69.73 70.3038C69.8336 72.0476 68.8939 72.83 67.9042 73.659C67.1362 74.2985 66.3461 74.9595 65.9354 76.1031C65.5819 77.0822 65.4317 78.3722 65.5315 79.5547C65.6457 80.8984 66.0674 82.031 66.7213 82.742L66.7927 82.7166ZM60.7934 82.5381C60.7934 82.5347 60.79 82.5309 60.79 82.5275C60.4111 81.5019 60.3789 80.6696 60.6864 79.8296C60.8006 79.5154 60.9901 79.2362 61.1723 78.9647C61.3225 78.7431 61.4798 78.5147 61.5902 78.2677C62.0047 77.3529 61.8939 76.3632 61.7902 75.4057C61.7188 74.7409 61.6439 74.0515 61.7403 73.387C61.8905 72.3437 62.2762 71.5397 62.884 70.9928C63.1771 70.7319 63.5594 70.5639 63.9273 70.3994C64.349 70.2099 64.7884 70.0171 65.0849 69.6885C65.8817 68.813 65.8817 67.3839 65.8783 65.9971C65.8783 65.2147 65.8783 64.4783 66.0213 63.8744C66.418 62.1843 67.0431 61.2014 68.1867 60.4799C68.1939 60.4765 68.1973 60.4727 68.2045 60.4693L68.1296 60.4406C66.986 61.1697 66.3537 62.1628 65.957 63.86C65.8141 64.4711 65.8141 65.2108 65.8141 65.9967C65.8174 67.3687 65.8174 68.7872 65.0388 69.6449C64.7495 69.963 64.3169 70.1524 63.9024 70.3381C63.5272 70.506 63.1411 70.6777 62.8412 70.942C62.2195 71.4995 61.8266 72.3179 61.6765 73.3752C61.58 74.0506 61.6549 74.7438 61.7264 75.4121C61.8334 76.4055 61.937 77.3415 61.5297 78.2419C61.4227 78.4813 61.2688 78.7101 61.1186 78.9279C60.933 79.1994 60.7397 79.482 60.6255 79.8068C60.3146 80.6573 60.3434 81.4968 60.7219 82.533L60.7934 82.5381ZM56.1622 77.6853C56.1656 77.6815 56.1694 77.6748 56.1694 77.671C56.2836 77.3673 56.4448 77.0742 56.652 76.8027C56.7341 76.6919 56.8237 76.5811 56.9091 76.4774C57.1701 76.1522 57.4416 75.8198 57.5918 75.4125C57.8455 74.7159 57.8096 73.9474 57.7774 73.2077C57.7347 72.3107 57.6916 71.3853 58.1636 70.5851C58.5781 69.8775 59.275 69.5239 59.9501 69.1809C60.554 68.8735 61.1791 68.5592 61.5902 67.9912C61.9725 67.4626 62.0368 66.7943 62.0977 66.1438C62.1265 65.8474 62.1586 65.5365 62.2191 65.254C62.4335 64.2643 62.8835 63.3673 63.5983 62.5096C64.3879 61.5626 65.1348 60.8051 65.8851 60.1978C65.8995 60.1872 65.9101 60.1762 65.9244 60.1656L65.7993 60.1834C65.0633 60.7874 64.327 61.5343 63.548 62.4668C62.826 63.3351 62.3722 64.2389 62.1544 65.2396C62.0935 65.5255 62.0613 65.8364 62.033 66.1367C61.9721 66.7761 61.9078 67.4372 61.5365 67.9553C61.1326 68.5055 60.5468 68.8058 59.9213 69.1238C59.2387 69.4707 58.5311 69.8276 58.1061 70.5534C57.6273 71.3718 57.67 72.3077 57.7131 73.2119C57.7453 73.9479 57.7808 74.7058 57.5309 75.3879C57.3845 75.7847 57.1164 76.1171 56.8592 76.4347C56.77 76.5417 56.6808 76.6525 56.5983 76.7633C56.391 77.0349 56.2303 77.3313 56.1157 77.6316L56.1622 77.6853Z" fill="#295154"/>
<path d="M76.5426 70.3558L72.5437 75.4941L72.4604 75.5047C72.4317 75.2289 72.3615 74.9557 72.2655 74.6956C72.1039 74.2587 71.9246 73.8527 72.0599 73.3845C72.0988 73.2517 72.1483 73.1294 72.1978 73.0098L72.4164 73.0512C72.9942 72.7183 73.47 72.2654 73.8341 71.8386C74.3103 71.2821 74.5861 70.5821 74.625 69.8589L76.5426 70.3558Z" fill="#C56F3E"/>
<path d="M73.3661 64.1486C73.6888 64.9115 73.9459 65.7003 74.1718 66.498C74.3989 67.2956 74.5752 68.1085 74.6932 68.9328C74.7546 69.338 74.7854 69.7825 74.7118 70.2029C74.6412 70.6246 74.4949 71.0352 74.269 71.3968C74.0457 71.7631 73.7492 72.0668 73.4439 72.3476C73.1288 72.6212 72.7896 72.8695 72.417 73.0513C72.7596 72.8192 73.0759 72.5548 73.3555 72.2558C73.6389 71.9606 73.9091 71.6497 74.096 71.2966C74.4843 70.5878 74.5858 69.7685 74.4361 68.9688C74.3265 68.1563 74.1591 67.3506 73.9793 66.5474C73.8892 66.1457 73.7907 65.7451 73.6854 65.3463C73.5877 64.9449 73.4752 64.5478 73.3661 64.1486Z" fill="#964712"/>
<path d="M72.7504 91.7234C72.4413 90.4013 72.2488 89.0657 72.0852 87.7267C71.9329 86.3864 71.8103 85.0423 71.8052 83.6847C72.1152 85.0064 72.3076 86.342 72.4705 87.6814C72.6223 89.0217 72.7449 90.3658 72.7504 91.7234Z" fill="#B22860"/>
<path d="M125.099 59.6532V97.0052C125.099 98.3061 124.039 99.3626 122.738 99.3626H89.2852C87.9842 99.3626 86.9277 98.3061 86.9277 97.0052V59.6532C86.9277 58.3523 87.9842 57.2958 89.2852 57.2958H122.738C124.039 57.2958 125.099 58.3523 125.099 59.6532Z" fill="#0B57C7"/>
<path d="M94.8359 68.9298L95.118 68.2967C95.3866 68.4743 95.7685 68.5957 96.1195 68.5957C96.4752 68.5957 96.614 68.4959 96.614 68.3487C96.614 67.8674 94.888 68.2185 94.888 67.0909C94.888 66.5487 95.3304 66.1063 96.2325 66.1063C96.6271 66.1063 97.0352 66.1973 97.3342 66.3707L97.0699 67.008C96.7789 66.852 96.493 66.7737 96.2282 66.7737C95.8683 66.7737 95.7385 66.8951 95.7385 67.0469C95.7385 67.5109 97.4598 67.1641 97.4598 68.2827C97.4598 68.8118 97.0179 69.2627 96.1157 69.2627C95.6167 69.2635 95.1223 69.129 94.8359 68.9298Z" fill="white"/>
<path d="M98.3398 67.8501V66.1672H99.1984V67.8239C99.1984 68.3441 99.4154 68.5526 99.7753 68.5526C100.131 68.5526 100.348 68.3445 100.348 67.8239V66.1672H101.193V67.8501C101.193 68.7564 100.664 69.264 99.7664 69.264C98.8685 69.2636 98.3398 68.7564 98.3398 67.8501Z" fill="white"/>
<path d="M105.173 66.1672V69.2031H104.466L103.126 67.5853V69.2031H102.285V66.1672H102.991L104.332 67.785V66.1672H105.173Z" fill="white"/>
<path d="M106.291 66.1672H107.726C108.733 66.1672 109.422 66.7526 109.422 67.6852C109.422 68.6177 108.733 69.2031 107.726 69.2031H106.291V66.1672ZM107.692 68.5179C108.208 68.5179 108.555 68.21 108.555 67.6852C108.555 67.1603 108.208 66.8524 107.692 66.8524H107.15V68.5179H107.692Z" fill="white"/>
<path d="M112.375 68.6131H111.091L110.852 69.2031H109.977L111.317 66.1672H112.162L113.507 69.2031H112.614L112.375 68.6131ZM112.123 67.9799L111.733 67.0085L111.342 67.9799H112.123Z" fill="white"/>
<path d="M115.696 68.1145V69.2031H114.838V68.1018L113.68 66.1677H114.586L115.306 67.3735L116.026 66.1677H116.858L115.696 68.1145Z" fill="white"/>
<path d="M97.8126 69.9609V72.8158H97.5191V70.2219H96.8462V69.9609H97.8126Z" fill="white"/>
<path d="M100.919 72.0655H100.348V72.8158H100.055V72.0655H98.4434V71.8536L99.9566 69.9609H100.283L98.8223 71.8045H100.062V71.1435H100.348V71.8045H100.919V72.0655Z" fill="white"/>
<path d="M101.215 70.8745C101.215 70.7481 101.313 70.6542 101.432 70.6542C101.55 70.6542 101.652 70.7481 101.652 70.8745C101.652 71.001 101.55 71.0987 101.432 71.0987C101.313 71.0991 101.215 71.001 101.215 70.8745ZM101.215 72.6119C101.215 72.4855 101.313 72.3916 101.432 72.3916C101.55 72.3916 101.652 72.4855 101.652 72.6119C101.652 72.7384 101.55 72.8365 101.432 72.8365C101.313 72.8365 101.215 72.7388 101.215 72.6119Z" fill="white"/>
<path d="M103.964 71.9961C103.964 72.4732 103.617 72.8403 102.928 72.8403C102.516 72.8403 102.12 72.6978 101.9 72.4732L102.042 72.2406C102.226 72.4326 102.557 72.5709 102.928 72.5709C103.401 72.5709 103.662 72.3505 103.662 71.9957C103.662 71.6531 103.421 71.4289 102.891 71.4289H102.687V71.2128L103.478 70.2219H102.018V69.9609H103.853V70.169L103.046 71.1845C103.658 71.2175 103.964 71.5393 103.964 71.9961Z" fill="white"/>
<path d="M104.374 71.3889C104.374 70.4791 104.851 69.9365 105.512 69.9365C106.172 69.9365 106.654 70.4791 106.654 71.3889C106.654 72.2982 106.172 72.8408 105.512 72.8408C104.851 72.8404 104.374 72.2982 104.374 71.3889ZM106.352 71.3889C106.352 70.6259 106.009 70.2059 105.512 70.2059C105.014 70.2059 104.672 70.6259 104.672 71.3889C104.672 72.1514 105.015 72.5714 105.512 72.5714C106.009 72.5714 106.352 72.1514 106.352 71.3889Z" fill="white"/>
<path d="M110.628 70.94C110.628 71.5477 110.188 71.9148 109.461 71.9148H108.695V72.8161H108.393V69.9613H109.461C110.188 69.9609 110.628 70.328 110.628 70.94ZM110.326 70.94C110.326 70.4832 110.024 70.2223 109.453 70.2223H108.695V71.6501H109.453C110.024 71.6497 110.326 71.3887 110.326 70.94Z" fill="white"/>
<path d="M114.243 69.9609V72.8158H113.953V70.5319L112.832 72.4529H112.689L111.568 70.5442V72.8162H111.278V69.9614H111.527L112.767 72.0782L113.994 69.9614L114.243 69.9609Z" fill="white"/>
<path d="M115.831 94.4478H96.1955C94.4526 94.4478 93.0396 93.0347 93.0396 91.2918C93.0396 89.5489 94.4526 88.1359 96.1955 88.1359H115.831C117.574 88.1359 118.987 89.5489 118.987 91.2918C118.987 93.0347 117.574 94.4478 115.831 94.4478Z" fill="#FF654B"/>
<path d="M98.6292 91.5699C98.6292 91.8786 98.4009 92.055 97.9471 92.055H97.1113V90.2389H97.895C98.2998 90.2389 98.5332 90.4102 98.5332 90.7058C98.5332 90.9131 98.4216 91.0509 98.2558 91.1182C98.4888 91.1702 98.6292 91.3237 98.6292 91.5699ZM97.3033 90.3975V91.0564H97.8819C98.1725 91.0564 98.3408 90.9448 98.3408 90.727C98.3408 90.5092 98.1725 90.3975 97.8819 90.3975H97.3033ZM98.4372 91.5546C98.4372 91.3182 98.2634 91.2146 97.9441 91.2146H97.3033V91.8968H97.9441C98.2634 91.8968 98.4372 91.7932 98.4372 91.5546Z" fill="white"/>
<path d="M99.2134 91.1474C99.2134 90.6179 99.6181 90.2238 100.168 90.2238C100.713 90.2238 101.12 90.6154 101.12 91.1474C101.12 91.6791 100.713 92.0711 100.168 92.0711C99.6181 92.0707 99.2134 91.6765 99.2134 91.1474ZM100.928 91.1474C100.928 90.7139 100.604 90.395 100.168 90.395C99.7298 90.395 99.4024 90.7139 99.4024 91.1474C99.4024 91.5805 99.7294 91.8994 100.168 91.8994C100.604 91.8994 100.928 91.5805 100.928 91.1474Z" fill="white"/>
<path d="M101.695 91.1474C101.695 90.6179 102.1 90.2238 102.65 90.2238C103.195 90.2238 103.602 90.6154 103.602 91.1474C103.602 91.6791 103.195 92.0711 102.65 92.0711C102.1 92.0707 101.695 91.6765 101.695 91.1474ZM103.41 91.1474C103.41 90.7139 103.085 90.395 102.65 90.395C102.212 90.395 101.885 90.7139 101.885 91.1474C101.885 91.5805 102.212 91.8994 102.65 91.8994C103.085 91.8994 103.41 91.5805 103.41 91.1474Z" fill="white"/>
<path d="M104.902 91.2012L104.531 91.5776V92.0551H104.339V90.239H104.531V91.3365L105.597 90.239H105.817L105.032 91.0612L105.872 92.0551H105.644L104.902 91.2012Z" fill="white"/>
<path d="M108.992 90.239V92.0551H108.833L107.666 90.5816V92.0551H107.474V90.239H107.632L108.802 91.7125V90.239H108.992Z" fill="white"/>
<path d="M109.728 91.1474C109.728 90.6179 110.133 90.2238 110.683 90.2238C111.227 90.2238 111.635 90.6154 111.635 91.1474C111.635 91.6791 111.227 92.0711 110.683 92.0711C110.133 92.0707 109.728 91.6765 109.728 91.1474ZM111.443 91.1474C111.443 90.7139 111.118 90.395 110.683 90.395C110.244 90.395 109.917 90.7139 109.917 91.1474C109.917 91.5805 110.244 91.8994 110.683 91.8994C111.118 91.8994 111.443 91.5805 111.443 91.1474Z" fill="white"/>
<path d="M114.81 90.239L114.198 92.0551H113.995L113.463 90.5063L112.929 92.0551H112.729L112.117 90.239H112.314L112.838 91.8005L113.38 90.239H113.559L114.094 91.8085L114.626 90.239H114.81Z" fill="white"/>
<path d="M98.8457 84.6221H92.8671C91.814 84.6221 90.9609 83.7686 90.9609 82.7159V76.7373C90.9609 75.6846 91.8144 74.8307 92.8671 74.8307H98.8457C99.8984 74.8307 100.752 75.6842 100.752 76.7373V82.7159C100.752 83.7686 99.8984 84.6221 98.8457 84.6221Z" fill="#1F75FE"/>
<path d="M95.9473 75.9543C94.7517 75.9104 93.6833 76.7854 93.4596 77.9607C93.3873 78.3397 93.4164 78.7005 93.5078 79.035C93.869 80.0919 94.5622 81.4419 95.8564 83.4999C97.038 81.4204 98.0171 80.0987 98.2049 79.035C98.2612 78.8295 98.2937 78.6138 98.2937 78.39C98.2937 77.0743 97.2512 76.0021 95.9473 75.9543ZM95.8564 79.5717C95.2038 79.5717 94.6747 79.0426 94.6747 78.39C94.6747 77.7374 95.2038 77.2083 95.8564 77.2083C96.509 77.2083 97.038 77.7374 97.038 78.39C97.038 79.0426 96.509 79.5717 95.8564 79.5717Z" fill="#FF654B"/>
<path d="M120.504 78.0691H105.157C104.846 78.0691 104.596 77.8178 104.596 77.5083C104.596 77.1982 104.847 76.947 105.157 76.947H120.504C120.814 76.947 121.066 77.1982 121.066 77.5083C121.065 77.8178 120.814 78.0691 120.504 78.0691Z" fill="white"/>
<path d="M120.504 80.2874H105.157C104.846 80.2874 104.596 80.0362 104.596 79.7266C104.596 79.4166 104.847 79.1658 105.157 79.1658H120.504C120.814 79.1658 121.066 79.417 121.066 79.7266C121.065 80.0362 120.814 80.2874 120.504 80.2874Z" fill="white"/>
<path d="M116.144 82.5061H105.157C104.846 82.5061 104.596 82.2549 104.596 81.9453C104.596 81.6353 104.847 81.384 105.157 81.384H116.144C116.454 81.384 116.705 81.6353 116.705 81.9453C116.705 82.2549 116.454 82.5061 116.144 82.5061Z" fill="white"/>
<path d="M125.099 59.6532V62.4653H86.9272V59.6532C86.9272 58.3523 87.9837 57.2958 89.2847 57.2958H122.737C124.039 57.2958 125.099 58.3523 125.099 59.6532Z" fill="#FE769C"/>
<path d="M96.4721 60.9034H90.2126C89.6882 60.9034 89.2627 60.4783 89.2627 59.9535C89.2627 59.429 89.6877 59.0035 90.2126 59.0035H96.4721C96.9965 59.0035 97.422 59.4286 97.422 59.9535C97.422 60.4779 96.9965 60.9034 96.4721 60.9034Z" fill="white"/>
<path d="M144.911 164.966C159.828 164.966 171.921 162.83 171.921 160.196C171.921 157.561 159.828 155.425 144.911 155.425C129.993 155.425 117.9 157.561 117.9 160.196C117.9 162.83 129.993 164.966 144.911 164.966Z" fill="#9AD8E8"/>
<path d="M153.29 104.289C153.631 105.725 153.816 107.325 153.558 108.792C150.244 110.337 150.397 104.289 150.397 104.289C151.612 104.754 153.29 104.289 153.29 104.289Z" fill="#0041A0"/>
<path d="M144.247 104.972C144.247 104.972 145.178 110.881 140.81 111.138C140.81 111.138 136.546 111.401 137.373 105.196C137.373 105.196 140.534 106.097 144.247 104.972Z" fill="#0041A0"/>
<path d="M146.825 110.051L146.102 121.129L144.538 115.949V115.947C144.616 115.156 144.692 114.51 144.744 114.107C144.78 113.806 144.902 113.525 145.085 113.28C145.849 112.255 146.411 111.143 146.825 110.051Z" fill="#0041A0"/>
<path d="M152.998 97.3655C154.382 95.4847 154.9 91.6601 154.9 91.6601C155.064 90.354 155.696 89.0687 156.321 88.0672C156.532 87.7344 156.742 87.4299 156.932 87.1698L155.27 81.7972L155.998 80.9023L157.34 79.2554L161.43 85.2835C162.128 86.3137 162.25 87.6299 161.75 88.7723C160.842 90.8353 159.318 94.1812 158.027 96.4236C157.507 97.3291 156.838 98.1382 156.058 98.8301C155.883 98.9862 155.743 99.1761 155.641 99.3867C155.454 99.769 155.085 100.446 154.512 101.031L151.671 99.8215L151.669 99.8189L150.175 99.9775C150.118 99.975 150.061 99.9724 150.004 99.9699C149.78 99.931 149.593 99.7644 149.533 99.5381C149.445 99.2179 149.634 98.8876 149.955 98.8018L150.99 98.518L151.505 98.3776C151.867 98.3437 152.194 98.1796 152.491 97.925H152.493C152.673 97.7685 152.842 97.5812 152.998 97.3655Z" fill="#FFB380"/>
<path d="M146.38 100.019C147.691 99.9512 148.937 99.925 150.004 99.9694C150.038 99.977 150.074 99.98 150.111 99.98C150.134 99.98 150.155 99.98 150.176 99.9774L151.669 99.8188L151.672 99.8214C151.7 99.8785 152.158 100.771 152.629 102.082C152.863 102.733 153.103 103.485 153.29 104.288C153.29 104.288 151.612 104.754 150.397 104.288C150.397 104.288 150.243 110.337 153.558 108.792C153.511 109.057 153.451 109.32 153.373 109.578C153.303 109.809 153.295 110.054 153.334 110.293C153.711 112.632 155.65 124.535 156.898 130.196C157.007 130.693 157.08 131.195 157.119 131.702L158.751 153.291C158.751 153.291 158.613 153.33 158.378 153.387C157.382 153.631 154.622 154.186 153.071 153.291L147.517 126.02C147.436 125.622 147.334 125.227 147.218 124.836L146.102 121.129L146.825 110.051C146.411 111.144 145.849 112.254 145.084 113.28C144.902 113.524 144.78 113.805 144.743 114.107C144.691 114.51 144.616 115.155 144.538 115.946V115.949C144.384 117.492 144.221 119.591 144.221 121.54L143.157 142.954L143.448 154.143C143.448 154.143 143.336 154.177 143.141 154.229C142.126 154.497 138.854 155.27 137.266 154.466C137.092 154.38 136.936 154.271 136.808 154.143L135.783 128.112C135.757 127.466 135.682 126.829 135.554 126.197C134.953 123.228 133.127 113.582 133.018 105.535C132.997 104.156 133.031 102.824 133.127 101.58L133.137 101.495L133.379 101.52C133.746 101.559 134.116 101.489 134.438 101.317C134.438 101.317 134.441 101.317 134.443 101.315C134.537 101.302 135.625 101.135 137.238 100.922C139.639 100.604 143.206 100.186 146.38 100.019ZM140.81 111.138C145.178 110.881 144.247 104.972 144.247 104.972C140.534 106.096 137.373 105.196 137.373 105.196C136.545 111.401 140.81 111.138 140.81 111.138Z" fill="#1F75FE"/>
<path d="M158.379 153.389C158.379 153.389 158.6 155.163 158.561 156.958C158.546 157.591 158.132 158.14 157.526 158.311C157.001 158.462 156.319 158.577 155.606 158.48C155.32 158.442 155.047 158.332 154.815 158.158C154.339 157.799 153.317 157.109 152.518 157.109C152.518 157.109 150.101 157.19 149.055 155.361C148.956 155.184 148.886 154.989 148.844 154.789C148.818 154.651 148.789 154.477 148.784 154.31C148.777 154.018 148.949 153.753 149.219 153.646C149.838 153.394 151.336 152.918 153.072 153.29C154.622 154.185 157.383 153.631 158.379 153.386V153.389Z" fill="#0F3772"/>
<path d="M155.27 81.7972L156.933 87.1698C156.743 87.4299 156.532 87.7344 156.321 88.0673L156.264 88.0415L153.535 83.9259L155.27 81.7972Z" fill="#ED8945"/>
<path d="M151.672 99.8215L154.513 101.031C154.031 101.526 153.407 101.949 152.629 102.082C152.158 100.771 151.7 99.8786 151.672 99.8215Z" fill="#ED8945"/>
<path d="M143.585 65.3523C144.01 65.3159 144.376 65.178 144.668 65.0219C144.733 64.9856 144.798 64.9467 144.858 64.9023C144.858 64.9023 145.432 66.5204 145.656 67.1083L145.659 67.1421C145.513 67.1502 145.365 67.1709 145.221 67.2022L141.178 68.0789L138.858 68.5809L138.832 68.4638C138.811 68.3153 138.788 68.1724 138.759 68.0396H138.762L139.407 64.1215L139.348 64.2801C139.16 64.7902 138.747 65.1856 138.226 65.3493L136.949 65.7498L136.371 65.9291C134.467 66.3064 134.449 64.8181 134.449 64.8181L134.696 61.7404L134.933 58.7642L134.964 58.3768C135.032 57.5182 135.195 56.6702 135.445 55.8455L135.762 54.8051L135.767 54.7945C135.895 54.8258 136.051 54.8334 136.233 54.8051C136.233 54.8051 137.503 54.2743 137.503 54.9561L136.748 56.902C136.657 57.1388 136.681 57.4066 136.813 57.6227L137.118 58.1222C137.227 58.299 137.29 58.5045 137.297 58.7126L137.326 59.5009C137.331 59.6803 137.404 59.8444 137.518 59.9666C137.636 60.0914 137.794 60.1721 137.971 60.1903C138.325 60.2267 138.653 59.9979 138.741 59.6545L138.772 59.5297C138.832 59.3009 139.053 59.1524 139.288 59.1888C139.727 59.259 140.362 59.5115 140.375 60.3984H140.377C140.479 60.557 140.721 61.2126 140.841 61.5458C140.888 61.6731 140.908 61.8085 140.913 61.9438C140.94 62.7791 141.121 63.4685 141.311 63.968C141.413 64.2357 141.561 64.4751 141.754 64.6781C142.089 65.0448 142.55 65.2897 143.062 65.3468C143.245 65.3679 143.419 65.3679 143.585 65.3523Z" fill="#FFB380"/>
<path d="M143.141 154.229C144.413 156.415 143.851 159.643 143.653 160.569C143.614 160.749 143.515 160.913 143.364 161.022C142.464 161.68 140.963 161.672 140.081 161.597C139.688 161.563 139.314 161.454 138.952 161.305C137.365 160.645 135.172 160.923 135.172 160.923C130.96 161.493 128.779 160.252 128.061 159.721C127.869 159.575 127.759 159.336 127.804 159.099C127.994 158.108 129.307 157.905 129.307 157.905C133.605 157.343 137.266 154.466 137.266 154.466C138.853 155.27 142.126 154.497 143.141 154.229Z" fill="#0F3772"/>
<path d="M139.408 64.1218L138.762 68.0399H138.76C138.325 65.9717 136.949 65.7506 136.949 65.7506L138.226 65.35C138.747 65.1864 139.16 64.7909 139.348 64.2808L139.408 64.1218Z" fill="#ED8945"/>
<path d="M137.894 99.1292C138.052 99.2463 138.159 99.4282 138.177 99.6392C138.179 99.66 138.179 99.6807 138.179 99.7018C138.179 100.061 137.906 100.37 137.54 100.407L136.959 100.464C136.712 100.022 136.53 99.5584 136.421 99.0695L137.412 98.9913C137.592 98.9756 137.761 99.0306 137.894 99.1292Z" fill="#FFB380"/>
<path d="M133.138 101.494L133.127 101.58L131.501 104.749C130.959 104.197 130.52 103.458 130.231 102.896C129.979 102.407 129.851 101.866 129.851 101.315V100.191C129.851 99.9801 129.831 99.7695 129.791 99.561L127.884 91.2981C127.359 89.0244 127.624 86.6412 128.634 84.5392L129.443 82.8508C130.036 83.0302 130.848 83.2255 131.906 83.3736C132.146 83.4099 132.398 83.4412 132.663 83.47L133.624 88.9047L133.192 90.5047C133.067 90.9653 132.999 91.436 132.991 91.9122C132.981 92.5678 132.978 93.5773 133.036 94.6283C133.122 96.3217 133.356 98.1196 133.941 98.705C133.941 98.705 134.204 99.163 135.258 99.163L136.421 99.0696C136.53 99.5585 136.712 100.022 136.959 100.464L136.168 100.542C135.945 100.565 135.726 100.631 135.526 100.737L134.444 101.315C134.441 101.317 134.439 101.317 134.439 101.317C134.116 101.489 133.747 101.559 133.38 101.52L133.138 101.494Z" fill="#FFB380"/>
<path d="M135.049 83.6235V83.6311L133.624 88.9047L132.664 83.47C133.364 83.5457 134.157 83.6002 135.049 83.6235Z" fill="#ED8945"/>
<path d="M134.933 58.765L134.696 61.7412L133.567 61.4604L134.933 58.765Z" fill="#ED8945"/>
<path d="M131.501 104.749L133.127 101.58C133.031 102.824 132.997 104.156 133.018 105.535H133.013C132.458 105.535 131.946 105.207 131.501 104.749Z" fill="#ED8945"/>
<path d="M149.533 99.5377C149.444 99.2176 149.634 98.8873 149.954 98.8014L150.989 98.5181C148.705 98.3645 146.712 98.3332 145.019 98.3721C140.401 98.4787 137.994 99.1004 137.893 99.1292C138.051 99.2463 138.158 99.4282 138.176 99.6393C138.179 99.66 138.179 99.6807 138.179 99.7018C138.179 100.061 137.905 100.371 137.539 100.407L136.958 100.464L136.168 100.542C135.944 100.565 135.725 100.631 135.525 100.737L134.443 101.315C134.536 101.302 135.624 101.136 137.237 100.922C139.639 100.604 143.205 100.186 146.379 100.019C147.69 99.9518 148.937 99.9256 150.004 99.97C149.78 99.9307 149.593 99.764 149.533 99.5377Z" fill="#BC1B1B"/>
<path d="M157.419 78.4281L157.086 77.8038C157.039 77.8635 156.313 78.7952 155.465 79.8563C154.526 81.0351 153.431 82.372 152.954 82.8482H152.952C152.913 83.2204 152.861 83.5871 152.793 83.9537L152.59 85.0855L153.535 83.925L155.27 81.7968L155.998 80.9018L157.341 79.2549C157.53 79.021 157.562 78.6933 157.419 78.4281Z" fill="#BC1B1B"/>
<path d="M138.804 80.2726C138.312 80.0645 137.797 79.9342 137.269 79.8332C136.21 79.6301 135.11 79.5494 134.085 79.2216C132.815 78.813 131.348 77.9206 130.492 76.7161L128.645 81.1024C128.645 81.1024 130.82 81.9296 133.544 82.463C134.283 82.1453 135.079 81.8907 135.75 81.7761C136.057 81.7241 136.359 81.711 136.653 81.7372C138.3 81.8827 139.606 83.2226 139.546 84.9371C139.473 87.0391 138.403 88.0774 136.822 89.2688C136.01 89.8804 135.261 90.5229 134.684 91.2643C134.634 91.5844 134.593 91.9042 134.559 92.2243C134.374 93.9804 134.33 99.0928 133.942 98.705C133.942 98.705 134.205 99.163 135.259 99.163L136.422 99.0695C136.243 98.2918 136.24 97.4463 136.435 96.4964C136.776 94.8444 137.671 93.6555 138.756 92.4066C139.797 91.2097 141.167 90.3799 141.919 88.9259C142.705 87.4117 142.695 85.2108 142.005 83.6548C141.398 82.2862 140.211 80.8605 138.804 80.2726ZM156.451 76.6045C156.136 76.4433 155.806 76.3131 155.46 76.2221C154.786 76.0479 154.073 76.0817 153.378 76.014C153.269 76.0035 153.16 75.9908 153.051 75.9726C151.248 75.6918 149.955 75.1348 148.792 73.7196C147.42 72.0469 147.259 69.7965 148.258 68.0975L147.48 67.6031C147.03 67.3168 146.518 67.1607 145.998 67.14C145.462 67.8632 145.121 68.8157 145.001 69.6869C144.694 71.9167 145.563 74.1591 147.166 75.6605C148.81 77.2008 150.691 77.2604 152.684 77.9993C152.869 78.067 153.059 78.1397 153.248 78.2205C153.777 78.4392 154.31 78.7069 154.739 79.0503C155.031 79.2846 155.268 79.5578 155.465 79.8568C156.313 78.7953 157.039 77.864 157.086 77.8043L156.451 76.6045ZM148.817 93.9444C148.191 92.204 149.109 89.951 149.527 88.2441C150.189 85.5538 150.761 82.471 148.721 80.2337C147.014 78.3656 144.8 77.1014 142.8 75.5636C141.213 74.3435 140.352 71.89 140.596 69.9234C140.677 69.2653 140.911 68.6643 141.179 68.0789L138.858 68.581L136.525 69.0855C135.63 69.2805 134.816 69.7461 134.196 70.4228L133.239 71.4637C133.067 71.651 132.906 71.8435 132.755 72.044C133.514 72.8738 134.659 73.5555 135.276 73.9379C138.083 75.6706 141.551 76.456 143.89 78.9382C146.377 81.579 146.762 85.3098 145.589 88.6087C144.615 91.3455 143.539 95.5236 145.019 98.3725C146.713 98.3336 148.705 98.3649 150.99 98.5184L151.505 98.378V96.9472C150.287 96.4105 149.356 95.4323 148.817 93.9444Z" fill="#FC4C4C"/>
<path d="M139.546 84.9376C139.606 83.223 138.3 81.8831 136.653 81.7376C136.359 81.7114 136.057 81.7245 135.75 81.7765C135.079 81.8912 134.283 82.1458 133.544 82.4634C134.403 82.6351 135.316 82.773 136.234 82.8483C136.039 83.3346 135.909 83.6341 135.909 83.6341C135.771 83.6341 135.636 83.6341 135.501 83.6315C135.501 83.6315 135.55 86.3087 134.754 90.8197C134.728 90.9682 134.704 91.1162 134.683 91.2647C135.261 90.5233 136.01 89.8808 136.822 89.2693C138.404 88.0774 139.473 87.0395 139.546 84.9376ZM154.74 79.0499C154.31 78.7064 153.777 78.4383 153.249 78.2201C153.059 78.1393 152.869 78.0665 152.684 77.9989C150.691 77.26 148.81 77.2004 147.166 75.66C145.563 74.159 144.694 71.9162 145.001 69.6865C145.121 68.8148 145.462 67.8628 145.998 67.1396C145.886 67.132 145.772 67.132 145.66 67.1421C145.514 67.1497 145.366 67.1709 145.222 67.2022L141.179 68.0789C140.911 68.6643 140.677 69.2653 140.597 69.9233C140.352 71.89 141.213 74.3434 142.8 75.5636C144.801 77.101 147.015 78.3656 148.721 80.2337C150.761 82.471 150.188 85.5538 149.528 88.2441C149.109 89.9506 148.19 92.2036 148.818 93.9444C149.356 95.4327 150.288 96.4109 151.505 96.9468V92.2065C151.505 91.4935 151.567 90.7834 151.695 90.0809L152.59 85.0856L152.793 83.9538C152.86 83.5871 152.912 83.22 152.951 82.8483H152.954C153.43 82.372 154.525 81.0347 155.464 79.8564C155.268 79.5574 155.031 79.2842 154.74 79.0499ZM153.051 75.9722C153.16 75.9904 153.27 76.0035 153.379 76.0136C154.073 76.0813 154.786 76.0474 155.46 76.2217C155.806 76.3126 156.136 76.4429 156.452 76.604L154.477 72.8784C153.996 71.9729 153.27 71.2213 152.38 70.7087L148.259 68.0967C147.26 69.7956 147.421 72.0461 148.792 73.7188C149.955 75.1343 151.248 75.6913 153.051 75.9722ZM135.277 73.9378C134.66 73.5555 133.516 72.8737 132.756 72.0439C132.319 72.6136 131.954 73.2379 131.676 73.9015L130.492 76.7165C131.348 77.9211 132.815 78.8135 134.085 79.222C135.11 79.5498 136.211 79.6306 137.269 79.8336C137.798 79.9351 138.313 80.0649 138.804 80.273C140.212 80.8609 141.398 82.2866 142.004 83.6552C142.693 85.2108 142.704 87.4122 141.918 88.9263C141.166 90.3807 139.795 91.2105 138.755 92.407C137.67 93.656 136.775 94.8448 136.434 96.4968C136.239 97.4463 136.242 98.2922 136.421 99.07L137.412 98.9917C137.592 98.9761 137.761 99.0306 137.894 99.1296C137.995 99.1008 140.402 98.4791 145.02 98.3725C143.539 95.5236 144.617 91.3455 145.589 88.6086C146.763 85.3097 146.378 81.579 143.89 78.9382C141.552 76.456 138.084 75.6702 135.277 73.9378Z" fill="#FF654B"/>
<path d="M133.544 82.4634C130.82 81.93 128.645 81.1028 128.645 81.1028L128.346 81.8154C128.221 82.1119 128.359 82.4528 128.658 82.575C128.858 82.6558 129.118 82.7518 129.444 82.8482V82.8508C130.037 83.0301 130.849 83.2255 131.907 83.3735C132.147 83.4099 132.399 83.4412 132.664 83.47C133.364 83.5457 134.158 83.6002 135.05 83.6235C135.196 83.626 135.347 83.6286 135.5 83.6311C135.635 83.6336 135.771 83.6336 135.909 83.6336C135.909 83.6336 136.039 83.3346 136.234 82.8478C135.315 82.773 134.402 82.6351 133.544 82.4634Z" fill="#BC1B1B"/>
<path d="M138.557 62.082C138.949 62.0964 139.333 62.0084 139.625 61.8012C139.91 61.5825 140.098 61.2552 140.187 60.9016C140.259 60.5582 140.294 60.1589 140.145 59.8409C140.004 59.514 139.662 59.297 139.288 59.1887C139.485 59.1913 139.682 59.2374 139.869 59.3228C140.053 59.4133 140.22 59.5588 140.325 59.7466C140.435 59.9305 140.482 60.145 140.496 60.3501C140.503 60.4537 140.489 60.5548 140.485 60.6576C140.484 60.7582 140.466 60.869 140.439 60.9672C140.335 61.3639 140.101 61.7479 139.737 61.9695C139.367 62.1852 138.929 62.1954 138.557 62.082Z" fill="#C46627"/>
<path d="M157.733 86.1733C157.49 86.5197 157.258 86.8691 157.024 87.2155C156.807 87.5737 156.569 87.9171 156.349 88.2698C155.913 88.9816 155.522 89.7129 155.167 90.4809C155.327 89.6461 155.69 88.8598 156.127 88.1349C156.356 87.7771 156.607 87.4354 156.861 87.0962C157.126 86.765 157.414 86.4529 157.733 86.1733Z" fill="#C46627"/>
<path d="M147.951 103.276C148.039 104.387 147.974 105.509 147.821 106.615C147.67 107.723 147.395 108.814 147.026 109.872C146.641 110.924 146.145 111.941 145.502 112.861C145.348 113.093 145.153 113.311 145.018 113.532C144.878 113.763 144.813 114.016 144.786 114.296C144.703 114.845 144.629 115.396 144.538 115.946C144.57 115.391 144.619 114.836 144.659 114.28C144.67 114.007 144.734 113.705 144.874 113.452C144.941 113.323 145.029 113.205 145.106 113.094C145.184 112.981 145.262 112.866 145.335 112.75C145.932 111.823 146.421 110.826 146.781 109.784C147.165 108.749 147.432 107.673 147.624 106.584C147.721 106.039 147.799 105.49 147.85 104.939C147.911 104.387 147.942 103.833 147.951 103.276Z" fill="#002F68"/>
<path d="M154.513 98.5179C154.152 98.4435 153.826 98.3242 153.496 98.2176C153.165 98.1064 152.852 97.999 152.494 97.9258L152.492 97.9245L152.494 97.9233C152.667 97.8514 152.859 97.8425 153.042 97.8569C153.228 97.8691 153.406 97.9161 153.579 97.9711C153.751 98.0307 153.917 98.103 154.074 98.194C154.231 98.284 154.382 98.3864 154.513 98.5179Z" fill="#C46627"/>
<path d="M136.959 100.464C136.767 100.513 136.572 100.544 136.378 100.585C136.18 100.618 135.997 100.649 135.824 100.719C135.738 100.753 135.655 100.794 135.575 100.84L135.318 100.987L134.8 101.272C134.624 101.359 134.458 101.463 134.254 101.534C134.054 101.6 133.845 101.637 133.637 101.631C133.425 101.629 133.232 101.581 133.039 101.547C132.846 101.504 132.651 101.47 132.459 101.419C132.658 101.411 132.855 101.42 133.053 101.42C133.251 101.424 133.449 101.444 133.631 101.428C133.816 101.411 133.999 101.373 134.169 101.303C134.336 101.239 134.506 101.133 134.68 101.041L135.203 100.77L135.468 100.64C135.561 100.593 135.66 100.555 135.76 100.527C135.96 100.466 136.172 100.461 136.366 100.459C136.563 100.461 136.761 100.454 136.959 100.464Z" fill="#C46627"/>
<path d="M146.297 53.9521C145.961 53.843 145.707 53.5672 145.641 53.2208C145.212 50.8613 143.123 50.2577 142.254 50.1093C142.017 50.0678 141.872 50.0598 141.872 50.0598C140.23 49.8255 138.992 49.9143 138.063 50.1639C136.546 50.5644 135.844 51.3916 135.532 51.9486C135.352 52.2764 135.303 52.5082 135.303 52.5082C135.303 52.5082 134.741 54.5218 135.768 54.795C135.896 54.8263 136.052 54.8339 136.234 54.8056C136.234 54.8056 137.504 54.2748 137.504 54.9566L136.749 56.9025C136.658 57.1393 136.682 57.4071 136.814 57.6232L137.119 58.1227C137.228 58.2994 137.291 58.505 137.298 58.7131L137.327 59.5014C137.332 59.6808 137.405 59.8449 137.519 59.9671C137.637 60.0918 137.795 60.1726 137.972 60.1908C138.326 60.2272 138.654 59.9984 138.742 59.655L138.773 59.5302C138.833 59.3014 139.054 59.1529 139.289 59.1893C139.728 59.2595 140.363 59.512 140.376 60.3989H140.378C140.48 60.5575 140.722 61.2131 140.842 61.5463C140.889 61.6736 140.909 61.809 140.914 61.9443C140.941 62.7796 141.122 63.469 141.312 63.9685C141.414 64.2366 141.562 64.476 141.755 64.6786C142.09 65.0453 142.551 65.2902 143.063 65.3472C143.246 65.368 143.42 65.368 143.586 65.3523C144.01 65.3159 144.377 65.1781 144.668 65.022C144.733 64.9856 144.799 64.9463 144.858 64.9023C145.197 64.6604 145.444 64.3094 145.548 63.9008C145.691 63.3311 145.998 62.5428 146.229 61.9862C146.37 61.6453 146.539 61.3175 146.763 61.0236C146.911 60.8286 147.049 60.6023 147.176 60.368C147.483 59.8059 147.72 59.1893 147.855 58.812C147.941 58.5701 148.001 58.3176 148.032 58.063C148.415 55.1046 147.101 54.2173 146.297 53.9521Z" fill="#103772"/>
<path d="M147.209 60.3057V60.3023C147.248 59.1625 147.098 58.0582 146.765 57.0935C146.576 56.536 146.19 55.982 145.626 55.4533C145.529 55.3603 145.422 55.2782 145.322 55.2034C145.111 55.0427 144.911 54.8891 144.789 54.6426C144.575 54.2137 144.489 53.7493 144.407 53.3027C144.293 52.6772 144.175 52.0343 143.721 51.4625C143.339 50.9837 142.81 50.4762 142.331 50.126L142.181 50.1011C142.199 50.1116 142.217 50.1226 142.235 50.137C142.824 50.5587 143.36 51.1195 143.671 51.5056C144.114 52.0631 144.232 52.6992 144.343 53.3137C144.429 53.7675 144.514 54.2357 144.729 54.6713C144.857 54.9323 145.065 55.0892 145.283 55.2537C145.383 55.3324 145.486 55.411 145.583 55.5003C146.14 56.0256 146.519 56.5686 146.705 57.1155C147.041 58.0874 147.191 59.2128 147.144 60.367C147.144 60.3886 147.141 60.4097 147.141 60.4313V60.4347L147.209 60.3057ZM143.628 65.3475C144.564 63.8537 145.064 61.6815 144.868 59.9305C144.718 58.5978 144.414 57.0825 143.282 55.957C143.192 55.864 143.107 55.7853 143.028 55.7105C142.663 55.3637 142.442 55.1564 142.342 54.5956C142.324 54.4954 142.306 54.3956 142.288 54.2991C142.131 53.3843 141.967 52.4412 141.234 51.8013C140.441 51.1009 139.508 50.5866 138.39 50.2254C138.297 50.1933 138.211 50.1683 138.129 50.1468L138 50.1827C138.018 50.1861 138.036 50.1899 138.054 50.1971C138.154 50.2187 138.258 50.2508 138.368 50.2863C139.48 50.6437 140.401 51.1546 141.191 51.8516C141.906 52.4771 142.067 53.4097 142.224 54.3101C142.242 54.4104 142.26 54.5068 142.278 54.6066C142.381 55.189 142.61 55.4034 142.985 55.757C143.064 55.8319 143.146 55.9105 143.239 56.0036C143.864 56.6253 144.539 57.5828 144.804 59.9377C145.001 61.6815 144.497 63.8503 143.557 65.3335C143.554 65.3407 143.546 65.3479 143.543 65.3551L143.628 65.3475ZM141.781 64.7042C141.781 64.7008 141.781 64.697 141.784 64.6936C142.781 62.7033 142.835 60.3556 141.941 58.0865C141.72 57.5363 141.48 57.1002 141.023 56.7572C140.941 56.7001 140.848 56.6502 140.755 56.6037C140.584 56.5179 140.409 56.432 140.316 56.2607C140.162 55.9892 140.187 55.5747 140.209 55.178C140.223 54.8993 140.237 54.6383 140.198 54.4239C140.03 53.5911 139.455 52.5444 138.543 52.0834C137.736 51.6761 136.743 51.5902 135.749 51.8406C135.703 51.8512 135.642 51.8728 135.556 51.9049L135.552 51.9155L135.51 51.9941C135.52 51.9869 135.531 51.9836 135.542 51.9798C135.646 51.9404 135.714 51.9188 135.764 51.9045C136.746 51.6579 137.722 51.74 138.515 52.1405C139.408 52.5943 139.969 53.6199 140.133 54.4379C140.173 54.6417 140.158 54.8989 140.144 55.1738C140.119 55.5811 140.097 56.0027 140.258 56.292C140.362 56.4777 140.547 56.5707 140.726 56.6638C140.819 56.7103 140.909 56.753 140.983 56.8101C141.434 57.1425 141.659 57.5532 141.88 58.1106C142.766 60.3581 142.713 62.6775 141.73 64.6496L141.781 64.7042Z" fill="#0F55BA"/>
<path d="M153.248 78.22C153.257 79.0861 153.213 79.9494 153.157 80.8113C153.104 81.6737 153.014 82.5326 152.916 83.3908C152.81 84.2476 152.691 85.1041 152.536 85.9542C152.382 86.8047 152.209 87.6527 151.98 88.488C152.009 88.0553 152.067 87.6282 152.1 87.1972L152.24 85.9119C152.326 85.0542 152.433 84.2003 152.531 83.3447C152.638 82.4899 152.738 81.6348 152.861 80.7813L153.04 79.5002C153.113 79.0735 153.17 78.6459 153.248 78.22Z" fill="#840606"/>
<path d="M135.908 83.6341C136.08 82.6986 136.365 81.8028 136.675 80.9163C136.997 80.0341 137.346 79.1616 137.807 78.3292C137.635 79.2652 137.352 80.161 137.04 81.047C136.718 81.9288 136.369 82.8013 135.908 83.6341Z" fill="#840606"/>
</svg>
