<svg width="142" height="141" viewBox="0 0 142 141" fill="none" xmlns="http://www.w3.org/2000/svg">
<path opacity="0.3" d="M121.163 89.1241C109.906 115.63 79.9198 130.479 53.9158 126.473C49.6844 125.821 38.084 123.88 27.8134 114.721C8.04189 97.0885 3.81358 62.1745 19.7627 37.5698C31.3709 19.6618 52.1797 9.51039 71.9521 10.0182C76.2111 10.1275 92.5332 10.8016 106.878 22.6297C108.985 24.367 113.632 28.4954 117.82 35.0447C127.654 50.4237 128.499 71.85 121.163 89.1241Z" fill="url(#paint0_linear_189_3406)"/>
<path d="M46.9396 124.653C46.9396 124.653 38.9558 133.455 32.288 129.735C26.9293 126.745 34.5426 127.526 41.0007 126.114C41.5075 126.003 41.3748 125.245 40.8605 125.314C35.8077 125.984 28.0978 126.531 26.7587 123.896C24.7372 119.919 26.6976 121.209 32.8502 121.784C39.0028 122.358 40.1883 120.839 36.1722 119.893C32.1561 118.946 25.7672 121.039 24.2789 119.093C22.7907 117.147 21.9772 113.284 21.3839 111.623C20.7907 109.961 29.0427 107.468 31.2736 109.649C33.5045 111.83 35.3161 116.698 37.9636 117.587C40.6111 118.476 37.7632 114.17 36.0073 111.947C34.2514 109.725 33.5553 108.073 37.0634 108.603C40.5714 109.133 42.4258 113.414 42.7956 116.61C43.1654 119.806 44.401 121.594 44.3451 120.013C44.2891 118.432 43.7154 113.583 42.5941 112.125C41.4729 110.667 49.477 112.446 46.9396 124.653Z" fill="url(#paint1_linear_189_3406)"/>
<path opacity="0.53" d="M46.2903 124.737C46.2552 124.75 46.2141 124.744 46.1838 124.718C39.3311 118.723 27.8376 114.365 27.7224 114.322C27.6681 114.301 27.6407 114.241 27.661 114.187C27.6813 114.133 27.7419 114.105 27.7962 114.125C27.9118 114.169 39.4403 118.539 46.3221 124.56C46.3656 124.598 46.37 124.664 46.3319 124.708C46.3202 124.721 46.3058 124.731 46.2903 124.737Z" fill="white"/>
<path d="M51.7602 130.275C51.7602 130.275 37.1799 130.756 34.7631 121.699C32.8208 114.421 38.6362 121.8 45.3986 126.287C45.9293 126.639 46.4838 125.875 45.9843 125.48C41.0771 121.597 34.0078 115.268 35.1865 111.837C36.9658 106.657 37.5034 109.487 42.2532 115.402C47.0029 121.317 49.3549 121.064 46.7582 116.715C44.1614 112.366 36.8583 108.522 37.3026 105.547C37.7468 102.573 40.4575 98.5552 41.4154 96.613C42.3733 94.6706 51.6206 99.8159 51.6037 103.646C51.5868 107.476 48.8428 113.232 50.321 116.325C51.7993 119.419 53.1626 113.229 53.6221 109.782C54.0815 106.335 54.9432 104.311 57.4727 107.856C60.0023 111.402 57.812 116.694 55.3104 119.751C52.8088 122.807 52.2885 125.423 53.6347 124.023C54.9808 122.623 58.7653 117.975 59.0926 115.741C59.4199 113.507 64.6895 122.083 51.7602 130.275Z" fill="url(#paint2_linear_189_3406)"/>
<path opacity="0.53" d="M51.131 129.773C51.0893 129.754 51.0593 129.713 51.0569 129.663C50.4879 118.5 44.5106 104.645 44.4502 104.506C44.4218 104.441 44.4517 104.365 44.517 104.337C44.582 104.309 44.658 104.338 44.6865 104.404C44.7471 104.543 50.7429 118.44 51.3142 129.65C51.3178 129.721 51.2632 129.782 51.1921 129.785C51.1702 129.787 51.1495 129.782 51.131 129.773Z" fill="white"/>
<path d="M116.955 85.9095L14.9798 83.1279C12.8354 83.0694 11.1274 81.3142 11.1274 79.169V36.8195C11.1274 34.68 12.878 32.9542 15.0172 32.9847L115.838 34.4196C118.663 34.4599 120.932 36.7613 120.932 39.5864V82.0398C120.932 84.2191 119.134 85.9689 116.955 85.9095Z" fill="url(#paint3_linear_189_3406)"/>
<path opacity="0.14" d="M114.527 83.2101L17.4204 80.6966C15.3784 80.6438 13.752 79.0576 13.752 77.1191V38.8501C13.752 36.9167 15.4189 35.3572 17.456 35.3848L113.463 36.6815C116.153 36.7178 118.314 38.7975 118.314 41.3504V79.7133C118.314 81.6826 116.602 83.2638 114.527 83.2101Z" fill="white"/>
<path d="M25.0933 82.9177L31.6276 94.5152C32.0697 95.2997 33.2308 95.195 33.5254 94.3441L37.4819 82.9177H25.0933Z" fill="url(#paint4_linear_189_3406)"/>
<path d="M65.0902 36.2479C65.0892 36.2479 65.0882 36.2479 65.0871 36.2479L52.8442 36.0826C52.7229 36.0808 52.6258 35.9811 52.6275 35.8598C52.6291 35.7395 52.7272 35.6431 52.8471 35.6431C52.8481 35.6431 52.8492 35.6431 52.8502 35.6431L65.0931 35.8085C65.2144 35.8102 65.3115 35.9099 65.3099 36.0312C65.3082 36.1516 65.2101 36.2479 65.0902 36.2479Z" fill="white"/>
<path d="M108.563 54.5209L23.682 52.6425C23.3905 52.636 23.1573 52.3922 23.1637 52.1007L23.2462 48.3712C23.2527 48.0797 23.4965 47.8465 23.788 47.8529L108.669 49.7314C108.961 49.7378 109.194 49.9816 109.187 50.2731L109.105 54.0026C109.098 54.2941 108.855 54.5274 108.563 54.5209Z" fill="white"/>
<path d="M108.21 70.4499L23.329 68.5714C23.0375 68.565 22.8042 68.3212 22.8107 68.0297L22.8932 64.3002C22.8996 64.0087 23.1434 63.7754 23.435 63.7819L108.316 65.6603C108.608 65.6668 108.841 65.9106 108.834 66.2021L108.752 69.9316C108.745 70.2231 108.502 70.4563 108.21 70.4499Z" fill="white"/>
<path d="M54.4735 61.455L23.338 60.7659C23.1364 60.7615 22.9751 60.5929 22.9796 60.3913L23.0694 56.3348C23.0738 56.1332 23.2424 55.9719 23.444 55.9764L54.5796 56.6655C54.7812 56.6699 54.9424 56.8385 54.938 57.0401L54.8482 61.0966C54.8437 61.2981 54.6751 61.4594 54.4735 61.455Z" fill="white"/>
<path d="M108.547 62.6518L58.1099 61.5356C57.9084 61.5311 57.7471 61.3625 57.7516 61.1609L57.8413 57.1045C57.8458 56.9029 58.0144 56.7416 58.216 56.7461L108.653 57.8623C108.854 57.8667 109.016 58.0353 109.011 58.2369L108.922 62.2934C108.917 62.4949 108.748 62.6562 108.547 62.6518Z" fill="white"/>
<path d="M44.8503 55.2265L127.966 54.6119C129.714 54.5989 131.134 53.1967 131.169 51.4493L131.854 16.9505C131.889 15.2077 130.491 13.7735 128.748 13.7636L46.594 13.3C44.2922 13.287 42.4067 15.125 42.3609 17.4264L41.6735 52.0098C41.6382 53.785 43.0747 55.2396 44.8503 55.2265Z" fill="url(#paint5_linear_189_3406)"/>
<path d="M101.423 54.2356L95.9118 63.5772C95.539 64.2091 94.5948 64.1051 94.3686 63.4072L91.3306 54.0349L101.423 54.2356Z" fill="url(#paint6_linear_189_3406)"/>
<path d="M68.2315 53.1584C68.1107 53.1584 68.0125 53.0608 68.0117 52.9399C68.011 52.8186 68.1088 52.7196 68.2302 52.7189L74.9292 52.6787C74.9296 52.6787 74.9301 52.6787 74.9305 52.6787C75.0513 52.6787 75.1495 52.7763 75.1502 52.8972C75.151 53.0185 75.0532 53.1175 74.9318 53.1182L68.2328 53.1584C68.2323 53.1584 68.2319 53.1584 68.2315 53.1584Z" fill="white"/>
<path d="M46.8521 53.2865C45.964 53.2867 45.1071 52.9335 44.498 52.3159C43.9178 51.7276 43.607 50.9593 43.6232 50.1525C43.6256 50.0313 43.7255 49.9335 43.8472 49.9372C43.9685 49.9397 44.0649 50.0399 44.0625 50.1614C44.0488 50.8485 44.3146 51.504 44.8109 52.0073C45.3418 52.5458 46.0877 52.8501 46.8696 52.8471L65.8687 52.7331C65.8691 52.7331 65.8696 52.7331 65.87 52.7331C65.9907 52.7331 66.089 52.8306 66.0897 52.9515C66.0905 53.0728 65.9926 53.1718 65.8713 53.1726L46.8722 53.2866C46.8656 53.2865 46.8588 53.2865 46.8521 53.2865Z" fill="white"/>
<path d="M43.9078 47.095C43.9063 47.095 43.9048 47.095 43.9033 47.095C43.782 47.0925 43.6856 46.9923 43.688 46.8708L43.8707 37.6848C43.8731 37.5636 43.9725 37.4723 44.0947 37.4695C44.216 37.4719 44.3124 37.5722 44.31 37.6937L44.1273 46.8797C44.125 46.9994 44.0271 47.095 43.9078 47.095Z" fill="white"/>
<path d="M97.8837 15.7155C97.8833 15.7155 97.8828 15.7155 97.8823 15.7155L87.9063 15.652C87.785 15.6513 87.6872 15.5523 87.688 15.4308C87.6888 15.31 87.787 15.2125 87.9077 15.2125C87.9082 15.2125 87.9087 15.2125 87.9092 15.2125L97.8852 15.276C98.0065 15.2767 98.1043 15.3758 98.1035 15.4972C98.1027 15.6181 98.0045 15.7155 97.8837 15.7155Z" fill="white"/>
<path d="M129.497 28.1422C129.495 28.1422 129.494 28.1422 129.492 28.1422C129.371 28.1398 129.275 28.0395 129.277 27.918L129.463 18.558C129.477 17.8839 129.218 17.2391 128.734 16.7424C128.217 16.2113 127.483 15.9041 126.72 15.8992L105.071 15.7613C104.95 15.7606 104.852 15.6615 104.853 15.5401C104.853 15.4192 104.952 15.3218 105.072 15.3218C105.073 15.3218 105.073 15.3218 105.074 15.3218L126.723 15.4597C127.602 15.4653 128.45 15.8211 129.049 16.4358C129.615 17.0173 129.918 17.7741 129.902 18.5668L129.716 27.9269C129.714 28.0466 129.616 28.1422 129.497 28.1422Z" fill="white"/>
<path d="M120.3 27.7382H52.4115C52.1097 27.7382 51.8628 27.4913 51.8628 27.1895V23.3287C51.8628 23.0269 52.1097 22.78 52.4115 22.78H120.3C120.602 22.78 120.849 23.0269 120.849 23.3287V27.1895C120.849 27.4913 120.602 27.7382 120.3 27.7382Z" fill="white"/>
<path d="M120.3 44.228H52.4115C52.1097 44.228 51.8628 43.9811 51.8628 43.6794V39.8186C51.8628 39.5168 52.1097 39.2699 52.4115 39.2699H120.3C120.602 39.2699 120.849 39.5168 120.849 39.8186V43.6794C120.849 43.9811 120.602 44.228 120.3 44.228Z" fill="white"/>
<path d="M84.4739 36.1514H52.2422C52.0335 36.1514 51.8628 35.9806 51.8628 35.772V31.5727C51.8628 31.364 52.0335 31.1932 52.2422 31.1932H84.4739C84.6826 31.1932 84.8533 31.364 84.8533 31.5727V35.772C84.8533 35.9806 84.6826 36.1514 84.4739 36.1514Z" fill="white"/>
<path d="M120.469 36.1514H88.2373C88.0287 36.1514 87.8579 35.9806 87.8579 35.772V31.5727C87.8579 31.364 88.0287 31.1932 88.2373 31.1932H120.469C120.678 31.1932 120.848 31.364 120.848 31.5727V35.772C120.848 35.9806 120.678 36.1514 120.469 36.1514Z" fill="white"/>
<path d="M125.121 87.0542C125.863 87.8467 126.956 88.5316 127.726 88.9587C126.577 90.3788 125.022 91.801 122.964 93.193L122.375 94.5148L120.488 92.2529C120.488 92.2529 123.874 90.5677 125.121 87.0542Z" fill="url(#paint7_linear_189_3406)"/>
<path d="M115.021 129.955C115.02 129.914 115.023 129.873 115.033 129.832C115.644 127.409 118.678 125.899 118.678 125.899L119.88 125.993C120.572 128.129 120.483 129.439 120.372 130.023C120.369 130.039 120.364 130.055 120.359 130.071C119.368 130.159 117.327 130.217 115.021 129.955Z" fill="url(#paint8_linear_189_3406)"/>
<path d="M120.359 130.071C120.306 130.265 120.162 130.417 119.978 130.456C118.567 130.753 116.325 130.514 115.383 130.391C115.176 130.364 115.024 130.171 115.021 129.955C117.326 130.217 119.368 130.159 120.359 130.071Z" fill="url(#paint9_linear_189_3406)"/>
<path d="M120.364 124.203L119.855 126.654C119.817 126.833 119.679 126.968 119.512 126.984C119.307 127.003 119.016 127.014 118.723 126.971C118.46 126.932 118.278 126.666 118.324 126.379L118.678 124.203L120.364 124.203Z" fill="url(#paint10_linear_189_3406)"/>
<path d="M109.814 130.046C111.142 130.009 111.829 129.852 112.184 129.707C112.184 129.839 112.184 129.974 112.179 130.113C112.175 130.262 112.065 130.38 111.929 130.379L104.639 130.332C104.406 130.331 104.27 130.061 104.371 129.848C105.327 129.927 107.762 130.103 109.814 130.046Z" fill="url(#paint11_linear_189_3406)"/>
<path d="M104.371 129.848C104.38 129.829 104.387 129.81 104.4 129.793C105.044 128.893 106.684 127.102 109.924 126.325L111.478 126.276C111.478 126.276 112.171 127.479 112.184 129.707C111.829 129.853 111.142 130.009 109.814 130.046C107.762 130.104 105.327 129.927 104.371 129.848Z" fill="url(#paint12_linear_189_3406)"/>
<path d="M111.766 123.92C111.749 124.036 111.536 125.797 111.453 126.48C111.434 126.642 111.316 126.767 111.168 126.785C110.903 126.817 110.475 126.846 110.1 126.769C109.898 126.727 109.752 126.533 109.752 126.307V123.543L111.766 123.92Z" fill="url(#paint13_linear_189_3406)"/>
<path d="M113.013 91.7817C113.013 91.7817 109.264 106.03 109.332 123.961C109.333 124.288 109.563 124.57 109.883 124.637C110.354 124.736 111.047 124.854 111.621 124.838C111.927 124.83 112.183 124.603 112.234 124.301C112.76 121.218 115.777 103.85 117.496 101.03C117.496 101.03 118.627 116.499 118.265 124.524C118.256 124.723 118.403 124.896 118.601 124.919C118.902 124.954 119.383 124.981 119.996 124.916C120.229 124.891 120.417 124.715 120.45 124.484C120.824 121.874 122.98 106.344 122.888 95.1559C122.883 94.5249 121.219 91.7818 121.219 91.7818L113.013 91.7817Z" fill="url(#paint14_linear_189_3406)"/>
<path d="M107.799 74.5375C108.408 73.7748 108.941 72.9572 109.387 72.1148C110.01 70.9381 109.437 72.8764 109.607 71.5478C114.271 68.1823 121.293 69.8858 124.01 70.228C124.901 70.3402 125.715 70.7793 126.302 71.4586C128.63 74.1523 133.738 81.5274 127.726 88.9588C126.956 88.5318 125.863 87.8469 125.12 87.0544C125.786 85.1794 125.84 82.7832 124.446 79.845C124.398 80.0779 124.34 80.3085 124.268 80.5354C122.347 86.622 122.244 91.6872 122.248 92.8546C122.249 93.0131 122.154 93.1558 122.007 93.2148C119.478 94.228 114.611 93.625 112.977 93.3815C112.677 93.3368 112.476 93.0579 112.517 92.7578C113.319 86.9482 109.203 77.3909 108.116 74.9971C108.038 74.825 107.93 74.67 107.799 74.5375Z" fill="url(#paint15_linear_189_3406)"/>
<path d="M119.639 65.3359L120.127 70.3149C120.127 70.3149 117.326 71.1585 115.289 69.7211L116.721 65.1959L119.639 65.3359Z" fill="url(#paint16_linear_189_3406)"/>
<path d="M116.39 59.661C116.322 59.7245 113.544 65.1792 113.544 65.1792L116.693 66.699L120.093 61.9202C120.093 61.9202 117.518 58.5986 116.39 59.661Z" fill="url(#paint17_linear_189_3406)"/>
<path d="M118.701 62.0525C118.757 62.1978 118.743 62.36 118.663 62.4935L117.093 65.111C117.069 65.1507 117.04 65.1866 117.006 65.2182C116.82 65.3921 116.18 65.8982 115.686 65.2092C115.264 64.622 114.869 64.0882 114.445 63.868C114.198 63.7394 113.893 63.8421 113.768 64.091C113.509 64.6038 113.008 65.649 112.693 66.64C112.614 66.8885 112.742 67.1551 112.984 67.253C113.622 67.5113 114.881 67.9784 116 68.1327C116.183 68.1581 116.365 68.0806 116.474 67.9308C116.955 67.2719 118.311 65.4304 118.774 64.9694C119.204 64.5412 119.997 64.7026 120.355 64.8054C120.49 64.8444 120.635 64.8256 120.756 64.7527C121.118 64.5343 121.751 63.9902 121.172 63.0691C121.028 62.8401 121.102 62.535 121.328 62.3864C121.733 62.12 122.172 61.62 121.753 60.8102C121.33 59.9905 120.573 59.9169 120.057 59.9799C119.829 60.0078 119.598 59.8882 119.51 59.6757C119.471 59.5812 119.394 59.5006 119.251 59.4716C118.981 59.4168 118.804 59.1697 118.857 58.8992C118.948 58.4353 118.879 57.8327 118.138 57.4255C116.78 56.6786 115.59 57.8956 115.288 58.9228C114.985 59.9501 116.504 60.6761 117.459 60.7973C118.161 60.8863 118.546 61.6522 118.701 62.0525Z" fill="url(#paint18_linear_189_3406)"/>
<path d="M118.184 65.9305C118.184 65.9305 118.788 64.1632 119.561 64.2281C120.334 64.293 120.943 65.0632 119.985 65.929C118.793 67.0061 118.184 65.9305 118.184 65.9305Z" fill="url(#paint19_linear_189_3406)"/>
<path d="M124.701 79.3899C125.72 76.6008 125.35 73.2329 125.346 73.1992L125.065 73.2313C125.069 73.2644 125.431 76.5677 124.435 79.2928L124.701 79.3899Z" fill="url(#paint20_linear_189_3406)"/>
<path d="M117.633 100.667C117.696 100.667 117.753 100.625 117.77 100.561C118.081 99.362 120.409 98.0442 120.432 98.031C120.501 97.9929 120.525 97.9067 120.487 97.8386C120.448 97.7706 120.363 97.7462 120.294 97.7845C120.194 97.8406 117.837 99.1747 117.496 100.49C117.477 100.566 117.522 100.643 117.598 100.663C117.609 100.666 117.622 100.667 117.633 100.667Z" fill="url(#paint21_linear_189_3406)"/>
<path d="M98.3322 76.1035C103.607 76.8949 107.045 73.5668 109.607 71.5479C112.989 68.8824 115.621 70.1792 115.621 70.1792L112.014 77.0631C106.627 82.1419 101.104 81.0141 97.6225 79.3683C97.569 78.0386 97.9243 76.9258 98.3322 76.1035Z" fill="url(#paint22_linear_189_3406)"/>
<path d="M90.9192 72.9563L92.6684 73.8976C94.7662 75.1748 96.6434 75.8497 98.3327 76.1032C97.9249 76.9256 97.5695 78.0383 97.6231 79.3679C95.4067 78.3203 94.0171 77.0628 94.0171 77.0628C90.0546 74.7 90.9192 72.9563 90.9192 72.9563Z" fill="url(#paint23_linear_189_3406)"/>
<path d="M85.7657 75.4214C85.8786 75.046 86.1562 74.7423 86.5199 74.596L90.0699 73.1684C90.0699 73.1684 90.1234 72.7131 89.3198 72.4038C88.5161 72.0944 88.704 71.1943 88.704 71.1943C88.704 71.1943 89.8019 71.6952 91.4094 72.4895C92.3286 72.9438 92.8443 73.7459 93.1179 74.3497L92.204 75.5515C90.0161 76.2088 87.8021 76.3345 85.5693 76.0738L85.7657 75.4214Z" fill="url(#paint24_linear_189_3406)"/>
<path d="M70.3999 74.4973L72.6033 81.4851C72.6033 81.4851 75.1603 83.3693 78.4209 81.5709C78.9219 81.2964 79.44 80.9358 79.9652 80.4657C83.9224 76.9341 81.2969 71.7962 81.2969 71.7962C81.2969 71.7962 84.3171 70.5777 82.9752 68.0139C82.8826 67.8389 82.6252 67.8664 82.5702 68.0585C82.3747 68.7656 81.8975 70.0011 80.8987 70.4405C80.8473 70.461 80.7992 70.4851 80.7547 70.5056C80.71 70.3719 80.71 70.214 80.8164 70.0456C81.1288 69.572 80.5659 68.9234 80.5659 68.9234C80.5659 68.9234 80.5282 69.4966 80.0956 69.8536C79.7216 70.1658 79.5431 70.8523 79.797 71.4186C80.3393 73.5191 81.1492 76.2956 77.9951 78.3275C77.6725 78.5333 77.3362 78.6604 76.993 78.7153C73.9797 79.2198 70.3999 74.4973 70.3999 74.4973Z" fill="url(#paint25_linear_189_3406)"/>
<path d="M70.3999 74.4973L72.6033 81.4851C72.6033 81.4851 75.1603 83.3693 78.4209 81.5709L76.993 78.7154C73.9797 79.2199 70.3999 74.4973 70.3999 74.4973Z" fill="url(#paint26_linear_189_3406)"/>
<path d="M69.739 65.9272C69.739 65.9272 70.9865 61.5819 66.3184 62.7769C66.3184 62.7769 64.0314 62.4582 63.9661 64.6114C63.9661 64.6114 62.9776 66.1013 62.9359 67.937C62.9359 67.937 58.4415 69.0988 57.7324 70.8996C57.0066 72.7429 57.4093 75.6707 59.2546 76.1758C59.2546 76.1758 57.7876 76.9562 58.5298 78.6228C59.2722 80.2894 62.8589 81.3922 64.913 79.2959C64.913 79.2959 70.9135 79.9457 70.6944 75.7232C70.6944 75.7232 73.4344 73.8611 70.43 70.4379C67.4257 67.0148 69.739 65.9272 69.739 65.9272Z" fill="url(#paint27_linear_189_3406)"/>
<path d="M70.1044 73.7284C69.161 73.4456 66.4141 72.9233 63.8013 75.3345C63.3581 75.7435 63.177 76.3648 63.3351 76.9467C64.0369 79.5304 65.8885 87.1636 64.2649 90.4664C64.2649 90.4664 67.126 93.6203 70.2473 91.0783C70.2473 91.0783 71.6477 84.9747 73.4819 82.2952C74.7484 80.4454 71.4626 75.3486 70.6313 74.1173C70.5054 73.9309 70.3199 73.7929 70.1044 73.7284Z" fill="url(#paint28_linear_189_3406)"/>
<path d="M67.4997 68.5955C67.4997 68.5955 66.1045 72.542 65.9995 74.283C65.9995 74.283 67.5415 74.9843 68.9946 73.8007C68.9946 73.8007 69.147 69.8588 69.3673 69.1529L67.4997 68.5955Z" fill="url(#paint29_linear_189_3406)"/>
<path d="M69.7369 64.6969C69.7369 64.6969 73.5053 69.7168 71.3593 71.251C69.2134 72.7854 66.5308 69.2181 66.5308 69.2181C66.5308 69.2181 65.6186 66.4435 66.4815 65.4747C67.3444 64.5058 69.7369 64.6969 69.7369 64.6969Z" fill="url(#paint30_linear_189_3406)"/>
<path d="M68.0196 63.5165C68.0196 63.5165 69.705 63.8742 69.9577 64.627C70.2104 65.3798 67.6153 66.1445 66.8843 66.1961L66.3667 69.2701C66.3667 69.2701 64.556 66.4324 65.2073 64.7536C65.8586 63.0747 68.0196 63.5165 68.0196 63.5165Z" fill="url(#paint31_linear_189_3406)"/>
<path d="M67.2295 68.826C67.2295 68.826 65.7707 67.2148 65.2312 68.3002C64.6915 69.3856 66.5535 70.1472 67.1791 69.6058L67.2295 68.826Z" fill="url(#paint32_linear_189_3406)"/>
<path d="M73.8907 103.894C73.88 104.171 74.3665 106.369 74.6313 107.541C74.7379 108.013 74.6636 108.506 74.4234 108.926L65.2541 124.358C65.1432 124.545 65.0624 124.747 65.0133 124.959C64.8453 125.683 64.4967 127.458 64.6787 129.072L65.1531 130.058L63.1016 129.592L62.6553 124.083L63.236 123.729C63.7377 123.423 64.1285 122.965 64.3521 122.422C65.1812 120.408 67.2402 115.281 67.7709 112.783C68.3741 109.943 71.5273 107.637 71.5273 107.637L70.9733 106.327L73.8907 103.894Z" fill="url(#paint33_linear_189_3406)"/>
<path d="M60.8218 127.696C60.8218 127.696 61.9296 125.94 62.06 125.256C62.1903 124.572 62.5531 123.365 63.2361 123.728C63.2361 123.728 63.558 127.05 63.447 128.347C63.336 129.645 64.914 129.603 64.914 129.603C64.914 129.603 65.3489 129.664 65.6674 129.983C65.8873 130.203 65.73 130.584 65.4197 130.604C64.9034 130.637 64.0832 130.646 63.2219 130.48C62.921 130.421 62.6978 130.165 62.6796 129.859L62.4523 126.037L61.0548 127.801L60.8218 127.696Z" fill="url(#paint34_linear_189_3406)"/>
<path d="M68.4139 106.352C68.4139 106.352 68.0905 120.156 68.0467 122.116C68.003 124.077 68.3563 128.422 70.3217 129.72L69.4665 130.354C69.4665 130.354 68.3977 129.445 67.3535 127.697C66.1806 125.733 65.8259 125.374 65.8259 125.374L66.2151 124.577C66.3855 124.228 66.4356 123.833 66.3571 123.453C65.933 121.397 64.5161 114.56 64.1296 113.088C63.6734 111.35 63.6409 109.028 65.2282 107.086C66.8155 105.143 68.4139 106.352 68.4139 106.352Z" fill="url(#paint35_linear_189_3406)"/>
<path d="M66.5992 130.976C66.5382 130.976 66.4864 130.933 66.4778 130.872C66.4123 130.412 66.1401 128.567 65.9173 128.089C65.662 127.542 64.8284 125.239 65.9177 125.044C65.9177 125.044 68.626 129.001 69.1458 129.534C69.6657 130.068 70.3219 129.721 70.3219 129.721C70.3219 129.721 70.8284 129.87 71.2104 130.358C71.3922 130.591 71.2229 130.932 70.9278 130.935L69.1036 130.952C68.5739 130.957 68.0974 130.635 67.9004 130.143C67.5793 129.341 67.0277 128.165 66.3849 127.643L66.719 130.842C66.7264 130.913 66.6709 130.975 66.5992 130.976Z" fill="url(#paint36_linear_189_3406)"/>
<path d="M70.6787 89.5902C70.6787 89.5902 70.2677 90.9004 70.8992 93.0585L74.8167 106.739C74.8782 106.954 74.7623 107.179 74.5518 107.254C73.3801 107.675 69.5279 108.864 64.2694 108.501C64.0046 108.483 63.7826 108.295 63.7251 108.036C63.3786 106.477 62.1964 101.155 61.953 100.062C61.0256 95.896 59.99 91.4032 64.5458 88.6865C66.6453 89.5858 68.6035 90.1159 70.6787 89.5902Z" fill="url(#paint37_linear_189_3406)"/>
<path d="M58.0152 84.301C58.0152 84.301 57.9852 84.303 57.9852 84.2994C58.4788 83.9118 61.0996 83.8976 61.0996 83.8976C61.0996 83.8976 63.003 81.1414 63.648 80.4577C63.669 80.4365 63.6904 80.4155 63.7079 80.3978C63.722 80.3837 63.7361 80.3696 63.7571 80.3519C63.9932 80.1335 64.2436 79.9149 64.5151 79.6894C64.8144 79.4391 65.0542 79.1184 65.1988 78.7554C66.2068 76.2177 65.4103 74.5578 63.5775 75.6221C63.5775 75.6221 59.7039 78.84 58.1992 83.4006C58.1816 83.4571 58.1675 83.5099 58.1496 83.5628C58.0897 83.7743 58.0298 83.9752 57.9772 84.162C57.9734 84.1761 57.9887 84.1962 57.9852 84.2102C57.9746 84.2419 58.0258 84.2693 58.0152 84.301Z" fill="url(#paint38_linear_189_3406)"/>
<path d="M67.5945 85.9572C67.5945 85.9572 63.0927 88.5013 61.5738 86.3289C61.2584 85.8778 61.0215 84.3248 61.0991 83.8973C59.7498 83.216 58.7343 84.2174 57.9767 84.1617C57.7779 85.203 57.6814 86.2167 58.2933 87.3361C60.954 92.2032 68.1903 87.0671 68.1903 87.0671L67.5945 85.9572Z" fill="url(#paint39_linear_189_3406)"/>
<path d="M67.0538 89.1759L69.5107 80.5959C69.5386 80.4986 69.6217 80.4275 69.7223 80.4158C70.1675 80.3639 71.4573 80.218 72.9466 80.0921C74.7405 79.9403 76.8237 79.8174 78.0686 79.922C78.2456 79.9368 78.3524 80.1241 78.2738 80.2833C77.5659 81.7154 74.654 87.5412 73.1958 89.4497C73.1475 89.5129 73.0728 89.5498 72.9932 89.5491L67.2928 89.4961C67.1269 89.4945 67.0082 89.3354 67.0538 89.1759Z" fill="url(#paint40_linear_189_3406)"/>
<path d="M73.2014 79.3484L74.9827 79.0516C75.0775 79.0358 75.1553 79.1264 75.1251 79.2178L74.9488 79.7521C74.9334 79.7986 74.8929 79.8323 74.8443 79.8388L73.1302 80.0678C73.0415 80.0796 72.9684 79.999 72.9888 79.9119L73.0979 79.4454C73.1096 79.3951 73.1505 79.3569 73.2014 79.3484Z" fill="url(#paint41_linear_189_3406)"/>
<path d="M71.8675 80.8563L72.0143 80.092C72.0289 80.0153 72.0922 79.9574 72.1699 79.9495L75.7677 79.5844C75.8888 79.5722 75.9858 79.6831 75.9573 79.8014L75.7285 80.7539C75.7103 80.8301 75.6439 80.8851 75.5657 80.889L72.0499 81.066C71.9355 81.0719 71.8459 80.9689 71.8675 80.8563Z" fill="url(#paint42_linear_189_3406)"/>
<path d="M67.6476 87.1034C67.6476 87.1034 67.3054 85.696 67.4435 85.1968C67.5815 84.6974 67.849 84.0555 68.7405 84.1982C69.6321 84.3408 70.6839 84.7164 70.6839 84.7164C70.6839 84.7164 70.6307 85.3667 69.9531 85.1569L70.3733 85.482C70.3733 85.482 70.3132 86.0028 69.7409 85.7246L70.1317 86.1558C70.1317 86.1558 69.8859 86.5834 69.4648 86.3092C69.0437 86.0349 68.8418 87.2728 67.6476 87.1034Z" fill="url(#paint43_linear_189_3406)"/>
<defs>
<linearGradient id="paint0_linear_189_3406" x1="135.966" y1="128.705" x2="48.8642" y2="52.4916" gradientUnits="userSpaceOnUse">
<stop stop-color="#B37CFF"/>
<stop offset="1" stop-color="#F895E7"/>
</linearGradient>
<linearGradient id="paint1_linear_189_3406" x1="31.9724" y1="70.2308" x2="36.0742" y2="146.993" gradientUnits="userSpaceOnUse">
<stop stop-color="#233894"/>
<stop offset="0.9964" stop-color="#DD397A"/>
</linearGradient>
<linearGradient id="paint2_linear_189_3406" x1="32.228" y1="38.5622" x2="54.4949" y2="156.342" gradientUnits="userSpaceOnUse">
<stop stop-color="#A737D5"/>
<stop offset="1" stop-color="#EF497A"/>
</linearGradient>
<linearGradient id="paint3_linear_189_3406" x1="23.7345" y1="95.5774" x2="142.462" y2="-5.87067" gradientUnits="userSpaceOnUse">
<stop stop-color="#53D8FF"/>
<stop offset="1" stop-color="#3840F7"/>
</linearGradient>
<linearGradient id="paint4_linear_189_3406" x1="22.7036" y1="94.3715" x2="141.432" y2="-7.07723" gradientUnits="userSpaceOnUse">
<stop stop-color="#53D8FF"/>
<stop offset="1" stop-color="#3840F7"/>
</linearGradient>
<linearGradient id="paint5_linear_189_3406" x1="53.6265" y1="61.2965" x2="155.581" y2="-22.026" gradientUnits="userSpaceOnUse">
<stop stop-color="#FDF53F"/>
<stop offset="1" stop-color="#D93C65"/>
</linearGradient>
<linearGradient id="paint6_linear_189_3406" x1="68.4398" y1="79.4206" x2="170.393" y2="-3.90025" gradientUnits="userSpaceOnUse">
<stop stop-color="#FDF53F"/>
<stop offset="1" stop-color="#D93C65"/>
</linearGradient>
<linearGradient id="paint7_linear_189_3406" x1="127.726" y1="90.7845" x2="120.488" y2="90.7845" gradientUnits="userSpaceOnUse">
<stop stop-color="#F9B776"/>
<stop offset="1" stop-color="#F47960"/>
</linearGradient>
<linearGradient id="paint8_linear_189_3406" x1="117.88" y1="113.473" x2="117.699" y2="133.44" gradientUnits="userSpaceOnUse">
<stop stop-color="#CB236D"/>
<stop offset="1" stop-color="#4C246D"/>
</linearGradient>
<linearGradient id="paint9_linear_189_3406" x1="106.861" y1="121.619" x2="126.606" y2="137.123" gradientUnits="userSpaceOnUse">
<stop stop-color="#2B3582"/>
<stop offset="1" stop-color="#150E42"/>
</linearGradient>
<linearGradient id="paint10_linear_189_3406" x1="118.938" y1="121.843" x2="119.975" y2="130.891" gradientUnits="userSpaceOnUse">
<stop stop-color="#F9B776"/>
<stop offset="1" stop-color="#F47960"/>
</linearGradient>
<linearGradient id="paint11_linear_189_3406" x1="103.353" y1="126.087" x2="123.098" y2="141.59" gradientUnits="userSpaceOnUse">
<stop stop-color="#2B3582"/>
<stop offset="1" stop-color="#150E42"/>
</linearGradient>
<linearGradient id="paint12_linear_189_3406" x1="108.426" y1="113.387" x2="108.245" y2="133.354" gradientUnits="userSpaceOnUse">
<stop stop-color="#CB236D"/>
<stop offset="1" stop-color="#4C246D"/>
</linearGradient>
<linearGradient id="paint13_linear_189_3406" x1="110.494" y1="122.811" x2="111.53" y2="131.859" gradientUnits="userSpaceOnUse">
<stop stop-color="#F9B776"/>
<stop offset="1" stop-color="#F47960"/>
</linearGradient>
<linearGradient id="paint14_linear_189_3406" x1="106.816" y1="119.213" x2="139.601" y2="82.7854" gradientUnits="userSpaceOnUse">
<stop stop-color="#2B3582"/>
<stop offset="1" stop-color="#150E42"/>
</linearGradient>
<linearGradient id="paint15_linear_189_3406" x1="312.6" y1="-77.1419" x2="354.491" y2="-111.141" gradientUnits="userSpaceOnUse">
<stop stop-color="#A737D5"/>
<stop offset="1" stop-color="#EF497A"/>
</linearGradient>
<linearGradient id="paint16_linear_189_3406" x1="116.648" y1="64.0038" x2="120.607" y2="81.1097" gradientUnits="userSpaceOnUse">
<stop stop-color="#F9B776"/>
<stop offset="1" stop-color="#F47960"/>
</linearGradient>
<linearGradient id="paint17_linear_189_3406" x1="117.304" y1="60.6923" x2="115.353" y2="72.1731" gradientUnits="userSpaceOnUse">
<stop stop-color="#F9B776"/>
<stop offset="1" stop-color="#F47960"/>
</linearGradient>
<linearGradient id="paint18_linear_189_3406" x1="119.356" y1="66.1265" x2="113.607" y2="60.0187" gradientUnits="userSpaceOnUse">
<stop stop-color="#2B3582"/>
<stop offset="1" stop-color="#150E42"/>
</linearGradient>
<linearGradient id="paint19_linear_189_3406" x1="118.997" y1="73.2236" x2="119.344" y2="65.1615" gradientUnits="userSpaceOnUse">
<stop stop-color="#F9B776"/>
<stop offset="1" stop-color="#F47960"/>
</linearGradient>
<linearGradient id="paint20_linear_189_3406" x1="152.535" y1="46.5844" x2="116.108" y2="85.744" gradientUnits="userSpaceOnUse">
<stop stop-color="#A737D5"/>
<stop offset="1" stop-color="#EF497A"/>
</linearGradient>
<linearGradient id="paint21_linear_189_3406" x1="118.907" y1="98.9358" x2="107.524" y2="63.7226" gradientUnits="userSpaceOnUse">
<stop stop-color="#2B3582"/>
<stop offset="1" stop-color="#150E42"/>
</linearGradient>
<linearGradient id="paint22_linear_189_3406" x1="305.46" y1="-85.9383" x2="347.352" y2="-119.937" gradientUnits="userSpaceOnUse">
<stop stop-color="#A737D5"/>
<stop offset="1" stop-color="#EF497A"/>
</linearGradient>
<linearGradient id="paint23_linear_189_3406" x1="85.56" y1="63.5857" x2="109.783" y2="94.577" gradientUnits="userSpaceOnUse">
<stop stop-color="#F9B776"/>
<stop offset="1" stop-color="#F47960"/>
</linearGradient>
<linearGradient id="paint24_linear_189_3406" x1="82.3178" y1="66.1197" x2="106.541" y2="97.1109" gradientUnits="userSpaceOnUse">
<stop stop-color="#F9B776"/>
<stop offset="1" stop-color="#F47960"/>
</linearGradient>
<linearGradient id="paint25_linear_189_3406" x1="72.7954" y1="68.6066" x2="81.6962" y2="79.5489" gradientUnits="userSpaceOnUse">
<stop stop-color="#F9B776"/>
<stop offset="1" stop-color="#F47960"/>
</linearGradient>
<linearGradient id="paint26_linear_189_3406" x1="119.633" y1="90.4638" x2="9.02397" y2="62.1304" gradientUnits="userSpaceOnUse">
<stop stop-color="#53D8FF"/>
<stop offset="1" stop-color="#3840F7"/>
</linearGradient>
<linearGradient id="paint27_linear_189_3406" x1="-4658.67" y1="663.145" x2="-4608.07" y2="656.806" gradientUnits="userSpaceOnUse">
<stop stop-color="#2B3582"/>
<stop offset="1" stop-color="#150E42"/>
</linearGradient>
<linearGradient id="paint28_linear_189_3406" x1="67.7071" y1="82.0774" x2="87.1351" y2="51.4175" gradientUnits="userSpaceOnUse">
<stop stop-color="#FDF53F"/>
<stop offset="1" stop-color="#D93C65"/>
</linearGradient>
<linearGradient id="paint29_linear_189_3406" x1="69.7192" y1="76.2393" x2="67.4963" y2="71.3024" gradientUnits="userSpaceOnUse">
<stop stop-color="#F9B776"/>
<stop offset="1" stop-color="#F47960"/>
</linearGradient>
<linearGradient id="paint30_linear_189_3406" x1="70.1569" y1="65.7145" x2="65.8763" y2="75.585" gradientUnits="userSpaceOnUse">
<stop stop-color="#F9B776"/>
<stop offset="1" stop-color="#F47960"/>
</linearGradient>
<linearGradient id="paint31_linear_189_3406" x1="54.772" y1="58.3505" x2="66.933" y2="66.052" gradientUnits="userSpaceOnUse">
<stop stop-color="#2B3582"/>
<stop offset="1" stop-color="#150E42"/>
</linearGradient>
<linearGradient id="paint32_linear_189_3406" x1="68.0122" y1="64.7845" x2="63.7317" y2="74.6547" gradientUnits="userSpaceOnUse">
<stop stop-color="#F9B776"/>
<stop offset="1" stop-color="#F47960"/>
</linearGradient>
<linearGradient id="paint33_linear_189_3406" x1="57.2446" y1="137.72" x2="73.8068" y2="107.825" gradientUnits="userSpaceOnUse">
<stop stop-color="#F9B776"/>
<stop offset="1" stop-color="#F47960"/>
</linearGradient>
<linearGradient id="paint34_linear_189_3406" x1="177.912" y1="-77.8181" x2="174.162" y2="-71.0613" gradientUnits="userSpaceOnUse">
<stop stop-color="#2B3582"/>
<stop offset="1" stop-color="#150E42"/>
</linearGradient>
<linearGradient id="paint35_linear_189_3406" x1="76.1256" y1="115.542" x2="51.0104" y2="123.837" gradientUnits="userSpaceOnUse">
<stop stop-color="#F9B776"/>
<stop offset="1" stop-color="#F47960"/>
</linearGradient>
<linearGradient id="paint36_linear_189_3406" x1="65.3911" y1="128.018" x2="71.2607" y2="127.962" gradientUnits="userSpaceOnUse">
<stop stop-color="#2B3582"/>
<stop offset="1" stop-color="#150E42"/>
</linearGradient>
<linearGradient id="paint37_linear_189_3406" x1="65.0982" y1="108.799" x2="71.434" y2="89.8426" gradientUnits="userSpaceOnUse">
<stop stop-color="#CB236D"/>
<stop offset="1" stop-color="#4C246D"/>
</linearGradient>
<linearGradient id="paint38_linear_189_3406" x1="62.8003" y1="78.9678" x2="82.2282" y2="48.308" gradientUnits="userSpaceOnUse">
<stop stop-color="#FDF53F"/>
<stop offset="1" stop-color="#D93C65"/>
</linearGradient>
<linearGradient id="paint39_linear_189_3406" x1="57.8252" y1="86.5453" x2="68.1902" y2="86.5453" gradientUnits="userSpaceOnUse">
<stop stop-color="#F9B776"/>
<stop offset="1" stop-color="#F47960"/>
</linearGradient>
<linearGradient id="paint40_linear_189_3406" x1="83.0936" y1="65.1511" x2="58.8086" y2="106.436" gradientUnits="userSpaceOnUse">
<stop stop-color="#2B3582"/>
<stop offset="1" stop-color="#150E42"/>
</linearGradient>
<linearGradient id="paint41_linear_189_3406" x1="74.9861" y1="75.486" x2="73.7557" y2="80.8889" gradientUnits="userSpaceOnUse">
<stop stop-color="#7C27DD"/>
<stop offset="1" stop-color="#2B41D9"/>
</linearGradient>
<linearGradient id="paint42_linear_189_3406" x1="74.3421" y1="77.7523" x2="73.7536" y2="81.2829" gradientUnits="userSpaceOnUse">
<stop stop-color="#7C27DD"/>
<stop offset="1" stop-color="#2B41D9"/>
</linearGradient>
<linearGradient id="paint43_linear_189_3406" x1="67.4106" y1="85.6487" x2="70.6838" y2="85.6487" gradientUnits="userSpaceOnUse">
<stop stop-color="#F9B776"/>
<stop offset="1" stop-color="#F47960"/>
</linearGradient>
</defs>
</svg>
